<?xml version="1.0" encoding="UTF-8" standalone="no"?>
<!DOCTYPE svg PUBLIC "-//W3C//DTD SVG 1.1//EN"
 "http://www.w3.org/Graphics/SVG/1.1/DTD/svg11.dtd">
<!-- Generated by graphviz version 15.0.0 (20260523.1842)
 -->
<!-- Title: combined Pages: 1 -->
<svg width="370pt" height="392pt"
 viewBox="0.00 0.00 370.00 392.00" xmlns="http://www.w3.org/2000/svg" xmlns:xlink="http://www.w3.org/1999/xlink">
<g id="graph0" class="graph" transform="scale(1 1) rotate(0) translate(4 388.23)">
<title>combined</title>
<polygon fill="white" stroke="none" points="-4,4 -4,-388.23 366.38,-388.23 366.38,4 -4,4"/>
<text xml:space="preserve" text-anchor="start" x="115.19" y="-362.23" font-family="Helvetica,sans-Serif" font-weight="bold" font-size="20.00">pool&#45;mutation</text>
<!-- rand -->
<g id="node1" class="node">
<title>rand</title>
<path fill="#e4ecf5" stroke="black" stroke-width="0" d="M214.88,-355.23C214.88,-355.23 119.62,-355.23 119.62,-355.23 113.62,-355.23 107.62,-349.23 107.62,-343.23 107.62,-343.23 107.62,-321.19 107.62,-321.19 107.62,-315.19 113.62,-309.19 119.62,-309.19 119.62,-309.19 214.88,-309.19 214.88,-309.19 220.88,-309.19 226.88,-315.19 226.88,-321.19 226.88,-321.19 226.88,-343.23 226.88,-343.23 226.88,-349.23 220.88,-355.23 214.88,-355.23"/>
<text xml:space="preserve" text-anchor="start" x="144.75" y="-332.36" font-family="Helvetica,sans-Serif" font-size="13.00">random</text>
<text xml:space="preserve" text-anchor="start" x="125.62" y="-322.21" font-family="Helvetica,sans-Serif" font-size="10.00" fill="#5b6b7b">a fresh typed value</text>
</g>
<!-- pick -->
<g id="node4" class="node">
<title>pick</title>
<ellipse fill="#eef1f4" stroke="black" stroke-width="0" cx="167.25" cy="-219.39" rx="62.05" ry="32.56"/>
<text xml:space="preserve" text-anchor="start" x="153.75" y="-219.54" font-family="Helvetica,sans-Serif" font-weight="bold" font-size="13.00">pick</text>
<text xml:space="preserve" text-anchor="start" x="141.38" y="-209.39" font-family="Helvetica,sans-Serif" font-size="10.00" fill="#5b6b7b">the strategy</text>
</g>
<!-- rand&#45;&gt;pick -->
<g id="edge1" class="edge">
<title>rand&#45;&gt;pick</title>
<path fill="none" stroke="#8a95a1" stroke-width="1.7" d="M167.25,-309.31C167.25,-295.99 167.25,-278.52 167.25,-262.6"/>
<polygon fill="#8a95a1" stroke="#8a95a1" stroke-width="1.7" points="170.23,-262.96 167.25,-254.46 164.28,-262.96 170.23,-262.96"/>
<text xml:space="preserve" text-anchor="middle" x="194.62" y="-276.22" font-family="Helvetica,sans-Serif" font-size="10.50" fill="#566069">typed value</text>
</g>
<!-- pool -->
<g id="node2" class="node">
<title>pool</title>
<path fill="#c9e8dd" stroke="black" stroke-width="0" d="M52.5,-350.48C52.5,-350.48 12,-350.48 12,-350.48 6,-350.48 0,-344.48 0,-338.48 0,-338.48 0,-325.94 0,-325.94 0,-319.94 6,-313.94 12,-313.94 12,-313.94 52.5,-313.94 52.5,-313.94 58.5,-313.94 64.5,-319.94 64.5,-325.94 64.5,-325.94 64.5,-338.48 64.5,-338.48 64.5,-344.48 58.5,-350.48 52.5,-350.48"/>
<text xml:space="preserve" text-anchor="start" x="18" y="-327.61" font-family="Helvetica,sans-Serif" font-weight="bold" font-size="13.00" fill="#2f7a68">pool</text>
</g>
<!-- pool&#45;&gt;pick -->
<g id="edge2" class="edge">
<title>pool&#45;&gt;pick</title>
<path fill="none" stroke="#8a95a1" stroke-width="1.7" d="M53.05,-314.14C72.57,-298.11 102.3,-273.7 126.54,-253.81"/>
<polygon fill="#8a95a1" stroke="#8a95a1" stroke-width="1.7" points="128.18,-256.3 132.87,-248.61 124.41,-251.71 128.18,-256.3"/>
</g>
<!-- mut -->
<g id="node3" class="node">
<title>mut</title>
<path fill="#f6e0cc" stroke="black" stroke-width="0" d="M350.38,-350.48C350.38,-350.48 282.12,-350.48 282.12,-350.48 276.12,-350.48 270.12,-344.48 270.12,-338.48 270.12,-338.48 270.12,-325.94 270.12,-325.94 270.12,-319.94 276.12,-313.94 282.12,-313.94 282.12,-313.94 350.38,-313.94 350.38,-313.94 356.38,-313.94 362.38,-319.94 362.38,-325.94 362.38,-325.94 362.38,-338.48 362.38,-338.48 362.38,-344.48 356.38,-350.48 350.38,-350.48"/>
<text xml:space="preserve" text-anchor="start" x="288.12" y="-327.61" font-family="Helvetica,sans-Serif" font-weight="bold" font-size="13.00" fill="#9a6b2f">mutation</text>
</g>
<!-- mut&#45;&gt;pick -->
<g id="edge3" class="edge">
<title>mut&#45;&gt;pick</title>
<path fill="none" stroke="#8a95a1" stroke-width="1.7" d="M293.3,-314.14C271.37,-297.83 237.75,-272.82 210.75,-252.74"/>
<polygon fill="#8a95a1" stroke="#8a95a1" stroke-width="1.7" points="212.53,-250.36 203.93,-247.67 208.98,-255.13 212.53,-250.36"/>
</g>
<!-- run -->
<g id="node5" class="node">
<title>run</title>
<path fill="#f6edcf" stroke="black" stroke-width="0" d="M213,-129.58C213,-129.58 121.5,-129.58 121.5,-129.58 115.5,-129.58 109.5,-123.58 109.5,-117.58 109.5,-117.58 109.5,-95.54 109.5,-95.54 109.5,-89.54 115.5,-83.54 121.5,-83.54 121.5,-83.54 213,-83.54 213,-83.54 219,-83.54 225,-89.54 225,-95.54 225,-95.54 225,-117.58 225,-117.58 225,-123.58 219,-129.58 213,-129.58"/>
<text xml:space="preserve" text-anchor="start" x="156.38" y="-106.71" font-family="Helvetica,sans-Serif" font-weight="bold" font-size="13.00">run</text>
<text xml:space="preserve" text-anchor="start" x="127.5" y="-96.56" font-family="Helvetica,sans-Serif" font-size="10.00" fill="#8a7a40">instrumented SUT</text>
</g>
<!-- pick&#45;&gt;run -->
<g id="edge4" class="edge">
<title>pick&#45;&gt;run</title>
<path fill="none" stroke="#8a95a1" stroke-width="1.7" d="M167.25,-186.92C167.25,-172.24 167.25,-154.77 167.25,-139.97"/>
<polygon fill="#8a95a1" stroke="#8a95a1" stroke-width="1.7" points="170.23,-140.33 167.25,-131.83 164.28,-140.33 170.23,-140.33"/>
</g>
<!-- cov -->
<g id="node6" class="node">
<title>cov</title>
<path fill="#eef1f4" stroke="black" stroke-width="0" d="M201,-36.54C201,-36.54 133.5,-36.54 133.5,-36.54 127.5,-36.54 121.5,-30.54 121.5,-24.54 121.5,-24.54 121.5,-12 121.5,-12 121.5,-6 127.5,0 133.5,0 133.5,0 201,0 201,0 207,0 213,-6 213,-12 213,-12 213,-24.54 213,-24.54 213,-30.54 207,-36.54 201,-36.54"/>
<text xml:space="preserve" text-anchor="start" x="139.5" y="-14.52" font-family="Helvetica,sans-Serif" font-size="13.00">coverage</text>
</g>
<!-- run&#45;&gt;cov -->
<g id="edge5" class="edge">
<title>run&#45;&gt;cov</title>
<path fill="none" stroke="#8a95a1" stroke-width="1.7" stroke-dasharray="5,2" d="M167.25,-83.79C167.25,-72.66 167.25,-59 167.25,-47.12"/>
<polygon fill="#8a95a1" stroke="#8a95a1" stroke-width="1.7" points="170.23,-47.49 167.25,-38.99 164.28,-47.49 170.23,-47.49"/>
</g>
<!-- cov&#45;&gt;pool -->
<g id="edge6" class="edge">
<title>cov&#45;&gt;pool</title>
<path fill="none" stroke="#3a9c83" stroke-width="1.7" stroke-dasharray="5,2" d="M138.03,-36.3C121.07,-47.62 100.68,-63.99 88.25,-83.54 43.67,-153.65 34.38,-254.76 32.58,-303.23"/>
<polygon fill="#3a9c83" stroke="#3a9c83" stroke-width="1.7" points="29.61,-302.95 32.34,-311.53 35.56,-303.11 29.61,-302.95"/>
<text xml:space="preserve" text-anchor="middle" x="99.8" y="-153.86" font-family="Helvetica,sans-Serif" font-size="10.50" fill="#2f7a68">retry unseen input</text>
</g>
<!-- cov&#45;&gt;mut -->
<g id="edge7" class="edge">
<title>cov&#45;&gt;mut</title>
<path fill="none" stroke="#d08a3a" stroke-width="1.7" stroke-dasharray="5,2" d="M196.26,-36.43C213.14,-47.81 233.52,-64.19 246.25,-83.54 292.51,-153.9 308.6,-254.89 313.86,-303.28"/>
<polygon fill="#d08a3a" stroke="#d08a3a" stroke-width="1.7" points="310.89,-303.41 314.7,-311.57 316.81,-302.82 310.89,-303.41"/>
<text xml:space="preserve" text-anchor="middle" x="310.26" y="-153.86" font-family="Helvetica,sans-Serif" font-size="10.50" fill="#9a6b2f">keep if new</text>
</g>
</g>
</svg>
