<?xml version="1.0" encoding="UTF-8" standalone="no"?>
<!DOCTYPE svg PUBLIC "-//W3C//DTD SVG 1.1//EN"
 "http://www.w3.org/Graphics/SVG/1.1/DTD/svg11.dtd">
<!-- Generated by graphviz version 15.0.0 (20260523.1842)
 -->
<!-- Title: combined Pages: 1 -->
<svg width="502pt" height="394pt"
 viewBox="0.00 0.00 502.00 394.00" xmlns="http://www.w3.org/2000/svg" xmlns:xlink="http://www.w3.org/1999/xlink">
<g id="graph0" class="graph" transform="scale(1 1) rotate(0) translate(4 390.48)">
<title>combined</title>
<polygon fill="white" stroke="none" points="-4,4 -4,-390.48 498.38,-390.48 498.38,4 -4,4"/>
<text xml:space="preserve" text-anchor="start" x="172.19" y="-364.48" font-family="Helvetica,sans-Serif" font-weight="bold" font-size="20.00">all four together</text>
<!-- rand -->
<g id="node1" class="node">
<title>rand</title>
<path fill="#e4ecf5" stroke="black" stroke-width="0" d="M214.88,-357.48C214.88,-357.48 119.62,-357.48 119.62,-357.48 113.62,-357.48 107.62,-351.48 107.62,-345.48 107.62,-345.48 107.62,-323.44 107.62,-323.44 107.62,-317.44 113.62,-311.44 119.62,-311.44 119.62,-311.44 214.88,-311.44 214.88,-311.44 220.88,-311.44 226.88,-317.44 226.88,-323.44 226.88,-323.44 226.88,-345.48 226.88,-345.48 226.88,-351.48 220.88,-357.48 214.88,-357.48"/>
<text xml:space="preserve" text-anchor="start" x="144.75" y="-334.61" font-family="Helvetica,sans-Serif" font-size="13.00">random</text>
<text xml:space="preserve" text-anchor="start" x="125.62" y="-324.46" font-family="Helvetica,sans-Serif" font-size="10.00" fill="#5b6b7b">a fresh typed value</text>
</g>
<!-- pick -->
<g id="node5" class="node">
<title>pick</title>
<ellipse fill="#eef1f4" stroke="black" stroke-width="0" cx="187.25" cy="-221.64" rx="62.05" ry="32.56"/>
<text xml:space="preserve" text-anchor="start" x="173.75" y="-221.79" font-family="Helvetica,sans-Serif" font-weight="bold" font-size="13.00">pick</text>
<text xml:space="preserve" text-anchor="start" x="161.38" y="-211.64" font-family="Helvetica,sans-Serif" font-size="10.00" fill="#5b6b7b">the strategy</text>
</g>
<!-- rand&#45;&gt;pick -->
<g id="edge1" class="edge">
<title>rand&#45;&gt;pick</title>
<path fill="none" stroke="#8a95a1" stroke-width="1.7" d="M167.29,-311.67C167.62,-301.18 168.48,-288.46 170.5,-277.19 171.29,-272.8 172.32,-268.27 173.48,-263.78"/>
<polygon fill="#8a95a1" stroke="#8a95a1" stroke-width="1.7" points="176.24,-264.94 175.68,-255.95 170.51,-263.33 176.24,-264.94"/>
<text xml:space="preserve" text-anchor="middle" x="197.88" y="-278.47" font-family="Helvetica,sans-Serif" font-size="10.50" fill="#566069">typed value</text>
</g>
<!-- pool -->
<g id="node2" class="node">
<title>pool</title>
<path fill="#c9e8dd" stroke="black" stroke-width="0" d="M52.5,-352.73C52.5,-352.73 12,-352.73 12,-352.73 6,-352.73 0,-346.73 0,-340.73 0,-340.73 0,-328.19 0,-328.19 0,-322.19 6,-316.19 12,-316.19 12,-316.19 52.5,-316.19 52.5,-316.19 58.5,-316.19 64.5,-322.19 64.5,-328.19 64.5,-328.19 64.5,-340.73 64.5,-340.73 64.5,-346.73 58.5,-352.73 52.5,-352.73"/>
<text xml:space="preserve" text-anchor="start" x="18" y="-329.86" font-family="Helvetica,sans-Serif" font-weight="bold" font-size="13.00" fill="#2f7a68">pool</text>
</g>
<!-- pool&#45;&gt;pick -->
<g id="edge2" class="edge">
<title>pool&#45;&gt;pick</title>
<path fill="none" stroke="#8a95a1" stroke-width="1.7" d="M56.13,-316.39C79.12,-299.95 114.45,-274.69 142.65,-254.53"/>
<polygon fill="#8a95a1" stroke="#8a95a1" stroke-width="1.7" points="144.25,-257.04 149.44,-249.67 140.79,-252.2 144.25,-257.04"/>
</g>
<!-- mut -->
<g id="node3" class="node">
<title>mut</title>
<path fill="#f6e0cc" stroke="black" stroke-width="0" d="M482.38,-352.73C482.38,-352.73 414.12,-352.73 414.12,-352.73 408.12,-352.73 402.12,-346.73 402.12,-340.73 402.12,-340.73 402.12,-328.19 402.12,-328.19 402.12,-322.19 408.12,-316.19 414.12,-316.19 414.12,-316.19 482.38,-316.19 482.38,-316.19 488.38,-316.19 494.38,-322.19 494.38,-328.19 494.38,-328.19 494.38,-340.73 494.38,-340.73 494.38,-346.73 488.38,-352.73 482.38,-352.73"/>
<text xml:space="preserve" text-anchor="start" x="420.12" y="-329.86" font-family="Helvetica,sans-Serif" font-weight="bold" font-size="13.00" fill="#9a6b2f">mutation</text>
</g>
<!-- mut&#45;&gt;pick -->
<g id="edge3" class="edge">
<title>mut&#45;&gt;pick</title>
<path fill="none" stroke="#8a95a1" stroke-width="1.7" d="M407.76,-316.27C363.95,-297.67 293.77,-267.87 244.37,-246.89"/>
<polygon fill="#8a95a1" stroke="#8a95a1" stroke-width="1.7" points="245.83,-244.28 236.84,-243.69 243.5,-249.75 245.83,-244.28"/>
</g>
<!-- grad -->
<g id="node4" class="node">
<title>grad</title>
<path fill="#f6d8d5" stroke="black" stroke-width="0" d="M346.88,-352.73C346.88,-352.73 281.62,-352.73 281.62,-352.73 275.62,-352.73 269.62,-346.73 269.62,-340.73 269.62,-340.73 269.62,-328.19 269.62,-328.19 269.62,-322.19 275.62,-316.19 281.62,-316.19 281.62,-316.19 346.88,-316.19 346.88,-316.19 352.88,-316.19 358.88,-322.19 358.88,-328.19 358.88,-328.19 358.88,-340.73 358.88,-340.73 358.88,-346.73 352.88,-352.73 346.88,-352.73"/>
<text xml:space="preserve" text-anchor="start" x="287.62" y="-329.86" font-family="Helvetica,sans-Serif" font-weight="bold" font-size="13.00" fill="#9a4039">gradient</text>
</g>
<!-- grad&#45;&gt;pick -->
<g id="edge4" class="edge">
<title>grad&#45;&gt;pick</title>
<path fill="none" stroke="#8a95a1" stroke-width="1.7" d="M294.68,-316.39C276.47,-300.49 248.78,-276.33 226.08,-256.52"/>
<polygon fill="#8a95a1" stroke="#8a95a1" stroke-width="1.7" points="228.27,-254.48 219.91,-251.13 224.36,-258.96 228.27,-254.48"/>
</g>
<!-- run -->
<g id="node6" class="node">
<title>run</title>
<path fill="#f6edcf" stroke="black" stroke-width="0" d="M236,-129.58C236,-129.58 144.5,-129.58 144.5,-129.58 138.5,-129.58 132.5,-123.58 132.5,-117.58 132.5,-117.58 132.5,-95.54 132.5,-95.54 132.5,-89.54 138.5,-83.54 144.5,-83.54 144.5,-83.54 236,-83.54 236,-83.54 242,-83.54 248,-89.54 248,-95.54 248,-95.54 248,-117.58 248,-117.58 248,-123.58 242,-129.58 236,-129.58"/>
<text xml:space="preserve" text-anchor="start" x="179.38" y="-106.71" font-family="Helvetica,sans-Serif" font-weight="bold" font-size="13.00">run</text>
<text xml:space="preserve" text-anchor="start" x="150.5" y="-96.56" font-family="Helvetica,sans-Serif" font-size="10.00" fill="#8a7a40">instrumented SUT</text>
</g>
<!-- pick&#45;&gt;run -->
<g id="edge5" class="edge">
<title>pick&#45;&gt;run</title>
<path fill="none" stroke="#8a95a1" stroke-width="1.7" d="M188.09,-189.14C188.49,-173.78 188.98,-155.34 189.39,-139.88"/>
<polygon fill="#8a95a1" stroke="#8a95a1" stroke-width="1.7" points="192.36,-140.38 189.61,-131.8 186.41,-140.22 192.36,-140.38"/>
</g>
<!-- cov -->
<g id="node7" class="node">
<title>cov</title>
<path fill="#eef1f4" stroke="black" stroke-width="0" d="M317,-36.54C317,-36.54 249.5,-36.54 249.5,-36.54 243.5,-36.54 237.5,-30.54 237.5,-24.54 237.5,-24.54 237.5,-12 237.5,-12 237.5,-6 243.5,0 249.5,0 249.5,0 317,0 317,0 323,0 329,-6 329,-12 329,-12 329,-24.54 329,-24.54 329,-30.54 323,-36.54 317,-36.54"/>
<text xml:space="preserve" text-anchor="start" x="255.5" y="-14.52" font-family="Helvetica,sans-Serif" font-size="13.00">coverage</text>
</g>
<!-- run&#45;&gt;cov -->
<g id="edge6" class="edge">
<title>run&#45;&gt;cov</title>
<path fill="none" stroke="#8a95a1" stroke-width="1.7" stroke-dasharray="5,2" d="M213.72,-83.79C226.82,-71.63 243.18,-56.45 256.74,-43.86"/>
<polygon fill="#8a95a1" stroke="#8a95a1" stroke-width="1.7" points="258.68,-46.13 262.89,-38.16 254.63,-41.77 258.68,-46.13"/>
</g>
<!-- cov&#45;&gt;pool -->
<g id="edge7" class="edge">
<title>cov&#45;&gt;pool</title>
<path fill="none" stroke="#3a9c83" stroke-width="1.7" stroke-dasharray="5,2" d="M237.75,-26.06C199.65,-33.91 146.06,-50.3 111.25,-83.54 48.2,-143.74 35.27,-253.8 32.76,-305.38"/>
<polygon fill="#3a9c83" stroke="#3a9c83" stroke-width="1.7" points="29.79,-305.14 32.44,-313.75 35.74,-305.37 29.79,-305.14"/>
<text xml:space="preserve" text-anchor="middle" x="113.71" y="-156.11" font-family="Helvetica,sans-Serif" font-size="10.50" fill="#2f7a68">uncovered → literals</text>
</g>
<!-- cov&#45;&gt;mut -->
<g id="edge8" class="edge">
<title>cov&#45;&gt;mut</title>
<path fill="none" stroke="#d08a3a" stroke-width="1.7" stroke-dasharray="5,2" d="M299.1,-36.15C305.54,-43.22 312.94,-51.62 319.25,-59.54 350.86,-99.18 362.02,-107.52 385.25,-152.58 411.91,-204.27 431.55,-269.77 441.31,-306.07"/>
<polygon fill="#d08a3a" stroke="#d08a3a" stroke-width="1.7" points="438.33,-306.4 443.37,-313.86 444.08,-304.89 438.33,-306.4"/>
<text xml:space="preserve" text-anchor="middle" x="418.42" y="-154.98" font-family="Helvetica,sans-Serif" font-size="10.50" fill="#9a6b2f">keep if new</text>
</g>
<!-- cov&#45;&gt;grad -->
<g id="edge9" class="edge">
<title>cov&#45;&gt;grad</title>
<path fill="none" stroke="#c25a50" stroke-width="1.7" stroke-dasharray="5,2" d="M284.92,-36.25C290,-87.71 305.26,-242.36 311.52,-305.83"/>
<polygon fill="#c25a50" stroke="#c25a50" stroke-width="1.7" points="308.54,-305.84 312.33,-314.01 314.46,-305.26 308.54,-305.84"/>
<text xml:space="preserve" text-anchor="middle" x="336.3" y="-154.98" font-family="Helvetica,sans-Serif" font-size="10.50" fill="#9a4039">keep the closest</text>
</g>
</g>
</svg>
