<?xml version="1.0" encoding="UTF-8" standalone="no"?>
<!DOCTYPE svg PUBLIC "-//W3C//DTD SVG 1.1//EN"
 "http://www.w3.org/Graphics/SVG/1.1/DTD/svg11.dtd">
<!-- Generated by graphviz version 15.0.0 (20260523.1842)
 -->
<!-- Title: combined Pages: 1 -->
<svg width="870pt" height="416pt"
 viewBox="0.00 0.00 870.00 416.00" xmlns="http://www.w3.org/2000/svg" xmlns:xlink="http://www.w3.org/1999/xlink">
<g id="graph0" class="graph" transform="scale(1 1) rotate(0) translate(4 411.6)">
<title>combined</title>
<polygon fill="white" stroke="none" points="-4,4 -4,-411.6 866.12,-411.6 866.12,4 -4,4"/>
<text xml:space="preserve" text-anchor="start" x="356.06" y="-385.6" font-family="Helvetica,sans-Serif" font-weight="bold" font-size="20.00">all four together</text>
<g id="clust1" class="cluster">
<title>cluster_instr</title>
<polygon fill="#e6e9ed" stroke="#9aa5b1" stroke-width="1.4" points="640,-298.6 640,-370.6 770,-370.6 770,-298.6 640,-298.6"/>
<text xml:space="preserve" text-anchor="middle" x="705" y="-304.15" font-family="Helvetica,sans-Serif" font-size="11.00">instrumentation</text>
</g>
<!-- rng -->
<g id="node1" class="node">
<title>rng</title>
<ellipse fill="#f0f2f4" stroke="#222222" stroke-width="1.8" cx="102" cy="-224.8" rx="28.8" ry="28.8"/>
<text xml:space="preserve" text-anchor="middle" x="102" y="-219.2" font-family="Helvetica,sans-Serif" font-size="13.00">RNG</text>
</g>
<!-- gen -->
<g id="node2" class="node">
<title>gen</title>
<polygon fill="white" stroke="#222222" stroke-width="1.8" points="76,-134 0,-134 0,-98 76,-98 76,-134"/>
<text xml:space="preserve" text-anchor="middle" x="38" y="-110.4" font-family="Helvetica,sans-Serif" font-size="13.00">Generator</text>
</g>
<!-- rng&#45;&gt;gen -->
<g id="edge1" class="edge">
<title>rng&#45;&gt;gen</title>
<path fill="none" stroke="#3b6fb5" stroke-width="3" d="M76.72,-209.37C49.34,-193.74 9.5,-171 9.5,-171 9.5,-171 9.5,-159 9.5,-159 9.5,-159 13.28,-153.43 18.08,-146.36"/>
<polygon fill="#3b6fb5" stroke="#3b6fb5" stroke-width="3" points="20.81,-148.57 23.53,-138.33 15.02,-144.64 20.81,-148.57"/>
<text xml:space="preserve" text-anchor="middle" x="40.25" y="-160.07" font-family="Helvetica,sans-Serif" font-size="11.50" fill="#111111">random bits</text>
</g>
<!-- mut -->
<g id="node4" class="node">
<title>mut</title>
<polygon fill="#fbe6d4" stroke="#222222" stroke-width="1.8" points="446.25,-134 335.75,-134 335.75,-98 446.25,-98 446.25,-134"/>
<text xml:space="preserve" text-anchor="start" x="363.25" y="-116.15" font-family="Helvetica,sans-Serif" font-weight="bold" font-size="13.00">Mutation</text>
<text xml:space="preserve" text-anchor="start" x="343.75" y="-106" font-family="Helvetica,sans-Serif" font-size="10.00">perturb a corpus seed</text>
</g>
<!-- rng&#45;&gt;mut -->
<g id="edge2" class="edge">
<title>rng&#45;&gt;mut</title>
<path fill="none" stroke="#3b6fb5" stroke-width="3" d="M127.8,-210.53C164.66,-191.57 228,-159 228,-159 228,-159 276.86,-146.41 321.08,-135.02"/>
<polygon fill="#3b6fb5" stroke="#3b6fb5" stroke-width="3" points="321.7,-138.47 330.51,-132.59 319.95,-131.69 321.7,-138.47"/>
</g>
<!-- climb -->
<g id="node5" class="node">
<title>climb</title>
<polygon fill="#fbe0dc" stroke="#222222" stroke-width="1.8" points="291.25,-134 138.75,-134 138.75,-98 291.25,-98 291.25,-134"/>
<text xml:space="preserve" text-anchor="start" x="187.62" y="-116.15" font-family="Helvetica,sans-Serif" font-weight="bold" font-size="13.00">Gradient</text>
<text xml:space="preserve" text-anchor="start" x="146.75" y="-106" font-family="Helvetica,sans-Serif" font-size="10.00">climb to nearest uncovered leaf</text>
</g>
<!-- rng&#45;&gt;climb -->
<g id="edge3" class="edge">
<title>rng&#45;&gt;climb</title>
<path fill="none" stroke="#3b6fb5" stroke-width="3" d="M112.31,-197.07C119.2,-179.22 127,-159 127,-159 127,-159 144.96,-150.43 164.66,-141.03"/>
<polygon fill="#3b6fb5" stroke="#3b6fb5" stroke-width="3" points="166.06,-144.23 173.58,-136.77 163.05,-137.92 166.06,-144.23"/>
</g>
<!-- mix -->
<g id="node6" class="node">
<title>mix</title>
<polygon fill="#d9e2ec" stroke="#222222" stroke-width="1.8" points="451.5,-36 330.5,-36 330.5,0 451.5,0 451.5,-36"/>
<text xml:space="preserve" text-anchor="start" x="338.5" y="-13.4" font-family="Helvetica,sans-Serif" font-weight="bold" font-size="13.00">mix</text>
<text xml:space="preserve" text-anchor="start" x="361" y="-13.4" font-family="Helvetica,sans-Serif" font-size="13.00"> &#160;· &#160;</text>
<text xml:space="preserve" text-anchor="start" x="379.75" y="-13.4" font-family="Helvetica,sans-Serif" font-size="10.00">Gen.frequency</text>
</g>
<!-- gen&#45;&gt;mix -->
<g id="edge4" class="edge">
<title>gen&#45;&gt;mix</title>
<path fill="none" stroke="#3b6fb5" stroke-width="3" d="M76.79,-104.45C134.16,-88.85 242.75,-59.32 316,-39.4"/>
<polygon fill="#3b6fb5" stroke="#3b6fb5" stroke-width="3" points="316.59,-42.86 325.32,-36.86 314.75,-36.11 316.59,-42.86"/>
<text xml:space="preserve" text-anchor="middle" x="255.88" y="-62.08" font-family="Helvetica,sans-Serif" font-size="11.50" fill="#111111">random</text>
</g>
<!-- inject -->
<g id="node3" class="node">
<title>inject</title>
<polygon fill="#dcefe9" stroke="#222222" stroke-width="1.8" points="623.38,-134 492.62,-134 492.62,-98 623.38,-98 623.38,-134"/>
<text xml:space="preserve" text-anchor="start" x="543.38" y="-116.15" font-family="Helvetica,sans-Serif" font-weight="bold" font-size="13.00">Pool</text>
<text xml:space="preserve" text-anchor="start" x="500.62" y="-106" font-family="Helvetica,sans-Serif" font-size="10.00">literal of an uncovered leaf</text>
</g>
<!-- inject&#45;&gt;mix -->
<g id="edge5" class="edge">
<title>inject&#45;&gt;mix</title>
<path fill="none" stroke="#3b6fb5" stroke-width="3" d="M526.98,-97.17C500.93,-82.19 463.43,-60.64 434.4,-43.95"/>
<polygon fill="#3b6fb5" stroke="#3b6fb5" stroke-width="3" points="436.49,-41.11 426.07,-39.16 433,-47.18 436.49,-41.11"/>
</g>
<!-- mut&#45;&gt;mix -->
<g id="edge6" class="edge">
<title>mut&#45;&gt;mix</title>
<path fill="none" stroke="#3b6fb5" stroke-width="3" d="M391,-97.39C391,-84.48 391,-66.59 391,-51.16"/>
<polygon fill="#3b6fb5" stroke="#3b6fb5" stroke-width="3" points="394.5,-51.36 391,-41.36 387.5,-51.36 394.5,-51.36"/>
</g>
<!-- climb&#45;&gt;mix -->
<g id="edge7" class="edge">
<title>climb&#45;&gt;mix</title>
<path fill="none" stroke="#3b6fb5" stroke-width="3" d="M247.69,-97.17C275.27,-82.13 315.02,-60.44 345.67,-43.73"/>
<polygon fill="#3b6fb5" stroke="#3b6fb5" stroke-width="3" points="347.1,-46.93 354.2,-39.07 343.74,-40.79 347.1,-46.93"/>
</g>
<!-- sut -->
<g id="node9" class="node">
<title>sut</title>
<polygon fill="white" stroke="#222222" stroke-width="1.8" points="762.12,-362.6 647.88,-362.6 647.88,-326.6 762.12,-326.6 762.12,-362.6"/>
<text xml:space="preserve" text-anchor="start" x="655.88" y="-340.85" font-family="Helvetica,sans-Serif" font-size="13.00">SUT &#160;+ &#160;property</text>
</g>
<!-- mix&#45;&gt;sut -->
<g id="edge8" class="edge">
<title>mix&#45;&gt;sut</title>
<path fill="none" stroke="#3b6fb5" stroke-width="3.4" d="M447.87,-36.83C522.19,-60.13 643,-98 643,-98 643,-98 680.13,-245.09 696.92,-311.61"/>
<polygon fill="#3b6fb5" stroke="#3b6fb5" stroke-width="3.4" points="693.44,-312.11 699.28,-320.95 700.23,-310.4 693.44,-312.11"/>
<text xml:space="preserve" text-anchor="middle" x="686.29" y="-160.07" font-family="Helvetica,sans-Serif" font-size="11.50" fill="#111111">next input</text>
</g>
<!-- fb -->
<g id="node7" class="node">
<title>fb</title>
<polygon fill="#fbf4d8" stroke="#222222" stroke-width="1.8" points="513.12,-242.8 392.88,-242.8 392.88,-206.8 513.12,-206.8 513.12,-242.8"/>
<text xml:space="preserve" text-anchor="start" x="421.88" y="-224.95" font-family="Helvetica,sans-Serif" font-weight="bold" font-size="13.00">Feedback</text>
<text xml:space="preserve" text-anchor="start" x="400.88" y="-214.8" font-family="Helvetica,sans-Serif" font-size="10.00">covered leaves · corpus</text>
</g>
<!-- fb&#45;&gt;inject -->
<g id="edge11" class="edge">
<title>fb&#45;&gt;inject</title>
<path fill="none" stroke="#1f8a70" stroke-width="3" d="M475.68,-205.92C495.12,-190.61 520,-171 520,-171 520,-171 528.48,-158.94 537.44,-146.22"/>
<polygon fill="#1f8a70" stroke="#1f8a70" stroke-width="3" points="540.05,-148.59 542.94,-138.39 534.33,-144.56 540.05,-148.59"/>
<text xml:space="preserve" text-anchor="middle" x="576.21" y="-160.07" font-family="Helvetica,sans-Serif" font-size="11.50" fill="#16735c">still&#45;needed literals</text>
</g>
<!-- fb&#45;&gt;mut -->
<g id="edge12" class="edge">
<title>fb&#45;&gt;mut</title>
<path fill="none" stroke="#b35e10" stroke-width="3" d="M431.5,-205.92C413.08,-190.61 389.5,-171 389.5,-171 389.5,-171 389.5,-159 389.5,-159 389.5,-159 389.65,-154.68 389.86,-148.81"/>
<polygon fill="#b35e10" stroke="#b35e10" stroke-width="3" points="393.35,-149.22 390.21,-139.11 386.36,-148.97 393.35,-149.22"/>
<text xml:space="preserve" text-anchor="middle" x="451.75" y="-160.07" font-family="Helvetica,sans-Serif" font-size="11.50" fill="#b35e10">keep coverage&#45;growers</text>
</g>
<!-- fb&#45;&gt;climb -->
<g id="edge13" class="edge">
<title>fb&#45;&gt;climb</title>
<path fill="none" stroke="#922b21" stroke-width="3" d="M392.21,-208.39C330.74,-192.8 244.75,-171 244.75,-171 244.75,-171 238.51,-159.67 231.74,-147.39"/>
<polygon fill="#922b21" stroke="#922b21" stroke-width="3" points="234.82,-145.73 226.93,-138.66 228.69,-149.11 234.82,-145.73"/>
<text xml:space="preserve" text-anchor="middle" x="311.88" y="-160.07" font-family="Helvetica,sans-Serif" font-size="11.50" fill="#922b21">nearest uncovered + best</text>
</g>
<!-- report -->
<g id="node8" class="node">
<title>report</title>
<polygon fill="white" stroke="#222222" stroke-width="1.8" points="862.12,-242.8 765.88,-242.8 765.88,-206.8 862.12,-206.8 862.12,-242.8"/>
<text xml:space="preserve" text-anchor="middle" x="814" y="-219.2" font-family="Helvetica,sans-Serif" font-size="13.00">report to user</text>
</g>
<!-- sut&#45;&gt;fb -->
<g id="edge10" class="edge">
<title>sut&#45;&gt;fb</title>
<path fill="none" stroke="#6b7785" stroke-width="3" d="M666.73,-325.71C623.31,-305.41 552.29,-272.22 504.15,-249.71"/>
<polygon fill="#6b7785" stroke="#6b7785" stroke-width="3" points="505.87,-246.65 495.33,-245.59 502.91,-252.99 505.87,-246.65"/>
<text xml:space="preserve" text-anchor="middle" x="611.31" y="-279.68" font-family="Helvetica,sans-Serif" font-size="11.50" fill="#444444">coverage</text>
</g>
<!-- sut&#45;&gt;report -->
<g id="edge9" class="edge">
<title>sut&#45;&gt;report</title>
<path fill="none" stroke="#3b6fb5" stroke-width="3" d="M721.55,-325.71C739.18,-306.66 767.33,-276.24 787.93,-253.97"/>
<polygon fill="#3b6fb5" stroke="#3b6fb5" stroke-width="3" points="790.34,-256.52 794.56,-246.81 785.2,-251.77 790.34,-256.52"/>
<text xml:space="preserve" text-anchor="middle" x="769.89" y="-279.68" font-family="Helvetica,sans-Serif" font-size="11.50" fill="#111111">fail</text>
</g>
</g>
</svg>
