<?xml version="1.0" encoding="UTF-8" standalone="no"?>
<!DOCTYPE svg PUBLIC "-//W3C//DTD SVG 1.1//EN"
 "http://www.w3.org/Graphics/SVG/1.1/DTD/svg11.dtd">
<!-- Generated by graphviz version 15.0.0 (20260523.1842)
 -->
<!-- Title: combined Pages: 1 -->
<svg width="502pt" height="392pt"
 viewBox="0.00 0.00 502.00 392.00" xmlns="http://www.w3.org/2000/svg" xmlns:xlink="http://www.w3.org/1999/xlink">
<g id="graph0" class="graph" transform="scale(1 1) rotate(0) translate(4 388.23)">
<title>combined</title>
<polygon fill="white" stroke="none" points="-4,4 -4,-388.23 498.38,-388.23 498.38,4 -4,4"/>
<text xml:space="preserve" text-anchor="start" x="172.19" y="-362.23" font-family="Helvetica,sans-Serif" font-weight="bold" font-size="20.00">all four together</text>
<!-- rand -->
<g id="node1" class="node">
<title>rand</title>
<path fill="#e4ecf5" stroke="black" stroke-width="0" d="M214.88,-355.23C214.88,-355.23 119.62,-355.23 119.62,-355.23 113.62,-355.23 107.62,-349.23 107.62,-343.23 107.62,-343.23 107.62,-321.19 107.62,-321.19 107.62,-315.19 113.62,-309.19 119.62,-309.19 119.62,-309.19 214.88,-309.19 214.88,-309.19 220.88,-309.19 226.88,-315.19 226.88,-321.19 226.88,-321.19 226.88,-343.23 226.88,-343.23 226.88,-349.23 220.88,-355.23 214.88,-355.23"/>
<text xml:space="preserve" text-anchor="start" x="144.75" y="-332.36" font-family="Helvetica,sans-Serif" font-size="13.00">random</text>
<text xml:space="preserve" text-anchor="start" x="125.62" y="-322.21" font-family="Helvetica,sans-Serif" font-size="10.00" fill="#5b6b7b">a fresh typed value</text>
</g>
<!-- pick -->
<g id="node5" class="node">
<title>pick</title>
<ellipse fill="#eef1f4" stroke="black" stroke-width="0" cx="187.25" cy="-219.39" rx="62.05" ry="32.56"/>
<text xml:space="preserve" text-anchor="start" x="173.75" y="-219.54" font-family="Helvetica,sans-Serif" font-weight="bold" font-size="13.00">pick</text>
<text xml:space="preserve" text-anchor="start" x="161.38" y="-209.39" font-family="Helvetica,sans-Serif" font-size="10.00" fill="#5b6b7b">the strategy</text>
</g>
<!-- rand&#45;&gt;pick -->
<g id="edge1" class="edge">
<title>rand&#45;&gt;pick</title>
<path fill="none" stroke="#8a95a1" stroke-width="1.7" d="M167.29,-309.42C167.62,-298.93 168.48,-286.21 170.5,-274.94 171.29,-270.55 172.32,-266.02 173.48,-261.53"/>
<polygon fill="#8a95a1" stroke="#8a95a1" stroke-width="1.7" points="176.24,-262.69 175.68,-253.7 170.51,-261.08 176.24,-262.69"/>
<text xml:space="preserve" text-anchor="middle" x="197.88" y="-276.22" font-family="Helvetica,sans-Serif" font-size="10.50" fill="#566069">typed value</text>
</g>
<!-- pool -->
<g id="node2" class="node">
<title>pool</title>
<path fill="#c9e8dd" stroke="black" stroke-width="0" d="M52.5,-350.48C52.5,-350.48 12,-350.48 12,-350.48 6,-350.48 0,-344.48 0,-338.48 0,-338.48 0,-325.94 0,-325.94 0,-319.94 6,-313.94 12,-313.94 12,-313.94 52.5,-313.94 52.5,-313.94 58.5,-313.94 64.5,-319.94 64.5,-325.94 64.5,-325.94 64.5,-338.48 64.5,-338.48 64.5,-344.48 58.5,-350.48 52.5,-350.48"/>
<text xml:space="preserve" text-anchor="start" x="18" y="-327.61" font-family="Helvetica,sans-Serif" font-weight="bold" font-size="13.00" fill="#2f7a68">pool</text>
</g>
<!-- pool&#45;&gt;pick -->
<g id="edge2" class="edge">
<title>pool&#45;&gt;pick</title>
<path fill="none" stroke="#8a95a1" stroke-width="1.7" d="M56.13,-314.14C79.12,-297.7 114.45,-272.44 142.65,-252.28"/>
<polygon fill="#8a95a1" stroke="#8a95a1" stroke-width="1.7" points="144.25,-254.79 149.44,-247.42 140.79,-249.95 144.25,-254.79"/>
</g>
<!-- mut -->
<g id="node3" class="node">
<title>mut</title>
<path fill="#f6e0cc" stroke="black" stroke-width="0" d="M482.38,-350.48C482.38,-350.48 414.12,-350.48 414.12,-350.48 408.12,-350.48 402.12,-344.48 402.12,-338.48 402.12,-338.48 402.12,-325.94 402.12,-325.94 402.12,-319.94 408.12,-313.94 414.12,-313.94 414.12,-313.94 482.38,-313.94 482.38,-313.94 488.38,-313.94 494.38,-319.94 494.38,-325.94 494.38,-325.94 494.38,-338.48 494.38,-338.48 494.38,-344.48 488.38,-350.48 482.38,-350.48"/>
<text xml:space="preserve" text-anchor="start" x="420.12" y="-327.61" font-family="Helvetica,sans-Serif" font-weight="bold" font-size="13.00" fill="#9a6b2f">mutation</text>
</g>
<!-- mut&#45;&gt;pick -->
<g id="edge3" class="edge">
<title>mut&#45;&gt;pick</title>
<path fill="none" stroke="#8a95a1" stroke-width="1.7" d="M407.76,-314.02C363.95,-295.42 293.77,-265.62 244.37,-244.64"/>
<polygon fill="#8a95a1" stroke="#8a95a1" stroke-width="1.7" points="245.83,-242.03 236.84,-241.44 243.5,-247.5 245.83,-242.03"/>
</g>
<!-- grad -->
<g id="node4" class="node">
<title>grad</title>
<path fill="#f6d8d5" stroke="black" stroke-width="0" d="M346.88,-350.48C346.88,-350.48 281.62,-350.48 281.62,-350.48 275.62,-350.48 269.62,-344.48 269.62,-338.48 269.62,-338.48 269.62,-325.94 269.62,-325.94 269.62,-319.94 275.62,-313.94 281.62,-313.94 281.62,-313.94 346.88,-313.94 346.88,-313.94 352.88,-313.94 358.88,-319.94 358.88,-325.94 358.88,-325.94 358.88,-338.48 358.88,-338.48 358.88,-344.48 352.88,-350.48 346.88,-350.48"/>
<text xml:space="preserve" text-anchor="start" x="287.62" y="-327.61" font-family="Helvetica,sans-Serif" font-weight="bold" font-size="13.00" fill="#9a4039">gradient</text>
</g>
<!-- grad&#45;&gt;pick -->
<g id="edge4" class="edge">
<title>grad&#45;&gt;pick</title>
<path fill="none" stroke="#8a95a1" stroke-width="1.7" d="M294.68,-314.14C276.47,-298.24 248.78,-274.08 226.08,-254.27"/>
<polygon fill="#8a95a1" stroke="#8a95a1" stroke-width="1.7" points="228.27,-252.23 219.91,-248.88 224.36,-256.71 228.27,-252.23"/>
</g>
<!-- run -->
<g id="node6" class="node">
<title>run</title>
<path fill="#f6edcf" stroke="black" stroke-width="0" d="M235,-129.58C235,-129.58 143.5,-129.58 143.5,-129.58 137.5,-129.58 131.5,-123.58 131.5,-117.58 131.5,-117.58 131.5,-95.54 131.5,-95.54 131.5,-89.54 137.5,-83.54 143.5,-83.54 143.5,-83.54 235,-83.54 235,-83.54 241,-83.54 247,-89.54 247,-95.54 247,-95.54 247,-117.58 247,-117.58 247,-123.58 241,-129.58 235,-129.58"/>
<text xml:space="preserve" text-anchor="start" x="178.38" y="-106.71" font-family="Helvetica,sans-Serif" font-weight="bold" font-size="13.00">run</text>
<text xml:space="preserve" text-anchor="start" x="149.5" y="-96.56" font-family="Helvetica,sans-Serif" font-size="10.00" fill="#8a7a40">instrumented SUT</text>
</g>
<!-- pick&#45;&gt;run -->
<g id="edge5" class="edge">
<title>pick&#45;&gt;run</title>
<path fill="none" stroke="#8a95a1" stroke-width="1.7" d="M187.82,-186.92C188.08,-172.24 188.4,-154.77 188.67,-139.97"/>
<polygon fill="#8a95a1" stroke="#8a95a1" stroke-width="1.7" points="191.63,-140.38 188.81,-131.83 185.68,-140.27 191.63,-140.38"/>
</g>
<!-- cov -->
<g id="node7" class="node">
<title>cov</title>
<path fill="#eef1f4" stroke="black" stroke-width="0" d="M316,-36.54C316,-36.54 248.5,-36.54 248.5,-36.54 242.5,-36.54 236.5,-30.54 236.5,-24.54 236.5,-24.54 236.5,-12 236.5,-12 236.5,-6 242.5,0 248.5,0 248.5,0 316,0 316,0 322,0 328,-6 328,-12 328,-12 328,-24.54 328,-24.54 328,-30.54 322,-36.54 316,-36.54"/>
<text xml:space="preserve" text-anchor="start" x="254.5" y="-14.52" font-family="Helvetica,sans-Serif" font-size="13.00">coverage</text>
</g>
<!-- run&#45;&gt;cov -->
<g id="edge6" class="edge">
<title>run&#45;&gt;cov</title>
<path fill="none" stroke="#8a95a1" stroke-width="1.7" stroke-dasharray="5,2" d="M212.72,-83.79C225.82,-71.63 242.18,-56.45 255.74,-43.86"/>
<polygon fill="#8a95a1" stroke="#8a95a1" stroke-width="1.7" points="257.68,-46.13 261.89,-38.16 253.63,-41.77 257.68,-46.13"/>
</g>
<!-- cov&#45;&gt;pool -->
<g id="edge7" class="edge">
<title>cov&#45;&gt;pool</title>
<path fill="none" stroke="#3a9c83" stroke-width="1.7" stroke-dasharray="5,2" d="M236.72,-27.02C199.12,-35.42 146.26,-52.07 110.25,-83.54 45.06,-140.51 33.78,-251.38 32.22,-303.22"/>
<polygon fill="#3a9c83" stroke="#3a9c83" stroke-width="1.7" points="29.24,-303.08 32.06,-311.64 35.19,-303.2 29.24,-303.08"/>
<text xml:space="preserve" text-anchor="middle" x="114.43" y="-153.86" font-family="Helvetica,sans-Serif" font-size="10.50" fill="#2f7a68">inject while uncovered</text>
</g>
<!-- cov&#45;&gt;mut -->
<g id="edge8" class="edge">
<title>cov&#45;&gt;mut</title>
<path fill="none" stroke="#d08a3a" stroke-width="1.7" stroke-dasharray="5,2" d="M298.1,-36.15C304.54,-43.22 311.94,-51.62 318.25,-59.54 349.86,-99.18 360.82,-107.62 384.25,-152.58 410.7,-203.32 430.72,-267.44 440.86,-303.43"/>
<polygon fill="#d08a3a" stroke="#d08a3a" stroke-width="1.7" points="437.98,-304.19 443.12,-311.59 443.72,-302.61 437.98,-304.19"/>
<text xml:space="preserve" text-anchor="middle" x="416.56" y="-153.86" font-family="Helvetica,sans-Serif" font-size="10.50" fill="#9a6b2f">keep if new</text>
</g>
<!-- cov&#45;&gt;grad -->
<g id="edge9" class="edge">
<title>cov&#45;&gt;grad</title>
<path fill="none" stroke="#c25a50" stroke-width="1.7" stroke-dasharray="5,2" d="M284.01,-36.43C289.27,-87.71 304.9,-240.1 311.38,-303.28"/>
<polygon fill="#c25a50" stroke="#c25a50" stroke-width="1.7" points="308.39,-303.28 312.22,-311.44 314.31,-302.68 308.39,-303.28"/>
<text xml:space="preserve" text-anchor="middle" x="335.58" y="-153.86" font-family="Helvetica,sans-Serif" font-size="10.50" fill="#9a4039">keep the closest</text>
</g>
</g>
</svg>
