<?xml version="1.0" encoding="UTF-8" standalone="no"?>
<!DOCTYPE svg PUBLIC "-//W3C//DTD SVG 1.1//EN"
 "http://www.w3.org/Graphics/SVG/1.1/DTD/svg11.dtd">
<!-- Generated by graphviz version 15.0.0 (20260523.1842)
 -->
<!-- Title: composition Pages: 1 -->
<svg width="441pt" height="552pt"
 viewBox="0.00 0.00 441.00 552.00" xmlns="http://www.w3.org/2000/svg" xmlns:xlink="http://www.w3.org/1999/xlink">
<g id="graph0" class="graph" transform="scale(1 1) rotate(0) translate(4 548.25)">
<title>composition</title>
<polygon fill="white" stroke="none" points="-4,4 -4,-548.25 437,-548.25 437,4 -4,4"/>
<text xml:space="preserve" text-anchor="start" x="110.75" y="-524.15" font-family="Helvetica,sans-Serif" font-weight="bold" font-size="18.00">How the tactics combine</text>
<g id="clust1" class="cluster">
<title>cluster_flow</title>
<path fill="#f6f8fa" stroke="#9aa5b1" d="M20,-199.25C20,-199.25 413,-199.25 413,-199.25 419,-199.25 425,-205.25 425,-211.25 425,-211.25 425,-497.5 425,-497.5 425,-503.5 419,-509.5 413,-509.5 413,-509.5 20,-509.5 20,-509.5 14,-509.5 8,-503.5 8,-497.5 8,-497.5 8,-211.25 8,-211.25 8,-205.25 14,-199.25 20,-199.25"/>
<text xml:space="preserve" text-anchor="start" x="16" y="-495.1" font-family="Helvetica,sans-Serif" font-weight="bold" font-size="12.00">One uniform loop — read context, strategy chooses the next generator</text>
</g>
<g id="clust3" class="cluster">
<title>cluster_subsets</title>
<path fill="#f5fbf8" stroke="#7fb8a4" d="M95,-8C95,-8 386,-8 386,-8 392,-8 398,-14 398,-20 398,-20 398,-168.25 398,-168.25 398,-174.25 392,-180.25 386,-180.25 386,-180.25 95,-180.25 95,-180.25 89,-180.25 83,-174.25 83,-168.25 83,-168.25 83,-20 83,-20 83,-14 89,-8 95,-8"/>
<text xml:space="preserve" text-anchor="start" x="91" y="-165.85" font-family="Helvetica,sans-Serif" font-weight="bold" font-size="12.00">A strategy = random plus selected guidance sources</text>
</g>
<!-- fb -->
<g id="node1" class="node">
<title>fb</title>
<path fill="#fcf3cf" stroke="black" d="M217,-480.75C217,-480.75 111,-480.75 111,-480.75 105,-480.75 99,-474.75 99,-468.75 99,-468.75 99,-456.75 99,-456.75 99,-450.75 105,-444.75 111,-444.75 111,-444.75 217,-444.75 217,-444.75 223,-444.75 229,-450.75 229,-456.75 229,-456.75 229,-468.75 229,-468.75 229,-474.75 223,-480.75 217,-480.75"/>
<text xml:space="preserve" text-anchor="start" x="138.88" y="-463.3" font-family="Helvetica,sans-Serif" font-weight="bold" font-size="11.00">Feedback</text>
<text xml:space="preserve" text-anchor="start" x="107" y="-454.2" font-family="Helvetica,sans-Serif" font-size="9.00">covered statements · corpus</text>
</g>
<!-- pool -->
<g id="node2" class="node">
<title>pool</title>
<path fill="#1f8a70" stroke="black" d="M151.88,-399C151.88,-399 54.12,-399 54.12,-399 48.12,-399 42.12,-393 42.12,-387 42.12,-387 42.12,-374 42.12,-374 42.12,-368 48.12,-362 54.12,-362 54.12,-362 151.88,-362 151.88,-362 157.88,-362 163.88,-368 163.88,-374 163.88,-374 163.88,-387 163.88,-387 163.88,-393 157.88,-399 151.88,-399"/>
<text xml:space="preserve" text-anchor="start" x="91" y="-385.55" font-family="Helvetica,sans-Serif" font-weight="bold" font-size="11.00" fill="white">Pool</text>
<text xml:space="preserve" text-anchor="start" x="66.25" y="-376.45" font-family="Helvetica,sans-Serif" font-size="9.00" fill="white">draw literals while</text>
<text xml:space="preserve" text-anchor="start" x="50.12" y="-367.45" font-family="Helvetica,sans-Serif" font-size="9.00" fill="white">statements are uncovered</text>
</g>
<!-- fb&#45;&gt;pool -->
<g id="edge1" class="edge">
<title>fb&#45;&gt;pool</title>
<path fill="none" stroke="#34495e" stroke-width="1.5" stroke-dasharray="5,2" d="M150.76,-444.34C142.56,-433.55 131.88,-419.5 122.7,-407.42"/>
<polygon fill="#34495e" stroke="#34495e" stroke-width="1.5" points="125.08,-405.92 118.01,-401.24 120.62,-409.31 125.08,-405.92"/>
<text xml:space="preserve" text-anchor="middle" x="148.78" y="-418.2" font-family="Helvetica,sans-Serif" font-size="9.00">reads</text>
</g>
<!-- mut -->
<g id="node3" class="node">
<title>mut</title>
<path fill="#e67e22" stroke="black" d="M247.12,-399C247.12,-399 204.88,-399 204.88,-399 198.88,-399 192.88,-393 192.88,-387 192.88,-387 192.88,-374 192.88,-374 192.88,-368 198.88,-362 204.88,-362 204.88,-362 247.12,-362 247.12,-362 253.12,-362 259.12,-368 259.12,-374 259.12,-374 259.12,-387 259.12,-387 259.12,-393 253.12,-399 247.12,-399"/>
<text xml:space="preserve" text-anchor="start" x="203.12" y="-385.55" font-family="Helvetica,sans-Serif" font-weight="bold" font-size="11.00" fill="white">Mutation</text>
<text xml:space="preserve" text-anchor="start" x="207.62" y="-376.45" font-family="Helvetica,sans-Serif" font-size="9.00" fill="white">perturb a</text>
<text xml:space="preserve" text-anchor="start" x="200.88" y="-367.45" font-family="Helvetica,sans-Serif" font-size="9.00" fill="white">corpus seed</text>
</g>
<!-- fb&#45;&gt;mut -->
<g id="edge2" class="edge">
<title>fb&#45;&gt;mut</title>
<path fill="none" stroke="#34495e" stroke-width="1.5" stroke-dasharray="5,2" d="M177.45,-444.34C185.79,-433.55 196.64,-419.5 205.98,-407.42"/>
<polygon fill="#34495e" stroke="#34495e" stroke-width="1.5" points="208.08,-409.27 210.76,-401.23 203.65,-405.85 208.08,-409.27"/>
</g>
<!-- mix -->
<g id="node5" class="node">
<title>mix</title>
<path fill="#2c3e50" stroke="black" d="M277.88,-316.25C277.88,-316.25 174.12,-316.25 174.12,-316.25 168.12,-316.25 162.12,-310.25 162.12,-304.25 162.12,-304.25 162.12,-292.25 162.12,-292.25 162.12,-286.25 168.12,-280.25 174.12,-280.25 174.12,-280.25 277.88,-280.25 277.88,-280.25 283.88,-280.25 289.88,-286.25 289.88,-292.25 289.88,-292.25 289.88,-304.25 289.88,-304.25 289.88,-310.25 283.88,-316.25 277.88,-316.25"/>
<text xml:space="preserve" text-anchor="start" x="170.12" y="-294.8" font-family="Helvetica,sans-Serif" font-weight="bold" font-size="11.00" fill="white">strategy</text>
<text xml:space="preserve" text-anchor="start" x="212.88" y="-294.8" font-family="Helvetica,sans-Serif" font-size="11.00" fill="white"> · </text>
<text xml:space="preserve" text-anchor="start" x="221.88" y="-294.8" font-family="Helvetica,sans-Serif" font-size="9.00" fill="white">Gen.frequency</text>
</g>
<!-- pool&#45;&gt;mix -->
<g id="edge3" class="edge">
<title>pool&#45;&gt;mix</title>
<path fill="none" stroke="#34495e" stroke-width="1.5" d="M130.3,-361.69C148.1,-350.08 171.5,-334.81 190.71,-322.28"/>
<polygon fill="#34495e" stroke="#34495e" stroke-width="1.5" points="192.13,-324.69 197.3,-317.97 189.07,-320 192.13,-324.69"/>
<text xml:space="preserve" text-anchor="middle" x="190.61" y="-335.45" font-family="Helvetica,sans-Serif" font-size="9.00">available</text>
</g>
<!-- mut&#45;&gt;mix -->
<g id="edge4" class="edge">
<title>mut&#45;&gt;mix</title>
<path fill="none" stroke="#34495e" stroke-width="1.5" d="M226,-361.69C226,-351.44 226,-338.33 226,-326.78"/>
<polygon fill="#34495e" stroke="#34495e" stroke-width="1.5" points="228.8,-327 226,-319 223.2,-327 228.8,-327"/>
</g>
<!-- rand -->
<g id="node4" class="node">
<title>rand</title>
<path fill="#2e5c8a" stroke="black" d="M353.75,-398.5C353.75,-398.5 300.25,-398.5 300.25,-398.5 294.25,-398.5 288.25,-392.5 288.25,-386.5 288.25,-386.5 288.25,-374.5 288.25,-374.5 288.25,-368.5 294.25,-362.5 300.25,-362.5 300.25,-362.5 353.75,-362.5 353.75,-362.5 359.75,-362.5 365.75,-368.5 365.75,-374.5 365.75,-374.5 365.75,-386.5 365.75,-386.5 365.75,-392.5 359.75,-398.5 353.75,-398.5"/>
<text xml:space="preserve" text-anchor="start" x="306.75" y="-381.05" font-family="Helvetica,sans-Serif" font-weight="bold" font-size="11.00" fill="white">random</text>
<text xml:space="preserve" text-anchor="start" x="296.25" y="-371.95" font-family="Helvetica,sans-Serif" font-size="9.00" fill="white">always present</text>
</g>
<!-- rand&#45;&gt;mix -->
<g id="edge5" class="edge">
<title>rand&#45;&gt;mix</title>
<path fill="none" stroke="#34495e" stroke-width="1.5" d="M305.08,-362.09C290.66,-350.62 271.59,-335.47 255.79,-322.92"/>
<polygon fill="#34495e" stroke="#34495e" stroke-width="1.5" points="257.66,-320.83 249.65,-318.04 254.17,-325.21 257.66,-320.83"/>
</g>
<!-- nxt -->
<g id="node6" class="node">
<title>nxt</title>
<path fill="#eceff2" stroke="black" d="M245.25,-243.25C245.25,-243.25 206.75,-243.25 206.75,-243.25 200.75,-243.25 194.75,-237.25 194.75,-231.25 194.75,-231.25 194.75,-219.25 194.75,-219.25 194.75,-213.25 200.75,-207.25 206.75,-207.25 206.75,-207.25 245.25,-207.25 245.25,-207.25 251.25,-207.25 257.25,-213.25 257.25,-219.25 257.25,-219.25 257.25,-231.25 257.25,-231.25 257.25,-237.25 251.25,-243.25 245.25,-243.25"/>
<text xml:space="preserve" text-anchor="middle" x="226" y="-220.8" font-family="Helvetica,sans-Serif" font-size="11.00">next input</text>
</g>
<!-- mix&#45;&gt;nxt -->
<g id="edge6" class="edge">
<title>mix&#45;&gt;nxt</title>
<path fill="none" stroke="#34495e" stroke-width="2.2" d="M226,-280.06C226,-272.39 226,-263.14 226,-254.49"/>
<polygon fill="#34495e" stroke="#34495e" stroke-width="2.2" points="228.8,-254.61 226,-246.61 223.2,-254.61 228.8,-254.61"/>
</g>
<!-- tbl -->
<g id="node7" class="node">
<title>tbl</title>
<polygon fill="none" stroke="#9aa5b1" points="147.25,-123.5 147.25,-147.5 237.25,-147.5 237.25,-123.5 147.25,-123.5"/>
<text xml:space="preserve" text-anchor="start" x="153.25" y="-132.05" font-family="Helvetica,sans-Serif" font-weight="bold" font-size="11.00">strategy</text>
<polygon fill="#1f8a70" stroke="none" points="237.25,-123.5 237.25,-147.5 273.25,-147.5 273.25,-123.5 237.25,-123.5"/>
<polygon fill="none" stroke="#9aa5b1" points="237.25,-123.5 237.25,-147.5 273.25,-147.5 273.25,-123.5 237.25,-123.5"/>
<text xml:space="preserve" text-anchor="start" x="243.25" y="-132.05" font-family="Helvetica,sans-Serif" font-weight="bold" font-size="11.00" fill="white">Pool</text>
<polygon fill="#e67e22" stroke="none" points="273.25,-123.5 273.25,-147.5 304.75,-147.5 304.75,-123.5 273.25,-123.5"/>
<polygon fill="none" stroke="#9aa5b1" points="273.25,-123.5 273.25,-147.5 304.75,-147.5 304.75,-123.5 273.25,-123.5"/>
<text xml:space="preserve" text-anchor="start" x="279.25" y="-132.05" font-family="Helvetica,sans-Serif" font-weight="bold" font-size="11.00" fill="white">Mut</text>
<polygon fill="none" stroke="#9aa5b1" points="147.25,-98.75 147.25,-123.5 237.25,-123.5 237.25,-98.75 147.25,-98.75"/>
<text xml:space="preserve" text-anchor="start" x="153.25" y="-108.5" font-family="Courier,monospace" font-size="10.00">random</text>
<polygon fill="none" stroke="#9aa5b1" points="237.25,-98.75 237.25,-123.5 273.25,-123.5 273.25,-98.75 237.25,-98.75"/>
<text xml:space="preserve" text-anchor="start" x="253.75" y="-108.12" font-family="Helvetica,sans-Serif" font-size="11.00" fill="#c9ced4">·</text>
<polygon fill="none" stroke="#9aa5b1" points="273.25,-98.75 273.25,-123.5 304.75,-123.5 304.75,-98.75 273.25,-98.75"/>
<text xml:space="preserve" text-anchor="start" x="287.5" y="-108.12" font-family="Helvetica,sans-Serif" font-size="11.00" fill="#c9ced4">·</text>
<polygon fill="none" stroke="#9aa5b1" points="147.25,-72.5 147.25,-98.75 237.25,-98.75 237.25,-72.5 147.25,-72.5"/>
<text xml:space="preserve" text-anchor="start" x="153.25" y="-83" font-family="Courier,monospace" font-size="10.00">pool</text>
<polygon fill="none" stroke="#9aa5b1" points="237.25,-72.5 237.25,-98.75 273.25,-98.75 273.25,-72.5 237.25,-72.5"/>
<text xml:space="preserve" text-anchor="start" x="251.12" y="-83.3" font-family="Helvetica,sans-Serif" font-weight="bold" font-size="11.00" fill="#1f8a70">✓</text>
<polygon fill="none" stroke="#9aa5b1" points="273.25,-72.5 273.25,-98.75 304.75,-98.75 304.75,-72.5 273.25,-72.5"/>
<text xml:space="preserve" text-anchor="start" x="287.5" y="-82.62" font-family="Helvetica,sans-Serif" font-size="11.00" fill="#c9ced4">·</text>
<polygon fill="none" stroke="#9aa5b1" points="147.25,-46.25 147.25,-72.5 237.25,-72.5 237.25,-46.25 147.25,-46.25"/>
<text xml:space="preserve" text-anchor="start" x="153.25" y="-56.75" font-family="Courier,monospace" font-size="10.00">mutation</text>
<polygon fill="none" stroke="#9aa5b1" points="237.25,-46.25 237.25,-72.5 273.25,-72.5 273.25,-46.25 237.25,-46.25"/>
<text xml:space="preserve" text-anchor="start" x="253.75" y="-56.38" font-family="Helvetica,sans-Serif" font-size="11.00" fill="#c9ced4">·</text>
<polygon fill="none" stroke="#9aa5b1" points="273.25,-46.25 273.25,-72.5 304.75,-72.5 304.75,-46.25 273.25,-46.25"/>
<text xml:space="preserve" text-anchor="start" x="284.88" y="-57.05" font-family="Helvetica,sans-Serif" font-weight="bold" font-size="11.00" fill="#e67e22">✓</text>
<polygon fill="none" stroke="#9aa5b1" points="147.25,-20 147.25,-46.25 237.25,-46.25 237.25,-20 147.25,-20"/>
<text xml:space="preserve" text-anchor="start" x="153.25" y="-30.5" font-family="Courier,monospace" font-size="10.00">pool&#45;mutation</text>
<polygon fill="none" stroke="#9aa5b1" points="237.25,-20 237.25,-46.25 273.25,-46.25 273.25,-20 237.25,-20"/>
<text xml:space="preserve" text-anchor="start" x="251.12" y="-30.8" font-family="Helvetica,sans-Serif" font-weight="bold" font-size="11.00" fill="#1f8a70">✓</text>
<polygon fill="none" stroke="#9aa5b1" points="273.25,-20 273.25,-46.25 304.75,-46.25 304.75,-20 273.25,-20"/>
<text xml:space="preserve" text-anchor="start" x="284.88" y="-30.8" font-family="Helvetica,sans-Serif" font-weight="bold" font-size="11.00" fill="#e67e22">✓</text>
</g>
<!-- nxt&#45;&gt;tbl -->
</g>
</svg>
