<?xml version="1.0" encoding="UTF-8" standalone="no"?>
<!DOCTYPE svg PUBLIC "-//W3C//DTD SVG 1.1//EN"
 "http://www.w3.org/Graphics/SVG/1.1/DTD/svg11.dtd">
<!-- Generated by graphviz version 15.0.0 (20260523.1842)
 -->
<!-- Title: composition Pages: 1 -->
<svg width="585pt" height="554pt"
 viewBox="0.00 0.00 585.00 554.00" xmlns="http://www.w3.org/2000/svg" xmlns:xlink="http://www.w3.org/1999/xlink">
<g id="graph0" class="graph" transform="scale(1 1) rotate(0) translate(4 549.75)">
<title>composition</title>
<polygon fill="white" stroke="none" points="-4,4 -4,-549.75 581,-549.75 581,4 -4,4"/>
<text xml:space="preserve" text-anchor="start" x="182.75" y="-525.65" font-family="Helvetica,sans-Serif" font-weight="bold" font-size="18.00">How the tactics combine</text>
<g id="clust1" class="cluster">
<title>cluster_flow</title>
<path fill="#f6f8fa" stroke="#9aa5b1" d="M20,-200.75C20,-200.75 476,-200.75 476,-200.75 482,-200.75 488,-206.75 488,-212.75 488,-212.75 488,-499 488,-499 488,-505 482,-511 476,-511 476,-511 20,-511 20,-511 14,-511 8,-505 8,-499 8,-499 8,-212.75 8,-212.75 8,-206.75 14,-200.75 20,-200.75"/>
<text xml:space="preserve" text-anchor="start" x="16" y="-496.6" font-family="Helvetica,sans-Serif" font-weight="bold" font-size="12.00">One uniform loop — read Feedback, each active tactic proposes, mix with random</text>
</g>
<g id="clust3" class="cluster">
<title>cluster_subsets</title>
<path fill="#f5fbf8" stroke="#7fb8a4" d="M176,-8C176,-8 557,-8 557,-8 563,-8 569,-14 569,-20 569,-20 569,-169.75 569,-169.75 569,-175.75 563,-181.75 557,-181.75 557,-181.75 176,-181.75 176,-181.75 170,-181.75 164,-175.75 164,-169.75 164,-169.75 164,-20 164,-20 164,-14 170,-8 176,-8"/>
<text xml:space="preserve" text-anchor="start" x="172" y="-167.35" font-family="Helvetica,sans-Serif" font-weight="bold" font-size="12.00">A strategy = which tactics are on ⇒ the 4 strategies are the 4 subsets</text>
</g>
<!-- fb -->
<g id="node1" class="node">
<title>fb</title>
<path fill="#fcf3cf" stroke="black" d="M261,-482.25C261,-482.25 155,-482.25 155,-482.25 149,-482.25 143,-476.25 143,-470.25 143,-470.25 143,-458.25 143,-458.25 143,-452.25 149,-446.25 155,-446.25 155,-446.25 261,-446.25 261,-446.25 267,-446.25 273,-452.25 273,-458.25 273,-458.25 273,-470.25 273,-470.25 273,-476.25 267,-482.25 261,-482.25"/>
<text xml:space="preserve" text-anchor="start" x="182.88" y="-464.8" font-family="Helvetica,sans-Serif" font-weight="bold" font-size="11.00">Feedback</text>
<text xml:space="preserve" text-anchor="start" x="151" y="-455.7" font-family="Helvetica,sans-Serif" font-size="9.00">covered statements · corpus</text>
</g>
<!-- pool -->
<g id="node2" class="node">
<title>pool</title>
<path fill="#1f8a70" stroke="black" d="M195.88,-400.5C195.88,-400.5 98.12,-400.5 98.12,-400.5 92.12,-400.5 86.12,-394.5 86.12,-388.5 86.12,-388.5 86.12,-375.5 86.12,-375.5 86.12,-369.5 92.12,-363.5 98.12,-363.5 98.12,-363.5 195.88,-363.5 195.88,-363.5 201.88,-363.5 207.88,-369.5 207.88,-375.5 207.88,-375.5 207.88,-388.5 207.88,-388.5 207.88,-394.5 201.88,-400.5 195.88,-400.5"/>
<text xml:space="preserve" text-anchor="start" x="135" y="-387.05" font-family="Helvetica,sans-Serif" font-weight="bold" font-size="11.00" fill="white">Pool</text>
<text xml:space="preserve" text-anchor="start" x="109.5" y="-377.95" font-family="Helvetica,sans-Serif" font-size="9.00" fill="white">inject literals while</text>
<text xml:space="preserve" text-anchor="start" x="94.12" y="-368.95" font-family="Helvetica,sans-Serif" font-size="9.00" fill="white">statements are uncovered</text>
</g>
<!-- fb&#45;&gt;pool -->
<g id="edge1" class="edge">
<title>fb&#45;&gt;pool</title>
<path fill="none" stroke="#34495e" stroke-width="1.5" stroke-dasharray="5,2" d="M194.76,-445.84C186.56,-435.05 175.88,-421 166.7,-408.92"/>
<polygon fill="#34495e" stroke="#34495e" stroke-width="1.5" points="169.08,-407.42 162.01,-402.74 164.62,-410.81 169.08,-407.42"/>
<text xml:space="preserve" text-anchor="middle" x="192.78" y="-419.7" font-family="Helvetica,sans-Serif" font-size="9.00">reads</text>
</g>
<!-- mut -->
<g id="node3" class="node">
<title>mut</title>
<path fill="#e67e22" stroke="black" d="M291.12,-400.5C291.12,-400.5 248.88,-400.5 248.88,-400.5 242.88,-400.5 236.88,-394.5 236.88,-388.5 236.88,-388.5 236.88,-375.5 236.88,-375.5 236.88,-369.5 242.88,-363.5 248.88,-363.5 248.88,-363.5 291.12,-363.5 291.12,-363.5 297.12,-363.5 303.12,-369.5 303.12,-375.5 303.12,-375.5 303.12,-388.5 303.12,-388.5 303.12,-394.5 297.12,-400.5 291.12,-400.5"/>
<text xml:space="preserve" text-anchor="start" x="247.12" y="-387.05" font-family="Helvetica,sans-Serif" font-weight="bold" font-size="11.00" fill="white">Mutation</text>
<text xml:space="preserve" text-anchor="start" x="251.62" y="-377.95" font-family="Helvetica,sans-Serif" font-size="9.00" fill="white">perturb a</text>
<text xml:space="preserve" text-anchor="start" x="244.88" y="-368.95" font-family="Helvetica,sans-Serif" font-size="9.00" fill="white">corpus seed</text>
</g>
<!-- fb&#45;&gt;mut -->
<g id="edge2" class="edge">
<title>fb&#45;&gt;mut</title>
<path fill="none" stroke="#34495e" stroke-width="1.5" stroke-dasharray="5,2" d="M221.45,-445.84C229.79,-435.05 240.64,-421 249.98,-408.92"/>
<polygon fill="#34495e" stroke="#34495e" stroke-width="1.5" points="252.08,-410.77 254.76,-402.73 247.65,-407.35 252.08,-410.77"/>
</g>
<!-- mix -->
<g id="node5" class="node">
<title>mix</title>
<path fill="#2c3e50" stroke="black" d="M309.88,-317.75C309.88,-317.75 230.12,-317.75 230.12,-317.75 224.12,-317.75 218.12,-311.75 218.12,-305.75 218.12,-305.75 218.12,-293.75 218.12,-293.75 218.12,-287.75 224.12,-281.75 230.12,-281.75 230.12,-281.75 309.88,-281.75 309.88,-281.75 315.88,-281.75 321.88,-287.75 321.88,-293.75 321.88,-293.75 321.88,-305.75 321.88,-305.75 321.88,-311.75 315.88,-317.75 309.88,-317.75"/>
<text xml:space="preserve" text-anchor="start" x="226.12" y="-296.3" font-family="Helvetica,sans-Serif" font-weight="bold" font-size="11.00" fill="white">mix</text>
<text xml:space="preserve" text-anchor="start" x="244.88" y="-296.3" font-family="Helvetica,sans-Serif" font-size="11.00" fill="white"> · </text>
<text xml:space="preserve" text-anchor="start" x="253.88" y="-296.3" font-family="Helvetica,sans-Serif" font-size="9.00" fill="white">Gen.frequency</text>
</g>
<!-- pool&#45;&gt;mix -->
<g id="edge3" class="edge">
<title>pool&#45;&gt;mix</title>
<path fill="none" stroke="#34495e" stroke-width="1.5" d="M174.3,-363.19C192.1,-351.58 215.5,-336.31 234.71,-323.78"/>
<polygon fill="#34495e" stroke="#34495e" stroke-width="1.5" points="236.13,-326.19 241.3,-319.47 233.07,-321.5 236.13,-326.19"/>
<text xml:space="preserve" text-anchor="middle" x="232.74" y="-336.95" font-family="Helvetica,sans-Serif" font-size="9.00">propose</text>
</g>
<!-- mut&#45;&gt;mix -->
<g id="edge4" class="edge">
<title>mut&#45;&gt;mix</title>
<path fill="none" stroke="#34495e" stroke-width="1.5" d="M270,-363.19C270,-352.94 270,-339.83 270,-328.28"/>
<polygon fill="#34495e" stroke="#34495e" stroke-width="1.5" points="272.8,-328.5 270,-320.5 267.2,-328.5 272.8,-328.5"/>
</g>
<!-- rand -->
<g id="node4" class="node">
<title>rand</title>
<path fill="#2e5c8a" stroke="black" d="M397.75,-400C397.75,-400 344.25,-400 344.25,-400 338.25,-400 332.25,-394 332.25,-388 332.25,-388 332.25,-376 332.25,-376 332.25,-370 338.25,-364 344.25,-364 344.25,-364 397.75,-364 397.75,-364 403.75,-364 409.75,-370 409.75,-376 409.75,-376 409.75,-388 409.75,-388 409.75,-394 403.75,-400 397.75,-400"/>
<text xml:space="preserve" text-anchor="start" x="350.75" y="-382.55" font-family="Helvetica,sans-Serif" font-weight="bold" font-size="11.00" fill="white">random</text>
<text xml:space="preserve" text-anchor="start" x="340.25" y="-373.45" font-family="Helvetica,sans-Serif" font-size="9.00" fill="white">always present</text>
</g>
<!-- rand&#45;&gt;mix -->
<g id="edge5" class="edge">
<title>rand&#45;&gt;mix</title>
<path fill="none" stroke="#34495e" stroke-width="1.5" d="M349.08,-363.59C334.66,-352.12 315.59,-336.97 299.79,-324.42"/>
<polygon fill="#34495e" stroke="#34495e" stroke-width="1.5" points="301.66,-322.33 293.65,-319.54 298.17,-326.71 301.66,-322.33"/>
</g>
<!-- nxt -->
<g id="node6" class="node">
<title>nxt</title>
<path fill="#eceff2" stroke="black" d="M289.25,-244.75C289.25,-244.75 250.75,-244.75 250.75,-244.75 244.75,-244.75 238.75,-238.75 238.75,-232.75 238.75,-232.75 238.75,-220.75 238.75,-220.75 238.75,-214.75 244.75,-208.75 250.75,-208.75 250.75,-208.75 289.25,-208.75 289.25,-208.75 295.25,-208.75 301.25,-214.75 301.25,-220.75 301.25,-220.75 301.25,-232.75 301.25,-232.75 301.25,-238.75 295.25,-244.75 289.25,-244.75"/>
<text xml:space="preserve" text-anchor="middle" x="270" y="-222.3" font-family="Helvetica,sans-Serif" font-size="11.00">next input</text>
</g>
<!-- mix&#45;&gt;nxt -->
<g id="edge6" class="edge">
<title>mix&#45;&gt;nxt</title>
<path fill="none" stroke="#34495e" stroke-width="2.2" d="M270,-281.56C270,-273.89 270,-264.64 270,-255.99"/>
<polygon fill="#34495e" stroke="#34495e" stroke-width="2.2" points="272.8,-256.11 270,-248.11 267.2,-256.11 272.8,-256.11"/>
</g>
<!-- tbl -->
<g id="node7" class="node">
<title>tbl</title>
<polygon fill="none" stroke="#9aa5b1" points="191.25,-123.5 191.25,-147.5 281.25,-147.5 281.25,-123.5 191.25,-123.5"/>
<text xml:space="preserve" text-anchor="start" x="197.25" y="-132.05" font-family="Helvetica,sans-Serif" font-weight="bold" font-size="11.00">strategy</text>
<polygon fill="#1f8a70" stroke="none" points="281.25,-123.5 281.25,-147.5 317.25,-147.5 317.25,-123.5 281.25,-123.5"/>
<polygon fill="none" stroke="#9aa5b1" points="281.25,-123.5 281.25,-147.5 317.25,-147.5 317.25,-123.5 281.25,-123.5"/>
<text xml:space="preserve" text-anchor="start" x="287.25" y="-132.05" font-family="Helvetica,sans-Serif" font-weight="bold" font-size="11.00" fill="white">Pool</text>
<polygon fill="#e67e22" stroke="none" points="317.25,-123.5 317.25,-147.5 348.75,-147.5 348.75,-123.5 317.25,-123.5"/>
<polygon fill="none" stroke="#9aa5b1" points="317.25,-123.5 317.25,-147.5 348.75,-147.5 348.75,-123.5 317.25,-123.5"/>
<text xml:space="preserve" text-anchor="start" x="323.25" y="-132.05" font-family="Helvetica,sans-Serif" font-weight="bold" font-size="11.00" fill="white">Mut</text>
<polygon fill="none" stroke="#9aa5b1" points="191.25,-98.75 191.25,-123.5 281.25,-123.5 281.25,-98.75 191.25,-98.75"/>
<text xml:space="preserve" text-anchor="start" x="197.25" y="-108.5" font-family="Courier,monospace" font-size="10.00">random</text>
<polygon fill="none" stroke="#9aa5b1" points="281.25,-98.75 281.25,-123.5 317.25,-123.5 317.25,-98.75 281.25,-98.75"/>
<text xml:space="preserve" text-anchor="start" x="297.75" y="-108.12" font-family="Helvetica,sans-Serif" font-size="11.00" fill="#c9ced4">·</text>
<polygon fill="none" stroke="#9aa5b1" points="317.25,-98.75 317.25,-123.5 348.75,-123.5 348.75,-98.75 317.25,-98.75"/>
<text xml:space="preserve" text-anchor="start" x="331.5" y="-108.12" font-family="Helvetica,sans-Serif" font-size="11.00" fill="#c9ced4">·</text>
<polygon fill="none" stroke="#9aa5b1" points="191.25,-72.5 191.25,-98.75 281.25,-98.75 281.25,-72.5 191.25,-72.5"/>
<text xml:space="preserve" text-anchor="start" x="197.25" y="-83" font-family="Courier,monospace" font-size="10.00">pool</text>
<polygon fill="none" stroke="#9aa5b1" points="281.25,-72.5 281.25,-98.75 317.25,-98.75 317.25,-72.5 281.25,-72.5"/>
<text xml:space="preserve" text-anchor="start" x="295.12" y="-83.3" font-family="Helvetica,sans-Serif" font-weight="bold" font-size="11.00" fill="#1f8a70">✓</text>
<polygon fill="none" stroke="#9aa5b1" points="317.25,-72.5 317.25,-98.75 348.75,-98.75 348.75,-72.5 317.25,-72.5"/>
<text xml:space="preserve" text-anchor="start" x="331.5" y="-82.62" font-family="Helvetica,sans-Serif" font-size="11.00" fill="#c9ced4">·</text>
<polygon fill="none" stroke="#9aa5b1" points="191.25,-46.25 191.25,-72.5 281.25,-72.5 281.25,-46.25 191.25,-46.25"/>
<text xml:space="preserve" text-anchor="start" x="197.25" y="-56.75" font-family="Courier,monospace" font-size="10.00">mutation</text>
<polygon fill="none" stroke="#9aa5b1" points="281.25,-46.25 281.25,-72.5 317.25,-72.5 317.25,-46.25 281.25,-46.25"/>
<text xml:space="preserve" text-anchor="start" x="297.75" y="-56.38" font-family="Helvetica,sans-Serif" font-size="11.00" fill="#c9ced4">·</text>
<polygon fill="none" stroke="#9aa5b1" points="317.25,-46.25 317.25,-72.5 348.75,-72.5 348.75,-46.25 317.25,-46.25"/>
<text xml:space="preserve" text-anchor="start" x="328.88" y="-57.05" font-family="Helvetica,sans-Serif" font-weight="bold" font-size="11.00" fill="#e67e22">✓</text>
<polygon fill="none" stroke="#9aa5b1" points="191.25,-20 191.25,-46.25 281.25,-46.25 281.25,-20 191.25,-20"/>
<text xml:space="preserve" text-anchor="start" x="197.25" y="-30.5" font-family="Courier,monospace" font-size="10.00">pool&#45;mutation</text>
<polygon fill="none" stroke="#9aa5b1" points="281.25,-20 281.25,-46.25 317.25,-46.25 317.25,-20 281.25,-20"/>
<text xml:space="preserve" text-anchor="start" x="295.12" y="-30.8" font-family="Helvetica,sans-Serif" font-weight="bold" font-size="11.00" fill="#1f8a70">✓</text>
<polygon fill="none" stroke="#9aa5b1" points="317.25,-20 317.25,-46.25 348.75,-46.25 348.75,-20 317.25,-20"/>
<text xml:space="preserve" text-anchor="start" x="328.88" y="-30.8" font-family="Helvetica,sans-Serif" font-weight="bold" font-size="11.00" fill="#e67e22">✓</text>
</g>
<!-- nxt&#45;&gt;tbl -->
</g>
</svg>
