<?xml version="1.0" encoding="UTF-8" standalone="no"?>
<!DOCTYPE svg PUBLIC "-//W3C//DTD SVG 1.1//EN"
 "http://www.w3.org/Graphics/SVG/1.1/DTD/svg11.dtd">
<!-- Generated by graphviz version 15.0.0 (20260523.1842)
 -->
<!-- Title: composition Pages: 1 -->
<svg width="504pt" height="554pt"
 viewBox="0.00 0.00 504.00 554.00" xmlns="http://www.w3.org/2000/svg" xmlns:xlink="http://www.w3.org/1999/xlink">
<g id="graph0" class="graph" transform="scale(1 1) rotate(0) translate(4 549.75)">
<title>composition</title>
<polygon fill="white" stroke="none" points="-4,4 -4,-549.75 500,-549.75 500,4 -4,4"/>
<text xml:space="preserve" text-anchor="start" x="142.25" y="-525.65" font-family="Helvetica,sans-Serif" font-weight="bold" font-size="18.00">How the tactics combine</text>
<g id="clust1" class="cluster">
<title>cluster_flow</title>
<path fill="#f6f8fa" stroke="#9aa5b1" d="M20,-200.75C20,-200.75 476,-200.75 476,-200.75 482,-200.75 488,-206.75 488,-212.75 488,-212.75 488,-499 488,-499 488,-505 482,-511 476,-511 476,-511 20,-511 20,-511 14,-511 8,-505 8,-499 8,-499 8,-212.75 8,-212.75 8,-206.75 14,-200.75 20,-200.75"/>
<text xml:space="preserve" text-anchor="start" x="16" y="-496.6" font-family="Helvetica,sans-Serif" font-weight="bold" font-size="12.00">One uniform loop — read Feedback, each active tactic proposes, mix with random</text>
</g>
<g id="clust3" class="cluster">
<title>cluster_subsets</title>
<path fill="#f5fbf8" stroke="#7fb8a4" d="M62,-8C62,-8 443,-8 443,-8 449,-8 455,-14 455,-20 455,-20 455,-169.75 455,-169.75 455,-175.75 449,-181.75 443,-181.75 443,-181.75 62,-181.75 62,-181.75 56,-181.75 50,-175.75 50,-169.75 50,-169.75 50,-20 50,-20 50,-14 56,-8 62,-8"/>
<text xml:space="preserve" text-anchor="start" x="58" y="-167.35" font-family="Helvetica,sans-Serif" font-weight="bold" font-size="12.00">A strategy = which tactics are on ⇒ the 4 strategies are the 4 subsets</text>
</g>
<!-- fb -->
<g id="node1" class="node">
<title>fb</title>
<path fill="#fcf3cf" stroke="black" d="M124.38,-482.25C124.38,-482.25 35.62,-482.25 35.62,-482.25 29.62,-482.25 23.62,-476.25 23.62,-470.25 23.62,-470.25 23.62,-458.25 23.62,-458.25 23.62,-452.25 29.62,-446.25 35.62,-446.25 35.62,-446.25 124.38,-446.25 124.38,-446.25 130.38,-446.25 136.38,-452.25 136.38,-458.25 136.38,-458.25 136.38,-470.25 136.38,-470.25 136.38,-476.25 130.38,-482.25 124.38,-482.25"/>
<text xml:space="preserve" text-anchor="start" x="54.88" y="-464.8" font-family="Helvetica,sans-Serif" font-weight="bold" font-size="11.00">Feedback</text>
<text xml:space="preserve" text-anchor="start" x="31.62" y="-455.7" font-family="Helvetica,sans-Serif" font-size="9.00">covered leaves · corpus</text>
</g>
<!-- pool -->
<g id="node2" class="node">
<title>pool</title>
<path fill="#1f8a70" stroke="black" d="M102.38,-400.5C102.38,-400.5 37.63,-400.5 37.63,-400.5 31.63,-400.5 25.62,-394.5 25.62,-388.5 25.62,-388.5 25.62,-375.5 25.62,-375.5 25.62,-369.5 31.62,-363.5 37.62,-363.5 37.62,-363.5 102.38,-363.5 102.38,-363.5 108.38,-363.5 114.38,-369.5 114.38,-375.5 114.38,-375.5 114.38,-388.5 114.38,-388.5 114.38,-394.5 108.38,-400.5 102.38,-400.5"/>
<text xml:space="preserve" text-anchor="start" x="58" y="-387.05" font-family="Helvetica,sans-Serif" font-weight="bold" font-size="11.00" fill="white">Pool</text>
<text xml:space="preserve" text-anchor="start" x="39.62" y="-377.95" font-family="Helvetica,sans-Serif" font-size="9.00" fill="white">inject literals of</text>
<text xml:space="preserve" text-anchor="start" x="33.62" y="-368.95" font-family="Helvetica,sans-Serif" font-size="9.00" fill="white">uncovered leaves</text>
</g>
<!-- fb&#45;&gt;pool -->
<g id="edge1" class="edge">
<title>fb&#45;&gt;pool</title>
<path fill="none" stroke="#34495e" stroke-width="1.5" stroke-dasharray="5,2" d="M77.83,-445.84C76.56,-435.67 74.94,-422.61 73.49,-411.03"/>
<polygon fill="#34495e" stroke="#34495e" stroke-width="1.5" points="76.28,-410.78 72.52,-403.19 70.73,-411.47 76.28,-410.78"/>
<text xml:space="preserve" text-anchor="middle" x="87.22" y="-419.7" font-family="Helvetica,sans-Serif" font-size="9.00">reads</text>
</g>
<!-- mut -->
<g id="node3" class="node">
<title>mut</title>
<path fill="#e67e22" stroke="black" d="M198.12,-400.5C198.12,-400.5 155.88,-400.5 155.88,-400.5 149.88,-400.5 143.88,-394.5 143.88,-388.5 143.88,-388.5 143.88,-375.5 143.88,-375.5 143.88,-369.5 149.88,-363.5 155.88,-363.5 155.88,-363.5 198.12,-363.5 198.12,-363.5 204.12,-363.5 210.12,-369.5 210.12,-375.5 210.12,-375.5 210.12,-388.5 210.12,-388.5 210.12,-394.5 204.12,-400.5 198.12,-400.5"/>
<text xml:space="preserve" text-anchor="start" x="154.12" y="-387.05" font-family="Helvetica,sans-Serif" font-weight="bold" font-size="11.00" fill="white">Mutation</text>
<text xml:space="preserve" text-anchor="start" x="158.62" y="-377.95" font-family="Helvetica,sans-Serif" font-size="9.00" fill="white">perturb a</text>
<text xml:space="preserve" text-anchor="start" x="151.88" y="-368.95" font-family="Helvetica,sans-Serif" font-size="9.00" fill="white">corpus seed</text>
</g>
<!-- fb&#45;&gt;mut -->
<g id="edge2" class="edge">
<title>fb&#45;&gt;mut</title>
<path fill="none" stroke="#34495e" stroke-width="1.5" stroke-dasharray="5,2" d="M101.05,-445.84C114.71,-434.53 132.71,-419.64 147.76,-407.19"/>
<polygon fill="#34495e" stroke="#34495e" stroke-width="1.5" points="149.19,-409.64 153.57,-402.38 145.62,-405.32 149.19,-409.64"/>
</g>
<!-- mix -->
<g id="node5" class="node">
<title>mix</title>
<path fill="#2c3e50" stroke="black" d="M216.88,-317.75C216.88,-317.75 137.12,-317.75 137.12,-317.75 131.12,-317.75 125.12,-311.75 125.12,-305.75 125.12,-305.75 125.12,-293.75 125.12,-293.75 125.12,-287.75 131.12,-281.75 137.12,-281.75 137.12,-281.75 216.88,-281.75 216.88,-281.75 222.88,-281.75 228.88,-287.75 228.88,-293.75 228.88,-293.75 228.88,-305.75 228.88,-305.75 228.88,-311.75 222.88,-317.75 216.88,-317.75"/>
<text xml:space="preserve" text-anchor="start" x="133.12" y="-296.3" font-family="Helvetica,sans-Serif" font-weight="bold" font-size="11.00" fill="white">mix</text>
<text xml:space="preserve" text-anchor="start" x="151.88" y="-296.3" font-family="Helvetica,sans-Serif" font-size="11.00" fill="white"> · </text>
<text xml:space="preserve" text-anchor="start" x="160.88" y="-296.3" font-family="Helvetica,sans-Serif" font-size="9.00" fill="white">Gen.frequency</text>
</g>
<!-- pool&#45;&gt;mix -->
<g id="edge3" class="edge">
<title>pool&#45;&gt;mix</title>
<path fill="none" stroke="#34495e" stroke-width="1.5" d="M93.75,-363.19C109.09,-351.68 129.22,-336.58 145.85,-324.12"/>
<polygon fill="#34495e" stroke="#34495e" stroke-width="1.5" points="147.15,-326.64 151.87,-319.6 143.79,-322.16 147.15,-326.64"/>
<text xml:space="preserve" text-anchor="middle" x="146.78" y="-336.95" font-family="Helvetica,sans-Serif" font-size="9.00">propose</text>
</g>
<!-- mut&#45;&gt;mix -->
<g id="edge4" class="edge">
<title>mut&#45;&gt;mix</title>
<path fill="none" stroke="#34495e" stroke-width="1.5" d="M177,-363.19C177,-352.94 177,-339.83 177,-328.28"/>
<polygon fill="#34495e" stroke="#34495e" stroke-width="1.5" points="179.8,-328.5 177,-320.5 174.2,-328.5 179.8,-328.5"/>
</g>
<!-- rand -->
<g id="node4" class="node">
<title>rand</title>
<path fill="#2e5c8a" stroke="black" d="M304.75,-400C304.75,-400 251.25,-400 251.25,-400 245.25,-400 239.25,-394 239.25,-388 239.25,-388 239.25,-376 239.25,-376 239.25,-370 245.25,-364 251.25,-364 251.25,-364 304.75,-364 304.75,-364 310.75,-364 316.75,-370 316.75,-376 316.75,-376 316.75,-388 316.75,-388 316.75,-394 310.75,-400 304.75,-400"/>
<text xml:space="preserve" text-anchor="start" x="257.75" y="-382.55" font-family="Helvetica,sans-Serif" font-weight="bold" font-size="11.00" fill="white">random</text>
<text xml:space="preserve" text-anchor="start" x="247.25" y="-373.45" font-family="Helvetica,sans-Serif" font-size="9.00" fill="white">always present</text>
</g>
<!-- rand&#45;&gt;mix -->
<g id="edge5" class="edge">
<title>rand&#45;&gt;mix</title>
<path fill="none" stroke="#34495e" stroke-width="1.5" d="M256.08,-363.59C241.66,-352.12 222.59,-336.97 206.79,-324.42"/>
<polygon fill="#34495e" stroke="#34495e" stroke-width="1.5" points="208.66,-322.33 200.65,-319.54 205.17,-326.71 208.66,-322.33"/>
</g>
<!-- nxt -->
<g id="node6" class="node">
<title>nxt</title>
<path fill="#eceff2" stroke="black" d="M196.25,-244.75C196.25,-244.75 157.75,-244.75 157.75,-244.75 151.75,-244.75 145.75,-238.75 145.75,-232.75 145.75,-232.75 145.75,-220.75 145.75,-220.75 145.75,-214.75 151.75,-208.75 157.75,-208.75 157.75,-208.75 196.25,-208.75 196.25,-208.75 202.25,-208.75 208.25,-214.75 208.25,-220.75 208.25,-220.75 208.25,-232.75 208.25,-232.75 208.25,-238.75 202.25,-244.75 196.25,-244.75"/>
<text xml:space="preserve" text-anchor="middle" x="177" y="-222.3" font-family="Helvetica,sans-Serif" font-size="11.00">next input</text>
</g>
<!-- mix&#45;&gt;nxt -->
<g id="edge6" class="edge">
<title>mix&#45;&gt;nxt</title>
<path fill="none" stroke="#34495e" stroke-width="2.2" d="M177,-281.56C177,-273.89 177,-264.64 177,-255.99"/>
<polygon fill="#34495e" stroke="#34495e" stroke-width="2.2" points="179.8,-256.11 177,-248.11 174.2,-256.11 179.8,-256.11"/>
</g>
<!-- tbl -->
<g id="node7" class="node">
<title>tbl</title>
<polygon fill="none" stroke="#9aa5b1" points="98.25,-123.5 98.25,-147.5 188.25,-147.5 188.25,-123.5 98.25,-123.5"/>
<text xml:space="preserve" text-anchor="start" x="104.25" y="-132.05" font-family="Helvetica,sans-Serif" font-weight="bold" font-size="11.00">strategy</text>
<polygon fill="#1f8a70" stroke="none" points="188.25,-123.5 188.25,-147.5 224.25,-147.5 224.25,-123.5 188.25,-123.5"/>
<polygon fill="none" stroke="#9aa5b1" points="188.25,-123.5 188.25,-147.5 224.25,-147.5 224.25,-123.5 188.25,-123.5"/>
<text xml:space="preserve" text-anchor="start" x="194.25" y="-132.05" font-family="Helvetica,sans-Serif" font-weight="bold" font-size="11.00" fill="white">Pool</text>
<polygon fill="#e67e22" stroke="none" points="224.25,-123.5 224.25,-147.5 255.75,-147.5 255.75,-123.5 224.25,-123.5"/>
<polygon fill="none" stroke="#9aa5b1" points="224.25,-123.5 224.25,-147.5 255.75,-147.5 255.75,-123.5 224.25,-123.5"/>
<text xml:space="preserve" text-anchor="start" x="230.25" y="-132.05" font-family="Helvetica,sans-Serif" font-weight="bold" font-size="11.00" fill="white">Mut</text>
<polygon fill="none" stroke="#9aa5b1" points="98.25,-98.75 98.25,-123.5 188.25,-123.5 188.25,-98.75 98.25,-98.75"/>
<text xml:space="preserve" text-anchor="start" x="104.25" y="-108.5" font-family="Courier,monospace" font-size="10.00">random</text>
<polygon fill="none" stroke="#9aa5b1" points="188.25,-98.75 188.25,-123.5 224.25,-123.5 224.25,-98.75 188.25,-98.75"/>
<text xml:space="preserve" text-anchor="start" x="204.75" y="-108.12" font-family="Helvetica,sans-Serif" font-size="11.00" fill="#c9ced4">·</text>
<polygon fill="none" stroke="#9aa5b1" points="224.25,-98.75 224.25,-123.5 255.75,-123.5 255.75,-98.75 224.25,-98.75"/>
<text xml:space="preserve" text-anchor="start" x="238.5" y="-108.12" font-family="Helvetica,sans-Serif" font-size="11.00" fill="#c9ced4">·</text>
<polygon fill="none" stroke="#9aa5b1" points="98.25,-72.5 98.25,-98.75 188.25,-98.75 188.25,-72.5 98.25,-72.5"/>
<text xml:space="preserve" text-anchor="start" x="104.25" y="-83" font-family="Courier,monospace" font-size="10.00">pool</text>
<polygon fill="none" stroke="#9aa5b1" points="188.25,-72.5 188.25,-98.75 224.25,-98.75 224.25,-72.5 188.25,-72.5"/>
<text xml:space="preserve" text-anchor="start" x="202.12" y="-83.3" font-family="Helvetica,sans-Serif" font-weight="bold" font-size="11.00" fill="#1f8a70">✓</text>
<polygon fill="none" stroke="#9aa5b1" points="224.25,-72.5 224.25,-98.75 255.75,-98.75 255.75,-72.5 224.25,-72.5"/>
<text xml:space="preserve" text-anchor="start" x="238.5" y="-82.62" font-family="Helvetica,sans-Serif" font-size="11.00" fill="#c9ced4">·</text>
<polygon fill="none" stroke="#9aa5b1" points="98.25,-46.25 98.25,-72.5 188.25,-72.5 188.25,-46.25 98.25,-46.25"/>
<text xml:space="preserve" text-anchor="start" x="104.25" y="-56.75" font-family="Courier,monospace" font-size="10.00">mutation</text>
<polygon fill="none" stroke="#9aa5b1" points="188.25,-46.25 188.25,-72.5 224.25,-72.5 224.25,-46.25 188.25,-46.25"/>
<text xml:space="preserve" text-anchor="start" x="204.75" y="-56.38" font-family="Helvetica,sans-Serif" font-size="11.00" fill="#c9ced4">·</text>
<polygon fill="none" stroke="#9aa5b1" points="224.25,-46.25 224.25,-72.5 255.75,-72.5 255.75,-46.25 224.25,-46.25"/>
<text xml:space="preserve" text-anchor="start" x="235.88" y="-57.05" font-family="Helvetica,sans-Serif" font-weight="bold" font-size="11.00" fill="#e67e22">✓</text>
<polygon fill="none" stroke="#9aa5b1" points="98.25,-20 98.25,-46.25 188.25,-46.25 188.25,-20 98.25,-20"/>
<text xml:space="preserve" text-anchor="start" x="104.25" y="-30.5" font-family="Courier,monospace" font-size="10.00">pool&#45;mutation</text>
<polygon fill="none" stroke="#9aa5b1" points="188.25,-20 188.25,-46.25 224.25,-46.25 224.25,-20 188.25,-20"/>
<text xml:space="preserve" text-anchor="start" x="202.12" y="-30.8" font-family="Helvetica,sans-Serif" font-weight="bold" font-size="11.00" fill="#1f8a70">✓</text>
<polygon fill="none" stroke="#9aa5b1" points="224.25,-20 224.25,-46.25 255.75,-46.25 255.75,-20 224.25,-20"/>
<text xml:space="preserve" text-anchor="start" x="235.88" y="-30.8" font-family="Helvetica,sans-Serif" font-weight="bold" font-size="11.00" fill="#e67e22">✓</text>
</g>
<!-- nxt&#45;&gt;tbl -->
</g>
</svg>
