<?xml version="1.0" encoding="UTF-8" standalone="no"?>
<!DOCTYPE svg PUBLIC "-//W3C//DTD SVG 1.1//EN"
 "http://www.w3.org/Graphics/SVG/1.1/DTD/svg11.dtd">
<!-- Generated by graphviz version 15.0.0 (20260523.1842)
 -->
<!-- Title: composition Pages: 1 -->
<svg width="441pt" height="552pt"
 viewBox="0.00 0.00 441.00 552.00" xmlns="http://www.w3.org/2000/svg" xmlns:xlink="http://www.w3.org/1999/xlink">
<g id="graph0" class="graph" transform="scale(1 1) rotate(0) translate(4 548.25)">
<title>composition</title>
<polygon fill="white" stroke="none" points="-4,4 -4,-548.25 437,-548.25 437,4 -4,4"/>
<text xml:space="preserve" text-anchor="start" x="110.75" y="-524.15" font-family="Helvetica,sans-Serif" font-weight="bold" font-size="18.00">How the tactics combine</text>
<g id="clust1" class="cluster">
<title>cluster_flow</title>
<path fill="#f6f8fa" stroke="#9aa5b1" d="M20,-199.25C20,-199.25 413,-199.25 413,-199.25 419,-199.25 425,-205.25 425,-211.25 425,-211.25 425,-497.5 425,-497.5 425,-503.5 419,-509.5 413,-509.5 413,-509.5 20,-509.5 20,-509.5 14,-509.5 8,-503.5 8,-497.5 8,-497.5 8,-211.25 8,-211.25 8,-205.25 14,-199.25 20,-199.25"/>
<text xml:space="preserve" text-anchor="start" x="16" y="-495.1" font-family="Helvetica,sans-Serif" font-weight="bold" font-size="12.00">One uniform loop — read context, strategy chooses the next generator</text>
</g>
<g id="clust3" class="cluster">
<title>cluster_subsets</title>
<path fill="#f5fbf8" stroke="#7fb8a4" d="M90,-8C90,-8 381,-8 381,-8 387,-8 393,-14 393,-20 393,-20 393,-168.25 393,-168.25 393,-174.25 387,-180.25 381,-180.25 381,-180.25 90,-180.25 90,-180.25 84,-180.25 78,-174.25 78,-168.25 78,-168.25 78,-20 78,-20 78,-14 84,-8 90,-8"/>
<text xml:space="preserve" text-anchor="start" x="86" y="-165.85" font-family="Helvetica,sans-Serif" font-weight="bold" font-size="12.00">A strategy = random plus selected guidance sources</text>
</g>
<!-- fb -->
<g id="node1" class="node">
<title>fb</title>
<path fill="#fcf3cf" stroke="black" d="M231,-480.75C231,-480.75 71,-480.75 71,-480.75 65,-480.75 59,-474.75 59,-468.75 59,-468.75 59,-456.75 59,-456.75 59,-450.75 65,-444.75 71,-444.75 71,-444.75 231,-444.75 231,-444.75 237,-444.75 243,-450.75 243,-456.75 243,-456.75 243,-468.75 243,-468.75 243,-474.75 237,-480.75 231,-480.75"/>
<text xml:space="preserve" text-anchor="start" x="125.88" y="-463.3" font-family="Helvetica,sans-Serif" font-weight="bold" font-size="11.00">Feedback</text>
<text xml:space="preserve" text-anchor="start" x="67" y="-454.2" font-family="Helvetica,sans-Serif" font-size="9.00">covered statements · corpus · seen inputs</text>
</g>
<!-- pool -->
<g id="node2" class="node">
<title>pool</title>
<path fill="#1f8a70" stroke="black" d="M143.88,-399C143.88,-399 52.12,-399 52.12,-399 46.12,-399 40.12,-393 40.12,-387 40.12,-387 40.12,-374 40.12,-374 40.12,-368 46.12,-362 52.12,-362 52.12,-362 143.88,-362 143.88,-362 149.88,-362 155.88,-368 155.88,-374 155.88,-374 155.88,-387 155.88,-387 155.88,-393 149.88,-399 143.88,-399"/>
<text xml:space="preserve" text-anchor="start" x="86" y="-385.55" font-family="Helvetica,sans-Serif" font-weight="bold" font-size="11.00" fill="white">Pool</text>
<text xml:space="preserve" text-anchor="start" x="59.75" y="-376.45" font-family="Helvetica,sans-Serif" font-size="9.00" fill="white">reuse literals while</text>
<text xml:space="preserve" text-anchor="start" x="48.12" y="-367.45" font-family="Helvetica,sans-Serif" font-size="9.00" fill="white">branches are uncovered</text>
</g>
<!-- fb&#45;&gt;pool -->
<g id="edge1" class="edge">
<title>fb&#45;&gt;pool</title>
<path fill="none" stroke="#34495e" stroke-width="1.5" stroke-dasharray="5,2" d="M139.5,-444.34C132.44,-433.65 123.27,-419.77 115.35,-407.77"/>
<polygon fill="#34495e" stroke="#34495e" stroke-width="1.5" points="117.84,-406.46 111.1,-401.33 113.17,-409.55 117.84,-406.46"/>
<text xml:space="preserve" text-anchor="middle" x="139.3" y="-418.2" font-family="Helvetica,sans-Serif" font-size="9.00">reads</text>
</g>
<!-- mut -->
<g id="node3" class="node">
<title>mut</title>
<path fill="#e67e22" stroke="black" d="M239.12,-399C239.12,-399 196.88,-399 196.88,-399 190.88,-399 184.88,-393 184.88,-387 184.88,-387 184.88,-374 184.88,-374 184.88,-368 190.88,-362 196.88,-362 196.88,-362 239.12,-362 239.12,-362 245.12,-362 251.12,-368 251.12,-374 251.12,-374 251.12,-387 251.12,-387 251.12,-393 245.12,-399 239.12,-399"/>
<text xml:space="preserve" text-anchor="start" x="195.12" y="-385.55" font-family="Helvetica,sans-Serif" font-weight="bold" font-size="11.00" fill="white">Mutation</text>
<text xml:space="preserve" text-anchor="start" x="199.62" y="-376.45" font-family="Helvetica,sans-Serif" font-size="9.00" fill="white">perturb a</text>
<text xml:space="preserve" text-anchor="start" x="192.88" y="-367.45" font-family="Helvetica,sans-Serif" font-size="9.00" fill="white">corpus seed</text>
</g>
<!-- fb&#45;&gt;mut -->
<g id="edge2" class="edge">
<title>fb&#45;&gt;mut</title>
<path fill="none" stroke="#34495e" stroke-width="1.5" stroke-dasharray="5,2" d="M165.54,-444.34C174.63,-433.45 186.5,-419.23 196.65,-407.07"/>
<polygon fill="#34495e" stroke="#34495e" stroke-width="1.5" points="198.59,-409.11 201.57,-401.18 194.29,-405.52 198.59,-409.11"/>
</g>
<!-- mix -->
<g id="node5" class="node">
<title>mix</title>
<path fill="#2c3e50" stroke="black" d="M269.88,-316.25C269.88,-316.25 166.12,-316.25 166.12,-316.25 160.12,-316.25 154.12,-310.25 154.12,-304.25 154.12,-304.25 154.12,-292.25 154.12,-292.25 154.12,-286.25 160.12,-280.25 166.12,-280.25 166.12,-280.25 269.88,-280.25 269.88,-280.25 275.88,-280.25 281.88,-286.25 281.88,-292.25 281.88,-292.25 281.88,-304.25 281.88,-304.25 281.88,-310.25 275.88,-316.25 269.88,-316.25"/>
<text xml:space="preserve" text-anchor="start" x="162.12" y="-294.8" font-family="Helvetica,sans-Serif" font-weight="bold" font-size="11.00" fill="white">strategy</text>
<text xml:space="preserve" text-anchor="start" x="204.88" y="-294.8" font-family="Helvetica,sans-Serif" font-size="11.00" fill="white"> · </text>
<text xml:space="preserve" text-anchor="start" x="213.88" y="-294.8" font-family="Helvetica,sans-Serif" font-size="9.00" fill="white">Gen.frequency</text>
</g>
<!-- pool&#45;&gt;mix -->
<g id="edge3" class="edge">
<title>pool&#45;&gt;mix</title>
<path fill="none" stroke="#34495e" stroke-width="1.5" d="M124.63,-361.69C142,-350.08 164.83,-334.81 183.57,-322.28"/>
<polygon fill="#34495e" stroke="#34495e" stroke-width="1.5" points="184.87,-324.77 189.97,-318 181.76,-320.12 184.87,-324.77"/>
<text xml:space="preserve" text-anchor="middle" x="183.93" y="-335.45" font-family="Helvetica,sans-Serif" font-size="9.00">available</text>
</g>
<!-- mut&#45;&gt;mix -->
<g id="edge4" class="edge">
<title>mut&#45;&gt;mix</title>
<path fill="none" stroke="#34495e" stroke-width="1.5" d="M218,-361.69C218,-351.44 218,-338.33 218,-326.78"/>
<polygon fill="#34495e" stroke="#34495e" stroke-width="1.5" points="220.8,-327 218,-319 215.2,-327 220.8,-327"/>
</g>
<!-- rand -->
<g id="node4" class="node">
<title>rand</title>
<path fill="#2e5c8a" stroke="black" d="M345.75,-398.5C345.75,-398.5 292.25,-398.5 292.25,-398.5 286.25,-398.5 280.25,-392.5 280.25,-386.5 280.25,-386.5 280.25,-374.5 280.25,-374.5 280.25,-368.5 286.25,-362.5 292.25,-362.5 292.25,-362.5 345.75,-362.5 345.75,-362.5 351.75,-362.5 357.75,-368.5 357.75,-374.5 357.75,-374.5 357.75,-386.5 357.75,-386.5 357.75,-392.5 351.75,-398.5 345.75,-398.5"/>
<text xml:space="preserve" text-anchor="start" x="298.75" y="-381.05" font-family="Helvetica,sans-Serif" font-weight="bold" font-size="11.00" fill="white">random</text>
<text xml:space="preserve" text-anchor="start" x="288.25" y="-371.95" font-family="Helvetica,sans-Serif" font-size="9.00" fill="white">always present</text>
</g>
<!-- rand&#45;&gt;mix -->
<g id="edge5" class="edge">
<title>rand&#45;&gt;mix</title>
<path fill="none" stroke="#34495e" stroke-width="1.5" d="M297.08,-362.09C282.66,-350.62 263.59,-335.47 247.79,-322.92"/>
<polygon fill="#34495e" stroke="#34495e" stroke-width="1.5" points="249.66,-320.83 241.65,-318.04 246.17,-325.21 249.66,-320.83"/>
</g>
<!-- nxt -->
<g id="node6" class="node">
<title>nxt</title>
<path fill="#eceff2" stroke="black" d="M237.25,-243.25C237.25,-243.25 198.75,-243.25 198.75,-243.25 192.75,-243.25 186.75,-237.25 186.75,-231.25 186.75,-231.25 186.75,-219.25 186.75,-219.25 186.75,-213.25 192.75,-207.25 198.75,-207.25 198.75,-207.25 237.25,-207.25 237.25,-207.25 243.25,-207.25 249.25,-213.25 249.25,-219.25 249.25,-219.25 249.25,-231.25 249.25,-231.25 249.25,-237.25 243.25,-243.25 237.25,-243.25"/>
<text xml:space="preserve" text-anchor="middle" x="218" y="-220.8" font-family="Helvetica,sans-Serif" font-size="11.00">next input</text>
</g>
<!-- mix&#45;&gt;nxt -->
<g id="edge6" class="edge">
<title>mix&#45;&gt;nxt</title>
<path fill="none" stroke="#34495e" stroke-width="2.2" d="M218,-280.06C218,-272.39 218,-263.14 218,-254.49"/>
<polygon fill="#34495e" stroke="#34495e" stroke-width="2.2" points="220.8,-254.61 218,-246.61 215.2,-254.61 220.8,-254.61"/>
</g>
<!-- tbl -->
<g id="node7" class="node">
<title>tbl</title>
<polygon fill="none" stroke="#9aa5b1" points="139.25,-123.5 139.25,-147.5 229.25,-147.5 229.25,-123.5 139.25,-123.5"/>
<text xml:space="preserve" text-anchor="start" x="145.25" y="-132.05" font-family="Helvetica,sans-Serif" font-weight="bold" font-size="11.00">strategy</text>
<polygon fill="#1f8a70" stroke="none" points="229.25,-123.5 229.25,-147.5 265.25,-147.5 265.25,-123.5 229.25,-123.5"/>
<polygon fill="none" stroke="#9aa5b1" points="229.25,-123.5 229.25,-147.5 265.25,-147.5 265.25,-123.5 229.25,-123.5"/>
<text xml:space="preserve" text-anchor="start" x="235.25" y="-132.05" font-family="Helvetica,sans-Serif" font-weight="bold" font-size="11.00" fill="white">Pool</text>
<polygon fill="#e67e22" stroke="none" points="265.25,-123.5 265.25,-147.5 296.75,-147.5 296.75,-123.5 265.25,-123.5"/>
<polygon fill="none" stroke="#9aa5b1" points="265.25,-123.5 265.25,-147.5 296.75,-147.5 296.75,-123.5 265.25,-123.5"/>
<text xml:space="preserve" text-anchor="start" x="271.25" y="-132.05" font-family="Helvetica,sans-Serif" font-weight="bold" font-size="11.00" fill="white">Mut</text>
<polygon fill="none" stroke="#9aa5b1" points="139.25,-98.75 139.25,-123.5 229.25,-123.5 229.25,-98.75 139.25,-98.75"/>
<text xml:space="preserve" text-anchor="start" x="145.25" y="-108.5" font-family="Courier,monospace" font-size="10.00">random</text>
<polygon fill="none" stroke="#9aa5b1" points="229.25,-98.75 229.25,-123.5 265.25,-123.5 265.25,-98.75 229.25,-98.75"/>
<text xml:space="preserve" text-anchor="start" x="245.75" y="-108.12" font-family="Helvetica,sans-Serif" font-size="11.00" fill="#c9ced4">·</text>
<polygon fill="none" stroke="#9aa5b1" points="265.25,-98.75 265.25,-123.5 296.75,-123.5 296.75,-98.75 265.25,-98.75"/>
<text xml:space="preserve" text-anchor="start" x="279.5" y="-108.12" font-family="Helvetica,sans-Serif" font-size="11.00" fill="#c9ced4">·</text>
<polygon fill="none" stroke="#9aa5b1" points="139.25,-72.5 139.25,-98.75 229.25,-98.75 229.25,-72.5 139.25,-72.5"/>
<text xml:space="preserve" text-anchor="start" x="145.25" y="-83" font-family="Courier,monospace" font-size="10.00">pool</text>
<polygon fill="none" stroke="#9aa5b1" points="229.25,-72.5 229.25,-98.75 265.25,-98.75 265.25,-72.5 229.25,-72.5"/>
<text xml:space="preserve" text-anchor="start" x="243.12" y="-83.3" font-family="Helvetica,sans-Serif" font-weight="bold" font-size="11.00" fill="#1f8a70">✓</text>
<polygon fill="none" stroke="#9aa5b1" points="265.25,-72.5 265.25,-98.75 296.75,-98.75 296.75,-72.5 265.25,-72.5"/>
<text xml:space="preserve" text-anchor="start" x="279.5" y="-82.62" font-family="Helvetica,sans-Serif" font-size="11.00" fill="#c9ced4">·</text>
<polygon fill="none" stroke="#9aa5b1" points="139.25,-46.25 139.25,-72.5 229.25,-72.5 229.25,-46.25 139.25,-46.25"/>
<text xml:space="preserve" text-anchor="start" x="145.25" y="-56.75" font-family="Courier,monospace" font-size="10.00">mutation</text>
<polygon fill="none" stroke="#9aa5b1" points="229.25,-46.25 229.25,-72.5 265.25,-72.5 265.25,-46.25 229.25,-46.25"/>
<text xml:space="preserve" text-anchor="start" x="245.75" y="-56.38" font-family="Helvetica,sans-Serif" font-size="11.00" fill="#c9ced4">·</text>
<polygon fill="none" stroke="#9aa5b1" points="265.25,-46.25 265.25,-72.5 296.75,-72.5 296.75,-46.25 265.25,-46.25"/>
<text xml:space="preserve" text-anchor="start" x="276.88" y="-57.05" font-family="Helvetica,sans-Serif" font-weight="bold" font-size="11.00" fill="#e67e22">✓</text>
<polygon fill="none" stroke="#9aa5b1" points="139.25,-20 139.25,-46.25 229.25,-46.25 229.25,-20 139.25,-20"/>
<text xml:space="preserve" text-anchor="start" x="145.25" y="-30.5" font-family="Courier,monospace" font-size="10.00">pool&#45;mutation</text>
<polygon fill="none" stroke="#9aa5b1" points="229.25,-20 229.25,-46.25 265.25,-46.25 265.25,-20 229.25,-20"/>
<text xml:space="preserve" text-anchor="start" x="243.12" y="-30.8" font-family="Helvetica,sans-Serif" font-weight="bold" font-size="11.00" fill="#1f8a70">✓</text>
<polygon fill="none" stroke="#9aa5b1" points="265.25,-20 265.25,-46.25 296.75,-46.25 296.75,-20 265.25,-20"/>
<text xml:space="preserve" text-anchor="start" x="276.88" y="-30.8" font-family="Helvetica,sans-Serif" font-weight="bold" font-size="11.00" fill="#e67e22">✓</text>
</g>
<!-- nxt&#45;&gt;tbl -->
</g>
</svg>
