<?xml version="1.0" encoding="UTF-8" standalone="no"?>
<!DOCTYPE svg PUBLIC "-//W3C//DTD SVG 1.1//EN"
 "http://www.w3.org/Graphics/SVG/1.1/DTD/svg11.dtd">
<!-- Generated by graphviz version 15.0.0 (20260523.1842)
 -->
<!-- Title: composition Pages: 1 -->
<svg width="514pt" height="659pt"
 viewBox="0.00 0.00 514.00 659.00" xmlns="http://www.w3.org/2000/svg" xmlns:xlink="http://www.w3.org/1999/xlink">
<g id="graph0" class="graph" transform="scale(1 1) rotate(0) translate(4 654.75)">
<title>composition</title>
<polygon fill="white" stroke="none" points="-4,4 -4,-654.75 510,-654.75 510,4 -4,4"/>
<text xml:space="preserve" text-anchor="start" x="147.25" y="-630.65" font-family="Helvetica,sans-Serif" font-weight="bold" font-size="18.00">How the tactics combine</text>
<g id="clust1" class="cluster">
<title>cluster_flow</title>
<path fill="#f6f8fa" stroke="#9aa5b1" d="M30,-305.75C30,-305.75 486,-305.75 486,-305.75 492,-305.75 498,-311.75 498,-317.75 498,-317.75 498,-604 498,-604 498,-610 492,-616 486,-616 486,-616 30,-616 30,-616 24,-616 18,-610 18,-604 18,-604 18,-317.75 18,-317.75 18,-311.75 24,-305.75 30,-305.75"/>
<text xml:space="preserve" text-anchor="start" x="26" y="-601.6" font-family="Helvetica,sans-Serif" font-weight="bold" font-size="12.00">One uniform loop — read Feedback, each active tactic proposes, mix with random</text>
</g>
<g id="clust3" class="cluster">
<title>cluster_subsets</title>
<path fill="#f5fbf8" stroke="#7fb8a4" d="M20,-8C20,-8 401,-8 401,-8 407,-8 413,-14 413,-20 413,-20 413,-274.75 413,-274.75 413,-280.75 407,-286.75 401,-286.75 401,-286.75 20,-286.75 20,-286.75 14,-286.75 8,-280.75 8,-274.75 8,-274.75 8,-20 8,-20 8,-14 14,-8 20,-8"/>
<text xml:space="preserve" text-anchor="start" x="16" y="-272.35" font-family="Helvetica,sans-Serif" font-weight="bold" font-size="12.00">A strategy = which tactics are on ⇒ the 8 strategies are the 8 subsets</text>
</g>
<!-- fb -->
<g id="node1" class="node">
<title>fb</title>
<path fill="#fcf3cf" stroke="black" d="M242.38,-587.25C242.38,-587.25 153.62,-587.25 153.62,-587.25 147.62,-587.25 141.62,-581.25 141.62,-575.25 141.62,-575.25 141.62,-563.25 141.62,-563.25 141.62,-557.25 147.62,-551.25 153.62,-551.25 153.62,-551.25 242.38,-551.25 242.38,-551.25 248.38,-551.25 254.38,-557.25 254.38,-563.25 254.38,-563.25 254.38,-575.25 254.38,-575.25 254.38,-581.25 248.38,-587.25 242.38,-587.25"/>
<text xml:space="preserve" text-anchor="start" x="172.88" y="-569.8" font-family="Helvetica,sans-Serif" font-weight="bold" font-size="11.00">Feedback</text>
<text xml:space="preserve" text-anchor="start" x="149.62" y="-560.7" font-family="Helvetica,sans-Serif" font-size="9.00">covered leaves · corpus</text>
</g>
<!-- pool -->
<g id="node2" class="node">
<title>pool</title>
<path fill="#1f8a70" stroke="black" d="M123.38,-505.5C123.38,-505.5 58.63,-505.5 58.63,-505.5 52.62,-505.5 46.62,-499.5 46.62,-493.5 46.62,-493.5 46.62,-480.5 46.62,-480.5 46.62,-474.5 52.62,-468.5 58.62,-468.5 58.62,-468.5 123.38,-468.5 123.38,-468.5 129.38,-468.5 135.38,-474.5 135.38,-480.5 135.38,-480.5 135.38,-493.5 135.38,-493.5 135.38,-499.5 129.38,-505.5 123.38,-505.5"/>
<text xml:space="preserve" text-anchor="start" x="79" y="-492.05" font-family="Helvetica,sans-Serif" font-weight="bold" font-size="11.00" fill="white">Pool</text>
<text xml:space="preserve" text-anchor="start" x="60.62" y="-482.95" font-family="Helvetica,sans-Serif" font-size="9.00" fill="white">inject literals of</text>
<text xml:space="preserve" text-anchor="start" x="54.62" y="-473.95" font-family="Helvetica,sans-Serif" font-size="9.00" fill="white">uncovered leaves</text>
</g>
<!-- fb&#45;&gt;pool -->
<g id="edge1" class="edge">
<title>fb&#45;&gt;pool</title>
<path fill="none" stroke="#34495e" stroke-width="1.5" stroke-dasharray="5,2" d="M174.78,-550.84C159.57,-539.43 139.49,-524.37 122.8,-511.85"/>
<polygon fill="#34495e" stroke="#34495e" stroke-width="1.5" points="124.81,-509.86 116.73,-507.3 121.45,-514.34 124.81,-509.86"/>
<text xml:space="preserve" text-anchor="middle" x="162.53" y="-524.7" font-family="Helvetica,sans-Serif" font-size="9.00">reads</text>
</g>
<!-- mut -->
<g id="node3" class="node">
<title>mut</title>
<path fill="#e67e22" stroke="black" d="M219.12,-505.5C219.12,-505.5 176.88,-505.5 176.88,-505.5 170.88,-505.5 164.88,-499.5 164.88,-493.5 164.88,-493.5 164.88,-480.5 164.88,-480.5 164.88,-474.5 170.88,-468.5 176.88,-468.5 176.88,-468.5 219.12,-468.5 219.12,-468.5 225.12,-468.5 231.12,-474.5 231.12,-480.5 231.12,-480.5 231.12,-493.5 231.12,-493.5 231.12,-499.5 225.12,-505.5 219.12,-505.5"/>
<text xml:space="preserve" text-anchor="start" x="175.12" y="-492.05" font-family="Helvetica,sans-Serif" font-weight="bold" font-size="11.00" fill="white">Mutation</text>
<text xml:space="preserve" text-anchor="start" x="179.62" y="-482.95" font-family="Helvetica,sans-Serif" font-size="9.00" fill="white">perturb a</text>
<text xml:space="preserve" text-anchor="start" x="172.88" y="-473.95" font-family="Helvetica,sans-Serif" font-size="9.00" fill="white">corpus seed</text>
</g>
<!-- fb&#45;&gt;mut -->
<g id="edge2" class="edge">
<title>fb&#45;&gt;mut</title>
<path fill="none" stroke="#34495e" stroke-width="1.5" stroke-dasharray="5,2" d="M198,-550.84C198,-540.67 198,-527.61 198,-516.03"/>
<polygon fill="#34495e" stroke="#34495e" stroke-width="1.5" points="200.8,-516.21 198,-508.21 195.2,-516.21 200.8,-516.21"/>
</g>
<!-- grad -->
<g id="node4" class="node">
<title>grad</title>
<path fill="#c0392b" stroke="black" d="M328.25,-505.5C328.25,-505.5 271.75,-505.5 271.75,-505.5 265.75,-505.5 259.75,-499.5 259.75,-493.5 259.75,-493.5 259.75,-480.5 259.75,-480.5 259.75,-474.5 265.75,-468.5 271.75,-468.5 271.75,-468.5 328.25,-468.5 328.25,-468.5 334.25,-468.5 340.25,-474.5 340.25,-480.5 340.25,-480.5 340.25,-493.5 340.25,-493.5 340.25,-499.5 334.25,-505.5 328.25,-505.5"/>
<text xml:space="preserve" text-anchor="start" x="277.5" y="-492.05" font-family="Helvetica,sans-Serif" font-weight="bold" font-size="11.00" fill="white">Gradient</text>
<text xml:space="preserve" text-anchor="start" x="267.75" y="-482.95" font-family="Helvetica,sans-Serif" font-size="9.00" fill="white">climb to nearest</text>
<text xml:space="preserve" text-anchor="start" x="269.62" y="-473.95" font-family="Helvetica,sans-Serif" font-size="9.00" fill="white">uncovered leaf</text>
</g>
<!-- fb&#45;&gt;grad -->
<g id="edge3" class="edge">
<title>fb&#45;&gt;grad</title>
<path fill="none" stroke="#34495e" stroke-width="1.5" stroke-dasharray="5,2" d="M220.13,-550.84C234.5,-539.53 253.43,-524.64 269.25,-512.19"/>
<polygon fill="#34495e" stroke="#34495e" stroke-width="1.5" points="270.86,-514.49 275.42,-507.34 267.4,-510.08 270.86,-514.49"/>
</g>
<!-- mix -->
<g id="node6" class="node">
<title>mix</title>
<path fill="#2c3e50" stroke="black" d="M282.5,-422.75C282.5,-422.75 137.5,-422.75 137.5,-422.75 131.5,-422.75 125.5,-416.75 125.5,-410.75 125.5,-410.75 125.5,-398.75 125.5,-398.75 125.5,-392.75 131.5,-386.75 137.5,-386.75 137.5,-386.75 282.5,-386.75 282.5,-386.75 288.5,-386.75 294.5,-392.75 294.5,-398.75 294.5,-398.75 294.5,-410.75 294.5,-410.75 294.5,-416.75 288.5,-422.75 282.5,-422.75"/>
<text xml:space="preserve" text-anchor="start" x="133.5" y="-401.3" font-family="Helvetica,sans-Serif" font-weight="bold" font-size="11.00" fill="white">mix</text>
<text xml:space="preserve" text-anchor="start" x="152.25" y="-401.3" font-family="Helvetica,sans-Serif" font-size="11.00" fill="white"> · </text>
<text xml:space="preserve" text-anchor="start" x="161.25" y="-401.3" font-family="Helvetica,sans-Serif" font-size="9.00" fill="white">Gen.frequency (equal weights)</text>
</g>
<!-- pool&#45;&gt;mix -->
<g id="edge4" class="edge">
<title>pool&#45;&gt;mix</title>
<path fill="none" stroke="#34495e" stroke-width="1.5" d="M117.41,-468.19C134.55,-456.63 157.07,-441.45 175.6,-428.95"/>
<polygon fill="#34495e" stroke="#34495e" stroke-width="1.5" points="177.12,-431.3 182.19,-424.5 173.99,-426.66 177.12,-431.3"/>
<text xml:space="preserve" text-anchor="middle" x="174.5" y="-441.95" font-family="Helvetica,sans-Serif" font-size="9.00">propose</text>
</g>
<!-- mut&#45;&gt;mix -->
<g id="edge5" class="edge">
<title>mut&#45;&gt;mix</title>
<path fill="none" stroke="#34495e" stroke-width="1.5" d="M200.66,-468.19C202.2,-457.94 204.16,-444.83 205.88,-433.28"/>
<polygon fill="#34495e" stroke="#34495e" stroke-width="1.5" points="208.64,-433.81 207.05,-425.48 203.1,-432.98 208.64,-433.81"/>
</g>
<!-- grad&#45;&gt;mix -->
<g id="edge6" class="edge">
<title>grad&#45;&gt;mix</title>
<path fill="none" stroke="#34495e" stroke-width="1.5" d="M280.03,-468.19C267.35,-456.89 250.8,-442.13 236.97,-429.8"/>
<polygon fill="#34495e" stroke="#34495e" stroke-width="1.5" points="239.14,-427.98 231.3,-424.75 235.41,-432.16 239.14,-427.98"/>
</g>
<!-- rand -->
<g id="node5" class="node">
<title>rand</title>
<path fill="#2e5c8a" stroke="black" d="M434.75,-505C434.75,-505 381.25,-505 381.25,-505 375.25,-505 369.25,-499 369.25,-493 369.25,-493 369.25,-481 369.25,-481 369.25,-475 375.25,-469 381.25,-469 381.25,-469 434.75,-469 434.75,-469 440.75,-469 446.75,-475 446.75,-481 446.75,-481 446.75,-493 446.75,-493 446.75,-499 440.75,-505 434.75,-505"/>
<text xml:space="preserve" text-anchor="start" x="387.75" y="-487.55" font-family="Helvetica,sans-Serif" font-weight="bold" font-size="11.00" fill="white">random</text>
<text xml:space="preserve" text-anchor="start" x="377.25" y="-478.45" font-family="Helvetica,sans-Serif" font-size="9.00" fill="white">always present</text>
</g>
<!-- rand&#45;&gt;mix -->
<g id="edge7" class="edge">
<title>rand&#45;&gt;mix</title>
<path fill="none" stroke="#34495e" stroke-width="1.5" d="M368.88,-470.15C338.39,-457.79 295.76,-440.51 262.33,-426.96"/>
<polygon fill="#34495e" stroke="#34495e" stroke-width="1.5" points="263.73,-424.51 255.27,-424.1 261.63,-429.7 263.73,-424.51"/>
</g>
<!-- nxt -->
<g id="node7" class="node">
<title>nxt</title>
<path fill="#eceff2" stroke="black" d="M229.25,-349.75C229.25,-349.75 190.75,-349.75 190.75,-349.75 184.75,-349.75 178.75,-343.75 178.75,-337.75 178.75,-337.75 178.75,-325.75 178.75,-325.75 178.75,-319.75 184.75,-313.75 190.75,-313.75 190.75,-313.75 229.25,-313.75 229.25,-313.75 235.25,-313.75 241.25,-319.75 241.25,-325.75 241.25,-325.75 241.25,-337.75 241.25,-337.75 241.25,-343.75 235.25,-349.75 229.25,-349.75"/>
<text xml:space="preserve" text-anchor="middle" x="210" y="-327.3" font-family="Helvetica,sans-Serif" font-size="11.00">next input</text>
</g>
<!-- mix&#45;&gt;nxt -->
<g id="edge8" class="edge">
<title>mix&#45;&gt;nxt</title>
<path fill="none" stroke="#34495e" stroke-width="2.2" d="M210,-386.56C210,-378.89 210,-369.64 210,-360.99"/>
<polygon fill="#34495e" stroke="#34495e" stroke-width="2.2" points="212.8,-361.11 210,-353.11 207.2,-361.11 212.8,-361.11"/>
</g>
<!-- tbl -->
<g id="node8" class="node">
<title>tbl</title>
<polygon fill="none" stroke="#9aa5b1" points="43.5,-228.5 43.5,-252.5 271.5,-252.5 271.5,-228.5 43.5,-228.5"/>
<text xml:space="preserve" text-anchor="start" x="49.5" y="-237.05" font-family="Helvetica,sans-Serif" font-weight="bold" font-size="11.00">strategy</text>
<polygon fill="#1f8a70" stroke="none" points="271.5,-228.5 271.5,-252.5 307.5,-252.5 307.5,-228.5 271.5,-228.5"/>
<polygon fill="none" stroke="#9aa5b1" points="271.5,-228.5 271.5,-252.5 307.5,-252.5 307.5,-228.5 271.5,-228.5"/>
<text xml:space="preserve" text-anchor="start" x="277.5" y="-237.05" font-family="Helvetica,sans-Serif" font-weight="bold" font-size="11.00" fill="white">Pool</text>
<polygon fill="#e67e22" stroke="none" points="307.5,-228.5 307.5,-252.5 339,-252.5 339,-228.5 307.5,-228.5"/>
<polygon fill="none" stroke="#9aa5b1" points="307.5,-228.5 307.5,-252.5 339,-252.5 339,-228.5 307.5,-228.5"/>
<text xml:space="preserve" text-anchor="start" x="313.5" y="-237.05" font-family="Helvetica,sans-Serif" font-weight="bold" font-size="11.00" fill="white">Mut</text>
<polygon fill="#c0392b" stroke="none" points="339,-228.5 339,-252.5 376.5,-252.5 376.5,-228.5 339,-228.5"/>
<polygon fill="none" stroke="#9aa5b1" points="339,-228.5 339,-252.5 376.5,-252.5 376.5,-228.5 339,-228.5"/>
<text xml:space="preserve" text-anchor="start" x="345" y="-237.05" font-family="Helvetica,sans-Serif" font-weight="bold" font-size="11.00" fill="white">Grad</text>
<polygon fill="none" stroke="#9aa5b1" points="43.5,-203.75 43.5,-228.5 271.5,-228.5 271.5,-203.75 43.5,-203.75"/>
<text xml:space="preserve" text-anchor="start" x="49.5" y="-213.5" font-family="Courier,monospace" font-size="10.00">random</text>
<polygon fill="none" stroke="#9aa5b1" points="271.5,-203.75 271.5,-228.5 307.5,-228.5 307.5,-203.75 271.5,-203.75"/>
<text xml:space="preserve" text-anchor="start" x="288" y="-213.12" font-family="Helvetica,sans-Serif" font-size="11.00" fill="#c9ced4">·</text>
<polygon fill="none" stroke="#9aa5b1" points="307.5,-203.75 307.5,-228.5 339,-228.5 339,-203.75 307.5,-203.75"/>
<text xml:space="preserve" text-anchor="start" x="321.75" y="-213.12" font-family="Helvetica,sans-Serif" font-size="11.00" fill="#c9ced4">·</text>
<polygon fill="none" stroke="#9aa5b1" points="339,-203.75 339,-228.5 376.5,-228.5 376.5,-203.75 339,-203.75"/>
<text xml:space="preserve" text-anchor="start" x="356.25" y="-213.12" font-family="Helvetica,sans-Serif" font-size="11.00" fill="#c9ced4">·</text>
<polygon fill="none" stroke="#9aa5b1" points="43.5,-177.5 43.5,-203.75 271.5,-203.75 271.5,-177.5 43.5,-177.5"/>
<text xml:space="preserve" text-anchor="start" x="49.5" y="-188" font-family="Courier,monospace" font-size="10.00">random&#45;pool</text>
<polygon fill="none" stroke="#9aa5b1" points="271.5,-177.5 271.5,-203.75 307.5,-203.75 307.5,-177.5 271.5,-177.5"/>
<text xml:space="preserve" text-anchor="start" x="285.38" y="-188.3" font-family="Helvetica,sans-Serif" font-weight="bold" font-size="11.00" fill="#1f8a70">✓</text>
<polygon fill="none" stroke="#9aa5b1" points="307.5,-177.5 307.5,-203.75 339,-203.75 339,-177.5 307.5,-177.5"/>
<text xml:space="preserve" text-anchor="start" x="321.75" y="-187.62" font-family="Helvetica,sans-Serif" font-size="11.00" fill="#c9ced4">·</text>
<polygon fill="none" stroke="#9aa5b1" points="339,-177.5 339,-203.75 376.5,-203.75 376.5,-177.5 339,-177.5"/>
<text xml:space="preserve" text-anchor="start" x="356.25" y="-187.62" font-family="Helvetica,sans-Serif" font-size="11.00" fill="#c9ced4">·</text>
<polygon fill="none" stroke="#9aa5b1" points="43.5,-151.25 43.5,-177.5 271.5,-177.5 271.5,-151.25 43.5,-151.25"/>
<text xml:space="preserve" text-anchor="start" x="49.5" y="-161.75" font-family="Courier,monospace" font-size="10.00">mutation&#45;guided</text>
<polygon fill="none" stroke="#9aa5b1" points="271.5,-151.25 271.5,-177.5 307.5,-177.5 307.5,-151.25 271.5,-151.25"/>
<text xml:space="preserve" text-anchor="start" x="288" y="-161.38" font-family="Helvetica,sans-Serif" font-size="11.00" fill="#c9ced4">·</text>
<polygon fill="none" stroke="#9aa5b1" points="307.5,-151.25 307.5,-177.5 339,-177.5 339,-151.25 307.5,-151.25"/>
<text xml:space="preserve" text-anchor="start" x="319.12" y="-162.05" font-family="Helvetica,sans-Serif" font-weight="bold" font-size="11.00" fill="#e67e22">✓</text>
<polygon fill="none" stroke="#9aa5b1" points="339,-151.25 339,-177.5 376.5,-177.5 376.5,-151.25 339,-151.25"/>
<text xml:space="preserve" text-anchor="start" x="356.25" y="-161.38" font-family="Helvetica,sans-Serif" font-size="11.00" fill="#c9ced4">·</text>
<polygon fill="none" stroke="#9aa5b1" points="43.5,-125 43.5,-151.25 271.5,-151.25 271.5,-125 43.5,-125"/>
<text xml:space="preserve" text-anchor="start" x="49.5" y="-135.5" font-family="Courier,monospace" font-size="10.00">mutation&#45;guided&#45;pool</text>
<polygon fill="none" stroke="#9aa5b1" points="271.5,-125 271.5,-151.25 307.5,-151.25 307.5,-125 271.5,-125"/>
<text xml:space="preserve" text-anchor="start" x="285.38" y="-135.8" font-family="Helvetica,sans-Serif" font-weight="bold" font-size="11.00" fill="#1f8a70">✓</text>
<polygon fill="none" stroke="#9aa5b1" points="307.5,-125 307.5,-151.25 339,-151.25 339,-125 307.5,-125"/>
<text xml:space="preserve" text-anchor="start" x="319.12" y="-135.8" font-family="Helvetica,sans-Serif" font-weight="bold" font-size="11.00" fill="#e67e22">✓</text>
<polygon fill="none" stroke="#9aa5b1" points="339,-125 339,-151.25 376.5,-151.25 376.5,-125 339,-125"/>
<text xml:space="preserve" text-anchor="start" x="356.25" y="-135.12" font-family="Helvetica,sans-Serif" font-size="11.00" fill="#c9ced4">·</text>
<polygon fill="none" stroke="#9aa5b1" points="43.5,-98.75 43.5,-125 271.5,-125 271.5,-98.75 43.5,-98.75"/>
<text xml:space="preserve" text-anchor="start" x="49.5" y="-109.25" font-family="Courier,monospace" font-size="10.00">coverage&#45;guided</text>
<polygon fill="none" stroke="#9aa5b1" points="271.5,-98.75 271.5,-125 307.5,-125 307.5,-98.75 271.5,-98.75"/>
<text xml:space="preserve" text-anchor="start" x="288" y="-108.88" font-family="Helvetica,sans-Serif" font-size="11.00" fill="#c9ced4">·</text>
<polygon fill="none" stroke="#9aa5b1" points="307.5,-98.75 307.5,-125 339,-125 339,-98.75 307.5,-98.75"/>
<text xml:space="preserve" text-anchor="start" x="321.75" y="-108.88" font-family="Helvetica,sans-Serif" font-size="11.00" fill="#c9ced4">·</text>
<polygon fill="none" stroke="#9aa5b1" points="339,-98.75 339,-125 376.5,-125 376.5,-98.75 339,-98.75"/>
<text xml:space="preserve" text-anchor="start" x="353.62" y="-109.55" font-family="Helvetica,sans-Serif" font-weight="bold" font-size="11.00" fill="#c0392b">✓</text>
<polygon fill="none" stroke="#9aa5b1" points="43.5,-72.5 43.5,-98.75 271.5,-98.75 271.5,-72.5 43.5,-72.5"/>
<text xml:space="preserve" text-anchor="start" x="49.5" y="-83" font-family="Courier,monospace" font-size="10.00">coverage&#45;guided&#45;pool</text>
<polygon fill="none" stroke="#9aa5b1" points="271.5,-72.5 271.5,-98.75 307.5,-98.75 307.5,-72.5 271.5,-72.5"/>
<text xml:space="preserve" text-anchor="start" x="285.38" y="-83.3" font-family="Helvetica,sans-Serif" font-weight="bold" font-size="11.00" fill="#1f8a70">✓</text>
<polygon fill="none" stroke="#9aa5b1" points="307.5,-72.5 307.5,-98.75 339,-98.75 339,-72.5 307.5,-72.5"/>
<text xml:space="preserve" text-anchor="start" x="321.75" y="-82.62" font-family="Helvetica,sans-Serif" font-size="11.00" fill="#c9ced4">·</text>
<polygon fill="none" stroke="#9aa5b1" points="339,-72.5 339,-98.75 376.5,-98.75 376.5,-72.5 339,-72.5"/>
<text xml:space="preserve" text-anchor="start" x="353.62" y="-83.3" font-family="Helvetica,sans-Serif" font-weight="bold" font-size="11.00" fill="#c0392b">✓</text>
<polygon fill="none" stroke="#9aa5b1" points="43.5,-46.25 43.5,-72.5 271.5,-72.5 271.5,-46.25 43.5,-46.25"/>
<text xml:space="preserve" text-anchor="start" x="49.5" y="-56.75" font-family="Courier,monospace" font-size="10.00">coverage&#45;guided&#45;mutation&#45;guided</text>
<polygon fill="none" stroke="#9aa5b1" points="271.5,-46.25 271.5,-72.5 307.5,-72.5 307.5,-46.25 271.5,-46.25"/>
<text xml:space="preserve" text-anchor="start" x="288" y="-56.38" font-family="Helvetica,sans-Serif" font-size="11.00" fill="#c9ced4">·</text>
<polygon fill="none" stroke="#9aa5b1" points="307.5,-46.25 307.5,-72.5 339,-72.5 339,-46.25 307.5,-46.25"/>
<text xml:space="preserve" text-anchor="start" x="319.12" y="-57.05" font-family="Helvetica,sans-Serif" font-weight="bold" font-size="11.00" fill="#e67e22">✓</text>
<polygon fill="none" stroke="#9aa5b1" points="339,-46.25 339,-72.5 376.5,-72.5 376.5,-46.25 339,-46.25"/>
<text xml:space="preserve" text-anchor="start" x="353.62" y="-57.05" font-family="Helvetica,sans-Serif" font-weight="bold" font-size="11.00" fill="#c0392b">✓</text>
<polygon fill="none" stroke="#9aa5b1" points="43.5,-20 43.5,-46.25 271.5,-46.25 271.5,-20 43.5,-20"/>
<text xml:space="preserve" text-anchor="start" x="49.5" y="-30.5" font-family="Courier,monospace" font-size="10.00">coverage&#45;guided&#45;mutation&#45;guided&#45;pool</text>
<polygon fill="none" stroke="#9aa5b1" points="271.5,-20 271.5,-46.25 307.5,-46.25 307.5,-20 271.5,-20"/>
<text xml:space="preserve" text-anchor="start" x="285.38" y="-30.8" font-family="Helvetica,sans-Serif" font-weight="bold" font-size="11.00" fill="#1f8a70">✓</text>
<polygon fill="none" stroke="#9aa5b1" points="307.5,-20 307.5,-46.25 339,-46.25 339,-20 307.5,-20"/>
<text xml:space="preserve" text-anchor="start" x="319.12" y="-30.8" font-family="Helvetica,sans-Serif" font-weight="bold" font-size="11.00" fill="#e67e22">✓</text>
<polygon fill="none" stroke="#9aa5b1" points="339,-20 339,-46.25 376.5,-46.25 376.5,-20 339,-20"/>
<text xml:space="preserve" text-anchor="start" x="353.62" y="-30.8" font-family="Helvetica,sans-Serif" font-weight="bold" font-size="11.00" fill="#c0392b">✓</text>
</g>
<!-- nxt&#45;&gt;tbl -->
</g>
</svg>
