<?xml version="1.0" encoding="UTF-8" standalone="no"?>
<!DOCTYPE svg PUBLIC "-//W3C//DTD SVG 1.1//EN"
 "http://www.w3.org/Graphics/SVG/1.1/DTD/svg11.dtd">
<!-- Generated by graphviz version 15.0.0 (20260523.1842)
 -->
<!-- Title: gradient Pages: 1 -->
<svg width="250pt" height="525pt"
 viewBox="0.00 0.00 250.00 525.00" xmlns="http://www.w3.org/2000/svg" xmlns:xlink="http://www.w3.org/1999/xlink">
<g id="graph0" class="graph" transform="scale(1 1) rotate(0) translate(4 521.02)">
<title>gradient</title>
<polygon fill="white" stroke="none" points="-4,4 -4,-521.02 245.8,-521.02 245.8,4 -4,4"/>
<text xml:space="preserve" text-anchor="start" x="31.27" y="-495.02" font-family="Helvetica,sans-Serif" font-weight="bold" font-size="20.00">gradient</text>
<text xml:space="preserve" text-anchor="start" x="109.27" y="-495.02" font-family="Helvetica,sans-Serif" font-size="20.00"> &#160;+ &#160;random</text>
<!-- rand -->
<g id="node1" class="node">
<title>rand</title>
<path fill="#e4ecf5" stroke="black" stroke-width="0" d="M109.67,-488.02C109.67,-488.02 14.42,-488.02 14.42,-488.02 8.42,-488.02 2.42,-482.02 2.42,-476.02 2.42,-476.02 2.42,-453.98 2.42,-453.98 2.42,-447.98 8.42,-441.98 14.42,-441.98 14.42,-441.98 109.67,-441.98 109.67,-441.98 115.67,-441.98 121.67,-447.98 121.67,-453.98 121.67,-453.98 121.67,-476.02 121.67,-476.02 121.67,-482.02 115.67,-488.02 109.67,-488.02"/>
<text xml:space="preserve" text-anchor="start" x="39.55" y="-465.15" font-family="Helvetica,sans-Serif" font-size="13.00">random</text>
<text xml:space="preserve" text-anchor="start" x="20.42" y="-455" font-family="Helvetica,sans-Serif" font-size="10.00" fill="#5b6b7b">a fresh typed value</text>
</g>
<!-- pick -->
<g id="node4" class="node">
<title>pick</title>
<ellipse fill="#eef1f4" stroke="black" stroke-width="0" cx="62.05" cy="-352.18" rx="62.05" ry="32.56"/>
<text xml:space="preserve" text-anchor="start" x="48.55" y="-352.33" font-family="Helvetica,sans-Serif" font-weight="bold" font-size="13.00">pick</text>
<text xml:space="preserve" text-anchor="start" x="36.17" y="-342.18" font-family="Helvetica,sans-Serif" font-size="10.00" fill="#5b6b7b">the strategy</text>
</g>
<!-- rand&#45;&gt;pick -->
<g id="edge1" class="edge">
<title>rand&#45;&gt;pick</title>
<path fill="none" stroke="#8a95a1" stroke-width="1.7" d="M62.05,-442.1C62.05,-428.78 62.05,-411.31 62.05,-395.39"/>
<polygon fill="#8a95a1" stroke="#8a95a1" stroke-width="1.7" points="65.02,-395.75 62.05,-387.25 59.07,-395.75 65.02,-395.75"/>
<text xml:space="preserve" text-anchor="middle" x="89.42" y="-409.01" font-family="Helvetica,sans-Serif" font-size="10.50" fill="#566069">typed value</text>
</g>
<!-- grad -->
<g id="node2" class="node">
<title>grad</title>
<path fill="#f6d8d5" stroke="black" stroke-width="0" d="M117.67,-56.04C117.67,-56.04 28.42,-56.04 28.42,-56.04 22.42,-56.04 16.42,-50.04 16.42,-44.04 16.42,-44.04 16.42,-12 16.42,-12 16.42,-6 22.42,0 28.42,0 28.42,0 117.67,0 117.67,0 123.67,0 129.67,-6 129.67,-12 129.67,-12 129.67,-44.04 129.67,-44.04 129.67,-50.04 123.67,-56.04 117.67,-56.04"/>
<text xml:space="preserve" text-anchor="start" x="46.42" y="-33.17" font-family="Helvetica,sans-Serif" font-weight="bold" font-size="13.00">gradient</text>
<text xml:space="preserve" text-anchor="start" x="37.05" y="-23.02" font-family="Helvetica,sans-Serif" font-size="10.00" fill="#9a4039">nudge toward an</text>
<text xml:space="preserve" text-anchor="start" x="34.42" y="-13.02" font-family="Helvetica,sans-Serif" font-size="10.00" fill="#9a4039">uncovered branch</text>
</g>
<!-- grad&#45;&gt;pick -->
<g id="edge2" class="edge">
<title>grad&#45;&gt;pick</title>
<path fill="none" stroke="#8a95a1" stroke-width="1.7" d="M72.13,-56.02C70.21,-112.04 65.8,-241.32 63.5,-308.66"/>
<polygon fill="#8a95a1" stroke="#8a95a1" stroke-width="1.7" points="60.53,-308.53 63.21,-317.13 66.47,-308.73 60.53,-308.53"/>
<text xml:space="preserve" text-anchor="middle" x="94.8" y="-193.6" font-family="Helvetica,sans-Serif" font-size="10.50" fill="#566069">typed value</text>
</g>
<!-- closest -->
<g id="node3" class="node">
<title>closest</title>
<path fill="#f6d8d5" stroke="black" stroke-width="0" d="M217.42,-169.33C217.42,-169.33 114.67,-169.33 114.67,-169.33 108.67,-169.33 102.67,-163.33 102.67,-157.33 102.67,-157.33 102.67,-125.29 102.67,-125.29 102.67,-119.29 108.67,-113.29 114.67,-113.29 114.67,-113.29 217.42,-113.29 217.42,-113.29 223.42,-113.29 229.42,-119.29 229.42,-125.29 229.42,-125.29 229.42,-157.33 229.42,-157.33 229.42,-163.33 223.42,-169.33 217.42,-169.33"/>
<text xml:space="preserve" text-anchor="start" x="128.55" y="-146.46" font-family="Helvetica,sans-Serif" font-size="13.00">closest input</text>
<text xml:space="preserve" text-anchor="start" x="122.17" y="-136.31" font-family="Helvetica,sans-Serif" font-size="10.00" fill="#9a4039">smallest distance to</text>
<text xml:space="preserve" text-anchor="start" x="120.67" y="-126.31" font-family="Helvetica,sans-Serif" font-size="10.00" fill="#9a4039">an uncovered branch</text>
</g>
<!-- closest&#45;&gt;grad -->
<g id="edge3" class="edge">
<title>closest&#45;&gt;grad</title>
<path fill="none" stroke="#8a95a1" stroke-width="1.7" d="M143.54,-113.37C131.08,-98.47 115.47,-79.79 102.11,-63.8"/>
<polygon fill="#8a95a1" stroke="#8a95a1" stroke-width="1.7" points="104.74,-62.3 97,-57.69 100.17,-66.12 104.74,-62.3"/>
<text xml:space="preserve" text-anchor="middle" x="141.46" y="-80.31" font-family="Helvetica,sans-Serif" font-size="10.50" fill="#566069">nudge it</text>
</g>
<!-- run -->
<g id="node5" class="node">
<title>run</title>
<path fill="#f6edcf" stroke="black" stroke-width="0" d="M208.8,-272.62C208.8,-272.62 117.3,-272.62 117.3,-272.62 111.3,-272.62 105.3,-266.62 105.3,-260.62 105.3,-260.62 105.3,-238.58 105.3,-238.58 105.3,-232.58 111.3,-226.58 117.3,-226.58 117.3,-226.58 208.8,-226.58 208.8,-226.58 214.8,-226.58 220.8,-232.58 220.8,-238.58 220.8,-238.58 220.8,-260.62 220.8,-260.62 220.8,-266.62 214.8,-272.62 208.8,-272.62"/>
<text xml:space="preserve" text-anchor="start" x="152.17" y="-249.75" font-family="Helvetica,sans-Serif" font-weight="bold" font-size="13.00">run</text>
<text xml:space="preserve" text-anchor="start" x="123.3" y="-239.6" font-family="Helvetica,sans-Serif" font-size="10.00" fill="#8a7a40">instrumented SUT</text>
</g>
<!-- pick&#45;&gt;run -->
<g id="edge4" class="edge">
<title>pick&#45;&gt;run</title>
<path fill="none" stroke="#8a95a1" stroke-width="1.7" d="M90.18,-323.16C103.65,-309.75 119.78,-293.69 133.43,-280.09"/>
<polygon fill="#8a95a1" stroke="#8a95a1" stroke-width="1.7" points="135.4,-282.33 139.32,-274.23 131.2,-278.12 135.4,-282.33"/>
</g>
<!-- run&#45;&gt;closest -->
<g id="edge5" class="edge">
<title>run&#45;&gt;closest</title>
<path fill="none" stroke="#c25a50" stroke-width="1.7" stroke-dasharray="5,2" d="M163.66,-226.83C164.04,-213.35 164.54,-195.65 164.99,-179.95"/>
<polygon fill="#c25a50" stroke="#c25a50" stroke-width="1.7" points="167.96,-180.1 165.22,-171.52 162.01,-179.93 167.96,-180.1"/>
<text xml:space="preserve" text-anchor="middle" x="203.17" y="-193.6" font-family="Helvetica,sans-Serif" font-size="10.50" fill="#9a4039">keep the closest</text>
</g>
</g>
</svg>
