<?xml version="1.0" encoding="UTF-8" standalone="no"?>
<!DOCTYPE svg PUBLIC "-//W3C//DTD SVG 1.1//EN"
 "http://www.w3.org/Graphics/SVG/1.1/DTD/svg11.dtd">
<!-- Generated by graphviz version 15.0.0 (20260523.1842)
 -->
<!-- Title: gradient Pages: 1 -->
<svg width="407pt" height="559pt"
 viewBox="0.00 0.00 407.00 559.00" xmlns="http://www.w3.org/2000/svg" xmlns:xlink="http://www.w3.org/1999/xlink">
<g id="graph0" class="graph" transform="scale(1 1) rotate(0) translate(4 554.8)">
<title>gradient</title>
<polygon fill="white" stroke="none" points="-4,4 -4,-554.8 403.2,-554.8 403.2,4 -4,4"/>
<text xml:space="preserve" text-anchor="start" x="107.72" y="-528.8" font-family="Helvetica,sans-Serif" font-weight="bold" font-size="20.00">random &#160;+ &#160;gradient</text>
<g id="clust1" class="cluster">
<title>cluster_instr</title>
<polygon fill="#e6e9ed" stroke="#9aa5b1" stroke-width="1.4" points="163,-81 163,-153 293,-153 293,-81 163,-81"/>
<text xml:space="preserve" text-anchor="middle" x="228" y="-86.55" font-family="Helvetica,sans-Serif" font-size="11.00">instrumentation</text>
</g>
<!-- rng -->
<g id="node1" class="node">
<title>rng</title>
<ellipse fill="#f0f2f4" stroke="#222222" stroke-width="1.8" cx="39" cy="-333.8" rx="28.8" ry="28.8"/>
<text xml:space="preserve" text-anchor="middle" x="39" y="-328.2" font-family="Helvetica,sans-Serif" font-size="13.00">RNG</text>
</g>
<!-- gen -->
<g id="node2" class="node">
<title>gen</title>
<polygon fill="white" stroke="#222222" stroke-width="1.8" points="76,-243 0,-243 0,-207 76,-207 76,-243"/>
<text xml:space="preserve" text-anchor="middle" x="38" y="-219.4" font-family="Helvetica,sans-Serif" font-size="13.00">Generator</text>
</g>
<!-- rng&#45;&gt;gen -->
<g id="edge1" class="edge">
<title>rng&#45;&gt;gen</title>
<path fill="none" stroke="#3b6fb5" stroke-width="3" d="M31.41,-305.16C27.9,-292.39 24.5,-280 24.5,-280 24.5,-280 24.5,-268 24.5,-268 24.5,-268 25.96,-263.44 27.93,-257.33"/>
<polygon fill="#3b6fb5" stroke="#3b6fb5" stroke-width="3" points="31.24,-258.48 30.96,-247.89 24.57,-256.34 31.24,-258.48"/>
<text xml:space="preserve" text-anchor="middle" x="55.25" y="-269.07" font-family="Helvetica,sans-Serif" font-size="11.50" fill="#111111">random bits</text>
</g>
<!-- climb -->
<g id="node4" class="node">
<title>climb</title>
<polygon fill="white" stroke="#222222" stroke-width="1.8" points="323.38,-243 132.62,-243 132.62,-207 323.38,-207 323.38,-243"/>
<text xml:space="preserve" text-anchor="start" x="162.75" y="-228" font-family="Helvetica,sans-Serif" font-size="13.00">climb branch&#45;distance</text>
<text xml:space="preserve" text-anchor="start" x="140.62" y="-214.5" font-family="Helvetica,sans-Serif" font-size="13.00">to the nearest uncovered leaf</text>
</g>
<!-- rng&#45;&gt;climb -->
<g id="edge2" class="edge">
<title>rng&#45;&gt;climb</title>
<path fill="none" stroke="#3b6fb5" stroke-width="3" d="M62.25,-315.77C88.47,-296.58 127.5,-268 127.5,-268 127.5,-268 149,-259.01 172.12,-249.35"/>
<polygon fill="#3b6fb5" stroke="#3b6fb5" stroke-width="3" points="173.31,-252.65 181.19,-245.56 170.61,-246.19 173.31,-252.65"/>
<text xml:space="preserve" text-anchor="middle" x="158.25" y="-269.07" font-family="Helvetica,sans-Serif" font-size="11.50" fill="#111111">random bits</text>
</g>
<!-- sut -->
<g id="node8" class="node">
<title>sut</title>
<polygon fill="white" stroke="#222222" stroke-width="1.8" points="285.12,-145 170.88,-145 170.88,-109 285.12,-109 285.12,-145"/>
<text xml:space="preserve" text-anchor="start" x="178.88" y="-123.25" font-family="Helvetica,sans-Serif" font-size="13.00">SUT &#160;+ &#160;property</text>
</g>
<!-- gen&#45;&gt;sut -->
<g id="edge4" class="edge">
<title>gen&#45;&gt;sut</title>
<path fill="none" stroke="#3b6fb5" stroke-width="3" d="M73.29,-206.17C103.33,-190.99 146.75,-169.05 179.95,-152.28"/>
<polygon fill="#3b6fb5" stroke="#3b6fb5" stroke-width="3" points="181.18,-155.58 188.52,-147.95 178.02,-149.33 181.18,-155.58"/>
<text xml:space="preserve" text-anchor="middle" x="180.38" y="-171.07" font-family="Helvetica,sans-Serif" font-size="11.50" fill="#111111">random value</text>
</g>
<!-- best -->
<g id="node3" class="node">
<title>best</title>
<path fill="#fbe0dc" stroke="#222222" stroke-width="1.8" d="M207.38,-351.24C207.38,-353.38 186.14,-355.11 160,-355.11 133.86,-355.11 112.62,-353.38 112.62,-351.24 112.62,-351.24 112.62,-316.36 112.62,-316.36 112.62,-314.22 133.86,-312.49 160,-312.49 186.14,-312.49 207.38,-314.22 207.38,-316.36 207.38,-316.36 207.38,-351.24 207.38,-351.24"/>
<path fill="none" stroke="#222222" stroke-width="1.8" d="M207.38,-351.24C207.38,-349.1 186.14,-347.36 160,-347.36 133.86,-347.36 112.62,-349.1 112.62,-351.24"/>
<text xml:space="preserve" text-anchor="start" x="127.75" y="-333.95" font-family="Helvetica,sans-Serif" font-size="13.00">Best so far</text>
<text xml:space="preserve" text-anchor="start" x="120.62" y="-323.8" font-family="Helvetica,sans-Serif" font-size="10.00">closest to a target</text>
</g>
<!-- best&#45;&gt;climb -->
<g id="edge3" class="edge">
<title>best&#45;&gt;climb</title>
<path fill="none" stroke="#3b6fb5" stroke-width="3" d="M175.64,-311.63C186.49,-296.94 199,-280 199,-280 199,-280 205.08,-268.67 211.68,-256.39"/>
<polygon fill="#3b6fb5" stroke="#3b6fb5" stroke-width="3" points="214.71,-258.15 216.36,-247.68 208.54,-254.84 214.71,-258.15"/>
<text xml:space="preserve" text-anchor="middle" x="223.26" y="-269.07" font-family="Helvetica,sans-Serif" font-size="11.50" fill="#111111">mutate</text>
</g>
<!-- climb&#45;&gt;sut -->
<g id="edge5" class="edge">
<title>climb&#45;&gt;sut</title>
<path fill="none" stroke="#3b6fb5" stroke-width="3" d="M228,-206.39C228,-193.48 228,-175.59 228,-160.16"/>
<polygon fill="#3b6fb5" stroke="#3b6fb5" stroke-width="3" points="231.5,-160.36 228,-150.36 224.5,-160.36 231.5,-160.36"/>
<text xml:space="preserve" text-anchor="middle" x="253.88" y="-171.07" font-family="Helvetica,sans-Serif" font-size="11.50" fill="#111111">candidate</text>
</g>
<!-- closer -->
<g id="node5" class="node">
<title>closer</title>
<polygon fill="#fbe0dc" stroke="#222222" stroke-width="1.8" points="290,-521.8 218,-473.2 290,-424.6 362,-473.2 290,-521.8"/>
<text xml:space="preserve" text-anchor="start" x="255.12" y="-476.2" font-family="Helvetica,sans-Serif" font-size="13.00">closer to an</text>
<text xml:space="preserve" text-anchor="start" x="242" y="-462.7" font-family="Helvetica,sans-Serif" font-size="13.00">uncovered leaf?</text>
</g>
<!-- closer&#45;&gt;best -->
<g id="edge8" class="edge">
<title>closer&#45;&gt;best</title>
<path fill="none" stroke="#2e8b57" stroke-width="3" d="M256.6,-446.19C229.84,-425.36 196.75,-399.6 196.75,-399.6 196.75,-399.6 187.92,-384.04 178.92,-368.16"/>
<polygon fill="#2e8b57" stroke="#2e8b57" stroke-width="3" points="182.05,-366.58 174.07,-359.61 175.96,-370.03 182.05,-366.58"/>
<text xml:space="preserve" text-anchor="middle" x="238.38" y="-388.68" font-family="Helvetica,sans-Serif" font-size="11.50" fill="#1e6b3a">yes — new best</text>
</g>
<!-- throw -->
<g id="node7" class="node">
<title>throw</title>
<polygon fill="#f0f2f4" stroke="#222222" stroke-width="1.8" points="332.12,-351.8 247.88,-351.8 247.88,-315.8 332.12,-315.8 332.12,-351.8"/>
<text xml:space="preserve" text-anchor="middle" x="290" y="-328.2" font-family="Helvetica,sans-Serif" font-size="13.00">throw away</text>
</g>
<!-- closer&#45;&gt;throw -->
<g id="edge9" class="edge">
<title>closer&#45;&gt;throw</title>
<path fill="none" stroke="#6b7785" stroke-width="3" d="M290,-423.76C290,-404.93 290,-383.86 290,-366.96"/>
<polygon fill="#6b7785" stroke="#6b7785" stroke-width="3" points="293.5,-367.06 290,-357.06 286.5,-367.06 293.5,-367.06"/>
<text xml:space="preserve" text-anchor="middle" x="296.75" y="-388.68" font-family="Helvetica,sans-Serif" font-size="11.50" fill="#444444">no</text>
</g>
<!-- report -->
<g id="node6" class="node">
<title>report</title>
<polygon fill="white" stroke="#222222" stroke-width="1.8" points="276.12,-36 179.88,-36 179.88,0 276.12,0 276.12,-36"/>
<text xml:space="preserve" text-anchor="middle" x="228" y="-12.4" font-family="Helvetica,sans-Serif" font-size="13.00">report to user</text>
</g>
<!-- sut&#45;&gt;closer -->
<g id="edge7" class="edge">
<title>sut&#45;&gt;closer</title>
<path fill="none" stroke="#6b7785" stroke-width="3" d="M254.29,-145.81C271.19,-157.26 290,-170 290,-170 290,-170 343,-207 343,-207 343,-207 352,-305 352,-305 352,-305 352,-362.6 352,-362.6 352,-362.6 333.57,-395.17 316.81,-424.81"/>
<polygon fill="#6b7785" stroke="#6b7785" stroke-width="3" points="313.9,-422.84 312.02,-433.27 319.99,-426.29 313.9,-422.84"/>
<text xml:space="preserve" text-anchor="middle" x="374.45" y="-269.07" font-family="Helvetica,sans-Serif" font-size="11.50" fill="#444444">coverage</text>
</g>
<!-- sut&#45;&gt;report -->
<g id="edge6" class="edge">
<title>sut&#45;&gt;report</title>
<path fill="none" stroke="#3b6fb5" stroke-width="3" d="M228,-108.33C228,-92.84 228,-69.94 228,-51.2"/>
<polygon fill="#3b6fb5" stroke="#3b6fb5" stroke-width="3" points="231.5,-51.24 228,-41.24 224.5,-51.24 231.5,-51.24"/>
<text xml:space="preserve" text-anchor="middle" x="235.12" y="-62.08" font-family="Helvetica,sans-Serif" font-size="11.50" fill="#111111">fail</text>
</g>
</g>
</svg>
