<?xml version="1.0" encoding="utf-8" standalone="no"?>
<!DOCTYPE svg PUBLIC "-//W3C//DTD SVG 1.1//EN"
  "http://www.w3.org/Graphics/SVG/1.1/DTD/svg11.dtd">
<svg xmlns:xlink="http://www.w3.org/1999/xlink" width="1344.96pt" height="790.56pt" viewBox="0 0 1344.96 790.56" xmlns="http://www.w3.org/2000/svg" version="1.1">
 <metadata>
  <rdf:RDF xmlns:dc="http://purl.org/dc/elements/1.1/" xmlns:cc="http://creativecommons.org/ns#" xmlns:rdf="http://www.w3.org/1999/02/22-rdf-syntax-ns#">
   <cc:Work>
    <dc:type rdf:resource="http://purl.org/dc/dcmitype/StillImage"/>
    <dc:date>2026-06-01T10:27:41.749144</dc:date>
    <dc:format>image/svg+xml</dc:format>
    <dc:creator>
     <cc:Agent>
      <dc:title>Matplotlib v3.10.7, https://matplotlib.org/</dc:title>
     </cc:Agent>
    </dc:creator>
   </cc:Work>
  </rdf:RDF>
 </metadata>
 <defs>
  <style type="text/css">*{stroke-linejoin: round; stroke-linecap: butt}</style>
 </defs>
 <g id="figure_1">
  <g id="patch_1">
   <path d="M 0 790.56 
L 1344.96 790.56 
L 1344.96 0 
L 0 0 
z
" style="fill: #ffffff"/>
  </g>
  <g id="axes_1">
   <g id="patch_2">
    <path d="M 51.552 750.096 
L 206.784 750.096 
Q 223.416 750.096 223.416 733.464 
L 223.416 79.272 
Q 223.416 62.64 206.784 62.64 
L 51.552 62.64 
Q 34.92 62.64 34.92 79.272 
L 34.92 733.464 
Q 34.92 750.096 51.552 750.096 
L 51.552 750.096 
z
" clip-path="url(#pe417783e3e)" style="fill: none; stroke: #37474f; stroke-width: 1.4; stroke-linejoin: miter"/>
   </g>
   <g id="patch_3">
    <path d="M 262.224 750.096 
L 395.28 750.096 
Q 411.912 750.096 411.912 733.464 
L 411.912 79.272 
Q 411.912 62.64 395.28 62.64 
L 262.224 62.64 
Q 245.592 62.64 245.592 79.272 
L 245.592 733.464 
Q 245.592 750.096 262.224 750.096 
L 262.224 750.096 
z
" clip-path="url(#pe417783e3e)" style="fill: none; stroke: #37474f; stroke-width: 1.4; stroke-linejoin: miter"/>
   </g>
   <g id="patch_4">
    <path d="M 450.72 750.096 
L 860.976 750.096 
Q 877.608 750.096 877.608 733.464 
L 877.608 79.272 
Q 877.608 62.64 860.976 62.64 
L 450.72 62.64 
Q 434.088 62.64 434.088 79.272 
L 434.088 733.464 
Q 434.088 750.096 450.72 750.096 
L 450.72 750.096 
z
" clip-path="url(#pe417783e3e)" style="fill: none; stroke: #37474f; stroke-width: 1.4; stroke-linejoin: miter"/>
   </g>
   <g id="patch_5">
    <path d="M 916.416 750.096 
L 1116 750.096 
Q 1132.632 750.096 1132.632 733.464 
L 1132.632 79.272 
Q 1132.632 62.64 1116 62.64 
L 916.416 62.64 
Q 899.784 62.64 899.784 79.272 
L 899.784 733.464 
Q 899.784 750.096 916.416 750.096 
L 916.416 750.096 
z
" clip-path="url(#pe417783e3e)" style="fill: none; stroke: #37474f; stroke-width: 1.4; stroke-linejoin: miter"/>
   </g>
   <g id="patch_6">
    <path d="M 1171.44 750.096 
L 1293.408 750.096 
Q 1310.04 750.096 1310.04 733.464 
L 1310.04 79.272 
Q 1310.04 62.64 1293.408 62.64 
L 1171.44 62.64 
Q 1154.808 62.64 1154.808 79.272 
L 1154.808 733.464 
Q 1154.808 750.096 1171.44 750.096 
L 1171.44 750.096 
z
" clip-path="url(#pe417783e3e)" style="fill: none; stroke: #37474f; stroke-width: 1.4; stroke-linejoin: miter"/>
   </g>
   <g id="patch_7">
    <path d="M 72.0648 445.176 
L 186.2712 445.176 
Q 198.468 445.176 198.468 432.9792 
L 198.468 368.6688 
Q 198.468 356.472 186.2712 356.472 
L 72.0648 356.472 
Q 59.868 356.472 59.868 368.6688 
L 59.868 432.9792 
Q 59.868 445.176 72.0648 445.176 
z
" clip-path="url(#pe417783e3e)" style="fill: #bbdefb; stroke: #37474f; stroke-width: 1.8; stroke-linejoin: miter"/>
   </g>
   <g id="patch_8">
    <path d="M 282.7368 439.632 
L 374.7672 439.632 
Q 386.964 439.632 386.964 427.4352 
L 386.964 374.2128 
Q 386.964 362.016 374.7672 362.016 
L 282.7368 362.016 
Q 270.54 362.016 270.54 374.2128 
L 270.54 427.4352 
Q 270.54 439.632 282.7368 439.632 
z
" clip-path="url(#pe417783e3e)" style="fill: #fff59d; stroke: #37474f; stroke-width: 1.8; stroke-linejoin: miter"/>
   </g>
   <g id="patch_9">
    <path d="M 499.5072 278.856 
L 812.1888 278.856 
Q 827.712 278.856 827.712 263.3328 
L 827.712 205.6752 
Q 827.712 190.152 812.1888 190.152 
L 499.5072 190.152 
Q 483.984 190.152 483.984 205.6752 
L 483.984 263.3328 
Q 483.984 278.856 499.5072 278.856 
z
" clip-path="url(#pe417783e3e)" style="fill: #c8e6c9; stroke: #37474f; stroke-width: 1.8; stroke-linejoin: miter"/>
   </g>
   <g id="patch_10">
    <path d="M 499.5072 544.968 
L 812.1888 544.968 
Q 827.712 544.968 827.712 529.4448 
L 827.712 305.4672 
Q 827.712 289.944 812.1888 289.944 
L 499.5072 289.944 
Q 483.984 289.944 483.984 305.4672 
L 483.984 529.4448 
Q 483.984 544.968 499.5072 544.968 
z
" clip-path="url(#pe417783e3e)" style="fill: #c8e6c9; stroke: #37474f; stroke-width: 1.8; stroke-linejoin: miter"/>
   </g>
   <g id="patch_11">
    <path d="M 499.5072 678.024 
L 812.1888 678.024 
Q 827.712 678.024 827.712 662.5008 
L 827.712 577.1232 
Q 827.712 561.6 812.1888 561.6 
L 499.5072 561.6 
Q 483.984 561.6 483.984 577.1232 
L 483.984 662.5008 
Q 483.984 678.024 499.5072 678.024 
z
" clip-path="url(#pe417783e3e)" style="fill: #e1bee7; stroke: #37474f; stroke-width: 1.8; stroke-linejoin: miter"/>
   </g>
   <g id="patch_12">
    <path d="M 928.6128 267.768 
L 1103.8032 267.768 
Q 1116 267.768 1116 255.5712 
L 1116 202.3488 
Q 1116 190.152 1103.8032 190.152 
L 928.6128 190.152 
Q 916.416 190.152 916.416 202.3488 
L 916.416 255.5712 
Q 916.416 267.768 928.6128 267.768 
z
" clip-path="url(#pe417783e3e)" style="fill: #fff59d; stroke: #37474f; stroke-width: 1.8; stroke-linejoin: miter"/>
   </g>
   <g id="patch_13">
    <path d="M 928.6128 420.228 
L 1103.8032 420.228 
Q 1116 420.228 1116 408.0312 
L 1116 354.8088 
Q 1116 342.612 1103.8032 342.612 
L 928.6128 342.612 
Q 916.416 342.612 916.416 354.8088 
L 916.416 408.0312 
Q 916.416 420.228 928.6128 420.228 
z
" clip-path="url(#pe417783e3e)" style="fill: #fff59d; stroke: #37474f; stroke-width: 1.8; stroke-linejoin: miter"/>
   </g>
   <g id="patch_14">
    <path d="M 928.6128 572.688 
L 1103.8032 572.688 
Q 1116 572.688 1116 560.4912 
L 1116 507.2688 
Q 1116 495.072 1103.8032 495.072 
L 928.6128 495.072 
Q 916.416 495.072 916.416 507.2688 
L 916.416 560.4912 
Q 916.416 572.688 928.6128 572.688 
z
" clip-path="url(#pe417783e3e)" style="fill: #fff59d; stroke: #37474f; stroke-width: 1.8; stroke-linejoin: miter"/>
   </g>
   <g id="patch_15">
    <path d="M 1183.6368 267.768 
L 1292.2992 267.768 
Q 1304.496 267.768 1304.496 255.5712 
L 1304.496 202.3488 
Q 1304.496 190.152 1292.2992 190.152 
L 1183.6368 190.152 
Q 1171.44 190.152 1171.44 202.3488 
L 1171.44 255.5712 
Q 1171.44 267.768 1183.6368 267.768 
z
" clip-path="url(#pe417783e3e)" style="fill: #bbdefb; stroke: #37474f; stroke-width: 1.8; stroke-linejoin: miter"/>
   </g>
   <g id="patch_16">
    <path d="M 1183.6368 420.228 
L 1292.2992 420.228 
Q 1304.496 420.228 1304.496 408.0312 
L 1304.496 354.8088 
Q 1304.496 342.612 1292.2992 342.612 
L 1183.6368 342.612 
Q 1171.44 342.612 1171.44 354.8088 
L 1171.44 408.0312 
Q 1171.44 420.228 1183.6368 420.228 
z
" clip-path="url(#pe417783e3e)" style="fill: #bbdefb; stroke: #37474f; stroke-width: 1.8; stroke-linejoin: miter"/>
   </g>
   <g id="patch_17">
    <path d="M 1183.6368 572.688 
L 1292.2992 572.688 
Q 1304.496 572.688 1304.496 560.4912 
L 1304.496 507.2688 
Q 1304.496 495.072 1292.2992 495.072 
L 1183.6368 495.072 
Q 1171.44 495.072 1171.44 507.2688 
L 1171.44 560.4912 
Q 1171.44 572.688 1183.6368 572.688 
z
" clip-path="url(#pe417783e3e)" style="fill: #bbdefb; stroke: #37474f; stroke-width: 1.8; stroke-linejoin: miter"/>
   </g>
   <g id="patch_18">
    <path d="M 200.469511 400.824 
Q 234.506131 400.824 266.920253 400.824 
" clip-path="url(#pe417783e3e)" style="fill: none; stroke: #37474f; stroke-width: 1.8; stroke-linecap: round"/>
    <path d="M 258.520253 395.224 
L 266.920253 400.824 
L 258.520253 406.424 
" clip-path="url(#pe417783e3e)" style="fill: none; stroke: #37474f; stroke-width: 1.8; stroke-linecap: round"/>
   </g>
   <g id="patch_19">
    <path d="M 388.960266 400.824 
Q 418.839327 400.824 447.095889 400.824 
" clip-path="url(#pe417783e3e)" style="fill: none; stroke: #37474f; stroke-width: 1.8; stroke-linecap: round"/>
    <path d="M 438.695889 395.224 
L 447.095889 400.824 
L 438.695889 406.424 
" clip-path="url(#pe417783e3e)" style="fill: none; stroke: #37474f; stroke-width: 1.8; stroke-linecap: round"/>
   </g>
   <g id="patch_20">
    <path d="M 832.484919 228.96 
Q 873.450243 228.96 912.793069 228.96 
" clip-path="url(#pe417783e3e)" style="fill: none; stroke: #37474f; stroke-width: 1.8; stroke-linecap: round"/>
    <path d="M 904.393069 223.36 
L 912.793069 228.96 
L 904.393069 234.56 
" clip-path="url(#pe417783e3e)" style="fill: none; stroke: #37474f; stroke-width: 1.8; stroke-linecap: round"/>
   </g>
   <g id="patch_21">
    <path d="M 832.484919 381.42 
Q 873.450243 381.42 912.793069 381.42 
" clip-path="url(#pe417783e3e)" style="fill: none; stroke: #37474f; stroke-width: 1.8; stroke-linecap: round"/>
    <path d="M 904.393069 375.82 
L 912.793069 381.42 
L 904.393069 387.02 
" clip-path="url(#pe417783e3e)" style="fill: none; stroke: #37474f; stroke-width: 1.8; stroke-linecap: round"/>
   </g>
   <g id="patch_22">
    <path d="M 832.484919 533.88 
Q 873.450243 533.88 912.793069 533.88 
" clip-path="url(#pe417783e3e)" style="fill: none; stroke: #37474f; stroke-width: 1.8; stroke-linecap: round"/>
    <path d="M 904.393069 528.28 
L 912.793069 533.88 
L 904.393069 539.48 
" clip-path="url(#pe417783e3e)" style="fill: none; stroke: #37474f; stroke-width: 1.8; stroke-linecap: round"/>
   </g>
   <g id="patch_23">
    <path d="M 1169.440181 228.96 
Q 1143.719811 228.96 1119.351522 228.96 
" clip-path="url(#pe417783e3e)" style="fill: none; stroke: #78909c; stroke-width: 1.5; stroke-linecap: round"/>
    <path d="M 1127.751522 234.56 
L 1119.351522 228.96 
L 1127.751522 223.36 
" clip-path="url(#pe417783e3e)" style="fill: none; stroke: #78909c; stroke-width: 1.5; stroke-linecap: round"/>
   </g>
   <g id="patch_24">
    <path d="M 1169.440181 381.42 
Q 1143.719811 381.42 1119.351522 381.42 
" clip-path="url(#pe417783e3e)" style="fill: none; stroke: #78909c; stroke-width: 1.5; stroke-linecap: round"/>
    <path d="M 1127.751522 387.02 
L 1119.351522 381.42 
L 1127.751522 375.82 
" clip-path="url(#pe417783e3e)" style="fill: none; stroke: #78909c; stroke-width: 1.5; stroke-linecap: round"/>
   </g>
   <g id="patch_25">
    <path d="M 1169.440181 533.88 
Q 1143.719811 533.88 1119.351522 533.88 
" clip-path="url(#pe417783e3e)" style="fill: none; stroke: #78909c; stroke-width: 1.5; stroke-linecap: round"/>
    <path d="M 1127.751522 539.48 
L 1119.351522 533.88 
L 1127.751522 528.28 
" clip-path="url(#pe417783e3e)" style="fill: none; stroke: #78909c; stroke-width: 1.5; stroke-linecap: round"/>
   </g>
   <g id="text_1">
    <!-- Driving adapters -->
    <g style="fill: #263238" transform="translate(67.662766 96.668406) scale(0.13 -0.13)">
     <defs>
      <path id="DejaVuSans-Bold-44" d="M 1791 3756 
L 1791 909 
L 2222 909 
Q 2959 909 3348 1275 
Q 3738 1641 3738 2338 
Q 3738 3031 3350 3393 
Q 2963 3756 2222 3756 
L 1791 3756 
z
M 588 4666 
L 1856 4666 
Q 2919 4666 3439 4514 
Q 3959 4363 4331 4000 
Q 4659 3684 4818 3271 
Q 4978 2859 4978 2338 
Q 4978 1809 4818 1395 
Q 4659 981 4331 666 
Q 3956 303 3431 151 
Q 2906 0 1856 0 
L 588 0 
L 588 4666 
z
" transform="scale(0.015625)"/>
      <path id="DejaVuSans-Bold-72" d="M 3138 2547 
Q 2991 2616 2845 2648 
Q 2700 2681 2553 2681 
Q 2122 2681 1889 2404 
Q 1656 2128 1656 1613 
L 1656 0 
L 538 0 
L 538 3500 
L 1656 3500 
L 1656 2925 
Q 1872 3269 2151 3426 
Q 2431 3584 2822 3584 
Q 2878 3584 2943 3579 
Q 3009 3575 3134 3559 
L 3138 2547 
z
" transform="scale(0.015625)"/>
      <path id="DejaVuSans-Bold-69" d="M 538 3500 
L 1656 3500 
L 1656 0 
L 538 0 
L 538 3500 
z
M 538 4863 
L 1656 4863 
L 1656 3950 
L 538 3950 
L 538 4863 
z
" transform="scale(0.015625)"/>
      <path id="DejaVuSans-Bold-76" d="M 97 3500 
L 1216 3500 
L 2088 1081 
L 2956 3500 
L 4078 3500 
L 2700 0 
L 1472 0 
L 97 3500 
z
" transform="scale(0.015625)"/>
      <path id="DejaVuSans-Bold-6e" d="M 4056 2131 
L 4056 0 
L 2931 0 
L 2931 347 
L 2931 1631 
Q 2931 2084 2911 2256 
Q 2891 2428 2841 2509 
Q 2775 2619 2662 2680 
Q 2550 2741 2406 2741 
Q 2056 2741 1856 2470 
Q 1656 2200 1656 1722 
L 1656 0 
L 538 0 
L 538 3500 
L 1656 3500 
L 1656 2988 
Q 1909 3294 2193 3439 
Q 2478 3584 2822 3584 
Q 3428 3584 3742 3212 
Q 4056 2841 4056 2131 
z
" transform="scale(0.015625)"/>
      <path id="DejaVuSans-Bold-67" d="M 2919 594 
Q 2688 288 2409 144 
Q 2131 0 1766 0 
Q 1125 0 706 504 
Q 288 1009 288 1791 
Q 288 2575 706 3076 
Q 1125 3578 1766 3578 
Q 2131 3578 2409 3434 
Q 2688 3291 2919 2981 
L 2919 3500 
L 4044 3500 
L 4044 353 
Q 4044 -491 3511 -936 
Q 2978 -1381 1966 -1381 
Q 1638 -1381 1331 -1331 
Q 1025 -1281 716 -1178 
L 716 -306 
Q 1009 -475 1290 -558 
Q 1572 -641 1856 -641 
Q 2406 -641 2662 -400 
Q 2919 -159 2919 353 
L 2919 594 
z
M 2181 2772 
Q 1834 2772 1640 2515 
Q 1447 2259 1447 1791 
Q 1447 1309 1634 1061 
Q 1822 813 2181 813 
Q 2531 813 2725 1069 
Q 2919 1325 2919 1791 
Q 2919 2259 2725 2515 
Q 2531 2772 2181 2772 
z
" transform="scale(0.015625)"/>
      <path id="DejaVuSans-Bold-20" transform="scale(0.015625)"/>
      <path id="DejaVuSans-Bold-61" d="M 2106 1575 
Q 1756 1575 1579 1456 
Q 1403 1338 1403 1106 
Q 1403 894 1545 773 
Q 1688 653 1941 653 
Q 2256 653 2472 879 
Q 2688 1106 2688 1447 
L 2688 1575 
L 2106 1575 
z
M 3816 1997 
L 3816 0 
L 2688 0 
L 2688 519 
Q 2463 200 2181 54 
Q 1900 -91 1497 -91 
Q 953 -91 614 226 
Q 275 544 275 1050 
Q 275 1666 698 1953 
Q 1122 2241 2028 2241 
L 2688 2241 
L 2688 2328 
Q 2688 2594 2478 2717 
Q 2269 2841 1825 2841 
Q 1466 2841 1156 2769 
Q 847 2697 581 2553 
L 581 3406 
Q 941 3494 1303 3539 
Q 1666 3584 2028 3584 
Q 2975 3584 3395 3211 
Q 3816 2838 3816 1997 
z
" transform="scale(0.015625)"/>
      <path id="DejaVuSans-Bold-64" d="M 2919 2988 
L 2919 4863 
L 4044 4863 
L 4044 0 
L 2919 0 
L 2919 506 
Q 2688 197 2409 53 
Q 2131 -91 1766 -91 
Q 1119 -91 703 423 
Q 288 938 288 1747 
Q 288 2556 703 3070 
Q 1119 3584 1766 3584 
Q 2128 3584 2408 3439 
Q 2688 3294 2919 2988 
z
M 2181 722 
Q 2541 722 2730 984 
Q 2919 1247 2919 1747 
Q 2919 2247 2730 2509 
Q 2541 2772 2181 2772 
Q 1825 2772 1636 2509 
Q 1447 2247 1447 1747 
Q 1447 1247 1636 984 
Q 1825 722 2181 722 
z
" transform="scale(0.015625)"/>
      <path id="DejaVuSans-Bold-70" d="M 1656 506 
L 1656 -1331 
L 538 -1331 
L 538 3500 
L 1656 3500 
L 1656 2988 
Q 1888 3294 2169 3439 
Q 2450 3584 2816 3584 
Q 3463 3584 3878 3070 
Q 4294 2556 4294 1747 
Q 4294 938 3878 423 
Q 3463 -91 2816 -91 
Q 2450 -91 2169 54 
Q 1888 200 1656 506 
z
M 2400 2772 
Q 2041 2772 1848 2508 
Q 1656 2244 1656 1747 
Q 1656 1250 1848 986 
Q 2041 722 2400 722 
Q 2759 722 2948 984 
Q 3138 1247 3138 1747 
Q 3138 2247 2948 2509 
Q 2759 2772 2400 2772 
z
" transform="scale(0.015625)"/>
      <path id="DejaVuSans-Bold-74" d="M 1759 4494 
L 1759 3500 
L 2913 3500 
L 2913 2700 
L 1759 2700 
L 1759 1216 
Q 1759 972 1856 886 
Q 1953 800 2241 800 
L 2816 800 
L 2816 0 
L 1856 0 
Q 1194 0 917 276 
Q 641 553 641 1216 
L 641 2700 
L 84 2700 
L 84 3500 
L 641 3500 
L 641 4494 
L 1759 4494 
z
" transform="scale(0.015625)"/>
      <path id="DejaVuSans-Bold-65" d="M 4031 1759 
L 4031 1441 
L 1416 1441 
Q 1456 1047 1700 850 
Q 1944 653 2381 653 
Q 2734 653 3104 758 
Q 3475 863 3866 1075 
L 3866 213 
Q 3469 63 3072 -14 
Q 2675 -91 2278 -91 
Q 1328 -91 801 392 
Q 275 875 275 1747 
Q 275 2603 792 3093 
Q 1309 3584 2216 3584 
Q 3041 3584 3536 3087 
Q 4031 2591 4031 1759 
z
M 2881 2131 
Q 2881 2450 2695 2645 
Q 2509 2841 2209 2841 
Q 1884 2841 1681 2658 
Q 1478 2475 1428 2131 
L 2881 2131 
z
" transform="scale(0.015625)"/>
      <path id="DejaVuSans-Bold-73" d="M 3272 3391 
L 3272 2541 
Q 2913 2691 2578 2766 
Q 2244 2841 1947 2841 
Q 1628 2841 1473 2761 
Q 1319 2681 1319 2516 
Q 1319 2381 1436 2309 
Q 1553 2238 1856 2203 
L 2053 2175 
Q 2913 2066 3209 1816 
Q 3506 1566 3506 1031 
Q 3506 472 3093 190 
Q 2681 -91 1863 -91 
Q 1516 -91 1145 -36 
Q 775 19 384 128 
L 384 978 
Q 719 816 1070 734 
Q 1422 653 1784 653 
Q 2113 653 2278 743 
Q 2444 834 2444 1013 
Q 2444 1163 2330 1236 
Q 2216 1309 1875 1350 
L 1678 1375 
Q 931 1469 631 1722 
Q 331 1975 331 2491 
Q 331 3047 712 3315 
Q 1094 3584 1881 3584 
Q 2191 3584 2531 3537 
Q 2872 3491 3272 3391 
z
" transform="scale(0.015625)"/>
     </defs>
     <use xlink:href="#DejaVuSans-Bold-44"/>
     <use xlink:href="#DejaVuSans-Bold-72" transform="translate(83.007812 0)"/>
     <use xlink:href="#DejaVuSans-Bold-69" transform="translate(132.324219 0)"/>
     <use xlink:href="#DejaVuSans-Bold-76" transform="translate(166.601562 0)"/>
     <use xlink:href="#DejaVuSans-Bold-69" transform="translate(231.787109 0)"/>
     <use xlink:href="#DejaVuSans-Bold-6e" transform="translate(266.064453 0)"/>
     <use xlink:href="#DejaVuSans-Bold-67" transform="translate(337.255859 0)"/>
     <use xlink:href="#DejaVuSans-Bold-20" transform="translate(408.837891 0)"/>
     <use xlink:href="#DejaVuSans-Bold-61" transform="translate(443.652344 0)"/>
     <use xlink:href="#DejaVuSans-Bold-64" transform="translate(511.132812 0)"/>
     <use xlink:href="#DejaVuSans-Bold-61" transform="translate(582.714844 0)"/>
     <use xlink:href="#DejaVuSans-Bold-70" transform="translate(650.195312 0)"/>
     <use xlink:href="#DejaVuSans-Bold-74" transform="translate(721.777344 0)"/>
     <use xlink:href="#DejaVuSans-Bold-65" transform="translate(769.580078 0)"/>
     <use xlink:href="#DejaVuSans-Bold-72" transform="translate(837.402344 0)"/>
     <use xlink:href="#DejaVuSans-Bold-73" transform="translate(886.71875 0)"/>
    </g>
   </g>
   <g id="text_2">
    <!-- Driving ports -->
    <g style="fill: #263238" transform="translate(280.615437 96.668406) scale(0.13 -0.13)">
     <defs>
      <path id="DejaVuSans-Bold-6f" d="M 2203 2784 
Q 1831 2784 1636 2517 
Q 1441 2250 1441 1747 
Q 1441 1244 1636 976 
Q 1831 709 2203 709 
Q 2569 709 2762 976 
Q 2956 1244 2956 1747 
Q 2956 2250 2762 2517 
Q 2569 2784 2203 2784 
z
M 2203 3584 
Q 3106 3584 3614 3096 
Q 4122 2609 4122 1747 
Q 4122 884 3614 396 
Q 3106 -91 2203 -91 
Q 1297 -91 786 396 
Q 275 884 275 1747 
Q 275 2609 786 3096 
Q 1297 3584 2203 3584 
z
" transform="scale(0.015625)"/>
     </defs>
     <use xlink:href="#DejaVuSans-Bold-44"/>
     <use xlink:href="#DejaVuSans-Bold-72" transform="translate(83.007812 0)"/>
     <use xlink:href="#DejaVuSans-Bold-69" transform="translate(132.324219 0)"/>
     <use xlink:href="#DejaVuSans-Bold-76" transform="translate(166.601562 0)"/>
     <use xlink:href="#DejaVuSans-Bold-69" transform="translate(231.787109 0)"/>
     <use xlink:href="#DejaVuSans-Bold-6e" transform="translate(266.064453 0)"/>
     <use xlink:href="#DejaVuSans-Bold-67" transform="translate(337.255859 0)"/>
     <use xlink:href="#DejaVuSans-Bold-20" transform="translate(408.837891 0)"/>
     <use xlink:href="#DejaVuSans-Bold-70" transform="translate(443.652344 0)"/>
     <use xlink:href="#DejaVuSans-Bold-6f" transform="translate(515.234375 0)"/>
     <use xlink:href="#DejaVuSans-Bold-72" transform="translate(583.935547 0)"/>
     <use xlink:href="#DejaVuSans-Bold-74" transform="translate(633.251953 0)"/>
     <use xlink:href="#DejaVuSans-Bold-73" transform="translate(681.054688 0)"/>
    </g>
   </g>
   <g id="text_3">
    <!-- Use case -->
    <g style="fill: #263238" transform="translate(623.512531 96.719187) scale(0.13 -0.13)">
     <defs>
      <path id="DejaVuSans-Bold-55" d="M 588 4666 
L 1791 4666 
L 1791 1869 
Q 1791 1291 1980 1042 
Q 2169 794 2597 794 
Q 3028 794 3217 1042 
Q 3406 1291 3406 1869 
L 3406 4666 
L 4609 4666 
L 4609 1869 
Q 4609 878 4112 393 
Q 3616 -91 2597 -91 
Q 1581 -91 1084 393 
Q 588 878 588 1869 
L 588 4666 
z
" transform="scale(0.015625)"/>
      <path id="DejaVuSans-Bold-63" d="M 3366 3391 
L 3366 2478 
Q 3138 2634 2908 2709 
Q 2678 2784 2431 2784 
Q 1963 2784 1702 2511 
Q 1441 2238 1441 1747 
Q 1441 1256 1702 982 
Q 1963 709 2431 709 
Q 2694 709 2930 787 
Q 3166 866 3366 1019 
L 3366 103 
Q 3103 6 2833 -42 
Q 2563 -91 2291 -91 
Q 1344 -91 809 395 
Q 275 881 275 1747 
Q 275 2613 809 3098 
Q 1344 3584 2291 3584 
Q 2566 3584 2833 3536 
Q 3100 3488 3366 3391 
z
" transform="scale(0.015625)"/>
     </defs>
     <use xlink:href="#DejaVuSans-Bold-55"/>
     <use xlink:href="#DejaVuSans-Bold-73" transform="translate(81.201172 0)"/>
     <use xlink:href="#DejaVuSans-Bold-65" transform="translate(140.722656 0)"/>
     <use xlink:href="#DejaVuSans-Bold-20" transform="translate(208.544922 0)"/>
     <use xlink:href="#DejaVuSans-Bold-63" transform="translate(243.359375 0)"/>
     <use xlink:href="#DejaVuSans-Bold-61" transform="translate(302.636719 0)"/>
     <use xlink:href="#DejaVuSans-Bold-73" transform="translate(370.117188 0)"/>
     <use xlink:href="#DejaVuSans-Bold-65" transform="translate(429.638672 0)"/>
    </g>
   </g>
   <g id="text_4">
    <!-- Driven ports -->
    <g style="fill: #263238" transform="translate(970.543469 96.719187) scale(0.13 -0.13)">
     <use xlink:href="#DejaVuSans-Bold-44"/>
     <use xlink:href="#DejaVuSans-Bold-72" transform="translate(83.007812 0)"/>
     <use xlink:href="#DejaVuSans-Bold-69" transform="translate(132.324219 0)"/>
     <use xlink:href="#DejaVuSans-Bold-76" transform="translate(166.601562 0)"/>
     <use xlink:href="#DejaVuSans-Bold-65" transform="translate(231.787109 0)"/>
     <use xlink:href="#DejaVuSans-Bold-6e" transform="translate(299.609375 0)"/>
     <use xlink:href="#DejaVuSans-Bold-20" transform="translate(370.800781 0)"/>
     <use xlink:href="#DejaVuSans-Bold-70" transform="translate(405.615234 0)"/>
     <use xlink:href="#DejaVuSans-Bold-6f" transform="translate(477.197266 0)"/>
     <use xlink:href="#DejaVuSans-Bold-72" transform="translate(545.898438 0)"/>
     <use xlink:href="#DejaVuSans-Bold-74" transform="translate(595.214844 0)"/>
     <use xlink:href="#DejaVuSans-Bold-73" transform="translate(643.017578 0)"/>
    </g>
   </g>
   <g id="text_5">
    <!-- Driven adapters -->
    <g style="fill: #263238" transform="translate(1173.390797 96.719187) scale(0.13 -0.13)">
     <use xlink:href="#DejaVuSans-Bold-44"/>
     <use xlink:href="#DejaVuSans-Bold-72" transform="translate(83.007812 0)"/>
     <use xlink:href="#DejaVuSans-Bold-69" transform="translate(132.324219 0)"/>
     <use xlink:href="#DejaVuSans-Bold-76" transform="translate(166.601562 0)"/>
     <use xlink:href="#DejaVuSans-Bold-65" transform="translate(231.787109 0)"/>
     <use xlink:href="#DejaVuSans-Bold-6e" transform="translate(299.609375 0)"/>
     <use xlink:href="#DejaVuSans-Bold-20" transform="translate(370.800781 0)"/>
     <use xlink:href="#DejaVuSans-Bold-61" transform="translate(405.615234 0)"/>
     <use xlink:href="#DejaVuSans-Bold-64" transform="translate(473.095703 0)"/>
     <use xlink:href="#DejaVuSans-Bold-61" transform="translate(544.677734 0)"/>
     <use xlink:href="#DejaVuSans-Bold-70" transform="translate(612.158203 0)"/>
     <use xlink:href="#DejaVuSans-Bold-74" transform="translate(683.740234 0)"/>
     <use xlink:href="#DejaVuSans-Bold-65" transform="translate(731.542969 0)"/>
     <use xlink:href="#DejaVuSans-Bold-72" transform="translate(799.365234 0)"/>
     <use xlink:href="#DejaVuSans-Bold-73" transform="translate(848.681641 0)"/>
    </g>
   </g>
   <g id="text_6">
    <!-- Application -->
    <g style="fill: #263238" transform="translate(87.708156 392.214388) scale(0.13 -0.13)">
     <defs>
      <path id="DejaVuSans-Bold-41" d="M 3419 850 
L 1538 850 
L 1241 0 
L 31 0 
L 1759 4666 
L 3194 4666 
L 4922 0 
L 3713 0 
L 3419 850 
z
M 1838 1716 
L 3116 1716 
L 2478 3572 
L 1838 1716 
z
" transform="scale(0.015625)"/>
      <path id="DejaVuSans-Bold-6c" d="M 538 4863 
L 1656 4863 
L 1656 0 
L 538 0 
L 538 4863 
z
" transform="scale(0.015625)"/>
     </defs>
     <use xlink:href="#DejaVuSans-Bold-41"/>
     <use xlink:href="#DejaVuSans-Bold-70" transform="translate(77.392578 0)"/>
     <use xlink:href="#DejaVuSans-Bold-70" transform="translate(148.974609 0)"/>
     <use xlink:href="#DejaVuSans-Bold-6c" transform="translate(220.556641 0)"/>
     <use xlink:href="#DejaVuSans-Bold-69" transform="translate(254.833984 0)"/>
     <use xlink:href="#DejaVuSans-Bold-63" transform="translate(289.111328 0)"/>
     <use xlink:href="#DejaVuSans-Bold-61" transform="translate(348.388672 0)"/>
     <use xlink:href="#DejaVuSans-Bold-74" transform="translate(415.869141 0)"/>
     <use xlink:href="#DejaVuSans-Bold-69" transform="translate(463.671875 0)"/>
     <use xlink:href="#DejaVuSans-Bold-6f" transform="translate(497.949219 0)"/>
     <use xlink:href="#DejaVuSans-Bold-6e" transform="translate(566.650391 0)"/>
    </g>
   </g>
   <g id="text_7">
    <!-- entry point -->
    <g style="fill: #78909c" transform="translate(101.607063 421.324175) scale(0.1 -0.1)">
     <defs>
      <path id="DejaVuSans-Oblique-65" d="M 3078 2063 
Q 3088 2113 3092 2166 
Q 3097 2219 3097 2272 
Q 3097 2653 2873 2875 
Q 2650 3097 2266 3097 
Q 1838 3097 1509 2826 
Q 1181 2556 1013 2059 
L 3078 2063 
z
M 3578 1613 
L 903 1613 
Q 884 1494 878 1425 
Q 872 1356 872 1306 
Q 872 872 1139 634 
Q 1406 397 1894 397 
Q 2269 397 2603 481 
Q 2938 566 3225 728 
L 3116 159 
Q 2806 34 2476 -28 
Q 2147 -91 1806 -91 
Q 1078 -91 686 257 
Q 294 606 294 1247 
Q 294 1794 489 2264 
Q 684 2734 1063 3103 
Q 1306 3334 1642 3459 
Q 1978 3584 2356 3584 
Q 2950 3584 3301 3228 
Q 3653 2872 3653 2272 
Q 3653 2128 3634 1964 
Q 3616 1800 3578 1613 
z
" transform="scale(0.015625)"/>
      <path id="DejaVuSans-Oblique-6e" d="M 3566 2113 
L 3156 0 
L 2578 0 
L 2988 2091 
Q 3016 2238 3031 2350 
Q 3047 2463 3047 2528 
Q 3047 2791 2881 2937 
Q 2716 3084 2419 3084 
Q 1956 3084 1622 2776 
Q 1288 2469 1184 1941 
L 800 0 
L 225 0 
L 903 3500 
L 1478 3500 
L 1363 2950 
Q 1603 3253 1940 3418 
Q 2278 3584 2650 3584 
Q 3113 3584 3367 3334 
Q 3622 3084 3622 2631 
Q 3622 2519 3608 2391 
Q 3594 2263 3566 2113 
z
" transform="scale(0.015625)"/>
      <path id="DejaVuSans-Oblique-74" d="M 2706 3500 
L 2619 3053 
L 1472 3053 
L 1100 1153 
Q 1081 1047 1072 975 
Q 1063 903 1063 863 
Q 1063 663 1183 572 
Q 1303 481 1569 481 
L 2150 481 
L 2053 0 
L 1503 0 
Q 991 0 739 200 
Q 488 400 488 806 
Q 488 878 497 964 
Q 506 1050 525 1153 
L 897 3053 
L 409 3053 
L 500 3500 
L 978 3500 
L 1172 4494 
L 1747 4494 
L 1556 3500 
L 2706 3500 
z
" transform="scale(0.015625)"/>
      <path id="DejaVuSans-Oblique-72" d="M 2853 2969 
Q 2766 3016 2653 3041 
Q 2541 3066 2413 3066 
Q 1953 3066 1609 2717 
Q 1266 2369 1153 1784 
L 800 0 
L 225 0 
L 909 3500 
L 1484 3500 
L 1375 2956 
Q 1603 3259 1920 3421 
Q 2238 3584 2597 3584 
Q 2691 3584 2781 3573 
Q 2872 3563 2963 3538 
L 2853 2969 
z
" transform="scale(0.015625)"/>
      <path id="DejaVuSans-Oblique-79" d="M 1588 -325 
Q 1188 -997 936 -1164 
Q 684 -1331 294 -1331 
L -159 -1331 
L -63 -850 
L 269 -850 
Q 509 -850 678 -719 
Q 847 -588 1056 -206 
L 1234 128 
L 459 3500 
L 1069 3500 
L 1650 819 
L 3256 3500 
L 3859 3500 
L 1588 -325 
z
" transform="scale(0.015625)"/>
      <path id="DejaVuSans-Oblique-20" transform="scale(0.015625)"/>
      <path id="DejaVuSans-Oblique-70" d="M 3175 2156 
Q 3175 2616 2975 2859 
Q 2775 3103 2400 3103 
Q 2144 3103 1911 2972 
Q 1678 2841 1497 2591 
Q 1319 2344 1212 1994 
Q 1106 1644 1106 1300 
Q 1106 863 1306 627 
Q 1506 391 1875 391 
Q 2147 391 2380 519 
Q 2613 647 2778 891 
Q 2956 1147 3065 1494 
Q 3175 1841 3175 2156 
z
M 1394 2969 
Q 1625 3272 1939 3428 
Q 2253 3584 2638 3584 
Q 3175 3584 3472 3232 
Q 3769 2881 3769 2247 
Q 3769 1728 3584 1258 
Q 3400 788 3053 416 
Q 2822 169 2531 39 
Q 2241 -91 1919 -91 
Q 1547 -91 1294 64 
Q 1041 219 916 525 
L 556 -1331 
L -19 -1331 
L 922 3500 
L 1497 3500 
L 1394 2969 
z
" transform="scale(0.015625)"/>
      <path id="DejaVuSans-Oblique-6f" d="M 1625 -91 
Q 1009 -91 651 289 
Q 294 669 294 1325 
Q 294 1706 417 2101 
Q 541 2497 738 2766 
Q 1047 3184 1428 3384 
Q 1809 3584 2291 3584 
Q 2888 3584 3255 3212 
Q 3622 2841 3622 2241 
Q 3622 1825 3500 1412 
Q 3378 1000 3181 728 
Q 2875 309 2494 109 
Q 2113 -91 1625 -91 
z
M 891 1344 
Q 891 869 1089 633 
Q 1288 397 1691 397 
Q 2269 397 2648 901 
Q 3028 1406 3028 2181 
Q 3028 2634 2825 2865 
Q 2622 3097 2228 3097 
Q 1903 3097 1650 2945 
Q 1397 2794 1197 2484 
Q 1050 2253 970 1956 
Q 891 1659 891 1344 
z
" transform="scale(0.015625)"/>
      <path id="DejaVuSans-Oblique-69" d="M 1172 4863 
L 1747 4863 
L 1606 4134 
L 1031 4134 
L 1172 4863 
z
M 909 3500 
L 1484 3500 
L 800 0 
L 225 0 
L 909 3500 
z
" transform="scale(0.015625)"/>
     </defs>
     <use xlink:href="#DejaVuSans-Oblique-65"/>
     <use xlink:href="#DejaVuSans-Oblique-6e" transform="translate(61.523438 0)"/>
     <use xlink:href="#DejaVuSans-Oblique-74" transform="translate(124.902344 0)"/>
     <use xlink:href="#DejaVuSans-Oblique-72" transform="translate(164.111328 0)"/>
     <use xlink:href="#DejaVuSans-Oblique-79" transform="translate(205.224609 0)"/>
     <use xlink:href="#DejaVuSans-Oblique-20" transform="translate(264.404297 0)"/>
     <use xlink:href="#DejaVuSans-Oblique-70" transform="translate(296.191406 0)"/>
     <use xlink:href="#DejaVuSans-Oblique-6f" transform="translate(359.667969 0)"/>
     <use xlink:href="#DejaVuSans-Oblique-69" transform="translate(420.849609 0)"/>
     <use xlink:href="#DejaVuSans-Oblique-6e" transform="translate(448.632812 0)"/>
     <use xlink:href="#DejaVuSans-Oblique-74" transform="translate(512.011719 0)"/>
    </g>
   </g>
   <g id="text_8">
    <!-- Test Runner -->
    <g style="fill: #263238" transform="translate(285.031375 404.411187) scale(0.13 -0.13)">
     <defs>
      <path id="DejaVuSans-Bold-54" d="M 31 4666 
L 4331 4666 
L 4331 3756 
L 2784 3756 
L 2784 0 
L 1581 0 
L 1581 3756 
L 31 3756 
L 31 4666 
z
" transform="scale(0.015625)"/>
      <path id="DejaVuSans-Bold-52" d="M 2297 2597 
Q 2675 2597 2839 2737 
Q 3003 2878 3003 3200 
Q 3003 3519 2839 3656 
Q 2675 3794 2297 3794 
L 1791 3794 
L 1791 2597 
L 2297 2597 
z
M 1791 1766 
L 1791 0 
L 588 0 
L 588 4666 
L 2425 4666 
Q 3347 4666 3776 4356 
Q 4206 4047 4206 3378 
Q 4206 2916 3982 2619 
Q 3759 2322 3309 2181 
Q 3556 2125 3751 1926 
Q 3947 1728 4147 1325 
L 4800 0 
L 3519 0 
L 2950 1159 
Q 2778 1509 2601 1637 
Q 2425 1766 2131 1766 
L 1791 1766 
z
" transform="scale(0.015625)"/>
      <path id="DejaVuSans-Bold-75" d="M 500 1363 
L 500 3500 
L 1625 3500 
L 1625 3150 
Q 1625 2866 1622 2436 
Q 1619 2006 1619 1863 
Q 1619 1441 1641 1255 
Q 1663 1069 1716 984 
Q 1784 875 1895 815 
Q 2006 756 2150 756 
Q 2500 756 2700 1025 
Q 2900 1294 2900 1772 
L 2900 3500 
L 4019 3500 
L 4019 0 
L 2900 0 
L 2900 506 
Q 2647 200 2364 54 
Q 2081 -91 1741 -91 
Q 1134 -91 817 281 
Q 500 653 500 1363 
z
" transform="scale(0.015625)"/>
     </defs>
     <use xlink:href="#DejaVuSans-Bold-54"/>
     <use xlink:href="#DejaVuSans-Bold-65" transform="translate(54.962891 0)"/>
     <use xlink:href="#DejaVuSans-Bold-73" transform="translate(122.785156 0)"/>
     <use xlink:href="#DejaVuSans-Bold-74" transform="translate(182.306641 0)"/>
     <use xlink:href="#DejaVuSans-Bold-20" transform="translate(230.109375 0)"/>
     <use xlink:href="#DejaVuSans-Bold-52" transform="translate(264.923828 0)"/>
     <use xlink:href="#DejaVuSans-Bold-75" transform="translate(341.925781 0)"/>
     <use xlink:href="#DejaVuSans-Bold-6e" transform="translate(413.117188 0)"/>
     <use xlink:href="#DejaVuSans-Bold-6e" transform="translate(484.308594 0)"/>
     <use xlink:href="#DejaVuSans-Bold-65" transform="translate(555.5 0)"/>
     <use xlink:href="#DejaVuSans-Bold-72" transform="translate(623.322266 0)"/>
    </g>
   </g>
   <g id="text_9">
    <!-- orchestrates the fuzz session -->
    <g style="fill: #78909c" transform="translate(575.445734 148.835312) scale(0.11 -0.11)">
     <defs>
      <path id="DejaVuSans-Oblique-63" d="M 3431 3366 
L 3316 2797 
Q 3109 2947 2876 3022 
Q 2644 3097 2394 3097 
Q 2119 3097 1870 3000 
Q 1622 2903 1453 2725 
Q 1184 2453 1037 2087 
Q 891 1722 891 1331 
Q 891 859 1127 628 
Q 1363 397 1844 397 
Q 2081 397 2348 469 
Q 2616 541 2906 684 
L 2797 116 
Q 2547 13 2283 -39 
Q 2019 -91 1741 -91 
Q 1044 -91 669 257 
Q 294 606 294 1253 
Q 294 1797 489 2255 
Q 684 2713 1069 3078 
Q 1331 3328 1684 3456 
Q 2038 3584 2456 3584 
Q 2700 3584 2940 3529 
Q 3181 3475 3431 3366 
z
" transform="scale(0.015625)"/>
      <path id="DejaVuSans-Oblique-68" d="M 3566 2113 
L 3156 0 
L 2578 0 
L 2988 2091 
Q 3016 2238 3031 2350 
Q 3047 2463 3047 2528 
Q 3047 2791 2881 2937 
Q 2716 3084 2419 3084 
Q 1956 3084 1617 2771 
Q 1278 2459 1178 1941 
L 800 0 
L 225 0 
L 1172 4863 
L 1747 4863 
L 1375 2950 
Q 1594 3244 1934 3414 
Q 2275 3584 2650 3584 
Q 3113 3584 3367 3334 
Q 3622 3084 3622 2631 
Q 3622 2519 3608 2391 
Q 3594 2263 3566 2113 
z
" transform="scale(0.015625)"/>
      <path id="DejaVuSans-Oblique-73" d="M 3200 3397 
L 3091 2853 
Q 2863 2978 2609 3040 
Q 2356 3103 2088 3103 
Q 1634 3103 1373 2948 
Q 1113 2794 1113 2528 
Q 1113 2219 1719 2053 
Q 1766 2041 1788 2034 
L 1972 1978 
Q 2547 1819 2739 1644 
Q 2931 1469 2931 1166 
Q 2931 609 2489 259 
Q 2047 -91 1331 -91 
Q 1053 -91 747 -37 
Q 441 16 72 128 
L 184 722 
Q 500 559 806 475 
Q 1113 391 1394 391 
Q 1816 391 2080 572 
Q 2344 753 2344 1031 
Q 2344 1331 1650 1516 
L 1591 1531 
L 1394 1581 
Q 956 1697 753 1886 
Q 550 2075 550 2369 
Q 550 2928 970 3256 
Q 1391 3584 2113 3584 
Q 2397 3584 2667 3537 
Q 2938 3491 3200 3397 
z
" transform="scale(0.015625)"/>
      <path id="DejaVuSans-Oblique-61" d="M 3438 1997 
L 3047 0 
L 2472 0 
L 2578 531 
Q 2325 219 2001 64 
Q 1678 -91 1281 -91 
Q 834 -91 548 182 
Q 263 456 263 884 
Q 263 1497 752 1853 
Q 1241 2209 2100 2209 
L 2900 2209 
L 2931 2363 
Q 2938 2388 2941 2417 
Q 2944 2447 2944 2509 
Q 2944 2788 2717 2942 
Q 2491 3097 2081 3097 
Q 1800 3097 1504 3025 
Q 1209 2953 897 2809 
L 997 3341 
Q 1322 3463 1633 3523 
Q 1944 3584 2234 3584 
Q 2853 3584 3176 3315 
Q 3500 3047 3500 2534 
Q 3500 2431 3484 2292 
Q 3469 2153 3438 1997 
z
M 2816 1759 
L 2241 1759 
Q 1534 1759 1195 1570 
Q 856 1381 856 984 
Q 856 709 1029 553 
Q 1203 397 1509 397 
Q 1978 397 2328 733 
Q 2678 1069 2791 1631 
L 2816 1759 
z
" transform="scale(0.015625)"/>
      <path id="DejaVuSans-Oblique-66" d="M 3059 4863 
L 2969 4384 
L 2419 4384 
Q 2106 4384 1964 4261 
Q 1822 4138 1753 3809 
L 1691 3500 
L 2638 3500 
L 2553 3053 
L 1606 3053 
L 1013 0 
L 434 0 
L 1031 3053 
L 481 3053 
L 563 3500 
L 1113 3500 
L 1159 3744 
Q 1278 4363 1576 4613 
Q 1875 4863 2516 4863 
L 3059 4863 
z
" transform="scale(0.015625)"/>
      <path id="DejaVuSans-Oblique-75" d="M 428 1388 
L 838 3500 
L 1416 3500 
L 1006 1409 
Q 975 1256 961 1147 
Q 947 1038 947 966 
Q 947 700 1109 554 
Q 1272 409 1569 409 
Q 2031 409 2368 721 
Q 2706 1034 2809 1563 
L 3194 3500 
L 3769 3500 
L 3091 0 
L 2516 0 
L 2631 550 
Q 2388 244 2052 76 
Q 1716 -91 1338 -91 
Q 878 -91 622 161 
Q 366 413 366 863 
Q 366 956 381 1097 
Q 397 1238 428 1388 
z
" transform="scale(0.015625)"/>
      <path id="DejaVuSans-Oblique-7a" d="M 744 3500 
L 3475 3500 
L 3372 2975 
L 738 459 
L 2913 459 
L 2822 0 
L -19 0 
L 84 525 
L 2719 3041 
L 653 3041 
L 744 3500 
z
" transform="scale(0.015625)"/>
     </defs>
     <use xlink:href="#DejaVuSans-Oblique-6f"/>
     <use xlink:href="#DejaVuSans-Oblique-72" transform="translate(61.181641 0)"/>
     <use xlink:href="#DejaVuSans-Oblique-63" transform="translate(102.294922 0)"/>
     <use xlink:href="#DejaVuSans-Oblique-68" transform="translate(157.275391 0)"/>
     <use xlink:href="#DejaVuSans-Oblique-65" transform="translate(220.654297 0)"/>
     <use xlink:href="#DejaVuSans-Oblique-73" transform="translate(282.177734 0)"/>
     <use xlink:href="#DejaVuSans-Oblique-74" transform="translate(334.277344 0)"/>
     <use xlink:href="#DejaVuSans-Oblique-72" transform="translate(373.486328 0)"/>
     <use xlink:href="#DejaVuSans-Oblique-61" transform="translate(414.599609 0)"/>
     <use xlink:href="#DejaVuSans-Oblique-74" transform="translate(475.878906 0)"/>
     <use xlink:href="#DejaVuSans-Oblique-65" transform="translate(515.087891 0)"/>
     <use xlink:href="#DejaVuSans-Oblique-73" transform="translate(576.611328 0)"/>
     <use xlink:href="#DejaVuSans-Oblique-20" transform="translate(628.710938 0)"/>
     <use xlink:href="#DejaVuSans-Oblique-74" transform="translate(660.498047 0)"/>
     <use xlink:href="#DejaVuSans-Oblique-68" transform="translate(699.707031 0)"/>
     <use xlink:href="#DejaVuSans-Oblique-65" transform="translate(763.085938 0)"/>
     <use xlink:href="#DejaVuSans-Oblique-20" transform="translate(824.609375 0)"/>
     <use xlink:href="#DejaVuSans-Oblique-66" transform="translate(856.396484 0)"/>
     <use xlink:href="#DejaVuSans-Oblique-75" transform="translate(891.601562 0)"/>
     <use xlink:href="#DejaVuSans-Oblique-7a" transform="translate(954.980469 0)"/>
     <use xlink:href="#DejaVuSans-Oblique-7a" transform="translate(1007.470703 0)"/>
     <use xlink:href="#DejaVuSans-Oblique-20" transform="translate(1059.960938 0)"/>
     <use xlink:href="#DejaVuSans-Oblique-73" transform="translate(1091.748047 0)"/>
     <use xlink:href="#DejaVuSans-Oblique-65" transform="translate(1143.847656 0)"/>
     <use xlink:href="#DejaVuSans-Oblique-73" transform="translate(1205.371094 0)"/>
     <use xlink:href="#DejaVuSans-Oblique-73" transform="translate(1257.470703 0)"/>
     <use xlink:href="#DejaVuSans-Oblique-69" transform="translate(1309.570312 0)"/>
     <use xlink:href="#DejaVuSans-Oblique-6f" transform="translate(1337.353516 0)"/>
     <use xlink:href="#DejaVuSans-Oblique-6e" transform="translate(1398.535156 0)"/>
    </g>
   </g>
   <g id="text_10">
    <!-- Test Runner Handler -->
    <g style="fill: #263238" transform="translate(575.152219 226.170325) scale(0.14 -0.14)">
     <defs>
      <path id="DejaVuSans-Bold-48" d="M 588 4666 
L 1791 4666 
L 1791 2888 
L 3566 2888 
L 3566 4666 
L 4769 4666 
L 4769 0 
L 3566 0 
L 3566 1978 
L 1791 1978 
L 1791 0 
L 588 0 
L 588 4666 
z
" transform="scale(0.015625)"/>
     </defs>
     <use xlink:href="#DejaVuSans-Bold-54"/>
     <use xlink:href="#DejaVuSans-Bold-65" transform="translate(54.962891 0)"/>
     <use xlink:href="#DejaVuSans-Bold-73" transform="translate(122.785156 0)"/>
     <use xlink:href="#DejaVuSans-Bold-74" transform="translate(182.306641 0)"/>
     <use xlink:href="#DejaVuSans-Bold-20" transform="translate(230.109375 0)"/>
     <use xlink:href="#DejaVuSans-Bold-52" transform="translate(264.923828 0)"/>
     <use xlink:href="#DejaVuSans-Bold-75" transform="translate(341.925781 0)"/>
     <use xlink:href="#DejaVuSans-Bold-6e" transform="translate(413.117188 0)"/>
     <use xlink:href="#DejaVuSans-Bold-6e" transform="translate(484.308594 0)"/>
     <use xlink:href="#DejaVuSans-Bold-65" transform="translate(555.5 0)"/>
     <use xlink:href="#DejaVuSans-Bold-72" transform="translate(623.322266 0)"/>
     <use xlink:href="#DejaVuSans-Bold-20" transform="translate(672.638672 0)"/>
     <use xlink:href="#DejaVuSans-Bold-48" transform="translate(707.453125 0)"/>
     <use xlink:href="#DejaVuSans-Bold-61" transform="translate(791.144531 0)"/>
     <use xlink:href="#DejaVuSans-Bold-6e" transform="translate(858.625 0)"/>
     <use xlink:href="#DejaVuSans-Bold-64" transform="translate(929.816406 0)"/>
     <use xlink:href="#DejaVuSans-Bold-6c" transform="translate(1001.398438 0)"/>
     <use xlink:href="#DejaVuSans-Bold-65" transform="translate(1035.675781 0)"/>
     <use xlink:href="#DejaVuSans-Bold-72" transform="translate(1103.498047 0)"/>
    </g>
   </g>
   <g id="text_11">
    <!-- folds an immutable Session Feedback -->
    <g style="fill: #78909c" transform="translate(561.145656 255.004175) scale(0.1 -0.1)">
     <defs>
      <path id="DejaVuSans-Oblique-6c" d="M 1172 4863 
L 1747 4863 
L 800 0 
L 225 0 
L 1172 4863 
z
" transform="scale(0.015625)"/>
      <path id="DejaVuSans-Oblique-64" d="M 2675 525 
Q 2444 222 2128 65 
Q 1813 -91 1428 -91 
Q 903 -91 598 267 
Q 294 625 294 1247 
Q 294 1766 478 2236 
Q 663 2706 1013 3078 
Q 1244 3325 1534 3454 
Q 1825 3584 2144 3584 
Q 2481 3584 2739 3421 
Q 2997 3259 3138 2956 
L 3513 4863 
L 4091 4863 
L 3144 0 
L 2566 0 
L 2675 525 
z
M 891 1350 
Q 891 897 1095 644 
Q 1300 391 1663 391 
Q 1931 391 2161 520 
Q 2391 650 2566 903 
Q 2750 1166 2856 1509 
Q 2963 1853 2963 2188 
Q 2963 2622 2758 2865 
Q 2553 3109 2194 3109 
Q 1922 3109 1687 2981 
Q 1453 2853 1288 2613 
Q 1106 2353 998 2009 
Q 891 1666 891 1350 
z
" transform="scale(0.015625)"/>
      <path id="DejaVuSans-Oblique-6d" d="M 5747 2113 
L 5338 0 
L 4763 0 
L 5166 2094 
Q 5191 2228 5203 2325 
Q 5216 2422 5216 2491 
Q 5216 2772 5059 2928 
Q 4903 3084 4622 3084 
Q 4203 3084 3875 2770 
Q 3547 2456 3450 1953 
L 3066 0 
L 2491 0 
L 2900 2094 
Q 2925 2209 2937 2307 
Q 2950 2406 2950 2484 
Q 2950 2769 2794 2926 
Q 2638 3084 2363 3084 
Q 1938 3084 1609 2770 
Q 1281 2456 1184 1953 
L 800 0 
L 225 0 
L 909 3500 
L 1484 3500 
L 1375 2956 
Q 1609 3263 1923 3423 
Q 2238 3584 2597 3584 
Q 2978 3584 3223 3384 
Q 3469 3184 3519 2828 
Q 3781 3197 4126 3390 
Q 4472 3584 4856 3584 
Q 5306 3584 5551 3325 
Q 5797 3066 5797 2591 
Q 5797 2488 5784 2364 
Q 5772 2241 5747 2113 
z
" transform="scale(0.015625)"/>
      <path id="DejaVuSans-Oblique-62" d="M 3169 2138 
Q 3169 2591 2961 2847 
Q 2753 3103 2388 3103 
Q 2122 3103 1889 2973 
Q 1656 2844 1484 2597 
Q 1303 2338 1198 1995 
Q 1094 1653 1094 1313 
Q 1094 881 1298 636 
Q 1503 391 1863 391 
Q 2134 391 2365 517 
Q 2597 644 2772 891 
Q 2950 1147 3059 1487 
Q 3169 1828 3169 2138 
z
M 1381 2969 
Q 1594 3256 1914 3420 
Q 2234 3584 2584 3584 
Q 3122 3584 3439 3221 
Q 3756 2859 3756 2241 
Q 3756 1734 3570 1259 
Q 3384 784 3041 416 
Q 2816 172 2522 40 
Q 2228 -91 1906 -91 
Q 1566 -91 1316 65 
Q 1066 222 909 531 
L 806 0 
L 231 0 
L 1178 4863 
L 1753 4863 
L 1381 2969 
z
" transform="scale(0.015625)"/>
      <path id="DejaVuSans-Oblique-53" d="M 3859 4513 
L 3738 3897 
Q 3422 4066 3111 4152 
Q 2800 4238 2509 4238 
Q 1944 4238 1609 3991 
Q 1275 3744 1275 3334 
Q 1275 3109 1398 2989 
Q 1522 2869 2034 2731 
L 2413 2638 
Q 3053 2472 3303 2217 
Q 3553 1963 3553 1503 
Q 3553 797 2998 353 
Q 2444 -91 1538 -91 
Q 1166 -91 791 -17 
Q 416 56 38 206 
L 166 856 
Q 513 641 861 531 
Q 1209 422 1556 422 
Q 2147 422 2503 684 
Q 2859 947 2859 1369 
Q 2859 1650 2717 1795 
Q 2575 1941 2106 2059 
L 1728 2156 
Q 1081 2325 845 2545 
Q 609 2766 609 3163 
Q 609 3859 1145 4304 
Q 1681 4750 2541 4750 
Q 2875 4750 3203 4690 
Q 3531 4631 3859 4513 
z
" transform="scale(0.015625)"/>
      <path id="DejaVuSans-Oblique-46" d="M 1081 4666 
L 3756 4666 
L 3653 4134 
L 1606 4134 
L 1338 2759 
L 3188 2759 
L 3084 2228 
L 1234 2228 
L 800 0 
L 172 0 
L 1081 4666 
z
" transform="scale(0.015625)"/>
      <path id="DejaVuSans-Oblique-6b" d="M 1172 4863 
L 1747 4863 
L 1197 2028 
L 3169 3500 
L 3916 3500 
L 1716 1825 
L 3322 0 
L 2625 0 
L 1131 1709 
L 800 0 
L 225 0 
L 1172 4863 
z
" transform="scale(0.015625)"/>
     </defs>
     <use xlink:href="#DejaVuSans-Oblique-66"/>
     <use xlink:href="#DejaVuSans-Oblique-6f" transform="translate(35.205078 0)"/>
     <use xlink:href="#DejaVuSans-Oblique-6c" transform="translate(96.386719 0)"/>
     <use xlink:href="#DejaVuSans-Oblique-64" transform="translate(124.169922 0)"/>
     <use xlink:href="#DejaVuSans-Oblique-73" transform="translate(187.646484 0)"/>
     <use xlink:href="#DejaVuSans-Oblique-20" transform="translate(239.746094 0)"/>
     <use xlink:href="#DejaVuSans-Oblique-61" transform="translate(271.533203 0)"/>
     <use xlink:href="#DejaVuSans-Oblique-6e" transform="translate(332.8125 0)"/>
     <use xlink:href="#DejaVuSans-Oblique-20" transform="translate(396.191406 0)"/>
     <use xlink:href="#DejaVuSans-Oblique-69" transform="translate(427.978516 0)"/>
     <use xlink:href="#DejaVuSans-Oblique-6d" transform="translate(455.761719 0)"/>
     <use xlink:href="#DejaVuSans-Oblique-6d" transform="translate(553.173828 0)"/>
     <use xlink:href="#DejaVuSans-Oblique-75" transform="translate(650.585938 0)"/>
     <use xlink:href="#DejaVuSans-Oblique-74" transform="translate(713.964844 0)"/>
     <use xlink:href="#DejaVuSans-Oblique-61" transform="translate(753.173828 0)"/>
     <use xlink:href="#DejaVuSans-Oblique-62" transform="translate(814.453125 0)"/>
     <use xlink:href="#DejaVuSans-Oblique-6c" transform="translate(877.929688 0)"/>
     <use xlink:href="#DejaVuSans-Oblique-65" transform="translate(905.712891 0)"/>
     <use xlink:href="#DejaVuSans-Oblique-20" transform="translate(967.236328 0)"/>
     <use xlink:href="#DejaVuSans-Oblique-53" transform="translate(999.023438 0)"/>
     <use xlink:href="#DejaVuSans-Oblique-65" transform="translate(1062.5 0)"/>
     <use xlink:href="#DejaVuSans-Oblique-73" transform="translate(1124.023438 0)"/>
     <use xlink:href="#DejaVuSans-Oblique-73" transform="translate(1176.123047 0)"/>
     <use xlink:href="#DejaVuSans-Oblique-69" transform="translate(1228.222656 0)"/>
     <use xlink:href="#DejaVuSans-Oblique-6f" transform="translate(1256.005859 0)"/>
     <use xlink:href="#DejaVuSans-Oblique-6e" transform="translate(1317.1875 0)"/>
     <use xlink:href="#DejaVuSans-Oblique-20" transform="translate(1380.566406 0)"/>
     <use xlink:href="#DejaVuSans-Oblique-46" transform="translate(1412.353516 0)"/>
     <use xlink:href="#DejaVuSans-Oblique-65" transform="translate(1469.873047 0)"/>
     <use xlink:href="#DejaVuSans-Oblique-65" transform="translate(1531.396484 0)"/>
     <use xlink:href="#DejaVuSans-Oblique-64" transform="translate(1592.919922 0)"/>
     <use xlink:href="#DejaVuSans-Oblique-62" transform="translate(1656.396484 0)"/>
     <use xlink:href="#DejaVuSans-Oblique-61" transform="translate(1719.873047 0)"/>
     <use xlink:href="#DejaVuSans-Oblique-63" transform="translate(1781.152344 0)"/>
     <use xlink:href="#DejaVuSans-Oblique-6b" transform="translate(1836.132812 0)"/>
    </g>
   </g>
   <g id="text_12">
    <!-- Domain -->
    <g transform="translate(617.24925 333.718875) scale(0.18 -0.18)">
     <defs>
      <path id="DejaVuSans-Bold-6d" d="M 3781 2919 
Q 3994 3244 4286 3414 
Q 4578 3584 4928 3584 
Q 5531 3584 5847 3212 
Q 6163 2841 6163 2131 
L 6163 0 
L 5038 0 
L 5038 1825 
Q 5041 1866 5042 1909 
Q 5044 1953 5044 2034 
Q 5044 2406 4934 2573 
Q 4825 2741 4581 2741 
Q 4263 2741 4089 2478 
Q 3916 2216 3909 1719 
L 3909 0 
L 2784 0 
L 2784 1825 
Q 2784 2406 2684 2573 
Q 2584 2741 2328 2741 
Q 2006 2741 1831 2477 
Q 1656 2213 1656 1722 
L 1656 0 
L 531 0 
L 531 3500 
L 1656 3500 
L 1656 2988 
Q 1863 3284 2130 3434 
Q 2397 3584 2719 3584 
Q 3081 3584 3359 3409 
Q 3638 3234 3781 2919 
z
" transform="scale(0.015625)"/>
     </defs>
     <use xlink:href="#DejaVuSans-Bold-44"/>
     <use xlink:href="#DejaVuSans-Bold-6f" transform="translate(83.007812 0)"/>
     <use xlink:href="#DejaVuSans-Bold-6d" transform="translate(151.708984 0)"/>
     <use xlink:href="#DejaVuSans-Bold-61" transform="translate(255.908203 0)"/>
     <use xlink:href="#DejaVuSans-Bold-69" transform="translate(323.388672 0)"/>
     <use xlink:href="#DejaVuSans-Bold-6e" transform="translate(357.666016 0)"/>
    </g>
   </g>
   <g id="text_13">
    <!-- Session Feedback -->
    <g style="fill: #1a1a1a" transform="translate(600.25132 382.097219) scale(0.125 -0.125)">
     <defs>
      <path id="DejaVuSans-53" d="M 3425 4513 
L 3425 3897 
Q 3066 4069 2747 4153 
Q 2428 4238 2131 4238 
Q 1616 4238 1336 4038 
Q 1056 3838 1056 3469 
Q 1056 3159 1242 3001 
Q 1428 2844 1947 2747 
L 2328 2669 
Q 3034 2534 3370 2195 
Q 3706 1856 3706 1288 
Q 3706 609 3251 259 
Q 2797 -91 1919 -91 
Q 1588 -91 1214 -16 
Q 841 59 441 206 
L 441 856 
Q 825 641 1194 531 
Q 1563 422 1919 422 
Q 2459 422 2753 634 
Q 3047 847 3047 1241 
Q 3047 1584 2836 1778 
Q 2625 1972 2144 2069 
L 1759 2144 
Q 1053 2284 737 2584 
Q 422 2884 422 3419 
Q 422 4038 858 4394 
Q 1294 4750 2059 4750 
Q 2388 4750 2728 4690 
Q 3069 4631 3425 4513 
z
" transform="scale(0.015625)"/>
      <path id="DejaVuSans-65" d="M 3597 1894 
L 3597 1613 
L 953 1613 
Q 991 1019 1311 708 
Q 1631 397 2203 397 
Q 2534 397 2845 478 
Q 3156 559 3463 722 
L 3463 178 
Q 3153 47 2828 -22 
Q 2503 -91 2169 -91 
Q 1331 -91 842 396 
Q 353 884 353 1716 
Q 353 2575 817 3079 
Q 1281 3584 2069 3584 
Q 2775 3584 3186 3129 
Q 3597 2675 3597 1894 
z
M 3022 2063 
Q 3016 2534 2758 2815 
Q 2500 3097 2075 3097 
Q 1594 3097 1305 2825 
Q 1016 2553 972 2059 
L 3022 2063 
z
" transform="scale(0.015625)"/>
      <path id="DejaVuSans-73" d="M 2834 3397 
L 2834 2853 
Q 2591 2978 2328 3040 
Q 2066 3103 1784 3103 
Q 1356 3103 1142 2972 
Q 928 2841 928 2578 
Q 928 2378 1081 2264 
Q 1234 2150 1697 2047 
L 1894 2003 
Q 2506 1872 2764 1633 
Q 3022 1394 3022 966 
Q 3022 478 2636 193 
Q 2250 -91 1575 -91 
Q 1294 -91 989 -36 
Q 684 19 347 128 
L 347 722 
Q 666 556 975 473 
Q 1284 391 1588 391 
Q 1994 391 2212 530 
Q 2431 669 2431 922 
Q 2431 1156 2273 1281 
Q 2116 1406 1581 1522 
L 1381 1569 
Q 847 1681 609 1914 
Q 372 2147 372 2553 
Q 372 3047 722 3315 
Q 1072 3584 1716 3584 
Q 2034 3584 2315 3537 
Q 2597 3491 2834 3397 
z
" transform="scale(0.015625)"/>
      <path id="DejaVuSans-69" d="M 603 3500 
L 1178 3500 
L 1178 0 
L 603 0 
L 603 3500 
z
M 603 4863 
L 1178 4863 
L 1178 4134 
L 603 4134 
L 603 4863 
z
" transform="scale(0.015625)"/>
      <path id="DejaVuSans-6f" d="M 1959 3097 
Q 1497 3097 1228 2736 
Q 959 2375 959 1747 
Q 959 1119 1226 758 
Q 1494 397 1959 397 
Q 2419 397 2687 759 
Q 2956 1122 2956 1747 
Q 2956 2369 2687 2733 
Q 2419 3097 1959 3097 
z
M 1959 3584 
Q 2709 3584 3137 3096 
Q 3566 2609 3566 1747 
Q 3566 888 3137 398 
Q 2709 -91 1959 -91 
Q 1206 -91 779 398 
Q 353 888 353 1747 
Q 353 2609 779 3096 
Q 1206 3584 1959 3584 
z
" transform="scale(0.015625)"/>
      <path id="DejaVuSans-6e" d="M 3513 2113 
L 3513 0 
L 2938 0 
L 2938 2094 
Q 2938 2591 2744 2837 
Q 2550 3084 2163 3084 
Q 1697 3084 1428 2787 
Q 1159 2491 1159 1978 
L 1159 0 
L 581 0 
L 581 3500 
L 1159 3500 
L 1159 2956 
Q 1366 3272 1645 3428 
Q 1925 3584 2291 3584 
Q 2894 3584 3203 3211 
Q 3513 2838 3513 2113 
z
" transform="scale(0.015625)"/>
      <path id="DejaVuSans-20" transform="scale(0.015625)"/>
      <path id="DejaVuSans-46" d="M 628 4666 
L 3309 4666 
L 3309 4134 
L 1259 4134 
L 1259 2759 
L 3109 2759 
L 3109 2228 
L 1259 2228 
L 1259 0 
L 628 0 
L 628 4666 
z
" transform="scale(0.015625)"/>
      <path id="DejaVuSans-64" d="M 2906 2969 
L 2906 4863 
L 3481 4863 
L 3481 0 
L 2906 0 
L 2906 525 
Q 2725 213 2448 61 
Q 2172 -91 1784 -91 
Q 1150 -91 751 415 
Q 353 922 353 1747 
Q 353 2572 751 3078 
Q 1150 3584 1784 3584 
Q 2172 3584 2448 3432 
Q 2725 3281 2906 2969 
z
M 947 1747 
Q 947 1113 1208 752 
Q 1469 391 1925 391 
Q 2381 391 2643 752 
Q 2906 1113 2906 1747 
Q 2906 2381 2643 2742 
Q 2381 3103 1925 3103 
Q 1469 3103 1208 2742 
Q 947 2381 947 1747 
z
" transform="scale(0.015625)"/>
      <path id="DejaVuSans-62" d="M 3116 1747 
Q 3116 2381 2855 2742 
Q 2594 3103 2138 3103 
Q 1681 3103 1420 2742 
Q 1159 2381 1159 1747 
Q 1159 1113 1420 752 
Q 1681 391 2138 391 
Q 2594 391 2855 752 
Q 3116 1113 3116 1747 
z
M 1159 2969 
Q 1341 3281 1617 3432 
Q 1894 3584 2278 3584 
Q 2916 3584 3314 3078 
Q 3713 2572 3713 1747 
Q 3713 922 3314 415 
Q 2916 -91 2278 -91 
Q 1894 -91 1617 61 
Q 1341 213 1159 525 
L 1159 0 
L 581 0 
L 581 4863 
L 1159 4863 
L 1159 2969 
z
" transform="scale(0.015625)"/>
      <path id="DejaVuSans-61" d="M 2194 1759 
Q 1497 1759 1228 1600 
Q 959 1441 959 1056 
Q 959 750 1161 570 
Q 1363 391 1709 391 
Q 2188 391 2477 730 
Q 2766 1069 2766 1631 
L 2766 1759 
L 2194 1759 
z
M 3341 1997 
L 3341 0 
L 2766 0 
L 2766 531 
Q 2569 213 2275 61 
Q 1981 -91 1556 -91 
Q 1019 -91 701 211 
Q 384 513 384 1019 
Q 384 1609 779 1909 
Q 1175 2209 1959 2209 
L 2766 2209 
L 2766 2266 
Q 2766 2663 2505 2880 
Q 2244 3097 1772 3097 
Q 1472 3097 1187 3025 
Q 903 2953 641 2809 
L 641 3341 
Q 956 3463 1253 3523 
Q 1550 3584 1831 3584 
Q 2591 3584 2966 3190 
Q 3341 2797 3341 1997 
z
" transform="scale(0.015625)"/>
      <path id="DejaVuSans-63" d="M 3122 3366 
L 3122 2828 
Q 2878 2963 2633 3030 
Q 2388 3097 2138 3097 
Q 1578 3097 1268 2742 
Q 959 2388 959 1747 
Q 959 1106 1268 751 
Q 1578 397 2138 397 
Q 2388 397 2633 464 
Q 2878 531 3122 666 
L 3122 134 
Q 2881 22 2623 -34 
Q 2366 -91 2075 -91 
Q 1284 -91 818 406 
Q 353 903 353 1747 
Q 353 2603 823 3093 
Q 1294 3584 2113 3584 
Q 2378 3584 2631 3529 
Q 2884 3475 3122 3366 
z
" transform="scale(0.015625)"/>
      <path id="DejaVuSans-6b" d="M 581 4863 
L 1159 4863 
L 1159 1991 
L 2875 3500 
L 3609 3500 
L 1753 1863 
L 3688 0 
L 2938 0 
L 1159 1709 
L 1159 0 
L 581 0 
L 581 4863 
z
" transform="scale(0.015625)"/>
     </defs>
     <use xlink:href="#DejaVuSans-53"/>
     <use xlink:href="#DejaVuSans-65" transform="translate(63.476562 0)"/>
     <use xlink:href="#DejaVuSans-73" transform="translate(125 0)"/>
     <use xlink:href="#DejaVuSans-73" transform="translate(177.099609 0)"/>
     <use xlink:href="#DejaVuSans-69" transform="translate(229.199219 0)"/>
     <use xlink:href="#DejaVuSans-6f" transform="translate(256.982422 0)"/>
     <use xlink:href="#DejaVuSans-6e" transform="translate(318.164062 0)"/>
     <use xlink:href="#DejaVuSans-20" transform="translate(381.542969 0)"/>
     <use xlink:href="#DejaVuSans-46" transform="translate(413.330078 0)"/>
     <use xlink:href="#DejaVuSans-65" transform="translate(465.349609 0)"/>
     <use xlink:href="#DejaVuSans-65" transform="translate(526.873047 0)"/>
     <use xlink:href="#DejaVuSans-64" transform="translate(588.396484 0)"/>
     <use xlink:href="#DejaVuSans-62" transform="translate(651.873047 0)"/>
     <use xlink:href="#DejaVuSans-61" transform="translate(715.349609 0)"/>
     <use xlink:href="#DejaVuSans-63" transform="translate(776.628906 0)"/>
     <use xlink:href="#DejaVuSans-6b" transform="translate(831.609375 0)"/>
    </g>
   </g>
   <g id="text_14">
    <!-- Branch Tree -->
    <g style="fill: #1a1a1a" transform="translate(618.800148 423.677219) scale(0.125 -0.125)">
     <defs>
      <path id="DejaVuSans-42" d="M 1259 2228 
L 1259 519 
L 2272 519 
Q 2781 519 3026 730 
Q 3272 941 3272 1375 
Q 3272 1813 3026 2020 
Q 2781 2228 2272 2228 
L 1259 2228 
z
M 1259 4147 
L 1259 2741 
L 2194 2741 
Q 2656 2741 2882 2914 
Q 3109 3088 3109 3444 
Q 3109 3797 2882 3972 
Q 2656 4147 2194 4147 
L 1259 4147 
z
M 628 4666 
L 2241 4666 
Q 2963 4666 3353 4366 
Q 3744 4066 3744 3513 
Q 3744 3084 3544 2831 
Q 3344 2578 2956 2516 
Q 3422 2416 3680 2098 
Q 3938 1781 3938 1306 
Q 3938 681 3513 340 
Q 3088 0 2303 0 
L 628 0 
L 628 4666 
z
" transform="scale(0.015625)"/>
      <path id="DejaVuSans-72" d="M 2631 2963 
Q 2534 3019 2420 3045 
Q 2306 3072 2169 3072 
Q 1681 3072 1420 2755 
Q 1159 2438 1159 1844 
L 1159 0 
L 581 0 
L 581 3500 
L 1159 3500 
L 1159 2956 
Q 1341 3275 1631 3429 
Q 1922 3584 2338 3584 
Q 2397 3584 2469 3576 
Q 2541 3569 2628 3553 
L 2631 2963 
z
" transform="scale(0.015625)"/>
      <path id="DejaVuSans-68" d="M 3513 2113 
L 3513 0 
L 2938 0 
L 2938 2094 
Q 2938 2591 2744 2837 
Q 2550 3084 2163 3084 
Q 1697 3084 1428 2787 
Q 1159 2491 1159 1978 
L 1159 0 
L 581 0 
L 581 4863 
L 1159 4863 
L 1159 2956 
Q 1366 3272 1645 3428 
Q 1925 3584 2291 3584 
Q 2894 3584 3203 3211 
Q 3513 2838 3513 2113 
z
" transform="scale(0.015625)"/>
      <path id="DejaVuSans-54" d="M -19 4666 
L 3928 4666 
L 3928 4134 
L 2272 4134 
L 2272 0 
L 1638 0 
L 1638 4134 
L -19 4134 
L -19 4666 
z
" transform="scale(0.015625)"/>
     </defs>
     <use xlink:href="#DejaVuSans-42"/>
     <use xlink:href="#DejaVuSans-72" transform="translate(68.603516 0)"/>
     <use xlink:href="#DejaVuSans-61" transform="translate(109.716797 0)"/>
     <use xlink:href="#DejaVuSans-6e" transform="translate(170.996094 0)"/>
     <use xlink:href="#DejaVuSans-63" transform="translate(234.375 0)"/>
     <use xlink:href="#DejaVuSans-68" transform="translate(289.355469 0)"/>
     <use xlink:href="#DejaVuSans-20" transform="translate(352.734375 0)"/>
     <use xlink:href="#DejaVuSans-54" transform="translate(384.521484 0)"/>
     <use xlink:href="#DejaVuSans-72" transform="translate(430.855469 0)"/>
     <use xlink:href="#DejaVuSans-65" transform="translate(469.71875 0)"/>
     <use xlink:href="#DejaVuSans-65" transform="translate(531.242188 0)"/>
    </g>
   </g>
   <g id="text_15">
    <!-- Generatable -->
    <g style="fill: #1a1a1a" transform="translate(617.123391 465.257219) scale(0.125 -0.125)">
     <defs>
      <path id="DejaVuSans-47" d="M 3809 666 
L 3809 1919 
L 2778 1919 
L 2778 2438 
L 4434 2438 
L 4434 434 
Q 4069 175 3628 42 
Q 3188 -91 2688 -91 
Q 1594 -91 976 548 
Q 359 1188 359 2328 
Q 359 3472 976 4111 
Q 1594 4750 2688 4750 
Q 3144 4750 3555 4637 
Q 3966 4525 4313 4306 
L 4313 3634 
Q 3963 3931 3569 4081 
Q 3175 4231 2741 4231 
Q 1884 4231 1454 3753 
Q 1025 3275 1025 2328 
Q 1025 1384 1454 906 
Q 1884 428 2741 428 
Q 3075 428 3337 486 
Q 3600 544 3809 666 
z
" transform="scale(0.015625)"/>
      <path id="DejaVuSans-74" d="M 1172 4494 
L 1172 3500 
L 2356 3500 
L 2356 3053 
L 1172 3053 
L 1172 1153 
Q 1172 725 1289 603 
Q 1406 481 1766 481 
L 2356 481 
L 2356 0 
L 1766 0 
Q 1100 0 847 248 
Q 594 497 594 1153 
L 594 3053 
L 172 3053 
L 172 3500 
L 594 3500 
L 594 4494 
L 1172 4494 
z
" transform="scale(0.015625)"/>
      <path id="DejaVuSans-6c" d="M 603 4863 
L 1178 4863 
L 1178 0 
L 603 0 
L 603 4863 
z
" transform="scale(0.015625)"/>
     </defs>
     <use xlink:href="#DejaVuSans-47"/>
     <use xlink:href="#DejaVuSans-65" transform="translate(77.490234 0)"/>
     <use xlink:href="#DejaVuSans-6e" transform="translate(139.013672 0)"/>
     <use xlink:href="#DejaVuSans-65" transform="translate(202.392578 0)"/>
     <use xlink:href="#DejaVuSans-72" transform="translate(263.916016 0)"/>
     <use xlink:href="#DejaVuSans-61" transform="translate(305.029297 0)"/>
     <use xlink:href="#DejaVuSans-74" transform="translate(366.308594 0)"/>
     <use xlink:href="#DejaVuSans-61" transform="translate(405.517578 0)"/>
     <use xlink:href="#DejaVuSans-62" transform="translate(466.796875 0)"/>
     <use xlink:href="#DejaVuSans-6c" transform="translate(530.273438 0)"/>
     <use xlink:href="#DejaVuSans-65" transform="translate(558.056641 0)"/>
    </g>
   </g>
   <g id="text_16">
    <!-- Constant Pool -->
    <g style="fill: #1a1a1a" transform="translate(612.838234 506.837219) scale(0.125 -0.125)">
     <defs>
      <path id="DejaVuSans-43" d="M 4122 4306 
L 4122 3641 
Q 3803 3938 3442 4084 
Q 3081 4231 2675 4231 
Q 1875 4231 1450 3742 
Q 1025 3253 1025 2328 
Q 1025 1406 1450 917 
Q 1875 428 2675 428 
Q 3081 428 3442 575 
Q 3803 722 4122 1019 
L 4122 359 
Q 3791 134 3420 21 
Q 3050 -91 2638 -91 
Q 1578 -91 968 557 
Q 359 1206 359 2328 
Q 359 3453 968 4101 
Q 1578 4750 2638 4750 
Q 3056 4750 3426 4639 
Q 3797 4528 4122 4306 
z
" transform="scale(0.015625)"/>
      <path id="DejaVuSans-50" d="M 1259 4147 
L 1259 2394 
L 2053 2394 
Q 2494 2394 2734 2622 
Q 2975 2850 2975 3272 
Q 2975 3691 2734 3919 
Q 2494 4147 2053 4147 
L 1259 4147 
z
M 628 4666 
L 2053 4666 
Q 2838 4666 3239 4311 
Q 3641 3956 3641 3272 
Q 3641 2581 3239 2228 
Q 2838 1875 2053 1875 
L 1259 1875 
L 1259 0 
L 628 0 
L 628 4666 
z
" transform="scale(0.015625)"/>
     </defs>
     <use xlink:href="#DejaVuSans-43"/>
     <use xlink:href="#DejaVuSans-6f" transform="translate(69.824219 0)"/>
     <use xlink:href="#DejaVuSans-6e" transform="translate(131.005859 0)"/>
     <use xlink:href="#DejaVuSans-73" transform="translate(194.384766 0)"/>
     <use xlink:href="#DejaVuSans-74" transform="translate(246.484375 0)"/>
     <use xlink:href="#DejaVuSans-61" transform="translate(285.693359 0)"/>
     <use xlink:href="#DejaVuSans-6e" transform="translate(346.972656 0)"/>
     <use xlink:href="#DejaVuSans-74" transform="translate(410.351562 0)"/>
     <use xlink:href="#DejaVuSans-20" transform="translate(449.560547 0)"/>
     <use xlink:href="#DejaVuSans-50" transform="translate(481.347656 0)"/>
     <use xlink:href="#DejaVuSans-6f" transform="translate(538.025391 0)"/>
     <use xlink:href="#DejaVuSans-6f" transform="translate(599.207031 0)"/>
     <use xlink:href="#DejaVuSans-6c" transform="translate(660.388672 0)"/>
    </g>
   </g>
   <g id="text_17">
    <!-- Strategies -->
    <g transform="translate(614.867375 590.356437) scale(0.14 -0.14)">
     <defs>
      <path id="DejaVuSans-Bold-53" d="M 3834 4519 
L 3834 3531 
Q 3450 3703 3084 3790 
Q 2719 3878 2394 3878 
Q 1963 3878 1756 3759 
Q 1550 3641 1550 3391 
Q 1550 3203 1689 3098 
Q 1828 2994 2194 2919 
L 2706 2816 
Q 3484 2659 3812 2340 
Q 4141 2022 4141 1434 
Q 4141 663 3683 286 
Q 3225 -91 2284 -91 
Q 1841 -91 1394 -6 
Q 947 78 500 244 
L 500 1259 
Q 947 1022 1364 901 
Q 1781 781 2169 781 
Q 2563 781 2772 912 
Q 2981 1044 2981 1288 
Q 2981 1506 2839 1625 
Q 2697 1744 2272 1838 
L 1806 1941 
Q 1106 2091 782 2419 
Q 459 2747 459 3303 
Q 459 4000 909 4375 
Q 1359 4750 2203 4750 
Q 2588 4750 2994 4692 
Q 3400 4634 3834 4519 
z
" transform="scale(0.015625)"/>
     </defs>
     <use xlink:href="#DejaVuSans-Bold-53"/>
     <use xlink:href="#DejaVuSans-Bold-74" transform="translate(72.021484 0)"/>
     <use xlink:href="#DejaVuSans-Bold-72" transform="translate(119.824219 0)"/>
     <use xlink:href="#DejaVuSans-Bold-61" transform="translate(169.140625 0)"/>
     <use xlink:href="#DejaVuSans-Bold-74" transform="translate(236.621094 0)"/>
     <use xlink:href="#DejaVuSans-Bold-65" transform="translate(284.423828 0)"/>
     <use xlink:href="#DejaVuSans-Bold-67" transform="translate(352.246094 0)"/>
     <use xlink:href="#DejaVuSans-Bold-69" transform="translate(423.828125 0)"/>
     <use xlink:href="#DejaVuSans-Bold-65" transform="translate(458.105469 0)"/>
     <use xlink:href="#DejaVuSans-Bold-73" transform="translate(525.927734 0)"/>
    </g>
   </g>
   <g id="text_18">
    <!-- in-process modules, sealed-trait match -->
    <g style="fill: #78909c" transform="translate(558.032375 611.483375) scale(0.1 -0.1)">
     <defs>
      <path id="DejaVuSans-Oblique-2d" d="M 391 2009 
L 2075 2009 
L 1978 1497 
L 288 1497 
L 391 2009 
z
" transform="scale(0.015625)"/>
      <path id="DejaVuSans-Oblique-2c" d="M 575 794 
L 1234 794 
L 1131 256 
L 422 -744 
L 19 -744 
L 469 256 
L 575 794 
z
" transform="scale(0.015625)"/>
     </defs>
     <use xlink:href="#DejaVuSans-Oblique-69"/>
     <use xlink:href="#DejaVuSans-Oblique-6e" transform="translate(27.783203 0)"/>
     <use xlink:href="#DejaVuSans-Oblique-2d" transform="translate(91.162109 0)"/>
     <use xlink:href="#DejaVuSans-Oblique-70" transform="translate(127.246094 0)"/>
     <use xlink:href="#DejaVuSans-Oblique-72" transform="translate(190.722656 0)"/>
     <use xlink:href="#DejaVuSans-Oblique-6f" transform="translate(231.835938 0)"/>
     <use xlink:href="#DejaVuSans-Oblique-63" transform="translate(293.017578 0)"/>
     <use xlink:href="#DejaVuSans-Oblique-65" transform="translate(347.998047 0)"/>
     <use xlink:href="#DejaVuSans-Oblique-73" transform="translate(409.521484 0)"/>
     <use xlink:href="#DejaVuSans-Oblique-73" transform="translate(461.621094 0)"/>
     <use xlink:href="#DejaVuSans-Oblique-20" transform="translate(513.720703 0)"/>
     <use xlink:href="#DejaVuSans-Oblique-6d" transform="translate(545.507812 0)"/>
     <use xlink:href="#DejaVuSans-Oblique-6f" transform="translate(642.919922 0)"/>
     <use xlink:href="#DejaVuSans-Oblique-64" transform="translate(704.101562 0)"/>
     <use xlink:href="#DejaVuSans-Oblique-75" transform="translate(767.578125 0)"/>
     <use xlink:href="#DejaVuSans-Oblique-6c" transform="translate(830.957031 0)"/>
     <use xlink:href="#DejaVuSans-Oblique-65" transform="translate(858.740234 0)"/>
     <use xlink:href="#DejaVuSans-Oblique-73" transform="translate(920.263672 0)"/>
     <use xlink:href="#DejaVuSans-Oblique-2c" transform="translate(972.363281 0)"/>
     <use xlink:href="#DejaVuSans-Oblique-20" transform="translate(1004.150391 0)"/>
     <use xlink:href="#DejaVuSans-Oblique-73" transform="translate(1035.9375 0)"/>
     <use xlink:href="#DejaVuSans-Oblique-65" transform="translate(1088.037109 0)"/>
     <use xlink:href="#DejaVuSans-Oblique-61" transform="translate(1149.560547 0)"/>
     <use xlink:href="#DejaVuSans-Oblique-6c" transform="translate(1210.839844 0)"/>
     <use xlink:href="#DejaVuSans-Oblique-65" transform="translate(1238.623047 0)"/>
     <use xlink:href="#DejaVuSans-Oblique-64" transform="translate(1300.146484 0)"/>
     <use xlink:href="#DejaVuSans-Oblique-2d" transform="translate(1363.623047 0)"/>
     <use xlink:href="#DejaVuSans-Oblique-74" transform="translate(1399.707031 0)"/>
     <use xlink:href="#DejaVuSans-Oblique-72" transform="translate(1438.916016 0)"/>
     <use xlink:href="#DejaVuSans-Oblique-61" transform="translate(1480.029297 0)"/>
     <use xlink:href="#DejaVuSans-Oblique-69" transform="translate(1541.308594 0)"/>
     <use xlink:href="#DejaVuSans-Oblique-74" transform="translate(1569.091797 0)"/>
     <use xlink:href="#DejaVuSans-Oblique-20" transform="translate(1608.300781 0)"/>
     <use xlink:href="#DejaVuSans-Oblique-6d" transform="translate(1640.087891 0)"/>
     <use xlink:href="#DejaVuSans-Oblique-61" transform="translate(1737.5 0)"/>
     <use xlink:href="#DejaVuSans-Oblique-74" transform="translate(1798.779297 0)"/>
     <use xlink:href="#DejaVuSans-Oblique-63" transform="translate(1837.988281 0)"/>
     <use xlink:href="#DejaVuSans-Oblique-68" transform="translate(1892.96875 0)"/>
    </g>
   </g>
   <g id="text_19">
    <!-- random -->
    <g style="fill: #1a1a1a" transform="translate(637.425422 630.749406) scale(0.095 -0.095)">
     <defs>
      <path id="DejaVuSans-6d" d="M 3328 2828 
Q 3544 3216 3844 3400 
Q 4144 3584 4550 3584 
Q 5097 3584 5394 3201 
Q 5691 2819 5691 2113 
L 5691 0 
L 5113 0 
L 5113 2094 
Q 5113 2597 4934 2840 
Q 4756 3084 4391 3084 
Q 3944 3084 3684 2787 
Q 3425 2491 3425 1978 
L 3425 0 
L 2847 0 
L 2847 2094 
Q 2847 2600 2669 2842 
Q 2491 3084 2119 3084 
Q 1678 3084 1418 2786 
Q 1159 2488 1159 1978 
L 1159 0 
L 581 0 
L 581 3500 
L 1159 3500 
L 1159 2956 
Q 1356 3278 1631 3431 
Q 1906 3584 2284 3584 
Q 2666 3584 2933 3390 
Q 3200 3197 3328 2828 
z
" transform="scale(0.015625)"/>
     </defs>
     <use xlink:href="#DejaVuSans-72"/>
     <use xlink:href="#DejaVuSans-61" transform="translate(41.113281 0)"/>
     <use xlink:href="#DejaVuSans-6e" transform="translate(102.392578 0)"/>
     <use xlink:href="#DejaVuSans-64" transform="translate(165.771484 0)"/>
     <use xlink:href="#DejaVuSans-6f" transform="translate(229.248047 0)"/>
     <use xlink:href="#DejaVuSans-6d" transform="translate(290.429688 0)"/>
    </g>
   </g>
   <g id="text_20">
    <!-- random-pool -->
    <g style="fill: #1a1a1a" transform="translate(625.563781 645.163806) scale(0.095 -0.095)">
     <defs>
      <path id="DejaVuSans-2d" d="M 313 2009 
L 1997 2009 
L 1997 1497 
L 313 1497 
L 313 2009 
z
" transform="scale(0.015625)"/>
      <path id="DejaVuSans-70" d="M 1159 525 
L 1159 -1331 
L 581 -1331 
L 581 3500 
L 1159 3500 
L 1159 2969 
Q 1341 3281 1617 3432 
Q 1894 3584 2278 3584 
Q 2916 3584 3314 3078 
Q 3713 2572 3713 1747 
Q 3713 922 3314 415 
Q 2916 -91 2278 -91 
Q 1894 -91 1617 61 
Q 1341 213 1159 525 
z
M 3116 1747 
Q 3116 2381 2855 2742 
Q 2594 3103 2138 3103 
Q 1681 3103 1420 2742 
Q 1159 2381 1159 1747 
Q 1159 1113 1420 752 
Q 1681 391 2138 391 
Q 2594 391 2855 752 
Q 3116 1113 3116 1747 
z
" transform="scale(0.015625)"/>
     </defs>
     <use xlink:href="#DejaVuSans-72"/>
     <use xlink:href="#DejaVuSans-61" transform="translate(41.113281 0)"/>
     <use xlink:href="#DejaVuSans-6e" transform="translate(102.392578 0)"/>
     <use xlink:href="#DejaVuSans-64" transform="translate(165.771484 0)"/>
     <use xlink:href="#DejaVuSans-6f" transform="translate(229.248047 0)"/>
     <use xlink:href="#DejaVuSans-6d" transform="translate(290.429688 0)"/>
     <use xlink:href="#DejaVuSans-2d" transform="translate(387.841797 0)"/>
     <use xlink:href="#DejaVuSans-70" transform="translate(423.925781 0)"/>
     <use xlink:href="#DejaVuSans-6f" transform="translate(487.402344 0)"/>
     <use xlink:href="#DejaVuSans-6f" transform="translate(548.583984 0)"/>
     <use xlink:href="#DejaVuSans-6c" transform="translate(609.765625 0)"/>
    </g>
   </g>
   <g id="text_21">
    <!-- mutation-guided -->
    <g style="fill: #1a1a1a" transform="translate(616.326516 659.578206) scale(0.095 -0.095)">
     <defs>
      <path id="DejaVuSans-75" d="M 544 1381 
L 544 3500 
L 1119 3500 
L 1119 1403 
Q 1119 906 1312 657 
Q 1506 409 1894 409 
Q 2359 409 2629 706 
Q 2900 1003 2900 1516 
L 2900 3500 
L 3475 3500 
L 3475 0 
L 2900 0 
L 2900 538 
Q 2691 219 2414 64 
Q 2138 -91 1772 -91 
Q 1169 -91 856 284 
Q 544 659 544 1381 
z
M 1991 3584 
L 1991 3584 
z
" transform="scale(0.015625)"/>
      <path id="DejaVuSans-67" d="M 2906 1791 
Q 2906 2416 2648 2759 
Q 2391 3103 1925 3103 
Q 1463 3103 1205 2759 
Q 947 2416 947 1791 
Q 947 1169 1205 825 
Q 1463 481 1925 481 
Q 2391 481 2648 825 
Q 2906 1169 2906 1791 
z
M 3481 434 
Q 3481 -459 3084 -895 
Q 2688 -1331 1869 -1331 
Q 1566 -1331 1297 -1286 
Q 1028 -1241 775 -1147 
L 775 -588 
Q 1028 -725 1275 -790 
Q 1522 -856 1778 -856 
Q 2344 -856 2625 -561 
Q 2906 -266 2906 331 
L 2906 616 
Q 2728 306 2450 153 
Q 2172 0 1784 0 
Q 1141 0 747 490 
Q 353 981 353 1791 
Q 353 2603 747 3093 
Q 1141 3584 1784 3584 
Q 2172 3584 2450 3431 
Q 2728 3278 2906 2969 
L 2906 3500 
L 3481 3500 
L 3481 434 
z
" transform="scale(0.015625)"/>
     </defs>
     <use xlink:href="#DejaVuSans-6d"/>
     <use xlink:href="#DejaVuSans-75" transform="translate(97.412109 0)"/>
     <use xlink:href="#DejaVuSans-74" transform="translate(160.791016 0)"/>
     <use xlink:href="#DejaVuSans-61" transform="translate(200 0)"/>
     <use xlink:href="#DejaVuSans-74" transform="translate(261.279297 0)"/>
     <use xlink:href="#DejaVuSans-69" transform="translate(300.488281 0)"/>
     <use xlink:href="#DejaVuSans-6f" transform="translate(328.271484 0)"/>
     <use xlink:href="#DejaVuSans-6e" transform="translate(389.453125 0)"/>
     <use xlink:href="#DejaVuSans-2d" transform="translate(452.832031 0)"/>
     <use xlink:href="#DejaVuSans-67" transform="translate(488.916016 0)"/>
     <use xlink:href="#DejaVuSans-75" transform="translate(552.392578 0)"/>
     <use xlink:href="#DejaVuSans-69" transform="translate(615.771484 0)"/>
     <use xlink:href="#DejaVuSans-64" transform="translate(643.554688 0)"/>
     <use xlink:href="#DejaVuSans-65" transform="translate(707.03125 0)"/>
     <use xlink:href="#DejaVuSans-64" transform="translate(768.554688 0)"/>
    </g>
   </g>
   <g id="text_22">
    <!-- mutation-guided-pool -->
    <g style="fill: #1a1a1a" transform="translate(604.464875 673.992606) scale(0.095 -0.095)">
     <use xlink:href="#DejaVuSans-6d"/>
     <use xlink:href="#DejaVuSans-75" transform="translate(97.412109 0)"/>
     <use xlink:href="#DejaVuSans-74" transform="translate(160.791016 0)"/>
     <use xlink:href="#DejaVuSans-61" transform="translate(200 0)"/>
     <use xlink:href="#DejaVuSans-74" transform="translate(261.279297 0)"/>
     <use xlink:href="#DejaVuSans-69" transform="translate(300.488281 0)"/>
     <use xlink:href="#DejaVuSans-6f" transform="translate(328.271484 0)"/>
     <use xlink:href="#DejaVuSans-6e" transform="translate(389.453125 0)"/>
     <use xlink:href="#DejaVuSans-2d" transform="translate(452.832031 0)"/>
     <use xlink:href="#DejaVuSans-67" transform="translate(488.916016 0)"/>
     <use xlink:href="#DejaVuSans-75" transform="translate(552.392578 0)"/>
     <use xlink:href="#DejaVuSans-69" transform="translate(615.771484 0)"/>
     <use xlink:href="#DejaVuSans-64" transform="translate(643.554688 0)"/>
     <use xlink:href="#DejaVuSans-65" transform="translate(707.03125 0)"/>
     <use xlink:href="#DejaVuSans-64" transform="translate(768.554688 0)"/>
     <use xlink:href="#DejaVuSans-2d" transform="translate(832.03125 0)"/>
     <use xlink:href="#DejaVuSans-70" transform="translate(868.115234 0)"/>
     <use xlink:href="#DejaVuSans-6f" transform="translate(931.591797 0)"/>
     <use xlink:href="#DejaVuSans-6f" transform="translate(992.773438 0)"/>
     <use xlink:href="#DejaVuSans-6c" transform="translate(1053.955078 0)"/>
    </g>
   </g>
   <g id="text_23">
    <!-- Tree Builder -->
    <g style="fill: #263238" transform="translate(973.602531 232.409219) scale(0.125 -0.125)">
     <defs>
      <path id="DejaVuSans-Bold-42" d="M 2456 2859 
Q 2741 2859 2887 2984 
Q 3034 3109 3034 3353 
Q 3034 3594 2887 3720 
Q 2741 3847 2456 3847 
L 1791 3847 
L 1791 2859 
L 2456 2859 
z
M 2497 819 
Q 2859 819 3042 972 
Q 3225 1125 3225 1434 
Q 3225 1738 3044 1889 
Q 2863 2041 2497 2041 
L 1791 2041 
L 1791 819 
L 2497 819 
z
M 3616 2497 
Q 4003 2384 4215 2081 
Q 4428 1778 4428 1338 
Q 4428 663 3972 331 
Q 3516 0 2584 0 
L 588 0 
L 588 4666 
L 2394 4666 
Q 3366 4666 3802 4372 
Q 4238 4078 4238 3431 
Q 4238 3091 4078 2852 
Q 3919 2613 3616 2497 
z
" transform="scale(0.015625)"/>
     </defs>
     <use xlink:href="#DejaVuSans-Bold-54"/>
     <use xlink:href="#DejaVuSans-Bold-72" transform="translate(57.212891 0)"/>
     <use xlink:href="#DejaVuSans-Bold-65" transform="translate(106.529297 0)"/>
     <use xlink:href="#DejaVuSans-Bold-65" transform="translate(174.351562 0)"/>
     <use xlink:href="#DejaVuSans-Bold-20" transform="translate(242.173828 0)"/>
     <use xlink:href="#DejaVuSans-Bold-42" transform="translate(276.988281 0)"/>
     <use xlink:href="#DejaVuSans-Bold-75" transform="translate(353.208984 0)"/>
     <use xlink:href="#DejaVuSans-Bold-69" transform="translate(424.400391 0)"/>
     <use xlink:href="#DejaVuSans-Bold-6c" transform="translate(458.677734 0)"/>
     <use xlink:href="#DejaVuSans-Bold-64" transform="translate(492.955078 0)"/>
     <use xlink:href="#DejaVuSans-Bold-65" transform="translate(564.537109 0)"/>
     <use xlink:href="#DejaVuSans-Bold-72" transform="translate(632.359375 0)"/>
    </g>
   </g>
   <g id="text_24">
    <!-- Coverage Reader -->
    <g style="fill: #263238" transform="translate(955.760734 384.820391) scale(0.125 -0.125)">
     <defs>
      <path id="DejaVuSans-Bold-43" d="M 4288 256 
Q 3956 84 3597 -3 
Q 3238 -91 2847 -91 
Q 1681 -91 1000 561 
Q 319 1213 319 2328 
Q 319 3447 1000 4098 
Q 1681 4750 2847 4750 
Q 3238 4750 3597 4662 
Q 3956 4575 4288 4403 
L 4288 3438 
Q 3953 3666 3628 3772 
Q 3303 3878 2944 3878 
Q 2300 3878 1931 3465 
Q 1563 3053 1563 2328 
Q 1563 1606 1931 1193 
Q 2300 781 2944 781 
Q 3303 781 3628 887 
Q 3953 994 4288 1222 
L 4288 256 
z
" transform="scale(0.015625)"/>
     </defs>
     <use xlink:href="#DejaVuSans-Bold-43"/>
     <use xlink:href="#DejaVuSans-Bold-6f" transform="translate(73.388672 0)"/>
     <use xlink:href="#DejaVuSans-Bold-76" transform="translate(142.089844 0)"/>
     <use xlink:href="#DejaVuSans-Bold-65" transform="translate(207.275391 0)"/>
     <use xlink:href="#DejaVuSans-Bold-72" transform="translate(275.097656 0)"/>
     <use xlink:href="#DejaVuSans-Bold-61" transform="translate(324.414062 0)"/>
     <use xlink:href="#DejaVuSans-Bold-67" transform="translate(391.894531 0)"/>
     <use xlink:href="#DejaVuSans-Bold-65" transform="translate(463.476562 0)"/>
     <use xlink:href="#DejaVuSans-Bold-20" transform="translate(531.298828 0)"/>
     <use xlink:href="#DejaVuSans-Bold-52" transform="translate(566.113281 0)"/>
     <use xlink:href="#DejaVuSans-Bold-65" transform="translate(643.115234 0)"/>
     <use xlink:href="#DejaVuSans-Bold-61" transform="translate(710.9375 0)"/>
     <use xlink:href="#DejaVuSans-Bold-64" transform="translate(778.417969 0)"/>
     <use xlink:href="#DejaVuSans-Bold-65" transform="translate(850 0)"/>
     <use xlink:href="#DejaVuSans-Bold-72" transform="translate(917.822266 0)"/>
    </g>
   </g>
   <g id="text_25">
    <!-- Report Writer -->
    <g style="fill: #263238" transform="translate(967.826164 537.329219) scale(0.125 -0.125)">
     <defs>
      <path id="DejaVuSans-Bold-57" d="M 191 4666 
L 1344 4666 
L 2150 1275 
L 2950 4666 
L 4109 4666 
L 4909 1275 
L 5716 4666 
L 6859 4666 
L 5759 0 
L 4372 0 
L 3525 3547 
L 2688 0 
L 1300 0 
L 191 4666 
z
" transform="scale(0.015625)"/>
     </defs>
     <use xlink:href="#DejaVuSans-Bold-52"/>
     <use xlink:href="#DejaVuSans-Bold-65" transform="translate(77.001953 0)"/>
     <use xlink:href="#DejaVuSans-Bold-70" transform="translate(144.824219 0)"/>
     <use xlink:href="#DejaVuSans-Bold-6f" transform="translate(216.40625 0)"/>
     <use xlink:href="#DejaVuSans-Bold-72" transform="translate(285.107422 0)"/>
     <use xlink:href="#DejaVuSans-Bold-74" transform="translate(334.423828 0)"/>
     <use xlink:href="#DejaVuSans-Bold-20" transform="translate(382.226562 0)"/>
     <use xlink:href="#DejaVuSans-Bold-57" transform="translate(417.041016 0)"/>
     <use xlink:href="#DejaVuSans-Bold-72" transform="translate(525.59375 0)"/>
     <use xlink:href="#DejaVuSans-Bold-69" transform="translate(574.910156 0)"/>
     <use xlink:href="#DejaVuSans-Bold-74" transform="translate(609.1875 0)"/>
     <use xlink:href="#DejaVuSans-Bold-65" transform="translate(656.990234 0)"/>
     <use xlink:href="#DejaVuSans-Bold-72" transform="translate(724.8125 0)"/>
    </g>
   </g>
   <g id="text_26">
    <!-- Parser -->
    <g style="fill: #263238" transform="translate(1216.1205 232.27125) scale(0.12 -0.12)">
     <defs>
      <path id="DejaVuSans-Bold-50" d="M 588 4666 
L 2584 4666 
Q 3475 4666 3951 4270 
Q 4428 3875 4428 3144 
Q 4428 2409 3951 2014 
Q 3475 1619 2584 1619 
L 1791 1619 
L 1791 0 
L 588 0 
L 588 4666 
z
M 1791 3794 
L 1791 2491 
L 2456 2491 
Q 2806 2491 2997 2661 
Q 3188 2831 3188 3144 
Q 3188 3456 2997 3625 
Q 2806 3794 2456 3794 
L 1791 3794 
z
" transform="scale(0.015625)"/>
     </defs>
     <use xlink:href="#DejaVuSans-Bold-50"/>
     <use xlink:href="#DejaVuSans-Bold-61" transform="translate(70.666016 0)"/>
     <use xlink:href="#DejaVuSans-Bold-72" transform="translate(138.146484 0)"/>
     <use xlink:href="#DejaVuSans-Bold-73" transform="translate(187.462891 0)"/>
     <use xlink:href="#DejaVuSans-Bold-65" transform="translate(246.984375 0)"/>
     <use xlink:href="#DejaVuSans-Bold-72" transform="translate(314.806641 0)"/>
    </g>
   </g>
   <g id="text_27">
    <!-- Snapshot -->
    <g style="fill: #263238" transform="translate(1206.199875 384.73125) scale(0.12 -0.12)">
     <defs>
      <path id="DejaVuSans-Bold-68" d="M 4056 2131 
L 4056 0 
L 2931 0 
L 2931 347 
L 2931 1625 
Q 2931 2084 2911 2256 
Q 2891 2428 2841 2509 
Q 2775 2619 2662 2680 
Q 2550 2741 2406 2741 
Q 2056 2741 1856 2470 
Q 1656 2200 1656 1722 
L 1656 0 
L 538 0 
L 538 4863 
L 1656 4863 
L 1656 2988 
Q 1909 3294 2193 3439 
Q 2478 3584 2822 3584 
Q 3428 3584 3742 3212 
Q 4056 2841 4056 2131 
z
" transform="scale(0.015625)"/>
     </defs>
     <use xlink:href="#DejaVuSans-Bold-53"/>
     <use xlink:href="#DejaVuSans-Bold-6e" transform="translate(72.021484 0)"/>
     <use xlink:href="#DejaVuSans-Bold-61" transform="translate(143.212891 0)"/>
     <use xlink:href="#DejaVuSans-Bold-70" transform="translate(210.693359 0)"/>
     <use xlink:href="#DejaVuSans-Bold-73" transform="translate(282.275391 0)"/>
     <use xlink:href="#DejaVuSans-Bold-68" transform="translate(341.796875 0)"/>
     <use xlink:href="#DejaVuSans-Bold-6f" transform="translate(412.988281 0)"/>
     <use xlink:href="#DejaVuSans-Bold-74" transform="translate(481.689453 0)"/>
    </g>
   </g>
   <g id="text_28">
    <!-- Writer -->
    <g style="fill: #263238" transform="translate(1216.543312 537.19125) scale(0.12 -0.12)">
     <use xlink:href="#DejaVuSans-Bold-57"/>
     <use xlink:href="#DejaVuSans-Bold-72" transform="translate(108.552734 0)"/>
     <use xlink:href="#DejaVuSans-Bold-69" transform="translate(157.869141 0)"/>
     <use xlink:href="#DejaVuSans-Bold-74" transform="translate(192.146484 0)"/>
     <use xlink:href="#DejaVuSans-Bold-65" transform="translate(239.949219 0)"/>
     <use xlink:href="#DejaVuSans-Bold-72" transform="translate(307.771484 0)"/>
    </g>
   </g>
   <g id="text_29">
    <!-- Hexagonal Architecture -->
    <g style="fill: #263238" transform="translate(539.076875 39.028875) scale(0.2 -0.2)">
     <defs>
      <path id="DejaVuSans-Bold-78" d="M 1422 1791 
L 159 3500 
L 1344 3500 
L 2059 2463 
L 2784 3500 
L 3969 3500 
L 2706 1797 
L 4031 0 
L 2847 0 
L 2059 1106 
L 1281 0 
L 97 0 
L 1422 1791 
z
" transform="scale(0.015625)"/>
     </defs>
     <use xlink:href="#DejaVuSans-Bold-48"/>
     <use xlink:href="#DejaVuSans-Bold-65" transform="translate(83.691406 0)"/>
     <use xlink:href="#DejaVuSans-Bold-78" transform="translate(151.513672 0)"/>
     <use xlink:href="#DejaVuSans-Bold-61" transform="translate(216.015625 0)"/>
     <use xlink:href="#DejaVuSans-Bold-67" transform="translate(283.496094 0)"/>
     <use xlink:href="#DejaVuSans-Bold-6f" transform="translate(355.078125 0)"/>
     <use xlink:href="#DejaVuSans-Bold-6e" transform="translate(423.779297 0)"/>
     <use xlink:href="#DejaVuSans-Bold-61" transform="translate(494.970703 0)"/>
     <use xlink:href="#DejaVuSans-Bold-6c" transform="translate(562.451172 0)"/>
     <use xlink:href="#DejaVuSans-Bold-20" transform="translate(596.728516 0)"/>
     <use xlink:href="#DejaVuSans-Bold-41" transform="translate(631.542969 0)"/>
     <use xlink:href="#DejaVuSans-Bold-72" transform="translate(708.935547 0)"/>
     <use xlink:href="#DejaVuSans-Bold-63" transform="translate(758.251953 0)"/>
     <use xlink:href="#DejaVuSans-Bold-68" transform="translate(817.529297 0)"/>
     <use xlink:href="#DejaVuSans-Bold-69" transform="translate(888.720703 0)"/>
     <use xlink:href="#DejaVuSans-Bold-74" transform="translate(922.998047 0)"/>
     <use xlink:href="#DejaVuSans-Bold-65" transform="translate(970.800781 0)"/>
     <use xlink:href="#DejaVuSans-Bold-63" transform="translate(1038.623047 0)"/>
     <use xlink:href="#DejaVuSans-Bold-74" transform="translate(1097.900391 0)"/>
     <use xlink:href="#DejaVuSans-Bold-75" transform="translate(1145.703125 0)"/>
     <use xlink:href="#DejaVuSans-Bold-72" transform="translate(1216.894531 0)"/>
     <use xlink:href="#DejaVuSans-Bold-65" transform="translate(1266.210938 0)"/>
    </g>
   </g>
  </g>
 </g>
 <defs>
  <clipPath id="pe417783e3e">
   <rect x="7.2" y="7.2" width="1330.56" height="776.16"/>
  </clipPath>
 </defs>
</svg>
