<?xml version="1.0" encoding="utf-8" standalone="no"?>
<!DOCTYPE svg PUBLIC "-//W3C//DTD SVG 1.1//EN"
  "http://www.w3.org/Graphics/SVG/1.1/DTD/svg11.dtd">
<svg xmlns:xlink="http://www.w3.org/1999/xlink" width="575.4528pt" height="369.216pt" viewBox="0 0 575.4528 369.216" xmlns="http://www.w3.org/2000/svg" version="1.1">
 <metadata>
  <rdf:RDF xmlns:dc="http://purl.org/dc/elements/1.1/" xmlns:cc="http://creativecommons.org/ns#" xmlns:rdf="http://www.w3.org/1999/02/22-rdf-syntax-ns#">
   <cc:Work>
    <dc:type rdf:resource="http://purl.org/dc/dcmitype/StillImage"/>
    <dc:date>2026-06-05T11:37:52.414202</dc:date>
    <dc:format>image/svg+xml</dc:format>
    <dc:creator>
     <cc:Agent>
      <dc:title>Matplotlib v3.10.7, https://matplotlib.org/</dc:title>
     </cc:Agent>
    </dc:creator>
   </cc:Work>
  </rdf:RDF>
 </metadata>
 <defs>
  <style type="text/css">*{stroke-linejoin: round; stroke-linecap: butt}</style>
 </defs>
 <g id="figure_1">
  <g id="patch_1">
   <path d="M -0 369.216 
L 575.4528 369.216 
L 575.4528 0 
L -0 0 
z
" style="fill: #ffffff"/>
  </g>
  <g id="axes_1">
   <g id="patch_2">
    <path d="M 291.0528 140.8104 
L 360.9072 140.8104 
Q 367.56 140.8104 367.56 134.1576 
L 367.56 102.0024 
Q 367.56 95.3496 360.9072 95.3496 
L 291.0528 95.3496 
Q 284.4 95.3496 284.4 102.0024 
L 284.4 134.1576 
Q 284.4 140.8104 291.0528 140.8104 
z
" clip-path="url(#p18f2cea556)" style="fill: #a9dfbf; stroke: #37474f; stroke-width: 0.8; stroke-linejoin: miter"/>
   </g>
   <g id="patch_3">
    <path d="M 381.9744 140.8104 
L 451.8288 140.8104 
Q 458.4816 140.8104 458.4816 134.1576 
L 458.4816 102.0024 
Q 458.4816 95.3496 451.8288 95.3496 
L 381.9744 95.3496 
Q 375.3216 95.3496 375.3216 102.0024 
L 375.3216 134.1576 
Q 375.3216 140.8104 381.9744 140.8104 
z
" clip-path="url(#p18f2cea556)" style="fill: #a9dfbf; stroke: #37474f; stroke-width: 0.8; stroke-linejoin: miter"/>
   </g>
   <g id="patch_4">
    <path d="M 472.896 140.8104 
L 542.7504 140.8104 
Q 549.4032 140.8104 549.4032 134.1576 
L 549.4032 102.0024 
Q 549.4032 95.3496 542.7504 95.3496 
L 472.896 95.3496 
Q 466.2432 95.3496 466.2432 102.0024 
L 466.2432 134.1576 
Q 466.2432 140.8104 472.896 140.8104 
z
" clip-path="url(#p18f2cea556)" style="fill: #a9dfbf; stroke: #37474f; stroke-width: 0.8; stroke-linejoin: miter"/>
   </g>
   <g id="patch_5">
    <path d="M 291.0528 194.0328 
L 360.9072 194.0328 
Q 367.56 194.0328 367.56 187.38 
L 367.56 155.2248 
Q 367.56 148.572 360.9072 148.572 
L 291.0528 148.572 
Q 284.4 148.572 284.4 155.2248 
L 284.4 187.38 
Q 284.4 194.0328 291.0528 194.0328 
z
" clip-path="url(#p18f2cea556)" style="fill: #f4f6f6; stroke: #37474f; stroke-width: 0.8; stroke-linejoin: miter"/>
   </g>
   <g id="patch_6">
    <path d="M 381.9744 194.0328 
L 451.8288 194.0328 
Q 458.4816 194.0328 458.4816 187.38 
L 458.4816 155.2248 
Q 458.4816 148.572 451.8288 148.572 
L 381.9744 148.572 
Q 375.3216 148.572 375.3216 155.2248 
L 375.3216 187.38 
Q 375.3216 194.0328 381.9744 194.0328 
z
" clip-path="url(#p18f2cea556)" style="fill: #a9dfbf; stroke: #37474f; stroke-width: 0.8; stroke-linejoin: miter"/>
   </g>
   <g id="patch_7">
    <path d="M 472.896 194.0328 
L 542.7504 194.0328 
Q 549.4032 194.0328 549.4032 187.38 
L 549.4032 155.2248 
Q 549.4032 148.572 542.7504 148.572 
L 472.896 148.572 
Q 466.2432 148.572 466.2432 155.2248 
L 466.2432 187.38 
Q 466.2432 194.0328 472.896 194.0328 
z
" clip-path="url(#p18f2cea556)" style="fill: #f4f6f6; stroke: #37474f; stroke-width: 0.8; stroke-linejoin: miter"/>
   </g>
   <g id="patch_8">
    <path d="M 291.0528 247.2552 
L 360.9072 247.2552 
Q 367.56 247.2552 367.56 240.6024 
L 367.56 208.4472 
Q 367.56 201.7944 360.9072 201.7944 
L 291.0528 201.7944 
Q 284.4 201.7944 284.4 208.4472 
L 284.4 240.6024 
Q 284.4 247.2552 291.0528 247.2552 
z
" clip-path="url(#p18f2cea556)" style="fill: #f4f6f6; stroke: #37474f; stroke-width: 0.8; stroke-linejoin: miter"/>
   </g>
   <g id="patch_9">
    <path d="M 381.9744 247.2552 
L 451.8288 247.2552 
Q 458.4816 247.2552 458.4816 240.6024 
L 458.4816 208.4472 
Q 458.4816 201.7944 451.8288 201.7944 
L 381.9744 201.7944 
Q 375.3216 201.7944 375.3216 208.4472 
L 375.3216 240.6024 
Q 375.3216 247.2552 381.9744 247.2552 
z
" clip-path="url(#p18f2cea556)" style="fill: #f4f6f6; stroke: #37474f; stroke-width: 0.8; stroke-linejoin: miter"/>
   </g>
   <g id="patch_10">
    <path d="M 472.896 247.2552 
L 542.7504 247.2552 
Q 549.4032 247.2552 549.4032 240.6024 
L 549.4032 208.4472 
Q 549.4032 201.7944 542.7504 201.7944 
L 472.896 201.7944 
Q 466.2432 201.7944 466.2432 208.4472 
L 466.2432 240.6024 
Q 466.2432 247.2552 472.896 247.2552 
z
" clip-path="url(#p18f2cea556)" style="fill: #a9dfbf; stroke: #37474f; stroke-width: 0.8; stroke-linejoin: miter"/>
   </g>
   <g id="patch_11">
    <path d="M 291.0528 300.4776 
L 360.9072 300.4776 
Q 367.56 300.4776 367.56 293.8248 
L 367.56 261.6696 
Q 367.56 255.0168 360.9072 255.0168 
L 291.0528 255.0168 
Q 284.4 255.0168 284.4 261.6696 
L 284.4 293.8248 
Q 284.4 300.4776 291.0528 300.4776 
z
" clip-path="url(#p18f2cea556)" style="fill: #f4f6f6; stroke: #37474f; stroke-width: 0.8; stroke-linejoin: miter"/>
   </g>
   <g id="patch_12">
    <path d="M 381.9744 300.4776 
L 451.8288 300.4776 
Q 458.4816 300.4776 458.4816 293.8248 
L 458.4816 261.6696 
Q 458.4816 255.0168 451.8288 255.0168 
L 381.9744 255.0168 
Q 375.3216 255.0168 375.3216 261.6696 
L 375.3216 293.8248 
Q 375.3216 300.4776 381.9744 300.4776 
z
" clip-path="url(#p18f2cea556)" style="fill: #f4f6f6; stroke: #37474f; stroke-width: 0.8; stroke-linejoin: miter"/>
   </g>
   <g id="patch_13">
    <path d="M 472.896 300.4776 
L 542.7504 300.4776 
Q 549.4032 300.4776 549.4032 293.8248 
L 549.4032 261.6696 
Q 549.4032 255.0168 542.7504 255.0168 
L 472.896 255.0168 
Q 466.2432 255.0168 466.2432 261.6696 
L 466.2432 293.8248 
Q 466.2432 300.4776 472.896 300.4776 
z
" clip-path="url(#p18f2cea556)" style="fill: #f4f6f6; stroke: #37474f; stroke-width: 0.8; stroke-linejoin: miter"/>
   </g>
   <g id="text_1">
    <!-- The tactics are complementary -->
    <g style="fill: #263238" transform="translate(138.924603 36.772531) scale(0.17 -0.17)">
     <defs>
      <path id="DejaVuSans-Bold-54" d="M 31 4666 
L 4331 4666 
L 4331 3756 
L 2784 3756 
L 2784 0 
L 1581 0 
L 1581 3756 
L 31 3756 
L 31 4666 
z
" transform="scale(0.015625)"/>
      <path id="DejaVuSans-Bold-68" d="M 4056 2131 
L 4056 0 
L 2931 0 
L 2931 347 
L 2931 1625 
Q 2931 2084 2911 2256 
Q 2891 2428 2841 2509 
Q 2775 2619 2662 2680 
Q 2550 2741 2406 2741 
Q 2056 2741 1856 2470 
Q 1656 2200 1656 1722 
L 1656 0 
L 538 0 
L 538 4863 
L 1656 4863 
L 1656 2988 
Q 1909 3294 2193 3439 
Q 2478 3584 2822 3584 
Q 3428 3584 3742 3212 
Q 4056 2841 4056 2131 
z
" transform="scale(0.015625)"/>
      <path id="DejaVuSans-Bold-65" d="M 4031 1759 
L 4031 1441 
L 1416 1441 
Q 1456 1047 1700 850 
Q 1944 653 2381 653 
Q 2734 653 3104 758 
Q 3475 863 3866 1075 
L 3866 213 
Q 3469 63 3072 -14 
Q 2675 -91 2278 -91 
Q 1328 -91 801 392 
Q 275 875 275 1747 
Q 275 2603 792 3093 
Q 1309 3584 2216 3584 
Q 3041 3584 3536 3087 
Q 4031 2591 4031 1759 
z
M 2881 2131 
Q 2881 2450 2695 2645 
Q 2509 2841 2209 2841 
Q 1884 2841 1681 2658 
Q 1478 2475 1428 2131 
L 2881 2131 
z
" transform="scale(0.015625)"/>
      <path id="DejaVuSans-Bold-20" transform="scale(0.015625)"/>
      <path id="DejaVuSans-Bold-74" d="M 1759 4494 
L 1759 3500 
L 2913 3500 
L 2913 2700 
L 1759 2700 
L 1759 1216 
Q 1759 972 1856 886 
Q 1953 800 2241 800 
L 2816 800 
L 2816 0 
L 1856 0 
Q 1194 0 917 276 
Q 641 553 641 1216 
L 641 2700 
L 84 2700 
L 84 3500 
L 641 3500 
L 641 4494 
L 1759 4494 
z
" transform="scale(0.015625)"/>
      <path id="DejaVuSans-Bold-61" d="M 2106 1575 
Q 1756 1575 1579 1456 
Q 1403 1338 1403 1106 
Q 1403 894 1545 773 
Q 1688 653 1941 653 
Q 2256 653 2472 879 
Q 2688 1106 2688 1447 
L 2688 1575 
L 2106 1575 
z
M 3816 1997 
L 3816 0 
L 2688 0 
L 2688 519 
Q 2463 200 2181 54 
Q 1900 -91 1497 -91 
Q 953 -91 614 226 
Q 275 544 275 1050 
Q 275 1666 698 1953 
Q 1122 2241 2028 2241 
L 2688 2241 
L 2688 2328 
Q 2688 2594 2478 2717 
Q 2269 2841 1825 2841 
Q 1466 2841 1156 2769 
Q 847 2697 581 2553 
L 581 3406 
Q 941 3494 1303 3539 
Q 1666 3584 2028 3584 
Q 2975 3584 3395 3211 
Q 3816 2838 3816 1997 
z
" transform="scale(0.015625)"/>
      <path id="DejaVuSans-Bold-63" d="M 3366 3391 
L 3366 2478 
Q 3138 2634 2908 2709 
Q 2678 2784 2431 2784 
Q 1963 2784 1702 2511 
Q 1441 2238 1441 1747 
Q 1441 1256 1702 982 
Q 1963 709 2431 709 
Q 2694 709 2930 787 
Q 3166 866 3366 1019 
L 3366 103 
Q 3103 6 2833 -42 
Q 2563 -91 2291 -91 
Q 1344 -91 809 395 
Q 275 881 275 1747 
Q 275 2613 809 3098 
Q 1344 3584 2291 3584 
Q 2566 3584 2833 3536 
Q 3100 3488 3366 3391 
z
" transform="scale(0.015625)"/>
      <path id="DejaVuSans-Bold-69" d="M 538 3500 
L 1656 3500 
L 1656 0 
L 538 0 
L 538 3500 
z
M 538 4863 
L 1656 4863 
L 1656 3950 
L 538 3950 
L 538 4863 
z
" transform="scale(0.015625)"/>
      <path id="DejaVuSans-Bold-73" d="M 3272 3391 
L 3272 2541 
Q 2913 2691 2578 2766 
Q 2244 2841 1947 2841 
Q 1628 2841 1473 2761 
Q 1319 2681 1319 2516 
Q 1319 2381 1436 2309 
Q 1553 2238 1856 2203 
L 2053 2175 
Q 2913 2066 3209 1816 
Q 3506 1566 3506 1031 
Q 3506 472 3093 190 
Q 2681 -91 1863 -91 
Q 1516 -91 1145 -36 
Q 775 19 384 128 
L 384 978 
Q 719 816 1070 734 
Q 1422 653 1784 653 
Q 2113 653 2278 743 
Q 2444 834 2444 1013 
Q 2444 1163 2330 1236 
Q 2216 1309 1875 1350 
L 1678 1375 
Q 931 1469 631 1722 
Q 331 1975 331 2491 
Q 331 3047 712 3315 
Q 1094 3584 1881 3584 
Q 2191 3584 2531 3537 
Q 2872 3491 3272 3391 
z
" transform="scale(0.015625)"/>
      <path id="DejaVuSans-Bold-72" d="M 3138 2547 
Q 2991 2616 2845 2648 
Q 2700 2681 2553 2681 
Q 2122 2681 1889 2404 
Q 1656 2128 1656 1613 
L 1656 0 
L 538 0 
L 538 3500 
L 1656 3500 
L 1656 2925 
Q 1872 3269 2151 3426 
Q 2431 3584 2822 3584 
Q 2878 3584 2943 3579 
Q 3009 3575 3134 3559 
L 3138 2547 
z
" transform="scale(0.015625)"/>
      <path id="DejaVuSans-Bold-6f" d="M 2203 2784 
Q 1831 2784 1636 2517 
Q 1441 2250 1441 1747 
Q 1441 1244 1636 976 
Q 1831 709 2203 709 
Q 2569 709 2762 976 
Q 2956 1244 2956 1747 
Q 2956 2250 2762 2517 
Q 2569 2784 2203 2784 
z
M 2203 3584 
Q 3106 3584 3614 3096 
Q 4122 2609 4122 1747 
Q 4122 884 3614 396 
Q 3106 -91 2203 -91 
Q 1297 -91 786 396 
Q 275 884 275 1747 
Q 275 2609 786 3096 
Q 1297 3584 2203 3584 
z
" transform="scale(0.015625)"/>
      <path id="DejaVuSans-Bold-6d" d="M 3781 2919 
Q 3994 3244 4286 3414 
Q 4578 3584 4928 3584 
Q 5531 3584 5847 3212 
Q 6163 2841 6163 2131 
L 6163 0 
L 5038 0 
L 5038 1825 
Q 5041 1866 5042 1909 
Q 5044 1953 5044 2034 
Q 5044 2406 4934 2573 
Q 4825 2741 4581 2741 
Q 4263 2741 4089 2478 
Q 3916 2216 3909 1719 
L 3909 0 
L 2784 0 
L 2784 1825 
Q 2784 2406 2684 2573 
Q 2584 2741 2328 2741 
Q 2006 2741 1831 2477 
Q 1656 2213 1656 1722 
L 1656 0 
L 531 0 
L 531 3500 
L 1656 3500 
L 1656 2988 
Q 1863 3284 2130 3434 
Q 2397 3584 2719 3584 
Q 3081 3584 3359 3409 
Q 3638 3234 3781 2919 
z
" transform="scale(0.015625)"/>
      <path id="DejaVuSans-Bold-70" d="M 1656 506 
L 1656 -1331 
L 538 -1331 
L 538 3500 
L 1656 3500 
L 1656 2988 
Q 1888 3294 2169 3439 
Q 2450 3584 2816 3584 
Q 3463 3584 3878 3070 
Q 4294 2556 4294 1747 
Q 4294 938 3878 423 
Q 3463 -91 2816 -91 
Q 2450 -91 2169 54 
Q 1888 200 1656 506 
z
M 2400 2772 
Q 2041 2772 1848 2508 
Q 1656 2244 1656 1747 
Q 1656 1250 1848 986 
Q 2041 722 2400 722 
Q 2759 722 2948 984 
Q 3138 1247 3138 1747 
Q 3138 2247 2948 2509 
Q 2759 2772 2400 2772 
z
" transform="scale(0.015625)"/>
      <path id="DejaVuSans-Bold-6c" d="M 538 4863 
L 1656 4863 
L 1656 0 
L 538 0 
L 538 4863 
z
" transform="scale(0.015625)"/>
      <path id="DejaVuSans-Bold-6e" d="M 4056 2131 
L 4056 0 
L 2931 0 
L 2931 347 
L 2931 1631 
Q 2931 2084 2911 2256 
Q 2891 2428 2841 2509 
Q 2775 2619 2662 2680 
Q 2550 2741 2406 2741 
Q 2056 2741 1856 2470 
Q 1656 2200 1656 1722 
L 1656 0 
L 538 0 
L 538 3500 
L 1656 3500 
L 1656 2988 
Q 1909 3294 2193 3439 
Q 2478 3584 2822 3584 
Q 3428 3584 3742 3212 
Q 4056 2841 4056 2131 
z
" transform="scale(0.015625)"/>
      <path id="DejaVuSans-Bold-79" d="M 78 3500 
L 1197 3500 
L 2138 1125 
L 2938 3500 
L 4056 3500 
L 2584 -331 
Q 2363 -916 2067 -1148 
Q 1772 -1381 1288 -1381 
L 641 -1381 
L 641 -647 
L 991 -647 
Q 1275 -647 1404 -556 
Q 1534 -466 1606 -231 
L 1638 -134 
L 78 3500 
z
" transform="scale(0.015625)"/>
     </defs>
     <use xlink:href="#DejaVuSans-Bold-54"/>
     <use xlink:href="#DejaVuSans-Bold-68" transform="translate(68.212891 0)"/>
     <use xlink:href="#DejaVuSans-Bold-65" transform="translate(139.404297 0)"/>
     <use xlink:href="#DejaVuSans-Bold-20" transform="translate(207.226562 0)"/>
     <use xlink:href="#DejaVuSans-Bold-74" transform="translate(242.041016 0)"/>
     <use xlink:href="#DejaVuSans-Bold-61" transform="translate(289.84375 0)"/>
     <use xlink:href="#DejaVuSans-Bold-63" transform="translate(357.324219 0)"/>
     <use xlink:href="#DejaVuSans-Bold-74" transform="translate(416.601562 0)"/>
     <use xlink:href="#DejaVuSans-Bold-69" transform="translate(464.404297 0)"/>
     <use xlink:href="#DejaVuSans-Bold-63" transform="translate(498.681641 0)"/>
     <use xlink:href="#DejaVuSans-Bold-73" transform="translate(557.958984 0)"/>
     <use xlink:href="#DejaVuSans-Bold-20" transform="translate(617.480469 0)"/>
     <use xlink:href="#DejaVuSans-Bold-61" transform="translate(652.294922 0)"/>
     <use xlink:href="#DejaVuSans-Bold-72" transform="translate(719.775391 0)"/>
     <use xlink:href="#DejaVuSans-Bold-65" transform="translate(769.091797 0)"/>
     <use xlink:href="#DejaVuSans-Bold-20" transform="translate(836.914062 0)"/>
     <use xlink:href="#DejaVuSans-Bold-63" transform="translate(871.728516 0)"/>
     <use xlink:href="#DejaVuSans-Bold-6f" transform="translate(931.005859 0)"/>
     <use xlink:href="#DejaVuSans-Bold-6d" transform="translate(999.707031 0)"/>
     <use xlink:href="#DejaVuSans-Bold-70" transform="translate(1103.90625 0)"/>
     <use xlink:href="#DejaVuSans-Bold-6c" transform="translate(1175.488281 0)"/>
     <use xlink:href="#DejaVuSans-Bold-65" transform="translate(1209.765625 0)"/>
     <use xlink:href="#DejaVuSans-Bold-6d" transform="translate(1277.587891 0)"/>
     <use xlink:href="#DejaVuSans-Bold-65" transform="translate(1381.787109 0)"/>
     <use xlink:href="#DejaVuSans-Bold-6e" transform="translate(1449.609375 0)"/>
     <use xlink:href="#DejaVuSans-Bold-74" transform="translate(1520.800781 0)"/>
     <use xlink:href="#DejaVuSans-Bold-61" transform="translate(1568.603516 0)"/>
     <use xlink:href="#DejaVuSans-Bold-72" transform="translate(1636.083984 0)"/>
     <use xlink:href="#DejaVuSans-Bold-79" transform="translate(1685.400391 0)"/>
    </g>
   </g>
   <g id="text_2">
    <!-- random -->
    <g style="fill: #2e5c8a" transform="translate(298.950703 85.493219) scale(0.125 -0.125)">
     <defs>
      <path id="DejaVuSans-Bold-64" d="M 2919 2988 
L 2919 4863 
L 4044 4863 
L 4044 0 
L 2919 0 
L 2919 506 
Q 2688 197 2409 53 
Q 2131 -91 1766 -91 
Q 1119 -91 703 423 
Q 288 938 288 1747 
Q 288 2556 703 3070 
Q 1119 3584 1766 3584 
Q 2128 3584 2408 3439 
Q 2688 3294 2919 2988 
z
M 2181 722 
Q 2541 722 2730 984 
Q 2919 1247 2919 1747 
Q 2919 2247 2730 2509 
Q 2541 2772 2181 2772 
Q 1825 2772 1636 2509 
Q 1447 2247 1447 1747 
Q 1447 1247 1636 984 
Q 1825 722 2181 722 
z
" transform="scale(0.015625)"/>
     </defs>
     <use xlink:href="#DejaVuSans-Bold-72"/>
     <use xlink:href="#DejaVuSans-Bold-61" transform="translate(49.316406 0)"/>
     <use xlink:href="#DejaVuSans-Bold-6e" transform="translate(116.796875 0)"/>
     <use xlink:href="#DejaVuSans-Bold-64" transform="translate(187.988281 0)"/>
     <use xlink:href="#DejaVuSans-Bold-6f" transform="translate(259.570312 0)"/>
     <use xlink:href="#DejaVuSans-Bold-6d" transform="translate(328.271484 0)"/>
    </g>
   </g>
   <g id="text_3">
    <!-- pool -->
    <g style="fill: #1f8a70" transform="translate(401.697498 85.493219) scale(0.125 -0.125)">
     <use xlink:href="#DejaVuSans-Bold-70"/>
     <use xlink:href="#DejaVuSans-Bold-6f" transform="translate(71.582031 0)"/>
     <use xlink:href="#DejaVuSans-Bold-6f" transform="translate(140.283203 0)"/>
     <use xlink:href="#DejaVuSans-Bold-6c" transform="translate(208.984375 0)"/>
    </g>
   </g>
   <g id="text_4">
    <!-- mutation -->
    <g style="fill: #e67e22" transform="translate(475.783161 85.493219) scale(0.125 -0.125)">
     <defs>
      <path id="DejaVuSans-Bold-75" d="M 500 1363 
L 500 3500 
L 1625 3500 
L 1625 3150 
Q 1625 2866 1622 2436 
Q 1619 2006 1619 1863 
Q 1619 1441 1641 1255 
Q 1663 1069 1716 984 
Q 1784 875 1895 815 
Q 2006 756 2150 756 
Q 2500 756 2700 1025 
Q 2900 1294 2900 1772 
L 2900 3500 
L 4019 3500 
L 4019 0 
L 2900 0 
L 2900 506 
Q 2647 200 2364 54 
Q 2081 -91 1741 -91 
Q 1134 -91 817 281 
Q 500 653 500 1363 
z
" transform="scale(0.015625)"/>
     </defs>
     <use xlink:href="#DejaVuSans-Bold-6d"/>
     <use xlink:href="#DejaVuSans-Bold-75" transform="translate(104.199219 0)"/>
     <use xlink:href="#DejaVuSans-Bold-74" transform="translate(175.390625 0)"/>
     <use xlink:href="#DejaVuSans-Bold-61" transform="translate(223.193359 0)"/>
     <use xlink:href="#DejaVuSans-Bold-74" transform="translate(290.673828 0)"/>
     <use xlink:href="#DejaVuSans-Bold-69" transform="translate(338.476562 0)"/>
     <use xlink:href="#DejaVuSans-Bold-6f" transform="translate(372.753906 0)"/>
     <use xlink:href="#DejaVuSans-Bold-6e" transform="translate(441.455078 0)"/>
    </g>
   </g>
   <g id="text_5">
    <!-- easy arm   early-exit, sign -->
    <g style="fill: #263238" transform="translate(91.736719 121.106719) scale(0.11 -0.11)">
     <defs>
      <path id="DejaVuSansMono-65" d="M 3475 1894 
L 3475 1613 
L 984 1613 
L 984 1594 
Q 984 1022 1282 709 
Q 1581 397 2125 397 
Q 2400 397 2700 484 
Q 3000 572 3341 750 
L 3341 178 
Q 3013 44 2708 -23 
Q 2403 -91 2119 -91 
Q 1303 -91 843 398 
Q 384 888 384 1747 
Q 384 2584 834 3084 
Q 1284 3584 2034 3584 
Q 2703 3584 3089 3131 
Q 3475 2678 3475 1894 
z
M 2900 2063 
Q 2888 2569 2661 2833 
Q 2434 3097 2009 3097 
Q 1594 3097 1325 2822 
Q 1056 2547 1006 2059 
L 2900 2063 
z
" transform="scale(0.015625)"/>
      <path id="DejaVuSansMono-61" d="M 2194 1759 
L 2003 1759 
Q 1500 1759 1245 1582 
Q 991 1406 991 1056 
Q 991 741 1181 566 
Q 1372 391 1709 391 
Q 2184 391 2456 720 
Q 2728 1050 2731 1631 
L 2731 1759 
L 2194 1759 
z
M 3309 1997 
L 3309 0 
L 2731 0 
L 2731 519 
Q 2547 206 2267 57 
Q 1988 -91 1588 -91 
Q 1053 -91 734 211 
Q 416 513 416 1019 
Q 416 1603 808 1906 
Q 1200 2209 1959 2209 
L 2731 2209 
L 2731 2300 
Q 2728 2719 2518 2908 
Q 2309 3097 1850 3097 
Q 1556 3097 1256 3012 
Q 956 2928 672 2766 
L 672 3341 
Q 991 3463 1283 3523 
Q 1575 3584 1850 3584 
Q 2284 3584 2592 3456 
Q 2900 3328 3091 3072 
Q 3209 2916 3259 2686 
Q 3309 2456 3309 1997 
z
" transform="scale(0.015625)"/>
      <path id="DejaVuSansMono-73" d="M 3041 3378 
L 3041 2816 
Q 2794 2959 2544 3031 
Q 2294 3103 2034 3103 
Q 1644 3103 1451 2976 
Q 1259 2850 1259 2591 
Q 1259 2356 1403 2240 
Q 1547 2125 2119 2016 
L 2350 1972 
Q 2778 1891 2998 1647 
Q 3219 1403 3219 1013 
Q 3219 494 2850 201 
Q 2481 -91 1825 -91 
Q 1566 -91 1281 -36 
Q 997 19 666 128 
L 666 722 
Q 988 556 1281 473 
Q 1575 391 1838 391 
Q 2219 391 2428 545 
Q 2638 700 2638 978 
Q 2638 1378 1872 1531 
L 1847 1538 
L 1631 1581 
Q 1134 1678 906 1908 
Q 678 2138 678 2534 
Q 678 3038 1018 3311 
Q 1359 3584 1991 3584 
Q 2272 3584 2531 3532 
Q 2791 3481 3041 3378 
z
" transform="scale(0.015625)"/>
      <path id="DejaVuSansMono-79" d="M 2681 1125 
Q 2538 759 2316 163 
Q 2006 -663 1900 -844 
Q 1756 -1088 1540 -1209 
Q 1325 -1331 1038 -1331 
L 575 -1331 
L 575 -850 
L 916 -850 
Q 1169 -850 1312 -703 
Q 1456 -556 1678 56 
L 325 3500 
L 934 3500 
L 1972 763 
L 2994 3500 
L 3603 3500 
L 2681 1125 
z
" transform="scale(0.015625)"/>
      <path id="DejaVuSansMono-20" transform="scale(0.015625)"/>
      <path id="DejaVuSansMono-72" d="M 3609 2778 
Q 3425 2922 3234 2987 
Q 3044 3053 2816 3053 
Q 2278 3053 1993 2715 
Q 1709 2378 1709 1741 
L 1709 0 
L 1131 0 
L 1131 3500 
L 1709 3500 
L 1709 2816 
Q 1853 3188 2151 3386 
Q 2450 3584 2859 3584 
Q 3072 3584 3256 3531 
Q 3441 3478 3609 3366 
L 3609 2778 
z
" transform="scale(0.015625)"/>
      <path id="DejaVuSansMono-6d" d="M 2113 3144 
Q 2219 3369 2383 3476 
Q 2547 3584 2778 3584 
Q 3200 3584 3373 3257 
Q 3547 2931 3547 2028 
L 3547 0 
L 3022 0 
L 3022 2003 
Q 3022 2744 2939 2923 
Q 2856 3103 2638 3103 
Q 2388 3103 2295 2911 
Q 2203 2719 2203 2003 
L 2203 0 
L 1678 0 
L 1678 2003 
Q 1678 2753 1589 2928 
Q 1500 3103 1269 3103 
Q 1041 3103 952 2911 
Q 863 2719 863 2003 
L 863 0 
L 341 0 
L 341 3500 
L 863 3500 
L 863 3200 
Q 966 3388 1120 3486 
Q 1275 3584 1472 3584 
Q 1709 3584 1867 3475 
Q 2025 3366 2113 3144 
z
" transform="scale(0.015625)"/>
      <path id="DejaVuSansMono-6c" d="M 1997 1269 
Q 1997 881 2139 684 
Q 2281 488 2559 488 
L 3231 488 
L 3231 0 
L 2503 0 
Q 1988 0 1705 331 
Q 1422 663 1422 1269 
L 1422 4447 
L 500 4447 
L 500 4897 
L 1997 4897 
L 1997 1269 
z
" transform="scale(0.015625)"/>
      <path id="DejaVuSansMono-2d" d="M 1113 2009 
L 2741 2009 
L 2741 1497 
L 1113 1497 
L 1113 2009 
z
" transform="scale(0.015625)"/>
      <path id="DejaVuSansMono-78" d="M 3494 3500 
L 2241 1825 
L 3616 0 
L 2950 0 
L 1925 1403 
L 903 0 
L 238 0 
L 1613 1825 
L 359 3500 
L 997 3500 
L 1925 2234 
L 2847 3500 
L 3494 3500 
z
" transform="scale(0.015625)"/>
      <path id="DejaVuSansMono-69" d="M 800 3500 
L 2272 3500 
L 2272 447 
L 3413 447 
L 3413 0 
L 556 0 
L 556 447 
L 1697 447 
L 1697 3053 
L 800 3053 
L 800 3500 
z
M 1697 4863 
L 2272 4863 
L 2272 4134 
L 1697 4134 
L 1697 4863 
z
" transform="scale(0.015625)"/>
      <path id="DejaVuSansMono-74" d="M 1919 4494 
L 1919 3500 
L 3225 3500 
L 3225 3053 
L 1919 3053 
L 1919 1153 
Q 1919 766 2066 612 
Q 2213 459 2578 459 
L 3225 459 
L 3225 0 
L 2522 0 
Q 1875 0 1609 259 
Q 1344 519 1344 1153 
L 1344 3053 
L 409 3053 
L 409 3500 
L 1344 3500 
L 1344 4494 
L 1919 4494 
z
" transform="scale(0.015625)"/>
      <path id="DejaVuSansMono-2c" d="M 1569 947 
L 2356 947 
L 2356 300 
L 1741 -897 
L 1259 -897 
L 1569 300 
L 1569 947 
z
" transform="scale(0.015625)"/>
      <path id="DejaVuSansMono-67" d="M 2681 1778 
Q 2681 2425 2470 2761 
Q 2259 3097 1856 3097 
Q 1434 3097 1212 2761 
Q 991 2425 991 1778 
Q 991 1131 1214 792 
Q 1438 453 1863 453 
Q 2259 453 2470 793 
Q 2681 1134 2681 1778 
z
M 3256 225 
Q 3256 -563 2884 -969 
Q 2513 -1375 1791 -1375 
Q 1553 -1375 1293 -1331 
Q 1034 -1288 775 -1203 
L 775 -634 
Q 1081 -778 1331 -847 
Q 1581 -916 1791 -916 
Q 2256 -916 2468 -662 
Q 2681 -409 2681 141 
L 2681 166 
L 2681 556 
Q 2544 263 2306 119 
Q 2069 -25 1728 -25 
Q 1116 -25 750 465 
Q 384 956 384 1778 
Q 384 2603 750 3093 
Q 1116 3584 1728 3584 
Q 2066 3584 2300 3450 
Q 2534 3316 2681 3034 
L 2681 3488 
L 3256 3488 
L 3256 225 
z
" transform="scale(0.015625)"/>
      <path id="DejaVuSansMono-6e" d="M 3284 2169 
L 3284 0 
L 2706 0 
L 2706 2169 
Q 2706 2641 2540 2862 
Q 2375 3084 2022 3084 
Q 1619 3084 1401 2798 
Q 1184 2513 1184 1978 
L 1184 0 
L 609 0 
L 609 3500 
L 1184 3500 
L 1184 2975 
Q 1338 3275 1600 3429 
Q 1863 3584 2222 3584 
Q 2756 3584 3020 3232 
Q 3284 2881 3284 2169 
z
" transform="scale(0.015625)"/>
     </defs>
     <use xlink:href="#DejaVuSansMono-65"/>
     <use xlink:href="#DejaVuSansMono-61" transform="translate(60.205078 0)"/>
     <use xlink:href="#DejaVuSansMono-73" transform="translate(120.410156 0)"/>
     <use xlink:href="#DejaVuSansMono-79" transform="translate(180.615234 0)"/>
     <use xlink:href="#DejaVuSansMono-20" transform="translate(240.820312 0)"/>
     <use xlink:href="#DejaVuSansMono-61" transform="translate(301.025391 0)"/>
     <use xlink:href="#DejaVuSansMono-72" transform="translate(361.230469 0)"/>
     <use xlink:href="#DejaVuSansMono-6d" transform="translate(421.435547 0)"/>
     <use xlink:href="#DejaVuSansMono-20" transform="translate(481.640625 0)"/>
     <use xlink:href="#DejaVuSansMono-20" transform="translate(541.845703 0)"/>
     <use xlink:href="#DejaVuSansMono-20" transform="translate(602.050781 0)"/>
     <use xlink:href="#DejaVuSansMono-65" transform="translate(662.255859 0)"/>
     <use xlink:href="#DejaVuSansMono-61" transform="translate(722.460938 0)"/>
     <use xlink:href="#DejaVuSansMono-72" transform="translate(782.666016 0)"/>
     <use xlink:href="#DejaVuSansMono-6c" transform="translate(842.871094 0)"/>
     <use xlink:href="#DejaVuSansMono-79" transform="translate(903.076172 0)"/>
     <use xlink:href="#DejaVuSansMono-2d" transform="translate(963.28125 0)"/>
     <use xlink:href="#DejaVuSansMono-65" transform="translate(1023.486328 0)"/>
     <use xlink:href="#DejaVuSansMono-78" transform="translate(1083.691406 0)"/>
     <use xlink:href="#DejaVuSansMono-69" transform="translate(1143.896484 0)"/>
     <use xlink:href="#DejaVuSansMono-74" transform="translate(1204.101562 0)"/>
     <use xlink:href="#DejaVuSansMono-2c" transform="translate(1264.306641 0)"/>
     <use xlink:href="#DejaVuSansMono-20" transform="translate(1324.511719 0)"/>
     <use xlink:href="#DejaVuSansMono-73" transform="translate(1384.716797 0)"/>
     <use xlink:href="#DejaVuSansMono-69" transform="translate(1444.921875 0)"/>
     <use xlink:href="#DejaVuSansMono-67" transform="translate(1505.126953 0)"/>
     <use xlink:href="#DejaVuSansMono-6e" transform="translate(1565.332031 0)"/>
    </g>
   </g>
   <g id="text_6">
    <!-- ✓ -->
    <g style="fill: #196f3d" transform="translate(318.857266 122.770937) scale(0.17 -0.17)">
     <defs>
      <path id="DejaVuSans-Bold-2713" d="M 1416 2044 
Q 1538 2044 1600 1844 
Q 1725 1469 1778 1469 
Q 1819 1469 1863 1531 
Q 2741 2938 3488 3806 
Q 3681 4031 4103 4031 
Q 4203 4031 4237 4012 
Q 4272 3994 4272 3966 
Q 4272 3922 4169 3794 
Q 2963 2344 1931 731 
Q 1859 619 1638 619 
Q 1413 619 1372 638 
Q 1266 684 1122 1116 
Q 959 1594 959 1716 
Q 959 1847 1178 1969 
Q 1313 2044 1416 2044 
z
" transform="scale(0.015625)"/>
     </defs>
     <use xlink:href="#DejaVuSans-Bold-2713"/>
    </g>
   </g>
   <g id="text_7">
    <!-- ✓ -->
    <g style="fill: #196f3d" transform="translate(409.778866 122.770937) scale(0.17 -0.17)">
     <use xlink:href="#DejaVuSans-Bold-2713"/>
    </g>
   </g>
   <g id="text_8">
    <!-- ✓ -->
    <g style="fill: #196f3d" transform="translate(500.700466 122.770937) scale(0.17 -0.17)">
     <use xlink:href="#DejaVuSans-Bold-2713"/>
    </g>
   </g>
   <g id="text_9">
    <!-- magic int   "n == 42" -->
    <g style="fill: #263238" transform="translate(131.470781 174.2999) scale(0.11 -0.11)">
     <defs>
      <path id="DejaVuSansMono-63" d="M 3316 178 
Q 3084 44 2839 -23 
Q 2594 -91 2338 -91 
Q 1525 -91 1067 396 
Q 609 884 609 1747 
Q 609 2609 1067 3096 
Q 1525 3584 2338 3584 
Q 2591 3584 2831 3518 
Q 3072 3453 3316 3316 
L 3316 2713 
Q 3088 2916 2858 3006 
Q 2628 3097 2338 3097 
Q 1797 3097 1506 2747 
Q 1216 2397 1216 1747 
Q 1216 1100 1508 748 
Q 1800 397 2338 397 
Q 2638 397 2875 489 
Q 3113 581 3316 775 
L 3316 178 
z
" transform="scale(0.015625)"/>
      <path id="DejaVuSansMono-22" d="M 2797 4666 
L 2797 2931 
L 2253 2931 
L 2253 4666 
L 2797 4666 
z
M 1600 4666 
L 1600 2931 
L 1056 2931 
L 1056 4666 
L 1600 4666 
z
" transform="scale(0.015625)"/>
      <path id="DejaVuSansMono-3d" d="M 275 1638 
L 3578 1638 
L 3578 1100 
L 275 1100 
L 275 1638 
z
M 275 2906 
L 3578 2906 
L 3578 2375 
L 275 2375 
L 275 2906 
z
" transform="scale(0.015625)"/>
      <path id="DejaVuSansMono-34" d="M 2297 4091 
L 825 1625 
L 2297 1625 
L 2297 4091 
z
M 2194 4666 
L 2925 4666 
L 2925 1625 
L 3547 1625 
L 3547 1113 
L 2925 1113 
L 2925 0 
L 2297 0 
L 2297 1113 
L 319 1113 
L 319 1709 
L 2194 4666 
z
" transform="scale(0.015625)"/>
      <path id="DejaVuSansMono-32" d="M 1166 531 
L 3309 531 
L 3309 0 
L 475 0 
L 475 531 
Q 1059 1147 1496 1619 
Q 1934 2091 2100 2284 
Q 2413 2666 2522 2902 
Q 2631 3138 2631 3384 
Q 2631 3775 2401 3997 
Q 2172 4219 1772 4219 
Q 1488 4219 1175 4116 
Q 863 4013 513 3803 
L 513 4441 
Q 834 4594 1145 4672 
Q 1456 4750 1759 4750 
Q 2444 4750 2861 4386 
Q 3278 4022 3278 3431 
Q 3278 3131 3139 2831 
Q 3000 2531 2688 2169 
Q 2513 1966 2180 1606 
Q 1847 1247 1166 531 
z
" transform="scale(0.015625)"/>
     </defs>
     <use xlink:href="#DejaVuSansMono-6d"/>
     <use xlink:href="#DejaVuSansMono-61" transform="translate(60.205078 0)"/>
     <use xlink:href="#DejaVuSansMono-67" transform="translate(120.410156 0)"/>
     <use xlink:href="#DejaVuSansMono-69" transform="translate(180.615234 0)"/>
     <use xlink:href="#DejaVuSansMono-63" transform="translate(240.820312 0)"/>
     <use xlink:href="#DejaVuSansMono-20" transform="translate(301.025391 0)"/>
     <use xlink:href="#DejaVuSansMono-69" transform="translate(361.230469 0)"/>
     <use xlink:href="#DejaVuSansMono-6e" transform="translate(421.435547 0)"/>
     <use xlink:href="#DejaVuSansMono-74" transform="translate(481.640625 0)"/>
     <use xlink:href="#DejaVuSansMono-20" transform="translate(541.845703 0)"/>
     <use xlink:href="#DejaVuSansMono-20" transform="translate(602.050781 0)"/>
     <use xlink:href="#DejaVuSansMono-20" transform="translate(662.255859 0)"/>
     <use xlink:href="#DejaVuSansMono-22" transform="translate(722.460938 0)"/>
     <use xlink:href="#DejaVuSansMono-6e" transform="translate(782.666016 0)"/>
     <use xlink:href="#DejaVuSansMono-20" transform="translate(842.871094 0)"/>
     <use xlink:href="#DejaVuSansMono-3d" transform="translate(903.076172 0)"/>
     <use xlink:href="#DejaVuSansMono-3d" transform="translate(963.28125 0)"/>
     <use xlink:href="#DejaVuSansMono-20" transform="translate(1023.486328 0)"/>
     <use xlink:href="#DejaVuSansMono-34" transform="translate(1083.691406 0)"/>
     <use xlink:href="#DejaVuSansMono-32" transform="translate(1143.896484 0)"/>
     <use xlink:href="#DejaVuSansMono-22" transform="translate(1204.101562 0)"/>
    </g>
   </g>
   <g id="text_10">
    <!-- ✗ -->
    <g style="fill: #c0392b" transform="translate(318.857266 175.993337) scale(0.17 -0.17)">
     <defs>
      <path id="DejaVuSans-Bold-2717" d="M 3975 4688 
Q 4006 4688 4056 4638 
Q 4109 4588 4166 4506 
Q 4256 4666 4309 4666 
Q 4356 4666 4438 4581 
Q 4488 4528 4488 4463 
Q 4488 4378 4419 4306 
Q 3769 3600 3156 2753 
Q 3409 2134 3856 1388 
Q 3894 1325 3894 1288 
Q 3894 1216 3800 1138 
L 3700 1069 
Q 3713 1031 3713 969 
Q 3713 875 3644 825 
Q 3563 769 3525 769 
Q 3444 769 3381 850 
Q 3006 1331 2606 1981 
Q 2069 1281 1375 113 
Q 1275 -56 1038 -56 
Q 925 -56 913 75 
Q 753 163 753 353 
Q 753 603 788 700 
Q 803 744 888 875 
Q 1525 1869 2238 2700 
Q 1856 3606 1731 4097 
Q 1703 4206 1703 4238 
Q 1703 4281 1759 4363 
Q 1819 4444 1869 4444 
Q 1916 4444 1988 4353 
Q 2016 4406 2056 4444 
Q 2113 4494 2200 4494 
Q 2300 4494 2331 4400 
Q 2500 3875 2775 3400 
Q 3219 3975 3856 4613 
Q 3931 4688 3975 4688 
z
" transform="scale(0.015625)"/>
     </defs>
     <use xlink:href="#DejaVuSans-Bold-2717"/>
    </g>
   </g>
   <g id="text_11">
    <!-- ✓ -->
    <g style="fill: #196f3d" transform="translate(409.778866 175.993337) scale(0.17 -0.17)">
     <use xlink:href="#DejaVuSans-Bold-2713"/>
    </g>
   </g>
   <g id="text_12">
    <!-- ✗ -->
    <g style="fill: #c0392b" transform="translate(500.700466 175.993337) scale(0.17 -0.17)">
     <use xlink:href="#DejaVuSans-Bold-2717"/>
    </g>
   </g>
   <g id="text_13">
    <!-- structure   sorted list, deep tree -->
    <g style="fill: #263238" transform="translate(45.380312 227.589331) scale(0.11 -0.11)">
     <defs>
      <path id="DejaVuSansMono-75" d="M 609 1325 
L 609 3494 
L 1184 3494 
L 1184 1325 
Q 1184 853 1351 631 
Q 1519 409 1869 409 
Q 2275 409 2490 695 
Q 2706 981 2706 1516 
L 2706 3494 
L 3284 3494 
L 3284 0 
L 2706 0 
L 2706 525 
Q 2553 222 2289 65 
Q 2025 -91 1672 -91 
Q 1134 -91 871 261 
Q 609 613 609 1325 
z
" transform="scale(0.015625)"/>
      <path id="DejaVuSansMono-6f" d="M 1925 3097 
Q 1488 3097 1263 2756 
Q 1038 2416 1038 1747 
Q 1038 1081 1263 739 
Q 1488 397 1925 397 
Q 2366 397 2591 739 
Q 2816 1081 2816 1747 
Q 2816 2416 2591 2756 
Q 2366 3097 1925 3097 
z
M 1925 3584 
Q 2653 3584 3039 3112 
Q 3425 2641 3425 1747 
Q 3425 850 3040 379 
Q 2656 -91 1925 -91 
Q 1197 -91 812 379 
Q 428 850 428 1747 
Q 428 2641 812 3112 
Q 1197 3584 1925 3584 
z
" transform="scale(0.015625)"/>
      <path id="DejaVuSansMono-64" d="M 2681 3053 
L 2681 4863 
L 3256 4863 
L 3256 0 
L 2681 0 
L 2681 441 
Q 2538 181 2298 45 
Q 2059 -91 1747 -91 
Q 1113 -91 748 401 
Q 384 894 384 1759 
Q 384 2613 750 3098 
Q 1116 3584 1747 3584 
Q 2063 3584 2303 3448 
Q 2544 3313 2681 3053 
z
M 991 1747 
Q 991 1078 1203 737 
Q 1416 397 1831 397 
Q 2247 397 2464 740 
Q 2681 1084 2681 1747 
Q 2681 2413 2464 2755 
Q 2247 3097 1831 3097 
Q 1416 3097 1203 2756 
Q 991 2416 991 1747 
z
" transform="scale(0.015625)"/>
      <path id="DejaVuSansMono-70" d="M 1172 441 
L 1172 -1331 
L 594 -1331 
L 594 3500 
L 1172 3500 
L 1172 3053 
Q 1316 3313 1555 3448 
Q 1794 3584 2106 3584 
Q 2741 3584 3102 3093 
Q 3463 2603 3463 1734 
Q 3463 881 3100 395 
Q 2738 -91 2106 -91 
Q 1788 -91 1548 45 
Q 1309 181 1172 441 
z
M 2859 1747 
Q 2859 2416 2648 2756 
Q 2438 3097 2022 3097 
Q 1603 3097 1387 2755 
Q 1172 2413 1172 1747 
Q 1172 1084 1387 740 
Q 1603 397 2022 397 
Q 2438 397 2648 737 
Q 2859 1078 2859 1747 
z
" transform="scale(0.015625)"/>
     </defs>
     <use xlink:href="#DejaVuSansMono-73"/>
     <use xlink:href="#DejaVuSansMono-74" transform="translate(60.205078 0)"/>
     <use xlink:href="#DejaVuSansMono-72" transform="translate(120.410156 0)"/>
     <use xlink:href="#DejaVuSansMono-75" transform="translate(180.615234 0)"/>
     <use xlink:href="#DejaVuSansMono-63" transform="translate(240.820312 0)"/>
     <use xlink:href="#DejaVuSansMono-74" transform="translate(301.025391 0)"/>
     <use xlink:href="#DejaVuSansMono-75" transform="translate(361.230469 0)"/>
     <use xlink:href="#DejaVuSansMono-72" transform="translate(421.435547 0)"/>
     <use xlink:href="#DejaVuSansMono-65" transform="translate(481.640625 0)"/>
     <use xlink:href="#DejaVuSansMono-20" transform="translate(541.845703 0)"/>
     <use xlink:href="#DejaVuSansMono-20" transform="translate(602.050781 0)"/>
     <use xlink:href="#DejaVuSansMono-20" transform="translate(662.255859 0)"/>
     <use xlink:href="#DejaVuSansMono-73" transform="translate(722.460938 0)"/>
     <use xlink:href="#DejaVuSansMono-6f" transform="translate(782.666016 0)"/>
     <use xlink:href="#DejaVuSansMono-72" transform="translate(842.871094 0)"/>
     <use xlink:href="#DejaVuSansMono-74" transform="translate(903.076172 0)"/>
     <use xlink:href="#DejaVuSansMono-65" transform="translate(963.28125 0)"/>
     <use xlink:href="#DejaVuSansMono-64" transform="translate(1023.486328 0)"/>
     <use xlink:href="#DejaVuSansMono-20" transform="translate(1083.691406 0)"/>
     <use xlink:href="#DejaVuSansMono-6c" transform="translate(1143.896484 0)"/>
     <use xlink:href="#DejaVuSansMono-69" transform="translate(1204.101562 0)"/>
     <use xlink:href="#DejaVuSansMono-73" transform="translate(1264.306641 0)"/>
     <use xlink:href="#DejaVuSansMono-74" transform="translate(1324.511719 0)"/>
     <use xlink:href="#DejaVuSansMono-2c" transform="translate(1384.716797 0)"/>
     <use xlink:href="#DejaVuSansMono-20" transform="translate(1444.921875 0)"/>
     <use xlink:href="#DejaVuSansMono-64" transform="translate(1505.126953 0)"/>
     <use xlink:href="#DejaVuSansMono-65" transform="translate(1565.332031 0)"/>
     <use xlink:href="#DejaVuSansMono-65" transform="translate(1625.537109 0)"/>
     <use xlink:href="#DejaVuSansMono-70" transform="translate(1685.742188 0)"/>
     <use xlink:href="#DejaVuSansMono-20" transform="translate(1745.947266 0)"/>
     <use xlink:href="#DejaVuSansMono-74" transform="translate(1806.152344 0)"/>
     <use xlink:href="#DejaVuSansMono-72" transform="translate(1866.357422 0)"/>
     <use xlink:href="#DejaVuSansMono-65" transform="translate(1926.5625 0)"/>
     <use xlink:href="#DejaVuSansMono-65" transform="translate(1986.767578 0)"/>
    </g>
   </g>
   <g id="text_14">
    <!-- ✗ -->
    <g style="fill: #c0392b" transform="translate(318.857266 229.215737) scale(0.17 -0.17)">
     <use xlink:href="#DejaVuSans-Bold-2717"/>
    </g>
   </g>
   <g id="text_15">
    <!-- ✗ -->
    <g style="fill: #c0392b" transform="translate(409.778866 229.215737) scale(0.17 -0.17)">
     <use xlink:href="#DejaVuSans-Bold-2717"/>
    </g>
   </g>
   <g id="text_16">
    <!-- ✓ -->
    <g style="fill: #196f3d" transform="translate(500.700466 229.215737) scale(0.17 -0.17)">
     <use xlink:href="#DejaVuSans-Bold-2713"/>
    </g>
   </g>
   <g id="text_17">
    <!-- validity gate   parse, checksum -->
    <g style="fill: #263238" transform="translate(65.247344 280.773919) scale(0.11 -0.11)">
     <defs>
      <path id="DejaVuSansMono-76" d="M 313 3500 
L 909 3500 
L 1925 563 
L 2944 3500 
L 3541 3500 
L 2297 0 
L 1556 0 
L 313 3500 
z
" transform="scale(0.015625)"/>
      <path id="DejaVuSansMono-68" d="M 3284 2169 
L 3284 0 
L 2706 0 
L 2706 2169 
Q 2706 2641 2540 2862 
Q 2375 3084 2022 3084 
Q 1619 3084 1401 2798 
Q 1184 2513 1184 1978 
L 1184 0 
L 609 0 
L 609 4863 
L 1184 4863 
L 1184 2975 
Q 1338 3275 1600 3429 
Q 1863 3584 2222 3584 
Q 2756 3584 3020 3232 
Q 3284 2881 3284 2169 
z
" transform="scale(0.015625)"/>
      <path id="DejaVuSansMono-6b" d="M 738 4863 
L 1331 4863 
L 1331 2047 
L 2841 3500 
L 3541 3500 
L 2163 2181 
L 3756 0 
L 3053 0 
L 1759 1806 
L 1331 1403 
L 1331 0 
L 738 0 
L 738 4863 
z
" transform="scale(0.015625)"/>
     </defs>
     <use xlink:href="#DejaVuSansMono-76"/>
     <use xlink:href="#DejaVuSansMono-61" transform="translate(60.205078 0)"/>
     <use xlink:href="#DejaVuSansMono-6c" transform="translate(120.410156 0)"/>
     <use xlink:href="#DejaVuSansMono-69" transform="translate(180.615234 0)"/>
     <use xlink:href="#DejaVuSansMono-64" transform="translate(240.820312 0)"/>
     <use xlink:href="#DejaVuSansMono-69" transform="translate(301.025391 0)"/>
     <use xlink:href="#DejaVuSansMono-74" transform="translate(361.230469 0)"/>
     <use xlink:href="#DejaVuSansMono-79" transform="translate(421.435547 0)"/>
     <use xlink:href="#DejaVuSansMono-20" transform="translate(481.640625 0)"/>
     <use xlink:href="#DejaVuSansMono-67" transform="translate(541.845703 0)"/>
     <use xlink:href="#DejaVuSansMono-61" transform="translate(602.050781 0)"/>
     <use xlink:href="#DejaVuSansMono-74" transform="translate(662.255859 0)"/>
     <use xlink:href="#DejaVuSansMono-65" transform="translate(722.460938 0)"/>
     <use xlink:href="#DejaVuSansMono-20" transform="translate(782.666016 0)"/>
     <use xlink:href="#DejaVuSansMono-20" transform="translate(842.871094 0)"/>
     <use xlink:href="#DejaVuSansMono-20" transform="translate(903.076172 0)"/>
     <use xlink:href="#DejaVuSansMono-70" transform="translate(963.28125 0)"/>
     <use xlink:href="#DejaVuSansMono-61" transform="translate(1023.486328 0)"/>
     <use xlink:href="#DejaVuSansMono-72" transform="translate(1083.691406 0)"/>
     <use xlink:href="#DejaVuSansMono-73" transform="translate(1143.896484 0)"/>
     <use xlink:href="#DejaVuSansMono-65" transform="translate(1204.101562 0)"/>
     <use xlink:href="#DejaVuSansMono-2c" transform="translate(1264.306641 0)"/>
     <use xlink:href="#DejaVuSansMono-20" transform="translate(1324.511719 0)"/>
     <use xlink:href="#DejaVuSansMono-63" transform="translate(1384.716797 0)"/>
     <use xlink:href="#DejaVuSansMono-68" transform="translate(1444.921875 0)"/>
     <use xlink:href="#DejaVuSansMono-65" transform="translate(1505.126953 0)"/>
     <use xlink:href="#DejaVuSansMono-63" transform="translate(1565.332031 0)"/>
     <use xlink:href="#DejaVuSansMono-6b" transform="translate(1625.537109 0)"/>
     <use xlink:href="#DejaVuSansMono-73" transform="translate(1685.742188 0)"/>
     <use xlink:href="#DejaVuSansMono-75" transform="translate(1745.947266 0)"/>
     <use xlink:href="#DejaVuSansMono-6d" transform="translate(1806.152344 0)"/>
    </g>
   </g>
   <g id="text_18">
    <!-- ✗ -->
    <g style="fill: #c0392b" transform="translate(318.857266 282.438137) scale(0.17 -0.17)">
     <use xlink:href="#DejaVuSans-Bold-2717"/>
    </g>
   </g>
   <g id="text_19">
    <!-- ✗ -->
    <g style="fill: #c0392b" transform="translate(409.778866 282.438137) scale(0.17 -0.17)">
     <use xlink:href="#DejaVuSans-Bold-2717"/>
    </g>
   </g>
   <g id="text_20">
    <!-- ✗ -->
    <g style="fill: #c0392b" transform="translate(500.700466 282.438137) scale(0.17 -0.17)">
     <use xlink:href="#DejaVuSans-Bold-2717"/>
    </g>
   </g>
   <g id="text_21">
    <!-- Each tactic cracks a different kind of branch → coverage-guided combines them. -->
    <g style="fill: #78909c" transform="translate(85.680306 334.228469) scale(0.1 -0.1)">
     <defs>
      <path id="DejaVuSans-Oblique-45" d="M 1081 4666 
L 4031 4666 
L 3928 4134 
L 1606 4134 
L 1338 2753 
L 3566 2753 
L 3463 2222 
L 1234 2222 
L 909 531 
L 3284 531 
L 3181 0 
L 172 0 
L 1081 4666 
z
" transform="scale(0.015625)"/>
      <path id="DejaVuSans-Oblique-61" d="M 3438 1997 
L 3047 0 
L 2472 0 
L 2578 531 
Q 2325 219 2001 64 
Q 1678 -91 1281 -91 
Q 834 -91 548 182 
Q 263 456 263 884 
Q 263 1497 752 1853 
Q 1241 2209 2100 2209 
L 2900 2209 
L 2931 2363 
Q 2938 2388 2941 2417 
Q 2944 2447 2944 2509 
Q 2944 2788 2717 2942 
Q 2491 3097 2081 3097 
Q 1800 3097 1504 3025 
Q 1209 2953 897 2809 
L 997 3341 
Q 1322 3463 1633 3523 
Q 1944 3584 2234 3584 
Q 2853 3584 3176 3315 
Q 3500 3047 3500 2534 
Q 3500 2431 3484 2292 
Q 3469 2153 3438 1997 
z
M 2816 1759 
L 2241 1759 
Q 1534 1759 1195 1570 
Q 856 1381 856 984 
Q 856 709 1029 553 
Q 1203 397 1509 397 
Q 1978 397 2328 733 
Q 2678 1069 2791 1631 
L 2816 1759 
z
" transform="scale(0.015625)"/>
      <path id="DejaVuSans-Oblique-63" d="M 3431 3366 
L 3316 2797 
Q 3109 2947 2876 3022 
Q 2644 3097 2394 3097 
Q 2119 3097 1870 3000 
Q 1622 2903 1453 2725 
Q 1184 2453 1037 2087 
Q 891 1722 891 1331 
Q 891 859 1127 628 
Q 1363 397 1844 397 
Q 2081 397 2348 469 
Q 2616 541 2906 684 
L 2797 116 
Q 2547 13 2283 -39 
Q 2019 -91 1741 -91 
Q 1044 -91 669 257 
Q 294 606 294 1253 
Q 294 1797 489 2255 
Q 684 2713 1069 3078 
Q 1331 3328 1684 3456 
Q 2038 3584 2456 3584 
Q 2700 3584 2940 3529 
Q 3181 3475 3431 3366 
z
" transform="scale(0.015625)"/>
      <path id="DejaVuSans-Oblique-68" d="M 3566 2113 
L 3156 0 
L 2578 0 
L 2988 2091 
Q 3016 2238 3031 2350 
Q 3047 2463 3047 2528 
Q 3047 2791 2881 2937 
Q 2716 3084 2419 3084 
Q 1956 3084 1617 2771 
Q 1278 2459 1178 1941 
L 800 0 
L 225 0 
L 1172 4863 
L 1747 4863 
L 1375 2950 
Q 1594 3244 1934 3414 
Q 2275 3584 2650 3584 
Q 3113 3584 3367 3334 
Q 3622 3084 3622 2631 
Q 3622 2519 3608 2391 
Q 3594 2263 3566 2113 
z
" transform="scale(0.015625)"/>
      <path id="DejaVuSans-Oblique-20" transform="scale(0.015625)"/>
      <path id="DejaVuSans-Oblique-74" d="M 2706 3500 
L 2619 3053 
L 1472 3053 
L 1100 1153 
Q 1081 1047 1072 975 
Q 1063 903 1063 863 
Q 1063 663 1183 572 
Q 1303 481 1569 481 
L 2150 481 
L 2053 0 
L 1503 0 
Q 991 0 739 200 
Q 488 400 488 806 
Q 488 878 497 964 
Q 506 1050 525 1153 
L 897 3053 
L 409 3053 
L 500 3500 
L 978 3500 
L 1172 4494 
L 1747 4494 
L 1556 3500 
L 2706 3500 
z
" transform="scale(0.015625)"/>
      <path id="DejaVuSans-Oblique-69" d="M 1172 4863 
L 1747 4863 
L 1606 4134 
L 1031 4134 
L 1172 4863 
z
M 909 3500 
L 1484 3500 
L 800 0 
L 225 0 
L 909 3500 
z
" transform="scale(0.015625)"/>
      <path id="DejaVuSans-Oblique-72" d="M 2853 2969 
Q 2766 3016 2653 3041 
Q 2541 3066 2413 3066 
Q 1953 3066 1609 2717 
Q 1266 2369 1153 1784 
L 800 0 
L 225 0 
L 909 3500 
L 1484 3500 
L 1375 2956 
Q 1603 3259 1920 3421 
Q 2238 3584 2597 3584 
Q 2691 3584 2781 3573 
Q 2872 3563 2963 3538 
L 2853 2969 
z
" transform="scale(0.015625)"/>
      <path id="DejaVuSans-Oblique-6b" d="M 1172 4863 
L 1747 4863 
L 1197 2028 
L 3169 3500 
L 3916 3500 
L 1716 1825 
L 3322 0 
L 2625 0 
L 1131 1709 
L 800 0 
L 225 0 
L 1172 4863 
z
" transform="scale(0.015625)"/>
      <path id="DejaVuSans-Oblique-73" d="M 3200 3397 
L 3091 2853 
Q 2863 2978 2609 3040 
Q 2356 3103 2088 3103 
Q 1634 3103 1373 2948 
Q 1113 2794 1113 2528 
Q 1113 2219 1719 2053 
Q 1766 2041 1788 2034 
L 1972 1978 
Q 2547 1819 2739 1644 
Q 2931 1469 2931 1166 
Q 2931 609 2489 259 
Q 2047 -91 1331 -91 
Q 1053 -91 747 -37 
Q 441 16 72 128 
L 184 722 
Q 500 559 806 475 
Q 1113 391 1394 391 
Q 1816 391 2080 572 
Q 2344 753 2344 1031 
Q 2344 1331 1650 1516 
L 1591 1531 
L 1394 1581 
Q 956 1697 753 1886 
Q 550 2075 550 2369 
Q 550 2928 970 3256 
Q 1391 3584 2113 3584 
Q 2397 3584 2667 3537 
Q 2938 3491 3200 3397 
z
" transform="scale(0.015625)"/>
      <path id="DejaVuSans-Oblique-64" d="M 2675 525 
Q 2444 222 2128 65 
Q 1813 -91 1428 -91 
Q 903 -91 598 267 
Q 294 625 294 1247 
Q 294 1766 478 2236 
Q 663 2706 1013 3078 
Q 1244 3325 1534 3454 
Q 1825 3584 2144 3584 
Q 2481 3584 2739 3421 
Q 2997 3259 3138 2956 
L 3513 4863 
L 4091 4863 
L 3144 0 
L 2566 0 
L 2675 525 
z
M 891 1350 
Q 891 897 1095 644 
Q 1300 391 1663 391 
Q 1931 391 2161 520 
Q 2391 650 2566 903 
Q 2750 1166 2856 1509 
Q 2963 1853 2963 2188 
Q 2963 2622 2758 2865 
Q 2553 3109 2194 3109 
Q 1922 3109 1687 2981 
Q 1453 2853 1288 2613 
Q 1106 2353 998 2009 
Q 891 1666 891 1350 
z
" transform="scale(0.015625)"/>
      <path id="DejaVuSans-Oblique-66" d="M 3059 4863 
L 2969 4384 
L 2419 4384 
Q 2106 4384 1964 4261 
Q 1822 4138 1753 3809 
L 1691 3500 
L 2638 3500 
L 2553 3053 
L 1606 3053 
L 1013 0 
L 434 0 
L 1031 3053 
L 481 3053 
L 563 3500 
L 1113 3500 
L 1159 3744 
Q 1278 4363 1576 4613 
Q 1875 4863 2516 4863 
L 3059 4863 
z
" transform="scale(0.015625)"/>
      <path id="DejaVuSans-Oblique-65" d="M 3078 2063 
Q 3088 2113 3092 2166 
Q 3097 2219 3097 2272 
Q 3097 2653 2873 2875 
Q 2650 3097 2266 3097 
Q 1838 3097 1509 2826 
Q 1181 2556 1013 2059 
L 3078 2063 
z
M 3578 1613 
L 903 1613 
Q 884 1494 878 1425 
Q 872 1356 872 1306 
Q 872 872 1139 634 
Q 1406 397 1894 397 
Q 2269 397 2603 481 
Q 2938 566 3225 728 
L 3116 159 
Q 2806 34 2476 -28 
Q 2147 -91 1806 -91 
Q 1078 -91 686 257 
Q 294 606 294 1247 
Q 294 1794 489 2264 
Q 684 2734 1063 3103 
Q 1306 3334 1642 3459 
Q 1978 3584 2356 3584 
Q 2950 3584 3301 3228 
Q 3653 2872 3653 2272 
Q 3653 2128 3634 1964 
Q 3616 1800 3578 1613 
z
" transform="scale(0.015625)"/>
      <path id="DejaVuSans-Oblique-6e" d="M 3566 2113 
L 3156 0 
L 2578 0 
L 2988 2091 
Q 3016 2238 3031 2350 
Q 3047 2463 3047 2528 
Q 3047 2791 2881 2937 
Q 2716 3084 2419 3084 
Q 1956 3084 1622 2776 
Q 1288 2469 1184 1941 
L 800 0 
L 225 0 
L 903 3500 
L 1478 3500 
L 1363 2950 
Q 1603 3253 1940 3418 
Q 2278 3584 2650 3584 
Q 3113 3584 3367 3334 
Q 3622 3084 3622 2631 
Q 3622 2519 3608 2391 
Q 3594 2263 3566 2113 
z
" transform="scale(0.015625)"/>
      <path id="DejaVuSans-Oblique-6f" d="M 1625 -91 
Q 1009 -91 651 289 
Q 294 669 294 1325 
Q 294 1706 417 2101 
Q 541 2497 738 2766 
Q 1047 3184 1428 3384 
Q 1809 3584 2291 3584 
Q 2888 3584 3255 3212 
Q 3622 2841 3622 2241 
Q 3622 1825 3500 1412 
Q 3378 1000 3181 728 
Q 2875 309 2494 109 
Q 2113 -91 1625 -91 
z
M 891 1344 
Q 891 869 1089 633 
Q 1288 397 1691 397 
Q 2269 397 2648 901 
Q 3028 1406 3028 2181 
Q 3028 2634 2825 2865 
Q 2622 3097 2228 3097 
Q 1903 3097 1650 2945 
Q 1397 2794 1197 2484 
Q 1050 2253 970 1956 
Q 891 1659 891 1344 
z
" transform="scale(0.015625)"/>
      <path id="DejaVuSans-Oblique-62" d="M 3169 2138 
Q 3169 2591 2961 2847 
Q 2753 3103 2388 3103 
Q 2122 3103 1889 2973 
Q 1656 2844 1484 2597 
Q 1303 2338 1198 1995 
Q 1094 1653 1094 1313 
Q 1094 881 1298 636 
Q 1503 391 1863 391 
Q 2134 391 2365 517 
Q 2597 644 2772 891 
Q 2950 1147 3059 1487 
Q 3169 1828 3169 2138 
z
M 1381 2969 
Q 1594 3256 1914 3420 
Q 2234 3584 2584 3584 
Q 3122 3584 3439 3221 
Q 3756 2859 3756 2241 
Q 3756 1734 3570 1259 
Q 3384 784 3041 416 
Q 2816 172 2522 40 
Q 2228 -91 1906 -91 
Q 1566 -91 1316 65 
Q 1066 222 909 531 
L 806 0 
L 231 0 
L 1178 4863 
L 1753 4863 
L 1381 2969 
z
" transform="scale(0.015625)"/>
      <path id="DejaVuSans-Oblique-2192" d="M 5050 2147 
L 5050 1866 
L 3822 638 
L 3447 1013 
L 4175 1741 
L 366 1741 
L 366 2272 
L 4175 2272 
L 3447 3000 
L 3822 3375 
L 5050 2147 
z
" transform="scale(0.015625)"/>
      <path id="DejaVuSans-Oblique-76" d="M 459 3500 
L 1069 3500 
L 1581 525 
L 3256 3500 
L 3866 3500 
L 1875 0 
L 1100 0 
L 459 3500 
z
" transform="scale(0.015625)"/>
      <path id="DejaVuSans-Oblique-67" d="M 3816 3500 
L 3219 434 
Q 3047 -456 2561 -893 
Q 2075 -1331 1253 -1331 
Q 950 -1331 690 -1286 
Q 431 -1241 206 -1147 
L 313 -588 
Q 525 -725 762 -790 
Q 1000 -856 1269 -856 
Q 1816 -856 2167 -557 
Q 2519 -259 2631 300 
L 2681 563 
Q 2441 288 2122 144 
Q 1803 0 1434 0 
Q 903 0 598 351 
Q 294 703 294 1319 
Q 294 1803 478 2267 
Q 663 2731 997 3091 
Q 1219 3328 1514 3456 
Q 1809 3584 2131 3584 
Q 2484 3584 2746 3420 
Q 3009 3256 3138 2956 
L 3238 3500 
L 3816 3500 
z
M 2950 2216 
Q 2950 2641 2750 2872 
Q 2550 3103 2181 3103 
Q 1953 3103 1747 3012 
Q 1541 2922 1394 2759 
Q 1156 2491 1023 2127 
Q 891 1763 891 1375 
Q 891 944 1092 712 
Q 1294 481 1672 481 
Q 2219 481 2584 976 
Q 2950 1472 2950 2216 
z
" transform="scale(0.015625)"/>
      <path id="DejaVuSans-Oblique-2d" d="M 391 2009 
L 2075 2009 
L 1978 1497 
L 288 1497 
L 391 2009 
z
" transform="scale(0.015625)"/>
      <path id="DejaVuSans-Oblique-75" d="M 428 1388 
L 838 3500 
L 1416 3500 
L 1006 1409 
Q 975 1256 961 1147 
Q 947 1038 947 966 
Q 947 700 1109 554 
Q 1272 409 1569 409 
Q 2031 409 2368 721 
Q 2706 1034 2809 1563 
L 3194 3500 
L 3769 3500 
L 3091 0 
L 2516 0 
L 2631 550 
Q 2388 244 2052 76 
Q 1716 -91 1338 -91 
Q 878 -91 622 161 
Q 366 413 366 863 
Q 366 956 381 1097 
Q 397 1238 428 1388 
z
" transform="scale(0.015625)"/>
      <path id="DejaVuSans-Oblique-6d" d="M 5747 2113 
L 5338 0 
L 4763 0 
L 5166 2094 
Q 5191 2228 5203 2325 
Q 5216 2422 5216 2491 
Q 5216 2772 5059 2928 
Q 4903 3084 4622 3084 
Q 4203 3084 3875 2770 
Q 3547 2456 3450 1953 
L 3066 0 
L 2491 0 
L 2900 2094 
Q 2925 2209 2937 2307 
Q 2950 2406 2950 2484 
Q 2950 2769 2794 2926 
Q 2638 3084 2363 3084 
Q 1938 3084 1609 2770 
Q 1281 2456 1184 1953 
L 800 0 
L 225 0 
L 909 3500 
L 1484 3500 
L 1375 2956 
Q 1609 3263 1923 3423 
Q 2238 3584 2597 3584 
Q 2978 3584 3223 3384 
Q 3469 3184 3519 2828 
Q 3781 3197 4126 3390 
Q 4472 3584 4856 3584 
Q 5306 3584 5551 3325 
Q 5797 3066 5797 2591 
Q 5797 2488 5784 2364 
Q 5772 2241 5747 2113 
z
" transform="scale(0.015625)"/>
      <path id="DejaVuSans-Oblique-2e" d="M 525 794 
L 1184 794 
L 1031 0 
L 372 0 
L 525 794 
z
" transform="scale(0.015625)"/>
     </defs>
     <use xlink:href="#DejaVuSans-Oblique-45"/>
     <use xlink:href="#DejaVuSans-Oblique-61" transform="translate(63.183594 0)"/>
     <use xlink:href="#DejaVuSans-Oblique-63" transform="translate(124.462891 0)"/>
     <use xlink:href="#DejaVuSans-Oblique-68" transform="translate(179.443359 0)"/>
     <use xlink:href="#DejaVuSans-Oblique-20" transform="translate(242.822266 0)"/>
     <use xlink:href="#DejaVuSans-Oblique-74" transform="translate(274.609375 0)"/>
     <use xlink:href="#DejaVuSans-Oblique-61" transform="translate(313.818359 0)"/>
     <use xlink:href="#DejaVuSans-Oblique-63" transform="translate(375.097656 0)"/>
     <use xlink:href="#DejaVuSans-Oblique-74" transform="translate(430.078125 0)"/>
     <use xlink:href="#DejaVuSans-Oblique-69" transform="translate(469.287109 0)"/>
     <use xlink:href="#DejaVuSans-Oblique-63" transform="translate(497.070312 0)"/>
     <use xlink:href="#DejaVuSans-Oblique-20" transform="translate(552.050781 0)"/>
     <use xlink:href="#DejaVuSans-Oblique-63" transform="translate(583.837891 0)"/>
     <use xlink:href="#DejaVuSans-Oblique-72" transform="translate(638.818359 0)"/>
     <use xlink:href="#DejaVuSans-Oblique-61" transform="translate(679.931641 0)"/>
     <use xlink:href="#DejaVuSans-Oblique-63" transform="translate(741.210938 0)"/>
     <use xlink:href="#DejaVuSans-Oblique-6b" transform="translate(796.191406 0)"/>
     <use xlink:href="#DejaVuSans-Oblique-73" transform="translate(854.101562 0)"/>
     <use xlink:href="#DejaVuSans-Oblique-20" transform="translate(906.201172 0)"/>
     <use xlink:href="#DejaVuSans-Oblique-61" transform="translate(937.988281 0)"/>
     <use xlink:href="#DejaVuSans-Oblique-20" transform="translate(999.267578 0)"/>
     <use xlink:href="#DejaVuSans-Oblique-64" transform="translate(1031.054688 0)"/>
     <use xlink:href="#DejaVuSans-Oblique-69" transform="translate(1094.53125 0)"/>
     <use xlink:href="#DejaVuSans-Oblique-66" transform="translate(1122.314453 0)"/>
     <use xlink:href="#DejaVuSans-Oblique-66" transform="translate(1157.519531 0)"/>
     <use xlink:href="#DejaVuSans-Oblique-65" transform="translate(1192.724609 0)"/>
     <use xlink:href="#DejaVuSans-Oblique-72" transform="translate(1254.248047 0)"/>
     <use xlink:href="#DejaVuSans-Oblique-65" transform="translate(1295.361328 0)"/>
     <use xlink:href="#DejaVuSans-Oblique-6e" transform="translate(1356.884766 0)"/>
     <use xlink:href="#DejaVuSans-Oblique-74" transform="translate(1420.263672 0)"/>
     <use xlink:href="#DejaVuSans-Oblique-20" transform="translate(1459.472656 0)"/>
     <use xlink:href="#DejaVuSans-Oblique-6b" transform="translate(1491.259766 0)"/>
     <use xlink:href="#DejaVuSans-Oblique-69" transform="translate(1549.169922 0)"/>
     <use xlink:href="#DejaVuSans-Oblique-6e" transform="translate(1576.953125 0)"/>
     <use xlink:href="#DejaVuSans-Oblique-64" transform="translate(1640.332031 0)"/>
     <use xlink:href="#DejaVuSans-Oblique-20" transform="translate(1703.808594 0)"/>
     <use xlink:href="#DejaVuSans-Oblique-6f" transform="translate(1735.595703 0)"/>
     <use xlink:href="#DejaVuSans-Oblique-66" transform="translate(1796.777344 0)"/>
     <use xlink:href="#DejaVuSans-Oblique-20" transform="translate(1831.982422 0)"/>
     <use xlink:href="#DejaVuSans-Oblique-62" transform="translate(1863.769531 0)"/>
     <use xlink:href="#DejaVuSans-Oblique-72" transform="translate(1927.246094 0)"/>
     <use xlink:href="#DejaVuSans-Oblique-61" transform="translate(1968.359375 0)"/>
     <use xlink:href="#DejaVuSans-Oblique-6e" transform="translate(2029.638672 0)"/>
     <use xlink:href="#DejaVuSans-Oblique-63" transform="translate(2093.017578 0)"/>
     <use xlink:href="#DejaVuSans-Oblique-68" transform="translate(2147.998047 0)"/>
     <use xlink:href="#DejaVuSans-Oblique-20" transform="translate(2211.376953 0)"/>
     <use xlink:href="#DejaVuSans-Oblique-2192" transform="translate(2243.164062 0)"/>
     <use xlink:href="#DejaVuSans-Oblique-20" transform="translate(2326.953125 0)"/>
     <use xlink:href="#DejaVuSans-Oblique-63" transform="translate(2358.740234 0)"/>
     <use xlink:href="#DejaVuSans-Oblique-6f" transform="translate(2413.720703 0)"/>
     <use xlink:href="#DejaVuSans-Oblique-76" transform="translate(2474.902344 0)"/>
     <use xlink:href="#DejaVuSans-Oblique-65" transform="translate(2534.082031 0)"/>
     <use xlink:href="#DejaVuSans-Oblique-72" transform="translate(2595.605469 0)"/>
     <use xlink:href="#DejaVuSans-Oblique-61" transform="translate(2636.71875 0)"/>
     <use xlink:href="#DejaVuSans-Oblique-67" transform="translate(2697.998047 0)"/>
     <use xlink:href="#DejaVuSans-Oblique-65" transform="translate(2761.474609 0)"/>
     <use xlink:href="#DejaVuSans-Oblique-2d" transform="translate(2822.998047 0)"/>
     <use xlink:href="#DejaVuSans-Oblique-67" transform="translate(2859.082031 0)"/>
     <use xlink:href="#DejaVuSans-Oblique-75" transform="translate(2922.558594 0)"/>
     <use xlink:href="#DejaVuSans-Oblique-69" transform="translate(2985.9375 0)"/>
     <use xlink:href="#DejaVuSans-Oblique-64" transform="translate(3013.720703 0)"/>
     <use xlink:href="#DejaVuSans-Oblique-65" transform="translate(3077.197266 0)"/>
     <use xlink:href="#DejaVuSans-Oblique-64" transform="translate(3138.720703 0)"/>
     <use xlink:href="#DejaVuSans-Oblique-20" transform="translate(3202.197266 0)"/>
     <use xlink:href="#DejaVuSans-Oblique-63" transform="translate(3233.984375 0)"/>
     <use xlink:href="#DejaVuSans-Oblique-6f" transform="translate(3288.964844 0)"/>
     <use xlink:href="#DejaVuSans-Oblique-6d" transform="translate(3350.146484 0)"/>
     <use xlink:href="#DejaVuSans-Oblique-62" transform="translate(3447.558594 0)"/>
     <use xlink:href="#DejaVuSans-Oblique-69" transform="translate(3511.035156 0)"/>
     <use xlink:href="#DejaVuSans-Oblique-6e" transform="translate(3538.818359 0)"/>
     <use xlink:href="#DejaVuSans-Oblique-65" transform="translate(3602.197266 0)"/>
     <use xlink:href="#DejaVuSans-Oblique-73" transform="translate(3663.720703 0)"/>
     <use xlink:href="#DejaVuSans-Oblique-20" transform="translate(3715.820312 0)"/>
     <use xlink:href="#DejaVuSans-Oblique-74" transform="translate(3747.607422 0)"/>
     <use xlink:href="#DejaVuSans-Oblique-68" transform="translate(3786.816406 0)"/>
     <use xlink:href="#DejaVuSans-Oblique-65" transform="translate(3850.195312 0)"/>
     <use xlink:href="#DejaVuSans-Oblique-6d" transform="translate(3911.71875 0)"/>
     <use xlink:href="#DejaVuSans-Oblique-2e" transform="translate(4009.130859 0)"/>
    </g>
    <!-- Validity gates (parsing, checksums) are reached by none — the open frontier. -->
    <g style="fill: #78909c" transform="translate(93.421712 345.426281) scale(0.1 -0.1)">
     <defs>
      <path id="DejaVuSans-Oblique-56" d="M 1319 0 
L 500 4666 
L 1119 4666 
L 1797 653 
L 4063 4666 
L 4750 4666 
L 2053 0 
L 1319 0 
z
" transform="scale(0.015625)"/>
      <path id="DejaVuSans-Oblique-6c" d="M 1172 4863 
L 1747 4863 
L 800 0 
L 225 0 
L 1172 4863 
z
" transform="scale(0.015625)"/>
      <path id="DejaVuSans-Oblique-79" d="M 1588 -325 
Q 1188 -997 936 -1164 
Q 684 -1331 294 -1331 
L -159 -1331 
L -63 -850 
L 269 -850 
Q 509 -850 678 -719 
Q 847 -588 1056 -206 
L 1234 128 
L 459 3500 
L 1069 3500 
L 1650 819 
L 3256 3500 
L 3859 3500 
L 1588 -325 
z
" transform="scale(0.015625)"/>
      <path id="DejaVuSans-Oblique-28" d="M 2731 4856 
Q 1903 3822 1495 2892 
Q 1088 1963 1088 1100 
Q 1088 606 1206 120 
Q 1325 -366 1563 -844 
L 1063 -844 
Q 775 -306 634 201 
Q 494 709 494 1197 
Q 494 2125 923 3036 
Q 1353 3947 2222 4856 
L 2731 4856 
z
" transform="scale(0.015625)"/>
      <path id="DejaVuSans-Oblique-70" d="M 3175 2156 
Q 3175 2616 2975 2859 
Q 2775 3103 2400 3103 
Q 2144 3103 1911 2972 
Q 1678 2841 1497 2591 
Q 1319 2344 1212 1994 
Q 1106 1644 1106 1300 
Q 1106 863 1306 627 
Q 1506 391 1875 391 
Q 2147 391 2380 519 
Q 2613 647 2778 891 
Q 2956 1147 3065 1494 
Q 3175 1841 3175 2156 
z
M 1394 2969 
Q 1625 3272 1939 3428 
Q 2253 3584 2638 3584 
Q 3175 3584 3472 3232 
Q 3769 2881 3769 2247 
Q 3769 1728 3584 1258 
Q 3400 788 3053 416 
Q 2822 169 2531 39 
Q 2241 -91 1919 -91 
Q 1547 -91 1294 64 
Q 1041 219 916 525 
L 556 -1331 
L -19 -1331 
L 922 3500 
L 1497 3500 
L 1394 2969 
z
" transform="scale(0.015625)"/>
      <path id="DejaVuSans-Oblique-2c" d="M 575 794 
L 1234 794 
L 1131 256 
L 422 -744 
L 19 -744 
L 469 256 
L 575 794 
z
" transform="scale(0.015625)"/>
      <path id="DejaVuSans-Oblique-29" d="M -397 -844 
Q 434 191 840 1120 
Q 1247 2050 1247 2913 
Q 1247 3406 1130 3892 
Q 1013 4378 775 4856 
L 1275 4856 
Q 1563 4316 1703 3812 
Q 1844 3309 1844 2822 
Q 1844 1891 1411 973 
Q 978 56 116 -844 
L -397 -844 
z
" transform="scale(0.015625)"/>
      <path id="DejaVuSans-Oblique-2014" d="M 356 1978 
L 6131 1978 
L 6044 1528 
L 269 1528 
L 356 1978 
z
" transform="scale(0.015625)"/>
     </defs>
     <use xlink:href="#DejaVuSans-Oblique-56"/>
     <use xlink:href="#DejaVuSans-Oblique-61" transform="translate(62.033203 0)"/>
     <use xlink:href="#DejaVuSans-Oblique-6c" transform="translate(123.3125 0)"/>
     <use xlink:href="#DejaVuSans-Oblique-69" transform="translate(151.095703 0)"/>
     <use xlink:href="#DejaVuSans-Oblique-64" transform="translate(178.878906 0)"/>
     <use xlink:href="#DejaVuSans-Oblique-69" transform="translate(242.355469 0)"/>
     <use xlink:href="#DejaVuSans-Oblique-74" transform="translate(270.138672 0)"/>
     <use xlink:href="#DejaVuSans-Oblique-79" transform="translate(309.347656 0)"/>
     <use xlink:href="#DejaVuSans-Oblique-20" transform="translate(368.527344 0)"/>
     <use xlink:href="#DejaVuSans-Oblique-67" transform="translate(400.314453 0)"/>
     <use xlink:href="#DejaVuSans-Oblique-61" transform="translate(463.791016 0)"/>
     <use xlink:href="#DejaVuSans-Oblique-74" transform="translate(525.070312 0)"/>
     <use xlink:href="#DejaVuSans-Oblique-65" transform="translate(564.279297 0)"/>
     <use xlink:href="#DejaVuSans-Oblique-73" transform="translate(625.802734 0)"/>
     <use xlink:href="#DejaVuSans-Oblique-20" transform="translate(677.902344 0)"/>
     <use xlink:href="#DejaVuSans-Oblique-28" transform="translate(709.689453 0)"/>
     <use xlink:href="#DejaVuSans-Oblique-70" transform="translate(748.703125 0)"/>
     <use xlink:href="#DejaVuSans-Oblique-61" transform="translate(812.179688 0)"/>
     <use xlink:href="#DejaVuSans-Oblique-72" transform="translate(873.458984 0)"/>
     <use xlink:href="#DejaVuSans-Oblique-73" transform="translate(914.572266 0)"/>
     <use xlink:href="#DejaVuSans-Oblique-69" transform="translate(966.671875 0)"/>
     <use xlink:href="#DejaVuSans-Oblique-6e" transform="translate(994.455078 0)"/>
     <use xlink:href="#DejaVuSans-Oblique-67" transform="translate(1057.833984 0)"/>
     <use xlink:href="#DejaVuSans-Oblique-2c" transform="translate(1121.310547 0)"/>
     <use xlink:href="#DejaVuSans-Oblique-20" transform="translate(1153.097656 0)"/>
     <use xlink:href="#DejaVuSans-Oblique-63" transform="translate(1184.884766 0)"/>
     <use xlink:href="#DejaVuSans-Oblique-68" transform="translate(1239.865234 0)"/>
     <use xlink:href="#DejaVuSans-Oblique-65" transform="translate(1303.244141 0)"/>
     <use xlink:href="#DejaVuSans-Oblique-63" transform="translate(1364.767578 0)"/>
     <use xlink:href="#DejaVuSans-Oblique-6b" transform="translate(1419.748047 0)"/>
     <use xlink:href="#DejaVuSans-Oblique-73" transform="translate(1477.658203 0)"/>
     <use xlink:href="#DejaVuSans-Oblique-75" transform="translate(1529.757812 0)"/>
     <use xlink:href="#DejaVuSans-Oblique-6d" transform="translate(1593.136719 0)"/>
     <use xlink:href="#DejaVuSans-Oblique-73" transform="translate(1690.548828 0)"/>
     <use xlink:href="#DejaVuSans-Oblique-29" transform="translate(1742.648438 0)"/>
     <use xlink:href="#DejaVuSans-Oblique-20" transform="translate(1781.662109 0)"/>
     <use xlink:href="#DejaVuSans-Oblique-61" transform="translate(1813.449219 0)"/>
     <use xlink:href="#DejaVuSans-Oblique-72" transform="translate(1874.728516 0)"/>
     <use xlink:href="#DejaVuSans-Oblique-65" transform="translate(1915.841797 0)"/>
     <use xlink:href="#DejaVuSans-Oblique-20" transform="translate(1977.365234 0)"/>
     <use xlink:href="#DejaVuSans-Oblique-72" transform="translate(2009.152344 0)"/>
     <use xlink:href="#DejaVuSans-Oblique-65" transform="translate(2050.265625 0)"/>
     <use xlink:href="#DejaVuSans-Oblique-61" transform="translate(2111.789062 0)"/>
     <use xlink:href="#DejaVuSans-Oblique-63" transform="translate(2173.068359 0)"/>
     <use xlink:href="#DejaVuSans-Oblique-68" transform="translate(2228.048828 0)"/>
     <use xlink:href="#DejaVuSans-Oblique-65" transform="translate(2291.427734 0)"/>
     <use xlink:href="#DejaVuSans-Oblique-64" transform="translate(2352.951172 0)"/>
     <use xlink:href="#DejaVuSans-Oblique-20" transform="translate(2416.427734 0)"/>
     <use xlink:href="#DejaVuSans-Oblique-62" transform="translate(2448.214844 0)"/>
     <use xlink:href="#DejaVuSans-Oblique-79" transform="translate(2511.691406 0)"/>
     <use xlink:href="#DejaVuSans-Oblique-20" transform="translate(2570.871094 0)"/>
     <use xlink:href="#DejaVuSans-Oblique-6e" transform="translate(2602.658203 0)"/>
     <use xlink:href="#DejaVuSans-Oblique-6f" transform="translate(2666.037109 0)"/>
     <use xlink:href="#DejaVuSans-Oblique-6e" transform="translate(2727.21875 0)"/>
     <use xlink:href="#DejaVuSans-Oblique-65" transform="translate(2790.597656 0)"/>
     <use xlink:href="#DejaVuSans-Oblique-20" transform="translate(2852.121094 0)"/>
     <use xlink:href="#DejaVuSans-Oblique-2014" transform="translate(2883.908203 0)"/>
     <use xlink:href="#DejaVuSans-Oblique-20" transform="translate(2983.908203 0)"/>
     <use xlink:href="#DejaVuSans-Oblique-74" transform="translate(3015.695312 0)"/>
     <use xlink:href="#DejaVuSans-Oblique-68" transform="translate(3054.904297 0)"/>
     <use xlink:href="#DejaVuSans-Oblique-65" transform="translate(3118.283203 0)"/>
     <use xlink:href="#DejaVuSans-Oblique-20" transform="translate(3179.806641 0)"/>
     <use xlink:href="#DejaVuSans-Oblique-6f" transform="translate(3211.59375 0)"/>
     <use xlink:href="#DejaVuSans-Oblique-70" transform="translate(3272.775391 0)"/>
     <use xlink:href="#DejaVuSans-Oblique-65" transform="translate(3336.251953 0)"/>
     <use xlink:href="#DejaVuSans-Oblique-6e" transform="translate(3397.775391 0)"/>
     <use xlink:href="#DejaVuSans-Oblique-20" transform="translate(3461.154297 0)"/>
     <use xlink:href="#DejaVuSans-Oblique-66" transform="translate(3492.941406 0)"/>
     <use xlink:href="#DejaVuSans-Oblique-72" transform="translate(3528.146484 0)"/>
     <use xlink:href="#DejaVuSans-Oblique-6f" transform="translate(3569.259766 0)"/>
     <use xlink:href="#DejaVuSans-Oblique-6e" transform="translate(3630.441406 0)"/>
     <use xlink:href="#DejaVuSans-Oblique-74" transform="translate(3693.820312 0)"/>
     <use xlink:href="#DejaVuSans-Oblique-69" transform="translate(3733.029297 0)"/>
     <use xlink:href="#DejaVuSans-Oblique-65" transform="translate(3760.8125 0)"/>
     <use xlink:href="#DejaVuSans-Oblique-72" transform="translate(3822.335938 0)"/>
     <use xlink:href="#DejaVuSans-Oblique-2e" transform="translate(3854.324219 0)"/>
    </g>
   </g>
  </g>
 </g>
 <defs>
  <clipPath id="p18f2cea556">
   <rect x="7.2" y="7.2" width="561.0528" height="354.816"/>
  </clipPath>
 </defs>
</svg>
