<?xml version="1.0" encoding="UTF-8" standalone="no"?>
<!DOCTYPE svg PUBLIC "-//W3C//DTD SVG 1.1//EN"
 "http://www.w3.org/Graphics/SVG/1.1/DTD/svg11.dtd">
<!-- Generated by graphviz version 15.0.0 (20260523.1842)
 -->
<!-- Title: mutation Pages: 1 -->
<svg width="442pt" height="555pt"
 viewBox="0.00 0.00 442.00 555.00" xmlns="http://www.w3.org/2000/svg" xmlns:xlink="http://www.w3.org/1999/xlink">
<g id="graph0" class="graph" transform="scale(1 1) rotate(0) translate(4 551.2)">
<title>mutation</title>
<polygon fill="white" stroke="none" points="-4,4 -4,-551.2 437.74,-551.2 437.74,4 -4,4"/>
<text xml:space="preserve" text-anchor="start" x="121.99" y="-525.2" font-family="Helvetica,sans-Serif" font-weight="bold" font-size="20.00">random &#160;+ &#160;mutation</text>
<g id="clust1" class="cluster">
<title>cluster_instr</title>
<polygon fill="#e6e9ed" stroke="#9aa5b1" stroke-width="1.4" points="115,-81 115,-153 245,-153 245,-81 115,-81"/>
<text xml:space="preserve" text-anchor="middle" x="180" y="-86.55" font-family="Helvetica,sans-Serif" font-size="11.00">instrumentation</text>
</g>
<!-- rng -->
<g id="node1" class="node">
<title>rng</title>
<ellipse fill="#f0f2f4" stroke="#222222" stroke-width="1.8" cx="56" cy="-333.8" rx="28.8" ry="28.8"/>
<text xml:space="preserve" text-anchor="middle" x="56" y="-328.2" font-family="Helvetica,sans-Serif" font-size="13.00">RNG</text>
</g>
<!-- gen -->
<g id="node2" class="node">
<title>gen</title>
<polygon fill="white" stroke="#222222" stroke-width="1.8" points="76,-243 0,-243 0,-207 76,-207 76,-243"/>
<text xml:space="preserve" text-anchor="middle" x="38" y="-219.4" font-family="Helvetica,sans-Serif" font-size="13.00">Generator</text>
</g>
<!-- rng&#45;&gt;gen -->
<g id="edge1" class="edge">
<title>rng&#45;&gt;gen</title>
<path fill="none" stroke="#3b6fb5" stroke-width="3" d="M37.09,-311.32C24.21,-296.71 9.5,-280 9.5,-280 9.5,-280 9.5,-268 9.5,-268 9.5,-268 13.28,-262.43 18.08,-255.36"/>
<polygon fill="#3b6fb5" stroke="#3b6fb5" stroke-width="3" points="20.81,-257.57 23.53,-247.33 15.02,-253.64 20.81,-257.57"/>
<text xml:space="preserve" text-anchor="middle" x="40.25" y="-269.07" font-family="Helvetica,sans-Serif" font-size="11.50" fill="#111111">random bits</text>
</g>
<!-- mut -->
<g id="node3" class="node">
<title>mut</title>
<polygon fill="white" stroke="#222222" stroke-width="1.8" points="210.5,-243 149.5,-243 149.5,-207 210.5,-207 210.5,-243"/>
<text xml:space="preserve" text-anchor="middle" x="180" y="-219.4" font-family="Helvetica,sans-Serif" font-size="13.00">Mutator</text>
</g>
<!-- rng&#45;&gt;mut -->
<g id="edge2" class="edge">
<title>rng&#45;&gt;mut</title>
<path fill="none" stroke="#3b6fb5" stroke-width="3" d="M76.09,-312.3C94.7,-293.31 119.5,-268 119.5,-268 119.5,-268 130.26,-260.53 142.7,-251.89"/>
<polygon fill="#3b6fb5" stroke="#3b6fb5" stroke-width="3" points="144.39,-254.98 150.61,-246.4 140.4,-249.23 144.39,-254.98"/>
<text xml:space="preserve" text-anchor="middle" x="150.25" y="-269.07" font-family="Helvetica,sans-Serif" font-size="11.50" fill="#111111">random bits</text>
</g>
<!-- sut -->
<g id="node8" class="node">
<title>sut</title>
<polygon fill="white" stroke="#222222" stroke-width="1.8" points="237.12,-145 122.88,-145 122.88,-109 237.12,-109 237.12,-145"/>
<text xml:space="preserve" text-anchor="start" x="130.88" y="-123.25" font-family="Helvetica,sans-Serif" font-size="13.00">SUT &#160;+ &#160;property</text>
</g>
<!-- gen&#45;&gt;sut -->
<g id="edge4" class="edge">
<title>gen&#45;&gt;sut</title>
<path fill="none" stroke="#3b6fb5" stroke-width="3" d="M57.65,-206.32C75.14,-190.57 98,-170 98,-170 98,-170 114.26,-161.67 132.31,-152.43"/>
<polygon fill="#3b6fb5" stroke="#3b6fb5" stroke-width="3" points="133.88,-155.56 141.18,-147.88 130.69,-149.33 133.88,-155.56"/>
<text xml:space="preserve" text-anchor="middle" x="134" y="-171.07" font-family="Helvetica,sans-Serif" font-size="11.50" fill="#111111">random value</text>
</g>
<!-- mut&#45;&gt;sut -->
<g id="edge5" class="edge">
<title>mut&#45;&gt;sut</title>
<path fill="none" stroke="#3b6fb5" stroke-width="3" d="M180,-206.39C180,-193.48 180,-175.59 180,-160.16"/>
<polygon fill="#3b6fb5" stroke="#3b6fb5" stroke-width="3" points="183.5,-160.36 180,-150.36 176.5,-160.36 183.5,-160.36"/>
<text xml:space="preserve" text-anchor="middle" x="217.12" y="-171.07" font-family="Helvetica,sans-Serif" font-size="11.50" fill="#111111">mutated value</text>
</g>
<!-- corpus -->
<g id="node4" class="node">
<title>corpus</title>
<path fill="#fbe6d4" stroke="#222222" stroke-width="1.8" d="M267.88,-351.24C267.88,-353.38 240.59,-355.11 207,-355.11 173.41,-355.11 146.12,-353.38 146.12,-351.24 146.12,-351.24 146.12,-316.36 146.12,-316.36 146.12,-314.22 173.41,-312.49 207,-312.49 240.59,-312.49 267.88,-314.22 267.88,-316.36 267.88,-316.36 267.88,-351.24 267.88,-351.24"/>
<path fill="none" stroke="#222222" stroke-width="1.8" d="M267.88,-351.24C267.88,-349.1 240.59,-347.36 207,-347.36 173.41,-347.36 146.12,-349.1 146.12,-351.24"/>
<text xml:space="preserve" text-anchor="start" x="185.25" y="-333.95" font-family="Helvetica,sans-Serif" font-size="13.00">Corpus</text>
<text xml:space="preserve" text-anchor="start" x="154.12" y="-323.8" font-family="Helvetica,sans-Serif" font-size="10.00">coverage&#45;growing seeds</text>
</g>
<!-- corpus&#45;&gt;mut -->
<g id="edge3" class="edge">
<title>corpus&#45;&gt;mut</title>
<path fill="none" stroke="#3b6fb5" stroke-width="3" d="M201.67,-311.7C197.77,-296.29 192.42,-275.14 188.02,-257.71"/>
<polygon fill="#3b6fb5" stroke="#3b6fb5" stroke-width="3" points="191.47,-257.11 185.63,-248.27 184.69,-258.82 191.47,-257.11"/>
<text xml:space="preserve" text-anchor="middle" x="223.5" y="-269.07" font-family="Helvetica,sans-Serif" font-size="11.50" fill="#111111">pick a seed</text>
</g>
<!-- newq -->
<g id="node5" class="node">
<title>newq</title>
<polygon fill="#fbe6d4" stroke="#222222" stroke-width="1.8" points="350,-518.2 281.6,-471.4 350,-424.6 418.4,-471.4 350,-518.2"/>
<text xml:space="preserve" text-anchor="start" x="324.5" y="-474.4" font-family="Helvetica,sans-Serif" font-size="13.00">covers a</text>
<text xml:space="preserve" text-anchor="start" x="321.12" y="-460.9" font-family="Helvetica,sans-Serif" font-size="13.00">new leaf?</text>
</g>
<!-- newq&#45;&gt;corpus -->
<g id="edge8" class="edge">
<title>newq&#45;&gt;corpus</title>
<path fill="none" stroke="#2e8b57" stroke-width="3" d="M321.41,-443.29C297.69,-420.8 263.99,-388.84 239.3,-365.43"/>
<polygon fill="#2e8b57" stroke="#2e8b57" stroke-width="3" points="241.96,-363.12 232.29,-358.78 237.14,-368.2 241.96,-363.12"/>
<text xml:space="preserve" text-anchor="middle" x="305.34" y="-388.68" font-family="Helvetica,sans-Serif" font-size="11.50" fill="#1e6b3a">yes — keep</text>
</g>
<!-- throw -->
<g id="node7" class="node">
<title>throw</title>
<polygon fill="#f0f2f4" stroke="#222222" stroke-width="1.8" points="392.12,-351.8 307.88,-351.8 307.88,-315.8 392.12,-315.8 392.12,-351.8"/>
<text xml:space="preserve" text-anchor="middle" x="350" y="-328.2" font-family="Helvetica,sans-Serif" font-size="13.00">throw away</text>
</g>
<!-- newq&#45;&gt;throw -->
<g id="edge9" class="edge">
<title>newq&#45;&gt;throw</title>
<path fill="none" stroke="#6b7785" stroke-width="3" d="M350,-423.73C350,-405.06 350,-384.01 350,-367.08"/>
<polygon fill="#6b7785" stroke="#6b7785" stroke-width="3" points="353.5,-367.14 350,-357.14 346.5,-367.14 353.5,-367.14"/>
<text xml:space="preserve" text-anchor="middle" x="356.75" y="-388.68" font-family="Helvetica,sans-Serif" font-size="11.50" fill="#444444">no</text>
</g>
<!-- report -->
<g id="node6" class="node">
<title>report</title>
<polygon fill="white" stroke="#222222" stroke-width="1.8" points="228.12,-36 131.88,-36 131.88,0 228.12,0 228.12,-36"/>
<text xml:space="preserve" text-anchor="middle" x="180" y="-12.4" font-family="Helvetica,sans-Serif" font-size="13.00">report to user</text>
</g>
<!-- sut&#45;&gt;newq -->
<g id="edge7" class="edge">
<title>sut&#45;&gt;newq</title>
<path fill="none" stroke="#6b7785" stroke-width="3" d="M215.62,-145.81C238.52,-157.26 264,-170 264,-170 264,-170 412,-305 412,-305 412,-305 412,-362.6 412,-362.6 412,-362.6 393.23,-395.24 376.34,-424.6"/>
<polygon fill="#6b7785" stroke="#6b7785" stroke-width="3" points="373.49,-422.53 371.54,-432.95 379.56,-426.02 373.49,-422.53"/>
<text xml:space="preserve" text-anchor="middle" x="408.99" y="-269.07" font-family="Helvetica,sans-Serif" font-size="11.50" fill="#444444">coverage</text>
</g>
<!-- sut&#45;&gt;report -->
<g id="edge6" class="edge">
<title>sut&#45;&gt;report</title>
<path fill="none" stroke="#3b6fb5" stroke-width="3" d="M180,-108.33C180,-92.84 180,-69.94 180,-51.2"/>
<polygon fill="#3b6fb5" stroke="#3b6fb5" stroke-width="3" points="183.5,-51.24 180,-41.24 176.5,-51.24 183.5,-51.24"/>
<text xml:space="preserve" text-anchor="middle" x="187.12" y="-62.08" font-family="Helvetica,sans-Serif" font-size="11.50" fill="#111111">fail</text>
</g>
</g>
</svg>
