<?xml version="1.0" encoding="UTF-8" standalone="no"?>
<!DOCTYPE svg PUBLIC "-//W3C//DTD SVG 1.1//EN"
 "http://www.w3.org/Graphics/SVG/1.1/DTD/svg11.dtd">
<!-- Generated by graphviz version 15.0.0 (20260523.1842)
 -->
<!-- Title: mutation Pages: 1 -->
<svg width="271pt" height="515pt"
 viewBox="0.00 0.00 271.00 515.00" xmlns="http://www.w3.org/2000/svg" xmlns:xlink="http://www.w3.org/1999/xlink">
<g id="graph0" class="graph" transform="scale(1 1) rotate(0) translate(4 511.02)">
<title>mutation</title>
<polygon fill="white" stroke="none" points="-4,4 -4,-511.02 266.8,-511.02 266.8,4 -4,4"/>
<text xml:space="preserve" text-anchor="start" x="38.77" y="-485.02" font-family="Helvetica,sans-Serif" font-weight="bold" font-size="20.00">mutation</text>
<text xml:space="preserve" text-anchor="start" x="122.77" y="-485.02" font-family="Helvetica,sans-Serif" font-size="20.00"> &#160;+ &#160;random</text>
<!-- rand -->
<g id="node1" class="node">
<title>rand</title>
<path fill="#e4ecf5" stroke="black" stroke-width="0" d="M109.67,-478.02C109.67,-478.02 14.42,-478.02 14.42,-478.02 8.42,-478.02 2.42,-472.02 2.42,-466.02 2.42,-466.02 2.42,-443.98 2.42,-443.98 2.42,-437.98 8.42,-431.98 14.42,-431.98 14.42,-431.98 109.67,-431.98 109.67,-431.98 115.67,-431.98 121.67,-437.98 121.67,-443.98 121.67,-443.98 121.67,-466.02 121.67,-466.02 121.67,-472.02 115.67,-478.02 109.67,-478.02"/>
<text xml:space="preserve" text-anchor="start" x="39.55" y="-455.15" font-family="Helvetica,sans-Serif" font-size="13.00">random</text>
<text xml:space="preserve" text-anchor="start" x="20.42" y="-445" font-family="Helvetica,sans-Serif" font-size="10.00" fill="#5b6b7b">a fresh typed value</text>
</g>
<!-- pick -->
<g id="node4" class="node">
<title>pick</title>
<ellipse fill="#eef1f4" stroke="black" stroke-width="0" cx="62.05" cy="-342.18" rx="62.05" ry="32.56"/>
<text xml:space="preserve" text-anchor="start" x="48.55" y="-342.33" font-family="Helvetica,sans-Serif" font-weight="bold" font-size="13.00">pick</text>
<text xml:space="preserve" text-anchor="start" x="36.17" y="-332.18" font-family="Helvetica,sans-Serif" font-size="10.00" fill="#5b6b7b">the strategy</text>
</g>
<!-- rand&#45;&gt;pick -->
<g id="edge1" class="edge">
<title>rand&#45;&gt;pick</title>
<path fill="none" stroke="#8a95a1" stroke-width="1.7" d="M62.05,-432.1C62.05,-418.78 62.05,-401.31 62.05,-385.39"/>
<polygon fill="#8a95a1" stroke="#8a95a1" stroke-width="1.7" points="65.02,-385.75 62.05,-377.25 59.07,-385.75 65.02,-385.75"/>
<text xml:space="preserve" text-anchor="middle" x="89.42" y="-399.01" font-family="Helvetica,sans-Serif" font-size="10.50" fill="#566069">typed value</text>
</g>
<!-- mut -->
<g id="node2" class="node">
<title>mut</title>
<path fill="#f6e0cc" stroke="black" stroke-width="0" d="M119.17,-46.04C119.17,-46.04 26.92,-46.04 26.92,-46.04 20.92,-46.04 14.92,-40.04 14.92,-34.04 14.92,-34.04 14.92,-12 14.92,-12 14.92,-6 20.92,0 26.92,0 26.92,0 119.17,0 119.17,0 125.17,0 131.17,-6 131.17,-12 131.17,-12 131.17,-34.04 131.17,-34.04 131.17,-40.04 125.17,-46.04 119.17,-46.04"/>
<text xml:space="preserve" text-anchor="start" x="44.92" y="-23.17" font-family="Helvetica,sans-Serif" font-weight="bold" font-size="13.00">mutation</text>
<text xml:space="preserve" text-anchor="start" x="32.92" y="-13.02" font-family="Helvetica,sans-Serif" font-size="10.00" fill="#9a6b2f">tweak a kept input</text>
</g>
<!-- mut&#45;&gt;pick -->
<g id="edge2" class="edge">
<title>mut&#45;&gt;pick</title>
<path fill="none" stroke="#8a95a1" stroke-width="1.7" d="M72.29,-45.91C70.48,-98.14 65.88,-230.8 63.51,-299.11"/>
<polygon fill="#8a95a1" stroke="#8a95a1" stroke-width="1.7" points="60.54,-298.73 63.22,-307.33 66.49,-298.93 60.54,-298.73"/>
<text xml:space="preserve" text-anchor="middle" x="94.92" y="-183.6" font-family="Helvetica,sans-Serif" font-size="10.50" fill="#566069">typed value</text>
</g>
<!-- kept -->
<g id="node3" class="node">
<title>kept</title>
<path fill="#f6e0cc" stroke="black" stroke-width="0" d="M208.55,-159.33C208.55,-159.33 115.55,-159.33 115.55,-159.33 109.55,-159.33 103.55,-153.33 103.55,-147.33 103.55,-147.33 103.55,-115.29 103.55,-115.29 103.55,-109.29 109.55,-103.29 115.55,-103.29 115.55,-103.29 208.55,-103.29 208.55,-103.29 214.55,-103.29 220.55,-109.29 220.55,-115.29 220.55,-115.29 220.55,-147.33 220.55,-147.33 220.55,-153.33 214.55,-159.33 208.55,-159.33"/>
<text xml:space="preserve" text-anchor="start" x="129.42" y="-136.46" font-family="Helvetica,sans-Serif" font-size="13.00">kept inputs</text>
<text xml:space="preserve" text-anchor="start" x="121.55" y="-126.31" font-family="Helvetica,sans-Serif" font-size="10.00" fill="#9a6b2f">those that covered</text>
<text xml:space="preserve" text-anchor="start" x="129.05" y="-116.31" font-family="Helvetica,sans-Serif" font-size="10.00" fill="#9a6b2f">something new</text>
</g>
<!-- kept&#45;&gt;mut -->
<g id="edge3" class="edge">
<title>kept&#45;&gt;mut</title>
<path fill="none" stroke="#8a95a1" stroke-width="1.7" d="M139.59,-103.49C126.99,-88.44 111.24,-69.63 98.22,-54.08"/>
<polygon fill="#8a95a1" stroke="#8a95a1" stroke-width="1.7" points="100.7,-52.41 92.96,-47.8 96.14,-56.23 100.7,-52.41"/>
<text xml:space="preserve" text-anchor="middle" x="141.92" y="-70.32" font-family="Helvetica,sans-Serif" font-size="10.50" fill="#566069">tweak one</text>
</g>
<!-- run -->
<g id="node5" class="node">
<title>run</title>
<path fill="#f6edcf" stroke="black" stroke-width="0" d="M206.8,-262.62C206.8,-262.62 115.3,-262.62 115.3,-262.62 109.3,-262.62 103.3,-256.62 103.3,-250.62 103.3,-250.62 103.3,-228.58 103.3,-228.58 103.3,-222.58 109.3,-216.58 115.3,-216.58 115.3,-216.58 206.8,-216.58 206.8,-216.58 212.8,-216.58 218.8,-222.58 218.8,-228.58 218.8,-228.58 218.8,-250.62 218.8,-250.62 218.8,-256.62 212.8,-262.62 206.8,-262.62"/>
<text xml:space="preserve" text-anchor="start" x="150.17" y="-239.75" font-family="Helvetica,sans-Serif" font-weight="bold" font-size="13.00">run</text>
<text xml:space="preserve" text-anchor="start" x="121.3" y="-229.6" font-family="Helvetica,sans-Serif" font-size="10.00" fill="#8a7a40">instrumented SUT</text>
</g>
<!-- pick&#45;&gt;run -->
<g id="edge4" class="edge">
<title>pick&#45;&gt;run</title>
<path fill="none" stroke="#8a95a1" stroke-width="1.7" d="M89.63,-313.16C102.83,-299.75 118.63,-283.69 132.02,-270.09"/>
<polygon fill="#8a95a1" stroke="#8a95a1" stroke-width="1.7" points="133.93,-272.39 137.77,-264.25 129.69,-268.22 133.93,-272.39"/>
</g>
<!-- run&#45;&gt;kept -->
<g id="edge5" class="edge">
<title>run&#45;&gt;kept</title>
<path fill="none" stroke="#d08a3a" stroke-width="1.7" stroke-dasharray="5,2" d="M161.25,-216.83C161.38,-203.35 161.55,-185.65 161.69,-169.95"/>
<polygon fill="#d08a3a" stroke="#d08a3a" stroke-width="1.7" points="164.67,-170.05 161.77,-161.52 158.72,-169.99 164.67,-170.05"/>
<text xml:space="preserve" text-anchor="middle" x="212.17" y="-183.6" font-family="Helvetica,sans-Serif" font-size="10.50" fill="#9a6b2f">keep if new coverage</text>
</g>
</g>
</svg>
