<?xml version="1.0" encoding="UTF-8" standalone="no"?>
<!DOCTYPE svg PUBLIC "-//W3C//DTD SVG 1.1//EN"
 "http://www.w3.org/Graphics/SVG/1.1/DTD/svg11.dtd">
<!-- Generated by graphviz version 15.0.0 (20260523.1842)
 -->
<!-- Title: pool Pages: 1 -->
<svg width="253pt" height="519pt"
 viewBox="0.00 0.00 253.00 519.00" xmlns="http://www.w3.org/2000/svg" xmlns:xlink="http://www.w3.org/1999/xlink">
<g id="graph0" class="graph" transform="scale(1 1) rotate(0) translate(4 515.02)">
<title>pool</title>
<polygon fill="white" stroke="none" points="-4,4 -4,-515.02 248.55,-515.02 248.55,4 -4,4"/>
<text xml:space="preserve" text-anchor="start" x="51.02" y="-489.02" font-family="Helvetica,sans-Serif" font-weight="bold" font-size="20.00">pool</text>
<text xml:space="preserve" text-anchor="start" x="92.27" y="-489.02" font-family="Helvetica,sans-Serif" font-size="20.00"> &#160;+ &#160;random</text>
<!-- rand -->
<g id="node1" class="node">
<title>rand</title>
<path fill="#e4ecf5" stroke="black" stroke-width="0" d="M109.67,-482.02C109.67,-482.02 14.42,-482.02 14.42,-482.02 8.42,-482.02 2.42,-476.02 2.42,-470.02 2.42,-470.02 2.42,-447.98 2.42,-447.98 2.42,-441.98 8.42,-435.98 14.42,-435.98 14.42,-435.98 109.67,-435.98 109.67,-435.98 115.67,-435.98 121.67,-441.98 121.67,-447.98 121.67,-447.98 121.67,-470.02 121.67,-470.02 121.67,-476.02 115.67,-482.02 109.67,-482.02"/>
<text xml:space="preserve" text-anchor="start" x="39.55" y="-459.15" font-family="Helvetica,sans-Serif" font-size="13.00">random</text>
<text xml:space="preserve" text-anchor="start" x="20.42" y="-449" font-family="Helvetica,sans-Serif" font-size="10.00" fill="#5b6b7b">a fresh typed value</text>
</g>
<!-- pick -->
<g id="node4" class="node">
<title>pick</title>
<ellipse fill="#eef1f4" stroke="black" stroke-width="0" cx="62.05" cy="-346.18" rx="62.05" ry="32.56"/>
<text xml:space="preserve" text-anchor="start" x="48.55" y="-346.33" font-family="Helvetica,sans-Serif" font-weight="bold" font-size="13.00">pick</text>
<text xml:space="preserve" text-anchor="start" x="36.17" y="-336.18" font-family="Helvetica,sans-Serif" font-size="10.00" fill="#5b6b7b">the strategy</text>
</g>
<!-- rand&#45;&gt;pick -->
<g id="edge1" class="edge">
<title>rand&#45;&gt;pick</title>
<path fill="none" stroke="#8a95a1" stroke-width="1.7" d="M62.05,-436.1C62.05,-422.78 62.05,-405.31 62.05,-389.39"/>
<polygon fill="#8a95a1" stroke="#8a95a1" stroke-width="1.7" points="65.02,-389.75 62.05,-381.25 59.07,-389.75 65.02,-389.75"/>
<text xml:space="preserve" text-anchor="middle" x="89.42" y="-403.01" font-family="Helvetica,sans-Serif" font-size="10.50" fill="#566069">typed value</text>
</g>
<!-- pool -->
<g id="node2" class="node">
<title>pool</title>
<path fill="#c9e8dd" stroke="black" stroke-width="0" d="M114.67,-56.04C114.67,-56.04 31.42,-56.04 31.42,-56.04 25.42,-56.04 19.42,-50.04 19.42,-44.04 19.42,-44.04 19.42,-12 19.42,-12 19.42,-6 25.42,0 31.42,0 31.42,0 114.67,0 114.67,0 120.67,0 126.67,-6 126.67,-12 126.67,-12 126.67,-44.04 126.67,-44.04 126.67,-50.04 120.67,-56.04 114.67,-56.04"/>
<text xml:space="preserve" text-anchor="start" x="58.8" y="-33.17" font-family="Helvetica,sans-Serif" font-weight="bold" font-size="13.00">pool</text>
<text xml:space="preserve" text-anchor="start" x="38.92" y="-23.02" font-family="Helvetica,sans-Serif" font-size="10.00" fill="#2f7a68">reusable literals</text>
<text xml:space="preserve" text-anchor="start" x="37.42" y="-13.02" font-family="Helvetica,sans-Serif" font-size="10.00" fill="#2f7a68">from the method</text>
</g>
<!-- pool&#45;&gt;pick -->
<g id="edge2" class="edge">
<title>pool&#45;&gt;pick</title>
<path fill="none" stroke="#8a95a1" stroke-width="1.7" d="M72.12,-55.83C70.2,-110.82 65.82,-236.74 63.52,-302.86"/>
<polygon fill="#8a95a1" stroke="#8a95a1" stroke-width="1.7" points="60.56,-302.54 63.23,-311.13 66.5,-302.74 60.56,-302.54"/>
<text xml:space="preserve" text-anchor="middle" x="94.92" y="-187.6" font-family="Helvetica,sans-Serif" font-size="10.50" fill="#566069">typed value</text>
</g>
<!-- cov -->
<g id="node3" class="node">
<title>cov</title>
<path fill="#c9e8dd" stroke="black" stroke-width="0" d="M232.55,-163.33C232.55,-163.33 115.55,-163.33 115.55,-163.33 109.55,-163.33 103.55,-157.33 103.55,-151.33 103.55,-151.33 103.55,-125.29 103.55,-125.29 103.55,-119.29 109.55,-113.29 115.55,-113.29 115.55,-113.29 232.55,-113.29 232.55,-113.29 238.55,-113.29 244.55,-119.29 244.55,-125.29 244.55,-125.29 244.55,-151.33 244.55,-151.33 244.55,-157.33 238.55,-163.33 232.55,-163.33"/>
<text xml:space="preserve" text-anchor="start" x="121.55" y="-141.31" font-family="Helvetica,sans-Serif" font-size="13.00">any branch target</text>
<text xml:space="preserve" text-anchor="start" x="127.17" y="-127.81" font-family="Helvetica,sans-Serif" font-size="13.00">still uncovered?</text>
</g>
<!-- cov&#45;&gt;pool -->
<g id="edge5" class="edge">
<title>cov&#45;&gt;pool</title>
<path fill="none" stroke="#3a9c83" stroke-width="1.7" stroke-dasharray="5,2" d="M151.88,-113.55C138.21,-98.89 120.44,-79.83 105.23,-63.53"/>
<polygon fill="#3a9c83" stroke="#3a9c83" stroke-width="1.7" points="107.73,-61.84 99.76,-57.66 103.38,-65.9 107.73,-61.84"/>
<text xml:space="preserve" text-anchor="middle" x="161.47" y="-80.31" font-family="Helvetica,sans-Serif" font-size="10.50" fill="#2f7a68">keep drawing</text>
</g>
<!-- run -->
<g id="node5" class="node">
<title>run</title>
<path fill="#f6edcf" stroke="black" stroke-width="0" d="M212.8,-266.62C212.8,-266.62 121.3,-266.62 121.3,-266.62 115.3,-266.62 109.3,-260.62 109.3,-254.62 109.3,-254.62 109.3,-232.58 109.3,-232.58 109.3,-226.58 115.3,-220.58 121.3,-220.58 121.3,-220.58 212.8,-220.58 212.8,-220.58 218.8,-220.58 224.8,-226.58 224.8,-232.58 224.8,-232.58 224.8,-254.62 224.8,-254.62 224.8,-260.62 218.8,-266.62 212.8,-266.62"/>
<text xml:space="preserve" text-anchor="start" x="156.17" y="-243.75" font-family="Helvetica,sans-Serif" font-weight="bold" font-size="13.00">run</text>
<text xml:space="preserve" text-anchor="start" x="127.3" y="-233.6" font-family="Helvetica,sans-Serif" font-size="10.00" fill="#8a7a40">instrumented SUT</text>
</g>
<!-- pick&#45;&gt;run -->
<g id="edge3" class="edge">
<title>pick&#45;&gt;run</title>
<path fill="none" stroke="#8a95a1" stroke-width="1.7" d="M91.02,-317.43C105.15,-303.89 122.16,-287.6 136.5,-273.86"/>
<polygon fill="#8a95a1" stroke="#8a95a1" stroke-width="1.7" points="138.22,-276.33 142.3,-268.31 134.1,-272.04 138.22,-276.33"/>
</g>
<!-- run&#45;&gt;cov -->
<g id="edge4" class="edge">
<title>run&#45;&gt;cov</title>
<path fill="none" stroke="#8a95a1" stroke-width="1.7" stroke-dasharray="5,2" d="M168.53,-220.69C169.46,-207.07 170.66,-189.25 171.71,-173.76"/>
<polygon fill="#8a95a1" stroke="#8a95a1" stroke-width="1.7" points="174.66,-174.23 172.27,-165.55 168.73,-173.83 174.66,-174.23"/>
<text xml:space="preserve" text-anchor="middle" x="192.88" y="-187.6" font-family="Helvetica,sans-Serif" font-size="10.50" fill="#566069">coverage</text>
</g>
</g>
</svg>
