<?xml version="1.0" encoding="UTF-8" standalone="no"?>
<!DOCTYPE svg PUBLIC "-//W3C//DTD SVG 1.1//EN"
 "http://www.w3.org/Graphics/SVG/1.1/DTD/svg11.dtd">
<!-- Generated by graphviz version 15.0.0 (20260523.1842)
 -->
<!-- Title: pool Pages: 1 -->
<svg width="241pt" height="519pt"
 viewBox="0.00 0.00 241.00 519.00" xmlns="http://www.w3.org/2000/svg" xmlns:xlink="http://www.w3.org/1999/xlink">
<g id="graph0" class="graph" transform="scale(1 1) rotate(0) translate(4 515.02)">
<title>pool</title>
<polygon fill="white" stroke="none" points="-4,4 -4,-515.02 236.92,-515.02 236.92,4 -4,4"/>
<text xml:space="preserve" text-anchor="start" x="45.21" y="-489.02" font-family="Helvetica,sans-Serif" font-weight="bold" font-size="20.00">pool</text>
<text xml:space="preserve" text-anchor="start" x="86.46" y="-489.02" font-family="Helvetica,sans-Serif" font-size="20.00"> &#160;+ &#160;random</text>
<!-- rand -->
<g id="node1" class="node">
<title>rand</title>
<path fill="#e4ecf5" stroke="black" stroke-width="0" d="M109.67,-482.02C109.67,-482.02 14.42,-482.02 14.42,-482.02 8.42,-482.02 2.42,-476.02 2.42,-470.02 2.42,-470.02 2.42,-447.98 2.42,-447.98 2.42,-441.98 8.42,-435.98 14.42,-435.98 14.42,-435.98 109.67,-435.98 109.67,-435.98 115.67,-435.98 121.67,-441.98 121.67,-447.98 121.67,-447.98 121.67,-470.02 121.67,-470.02 121.67,-476.02 115.67,-482.02 109.67,-482.02"/>
<text xml:space="preserve" text-anchor="start" x="39.55" y="-459.15" font-family="Helvetica,sans-Serif" font-size="13.00">random</text>
<text xml:space="preserve" text-anchor="start" x="20.42" y="-449" font-family="Helvetica,sans-Serif" font-size="10.00" fill="#5b6b7b">a fresh typed value</text>
</g>
<!-- pick -->
<g id="node4" class="node">
<title>pick</title>
<ellipse fill="#eef1f4" stroke="black" stroke-width="0" cx="62.05" cy="-346.18" rx="62.05" ry="32.56"/>
<text xml:space="preserve" text-anchor="start" x="48.55" y="-346.33" font-family="Helvetica,sans-Serif" font-weight="bold" font-size="13.00">pick</text>
<text xml:space="preserve" text-anchor="start" x="36.17" y="-336.18" font-family="Helvetica,sans-Serif" font-size="10.00" fill="#5b6b7b">the strategy</text>
</g>
<!-- rand&#45;&gt;pick -->
<g id="edge1" class="edge">
<title>rand&#45;&gt;pick</title>
<path fill="none" stroke="#8a95a1" stroke-width="1.7" d="M62.05,-436.1C62.05,-422.78 62.05,-405.31 62.05,-389.39"/>
<polygon fill="#8a95a1" stroke="#8a95a1" stroke-width="1.7" points="65.02,-389.75 62.05,-381.25 59.07,-389.75 65.02,-389.75"/>
<text xml:space="preserve" text-anchor="middle" x="89.42" y="-403.01" font-family="Helvetica,sans-Serif" font-size="10.50" fill="#566069">typed value</text>
</g>
<!-- pool -->
<g id="node2" class="node">
<title>pool</title>
<path fill="#c9e8dd" stroke="black" stroke-width="0" d="M118.8,-56.04C118.8,-56.04 27.3,-56.04 27.3,-56.04 21.3,-56.04 15.3,-50.04 15.3,-44.04 15.3,-44.04 15.3,-12 15.3,-12 15.3,-6 21.3,0 27.3,0 27.3,0 118.8,0 118.8,0 124.8,0 130.8,-6 130.8,-12 130.8,-12 130.8,-44.04 130.8,-44.04 130.8,-50.04 124.8,-56.04 118.8,-56.04"/>
<text xml:space="preserve" text-anchor="start" x="58.8" y="-33.17" font-family="Helvetica,sans-Serif" font-weight="bold" font-size="13.00">pool</text>
<text xml:space="preserve" text-anchor="start" x="33.3" y="-23.02" font-family="Helvetica,sans-Serif" font-size="10.00" fill="#2f7a68">every literal mined</text>
<text xml:space="preserve" text-anchor="start" x="37.42" y="-13.02" font-family="Helvetica,sans-Serif" font-size="10.00" fill="#2f7a68">from the method</text>
</g>
<!-- pool&#45;&gt;pick -->
<g id="edge2" class="edge">
<title>pool&#45;&gt;pick</title>
<path fill="none" stroke="#8a95a1" stroke-width="1.7" d="M72.12,-55.83C70.2,-110.82 65.82,-236.74 63.52,-302.86"/>
<polygon fill="#8a95a1" stroke="#8a95a1" stroke-width="1.7" points="60.56,-302.54 63.23,-311.13 66.5,-302.74 60.56,-302.54"/>
<text xml:space="preserve" text-anchor="middle" x="94.92" y="-187.6" font-family="Helvetica,sans-Serif" font-size="10.50" fill="#566069">typed value</text>
</g>
<!-- cov -->
<g id="node3" class="node">
<title>cov</title>
<path fill="#c9e8dd" stroke="black" stroke-width="0" d="M220.92,-163.33C220.92,-163.33 115.17,-163.33 115.17,-163.33 109.17,-163.33 103.17,-157.33 103.17,-151.33 103.17,-151.33 103.17,-125.29 103.17,-125.29 103.17,-119.29 109.17,-113.29 115.17,-113.29 115.17,-113.29 220.92,-113.29 220.92,-113.29 226.92,-113.29 232.92,-119.29 232.92,-125.29 232.92,-125.29 232.92,-151.33 232.92,-151.33 232.92,-157.33 226.92,-163.33 220.92,-163.33"/>
<text xml:space="preserve" text-anchor="start" x="134.67" y="-141.31" font-family="Helvetica,sans-Serif" font-size="13.00">any branch</text>
<text xml:space="preserve" text-anchor="start" x="121.17" y="-127.81" font-family="Helvetica,sans-Serif" font-size="13.00">still uncovered?</text>
</g>
<!-- cov&#45;&gt;pool -->
<g id="edge5" class="edge">
<title>cov&#45;&gt;pool</title>
<path fill="none" stroke="#3a9c83" stroke-width="1.7" stroke-dasharray="5,2" d="M147.2,-113.55C134.46,-99.02 117.93,-80.18 103.71,-63.97"/>
<polygon fill="#3a9c83" stroke="#3a9c83" stroke-width="1.7" points="106.06,-62.14 98.22,-57.71 101.59,-66.06 106.06,-62.14"/>
<text xml:space="preserve" text-anchor="middle" x="158.86" y="-80.31" font-family="Helvetica,sans-Serif" font-size="10.50" fill="#2f7a68">keep injecting</text>
</g>
<!-- run -->
<g id="node5" class="node">
<title>run</title>
<path fill="#f6edcf" stroke="black" stroke-width="0" d="M209.8,-266.62C209.8,-266.62 118.3,-266.62 118.3,-266.62 112.3,-266.62 106.3,-260.62 106.3,-254.62 106.3,-254.62 106.3,-232.58 106.3,-232.58 106.3,-226.58 112.3,-220.58 118.3,-220.58 118.3,-220.58 209.8,-220.58 209.8,-220.58 215.8,-220.58 221.8,-226.58 221.8,-232.58 221.8,-232.58 221.8,-254.62 221.8,-254.62 221.8,-260.62 215.8,-266.62 209.8,-266.62"/>
<text xml:space="preserve" text-anchor="start" x="153.17" y="-243.75" font-family="Helvetica,sans-Serif" font-weight="bold" font-size="13.00">run</text>
<text xml:space="preserve" text-anchor="start" x="124.3" y="-233.6" font-family="Helvetica,sans-Serif" font-size="10.00" fill="#8a7a40">instrumented SUT</text>
</g>
<!-- pick&#45;&gt;run -->
<g id="edge3" class="edge">
<title>pick&#45;&gt;run</title>
<path fill="none" stroke="#8a95a1" stroke-width="1.7" d="M90.19,-317.43C103.8,-304.01 120.14,-287.9 133.99,-274.24"/>
<polygon fill="#8a95a1" stroke="#8a95a1" stroke-width="1.7" points="136.02,-276.42 139.98,-268.33 131.84,-272.18 136.02,-276.42"/>
</g>
<!-- run&#45;&gt;cov -->
<g id="edge4" class="edge">
<title>run&#45;&gt;cov</title>
<path fill="none" stroke="#8a95a1" stroke-width="1.7" stroke-dasharray="5,2" d="M164.9,-220.69C165.42,-207.07 166.11,-189.25 166.71,-173.76"/>
<polygon fill="#8a95a1" stroke="#8a95a1" stroke-width="1.7" points="169.68,-174.16 167.03,-165.55 163.73,-173.93 169.68,-174.16"/>
<text xml:space="preserve" text-anchor="middle" x="188.29" y="-187.6" font-family="Helvetica,sans-Serif" font-size="10.50" fill="#566069">coverage</text>
</g>
</g>
</svg>
