<?xml version="1.0" encoding="UTF-8" standalone="no"?>
<!DOCTYPE svg PUBLIC "-//W3C//DTD SVG 1.1//EN"
 "http://www.w3.org/Graphics/SVG/1.1/DTD/svg11.dtd">
<!-- Generated by graphviz version 15.0.0 (20260523.1842)
 -->
<!-- Title: pool Pages: 1 -->
<svg width="235pt" height="519pt"
 viewBox="0.00 0.00 235.00 519.00" xmlns="http://www.w3.org/2000/svg" xmlns:xlink="http://www.w3.org/1999/xlink">
<g id="graph0" class="graph" transform="scale(1 1) rotate(0) translate(4 515.02)">
<title>pool</title>
<polygon fill="white" stroke="none" points="-4,4 -4,-515.02 230.55,-515.02 230.55,4 -4,4"/>
<text xml:space="preserve" text-anchor="start" x="42.02" y="-489.02" font-family="Helvetica,sans-Serif" font-weight="bold" font-size="20.00">pool</text>
<text xml:space="preserve" text-anchor="start" x="83.27" y="-489.02" font-family="Helvetica,sans-Serif" font-size="20.00"> &#160;+ &#160;random</text>
<!-- rand -->
<g id="node1" class="node">
<title>rand</title>
<path fill="#e4ecf5" stroke="black" stroke-width="0" d="M109.67,-482.02C109.67,-482.02 14.42,-482.02 14.42,-482.02 8.42,-482.02 2.42,-476.02 2.42,-470.02 2.42,-470.02 2.42,-447.98 2.42,-447.98 2.42,-441.98 8.42,-435.98 14.42,-435.98 14.42,-435.98 109.67,-435.98 109.67,-435.98 115.67,-435.98 121.67,-441.98 121.67,-447.98 121.67,-447.98 121.67,-470.02 121.67,-470.02 121.67,-476.02 115.67,-482.02 109.67,-482.02"/>
<text xml:space="preserve" text-anchor="start" x="39.55" y="-459.15" font-family="Helvetica,sans-Serif" font-size="13.00">random</text>
<text xml:space="preserve" text-anchor="start" x="20.42" y="-449" font-family="Helvetica,sans-Serif" font-size="10.00" fill="#5b6b7b">a fresh typed value</text>
</g>
<!-- pick -->
<g id="node4" class="node">
<title>pick</title>
<ellipse fill="#eef1f4" stroke="black" stroke-width="0" cx="62.05" cy="-346.18" rx="62.05" ry="32.56"/>
<text xml:space="preserve" text-anchor="start" x="48.55" y="-346.33" font-family="Helvetica,sans-Serif" font-weight="bold" font-size="13.00">pick</text>
<text xml:space="preserve" text-anchor="start" x="36.17" y="-336.18" font-family="Helvetica,sans-Serif" font-size="10.00" fill="#5b6b7b">the strategy</text>
</g>
<!-- rand&#45;&gt;pick -->
<g id="edge1" class="edge">
<title>rand&#45;&gt;pick</title>
<path fill="none" stroke="#8a95a1" stroke-width="1.7" d="M62.05,-436.1C62.05,-422.78 62.05,-405.31 62.05,-389.39"/>
<polygon fill="#8a95a1" stroke="#8a95a1" stroke-width="1.7" points="65.02,-389.75 62.05,-381.25 59.07,-389.75 65.02,-389.75"/>
<text xml:space="preserve" text-anchor="middle" x="89.42" y="-403.01" font-family="Helvetica,sans-Serif" font-size="10.50" fill="#566069">typed value</text>
</g>
<!-- pool -->
<g id="node2" class="node">
<title>pool</title>
<path fill="#c9e8dd" stroke="black" stroke-width="0" d="M117.3,-56.04C117.3,-56.04 28.8,-56.04 28.8,-56.04 22.8,-56.04 16.8,-50.04 16.8,-44.04 16.8,-44.04 16.8,-12 16.8,-12 16.8,-6 22.8,0 28.8,0 28.8,0 117.3,0 117.3,0 123.3,0 129.3,-6 129.3,-12 129.3,-12 129.3,-44.04 129.3,-44.04 129.3,-50.04 123.3,-56.04 117.3,-56.04"/>
<text xml:space="preserve" text-anchor="start" x="58.8" y="-33.17" font-family="Helvetica,sans-Serif" font-weight="bold" font-size="13.00">pool</text>
<text xml:space="preserve" text-anchor="start" x="39.3" y="-23.02" font-family="Helvetica,sans-Serif" font-size="10.00" fill="#2f7a68">literals from the</text>
<text xml:space="preserve" text-anchor="start" x="34.8" y="-13.02" font-family="Helvetica,sans-Serif" font-size="10.00" fill="#2f7a68">branch conditions</text>
</g>
<!-- pool&#45;&gt;pick -->
<g id="edge2" class="edge">
<title>pool&#45;&gt;pick</title>
<path fill="none" stroke="#8a95a1" stroke-width="1.7" d="M72.12,-55.83C70.2,-110.82 65.82,-236.74 63.52,-302.86"/>
<polygon fill="#8a95a1" stroke="#8a95a1" stroke-width="1.7" points="60.56,-302.54 63.23,-311.13 66.5,-302.74 60.56,-302.54"/>
<text xml:space="preserve" text-anchor="middle" x="94.92" y="-187.6" font-family="Helvetica,sans-Serif" font-size="10.50" fill="#566069">typed value</text>
</g>
<!-- cov -->
<g id="node3" class="node">
<title>cov</title>
<path fill="#c9e8dd" stroke="black" stroke-width="0" d="M214.55,-163.33C214.55,-163.33 115.55,-163.33 115.55,-163.33 109.55,-163.33 103.55,-157.33 103.55,-151.33 103.55,-151.33 103.55,-125.29 103.55,-125.29 103.55,-119.29 109.55,-113.29 115.55,-113.29 115.55,-113.29 214.55,-113.29 214.55,-113.29 220.55,-113.29 226.55,-119.29 226.55,-125.29 226.55,-125.29 226.55,-151.33 226.55,-151.33 226.55,-157.33 220.55,-163.33 214.55,-163.33"/>
<text xml:space="preserve" text-anchor="start" x="121.55" y="-141.31" font-family="Helvetica,sans-Serif" font-size="13.00">still&#45;uncovered</text>
<text xml:space="preserve" text-anchor="start" x="137.3" y="-127.81" font-family="Helvetica,sans-Serif" font-size="13.00">branches</text>
</g>
<!-- cov&#45;&gt;pool -->
<g id="edge5" class="edge">
<title>cov&#45;&gt;pool</title>
<path fill="none" stroke="#3a9c83" stroke-width="1.7" stroke-dasharray="5,2" d="M144.86,-113.55C132.52,-99.02 116.51,-80.18 102.74,-63.97"/>
<polygon fill="#3a9c83" stroke="#3a9c83" stroke-width="1.7" points="105.21,-62.29 97.44,-57.74 100.68,-66.14 105.21,-62.29"/>
<text xml:space="preserve" text-anchor="middle" x="165.81" y="-80.31" font-family="Helvetica,sans-Serif" font-size="10.50" fill="#2f7a68">inject their literals</text>
</g>
<!-- run -->
<g id="node5" class="node">
<title>run</title>
<path fill="#f6edcf" stroke="black" stroke-width="0" d="M208.8,-266.62C208.8,-266.62 117.3,-266.62 117.3,-266.62 111.3,-266.62 105.3,-260.62 105.3,-254.62 105.3,-254.62 105.3,-232.58 105.3,-232.58 105.3,-226.58 111.3,-220.58 117.3,-220.58 117.3,-220.58 208.8,-220.58 208.8,-220.58 214.8,-220.58 220.8,-226.58 220.8,-232.58 220.8,-232.58 220.8,-254.62 220.8,-254.62 220.8,-260.62 214.8,-266.62 208.8,-266.62"/>
<text xml:space="preserve" text-anchor="start" x="152.17" y="-243.75" font-family="Helvetica,sans-Serif" font-weight="bold" font-size="13.00">run</text>
<text xml:space="preserve" text-anchor="start" x="123.3" y="-233.6" font-family="Helvetica,sans-Serif" font-size="10.00" fill="#8a7a40">instrumented SUT</text>
</g>
<!-- pick&#45;&gt;run -->
<g id="edge3" class="edge">
<title>pick&#45;&gt;run</title>
<path fill="none" stroke="#8a95a1" stroke-width="1.7" d="M90.18,-317.16C103.65,-303.75 119.78,-287.69 133.43,-274.09"/>
<polygon fill="#8a95a1" stroke="#8a95a1" stroke-width="1.7" points="135.4,-276.33 139.32,-268.23 131.2,-272.12 135.4,-276.33"/>
</g>
<!-- run&#45;&gt;cov -->
<g id="edge4" class="edge">
<title>run&#45;&gt;cov</title>
<path fill="none" stroke="#8a95a1" stroke-width="1.7" stroke-dasharray="5,2" d="M163.47,-220.69C163.74,-207.07 164.08,-189.25 164.38,-173.76"/>
<polygon fill="#8a95a1" stroke="#8a95a1" stroke-width="1.7" points="167.35,-174.11 164.54,-165.56 161.4,-174 167.35,-174.11"/>
<text xml:space="preserve" text-anchor="middle" x="186.23" y="-187.6" font-family="Helvetica,sans-Serif" font-size="10.50" fill="#566069">coverage</text>
</g>
</g>
</svg>
