<?xml version="1.0" encoding="UTF-8" standalone="no"?>
<!DOCTYPE svg PUBLIC "-//W3C//DTD SVG 1.1//EN"
 "http://www.w3.org/Graphics/SVG/1.1/DTD/svg11.dtd">
<!-- Generated by graphviz version 15.0.0 (20260523.1842)
 -->
<!-- Title: pool Pages: 1 -->
<svg width="423pt" height="412pt"
 viewBox="0.00 0.00 423.00 412.00" xmlns="http://www.w3.org/2000/svg" xmlns:xlink="http://www.w3.org/1999/xlink">
<g id="graph0" class="graph" transform="scale(1 1) rotate(0) translate(4 407.6)">
<title>pool</title>
<polygon fill="white" stroke="none" points="-4,4 -4,-407.6 419.25,-407.6 419.25,4 -4,4"/>
<text xml:space="preserve" text-anchor="start" x="134.12" y="-381.6" font-family="Helvetica,sans-Serif" font-weight="bold" font-size="20.00">random &#160;+ &#160;pool</text>
<g id="clust1" class="cluster">
<title>cluster_instr</title>
<polygon fill="#e6e9ed" stroke="#9aa5b1" stroke-width="1.4" points="90,-81 90,-153 220,-153 220,-81 90,-81"/>
<text xml:space="preserve" text-anchor="middle" x="155" y="-86.55" font-family="Helvetica,sans-Serif" font-size="11.00">instrumentation</text>
</g>
<!-- rng -->
<g id="node1" class="node">
<title>rng</title>
<ellipse fill="#f0f2f4" stroke="#222222" stroke-width="1.8" cx="38" cy="-345.8" rx="28.8" ry="28.8"/>
<text xml:space="preserve" text-anchor="middle" x="38" y="-340.2" font-family="Helvetica,sans-Serif" font-size="13.00">RNG</text>
</g>
<!-- gen -->
<g id="node2" class="node">
<title>gen</title>
<polygon fill="white" stroke="#222222" stroke-width="1.8" points="76,-255 0,-255 0,-219 76,-219 76,-255"/>
<text xml:space="preserve" text-anchor="middle" x="38" y="-231.4" font-family="Helvetica,sans-Serif" font-size="13.00">Generator</text>
</g>
<!-- rng&#45;&gt;gen -->
<g id="edge1" class="edge">
<title>rng&#45;&gt;gen</title>
<path fill="none" stroke="#3b6fb5" stroke-width="3" d="M38,-316.18C38,-301.87 38,-284.51 38,-269.79"/>
<polygon fill="#3b6fb5" stroke="#3b6fb5" stroke-width="3" points="41.5,-270.18 38,-260.18 34.5,-270.18 41.5,-270.18"/>
<text xml:space="preserve" text-anchor="middle" x="68.75" y="-281.07" font-family="Helvetica,sans-Serif" font-size="11.50" fill="#111111">random bits</text>
</g>
<!-- sut -->
<g id="node6" class="node">
<title>sut</title>
<polygon fill="white" stroke="#222222" stroke-width="1.8" points="212.12,-145 97.88,-145 97.88,-109 212.12,-109 212.12,-145"/>
<text xml:space="preserve" text-anchor="start" x="105.88" y="-123.25" font-family="Helvetica,sans-Serif" font-size="13.00">SUT &#160;+ &#160;property</text>
</g>
<!-- gen&#45;&gt;sut -->
<g id="edge2" class="edge">
<title>gen&#45;&gt;sut</title>
<path fill="none" stroke="#3b6fb5" stroke-width="3" d="M46.04,-218.31C54.93,-198.76 68,-170 68,-170 68,-170 85.76,-161.43 105.23,-152.03"/>
<polygon fill="#3b6fb5" stroke="#3b6fb5" stroke-width="3" points="106.53,-155.29 114.02,-147.79 103.49,-148.98 106.53,-155.29"/>
<text xml:space="preserve" text-anchor="middle" x="104" y="-177.07" font-family="Helvetica,sans-Serif" font-size="11.50" fill="#111111">random value</text>
</g>
<!-- litpool -->
<g id="node3" class="node">
<title>litpool</title>
<path fill="#dcefe9" stroke="#222222" stroke-width="1.8" d="M313.75,-363.24C313.75,-365.38 288.31,-367.11 257,-367.11 225.69,-367.11 200.25,-365.38 200.25,-363.24 200.25,-363.24 200.25,-328.36 200.25,-328.36 200.25,-326.22 225.69,-324.49 257,-324.49 288.31,-324.49 313.75,-326.22 313.75,-328.36 313.75,-328.36 313.75,-363.24 313.75,-363.24"/>
<path fill="none" stroke="#222222" stroke-width="1.8" d="M313.75,-363.24C313.75,-361.1 288.31,-359.36 257,-359.36 225.69,-359.36 200.25,-361.1 200.25,-363.24"/>
<text xml:space="preserve" text-anchor="start" x="235.25" y="-345.95" font-family="Helvetica,sans-Serif" font-size="13.00">Literals</text>
<text xml:space="preserve" text-anchor="start" x="208.25" y="-335.8" font-family="Helvetica,sans-Serif" font-size="10.00">mined from the guards</text>
</g>
<!-- target -->
<g id="node4" class="node">
<title>target</title>
<polygon fill="#dcefe9" stroke="#222222" stroke-width="1.8" points="329.88,-255 184.12,-255 184.12,-219 329.88,-219 329.88,-255"/>
<text xml:space="preserve" text-anchor="start" x="218.75" y="-240" font-family="Helvetica,sans-Serif" font-size="13.00">literals of the</text>
<text xml:space="preserve" text-anchor="start" x="192.12" y="-226.5" font-family="Helvetica,sans-Serif" font-size="13.00">still&#45;uncovered leaves</text>
</g>
<!-- litpool&#45;&gt;target -->
<g id="edge3" class="edge">
<title>litpool&#45;&gt;target</title>
<path fill="none" stroke="#3b6fb5" stroke-width="3" d="M257,-323.7C257,-308.45 257,-287.57 257,-270.24"/>
<polygon fill="#3b6fb5" stroke="#3b6fb5" stroke-width="3" points="260.5,-270.41 257,-260.41 253.5,-270.41 260.5,-270.41"/>
<text xml:space="preserve" text-anchor="middle" x="291.12" y="-281.07" font-family="Helvetica,sans-Serif" font-size="11.50" fill="#111111">mined literals</text>
</g>
<!-- target&#45;&gt;sut -->
<g id="edge4" class="edge">
<title>target&#45;&gt;sut</title>
<path fill="none" stroke="#3b6fb5" stroke-width="3" d="M211.52,-218.19C182.29,-206.74 149.75,-194 149.75,-194 149.75,-194 149.75,-170 149.75,-170 149.75,-170 150.29,-165.68 151.02,-159.81"/>
<polygon fill="#3b6fb5" stroke="#3b6fb5" stroke-width="3" points="154.47,-160.43 152.24,-150.07 147.53,-159.56 154.47,-160.43"/>
<text xml:space="preserve" text-anchor="middle" x="212.38" y="-177.07" font-family="Helvetica,sans-Serif" font-size="11.50" fill="#111111">splice in a needed literal</text>
</g>
<!-- report -->
<g id="node5" class="node">
<title>report</title>
<polygon fill="white" stroke="#222222" stroke-width="1.8" points="203.12,-36 106.88,-36 106.88,0 203.12,0 203.12,-36"/>
<text xml:space="preserve" text-anchor="middle" x="155" y="-12.4" font-family="Helvetica,sans-Serif" font-size="13.00">report to user</text>
</g>
<!-- sut&#45;&gt;target -->
<g id="edge6" class="edge">
<title>sut&#45;&gt;target</title>
<path fill="none" stroke="#6b7785" stroke-width="3" d="M208.44,-145.81C242.78,-157.26 281,-170 281,-170 281,-170 281,-194 281,-194 281,-194 278.04,-199.17 274.2,-205.89"/>
<polygon fill="#6b7785" stroke="#6b7785" stroke-width="3" points="271.21,-204.07 269.29,-214.49 277.29,-207.54 271.21,-204.07"/>
<text xml:space="preserve" text-anchor="middle" x="348.12" y="-183.07" font-family="Helvetica,sans-Serif" font-size="11.50" fill="#444444">coverage — which leaves</text>
<text xml:space="preserve" text-anchor="middle" x="348.12" y="-171.07" font-family="Helvetica,sans-Serif" font-size="11.50" fill="#444444">are still uncovered</text>
</g>
<!-- sut&#45;&gt;report -->
<g id="edge5" class="edge">
<title>sut&#45;&gt;report</title>
<path fill="none" stroke="#3b6fb5" stroke-width="3" d="M155,-108.33C155,-92.84 155,-69.94 155,-51.2"/>
<polygon fill="#3b6fb5" stroke="#3b6fb5" stroke-width="3" points="158.5,-51.24 155,-41.24 151.5,-51.24 158.5,-51.24"/>
<text xml:space="preserve" text-anchor="middle" x="162.12" y="-62.08" font-family="Helvetica,sans-Serif" font-size="11.50" fill="#111111">fail</text>
</g>
</g>
</svg>
