<?xml version="1.0" encoding="utf-8" standalone="no"?>
<!DOCTYPE svg PUBLIC "-//W3C//DTD SVG 1.1//EN"
  "http://www.w3.org/Graphics/SVG/1.1/DTD/svg11.dtd">
<svg xmlns:xlink="http://www.w3.org/1999/xlink" width="1178.64pt" height="791.770997pt" viewBox="0 0 1178.64 791.770997" xmlns="http://www.w3.org/2000/svg" version="1.1">
 <metadata>
  <rdf:RDF xmlns:dc="http://purl.org/dc/elements/1.1/" xmlns:cc="http://creativecommons.org/ns#" xmlns:rdf="http://www.w3.org/1999/02/22-rdf-syntax-ns#">
   <cc:Work>
    <dc:type rdf:resource="http://purl.org/dc/dcmitype/StillImage"/>
    <dc:date>2026-05-25T13:23:41.049086</dc:date>
    <dc:format>image/svg+xml</dc:format>
    <dc:creator>
     <cc:Agent>
      <dc:title>Matplotlib v3.10.7, https://matplotlib.org/</dc:title>
     </cc:Agent>
    </dc:creator>
   </cc:Work>
  </rdf:RDF>
 </metadata>
 <defs>
  <style type="text/css">*{stroke-linejoin: round; stroke-linecap: butt}</style>
 </defs>
 <g id="figure_1">
  <g id="patch_1">
   <path d="M 0 791.770997 
L 1178.64 791.770997 
L 1178.64 0 
L 0 0 
z
" style="fill: #ffffff"/>
  </g>
  <g id="axes_1">
   <g id="patch_2">
    <path d="M 52.6608 129.168 
L 205.6752 129.168 
Q 217.872 129.168 217.872 116.9712 
L 217.872 74.8368 
Q 217.872 62.64 205.6752 62.64 
L 52.6608 62.64 
Q 40.464 62.64 40.464 74.8368 
L 40.464 116.9712 
Q 40.464 129.168 52.6608 129.168 
z
" clip-path="url(#p48e6118b4c)" style="fill: #bbdefb; stroke: #37474f; stroke-width: 1.6; stroke-linejoin: miter"/>
   </g>
   <g id="patch_3">
    <path d="M 257.7888 129.168 
L 410.8032 129.168 
Q 423 129.168 423 116.9712 
L 423 74.8368 
Q 423 62.64 410.8032 62.64 
L 257.7888 62.64 
Q 245.592 62.64 245.592 74.8368 
L 245.592 116.9712 
Q 245.592 129.168 257.7888 129.168 
z
" clip-path="url(#p48e6118b4c)" style="fill: #c8e6c9; stroke: #37474f; stroke-width: 1.6; stroke-linejoin: miter"/>
   </g>
   <g id="patch_4">
    <path d="M 462.9168 129.168 
L 615.9312 129.168 
Q 628.128 129.168 628.128 116.9712 
L 628.128 74.8368 
Q 628.128 62.64 615.9312 62.64 
L 462.9168 62.64 
Q 450.72 62.64 450.72 74.8368 
L 450.72 116.9712 
Q 450.72 129.168 462.9168 129.168 
z
" clip-path="url(#p48e6118b4c)" style="fill: #fff59d; stroke: #37474f; stroke-width: 1.6; stroke-linejoin: miter"/>
   </g>
   <g id="patch_5">
    <path d="M 668.0448 129.168 
L 821.0592 129.168 
Q 833.256 129.168 833.256 116.9712 
L 833.256 74.8368 
Q 833.256 62.64 821.0592 62.64 
L 668.0448 62.64 
Q 655.848 62.64 655.848 74.8368 
L 655.848 116.9712 
Q 655.848 129.168 668.0448 129.168 
z
" clip-path="url(#p48e6118b4c)" style="fill: #fff59d; stroke: #37474f; stroke-width: 1.6; stroke-linejoin: miter"/>
   </g>
   <g id="patch_6">
    <path d="M 873.1728 129.168 
L 1026.1872 129.168 
Q 1038.384 129.168 1038.384 116.9712 
L 1038.384 74.8368 
Q 1038.384 62.64 1026.1872 62.64 
L 873.1728 62.64 
Q 860.976 62.64 860.976 74.8368 
L 860.976 116.9712 
Q 860.976 129.168 873.1728 129.168 
z
" clip-path="url(#p48e6118b4c)" style="fill: #fff59d; stroke: #37474f; stroke-width: 1.6; stroke-linejoin: miter"/>
   </g>
   <g id="patch_7">
    <path d="M 133.940834 162.432 
Q 231.732985 162.432 327.902637 162.432 
" clip-path="url(#p48e6118b4c)" style="fill: none; stroke: #37474f; stroke-width: 1.8; stroke-linecap: round"/>
    <path d="M 319.502637 156.832 
L 327.902637 162.432 
L 319.502637 168.032 
" clip-path="url(#p48e6118b4c)" style="fill: none; stroke: #37474f; stroke-width: 1.8; stroke-linecap: round"/>
   </g>
   <g id="patch_8">
    <path d="M 339.068834 212.328 
Q 436.860985 212.328 533.030637 212.328 
" clip-path="url(#p48e6118b4c)" style="fill: none; stroke: #37474f; stroke-width: 1.8; stroke-linecap: round"/>
    <path d="M 524.630637 206.728 
L 533.030637 212.328 
L 524.630637 217.928 
" clip-path="url(#p48e6118b4c)" style="fill: none; stroke: #37474f; stroke-width: 1.8; stroke-linecap: round"/>
   </g>
   <g id="patch_9">
    <path d="M 240.048 500.616 
L 1043.928 500.616 
Q 1055.016 500.616 1055.016 489.528 
L 1055.016 256.68 
Q 1055.016 245.592 1043.928 245.592 
L 240.048 245.592 
Q 228.96 245.592 228.96 256.68 
L 228.96 489.528 
Q 228.96 500.616 240.048 500.616 
z
" clip-path="url(#p48e6118b4c)" style="fill: #fffaec; stroke-dasharray: 5.18,2.24; stroke-dashoffset: 0; stroke: #78909c; stroke-width: 1.4; stroke-linejoin: miter"/>
   </g>
   <g id="patch_10">
    <path d="M 339.068834 392.508 
Q 436.860985 392.508 533.030637 392.508 
" clip-path="url(#p48e6118b4c)" style="fill: none; stroke: #37474f; stroke-width: 1.8; stroke-linecap: round"/>
    <path d="M 524.630637 386.908 
L 533.030637 392.508 
L 524.630637 398.108 
" clip-path="url(#p48e6118b4c)" style="fill: none; stroke: #37474f; stroke-width: 1.8; stroke-linecap: round"/>
   </g>
   <g id="patch_11">
    <path d="M 534.651166 434.088 
Q 436.859015 434.088 340.328808 434.088 
" clip-path="url(#p48e6118b4c)" style="fill: none; stroke: #6b6b6b; stroke-width: 1.4; stroke-linecap: round"/>
    <path d="M 348.728808 439.688 
L 340.328808 434.088 
L 348.728808 428.488 
" clip-path="url(#p48e6118b4c)" style="fill: none; stroke: #6b6b6b; stroke-width: 1.4; stroke-linecap: round"/>
   </g>
   <g id="patch_12">
    <path d="M 339.065747 556.056 
Q 539.422786 556.056 738.157327 556.056 
" clip-path="url(#p48e6118b4c)" style="fill: none; stroke: #37474f; stroke-width: 1.8; stroke-linecap: round"/>
    <path d="M 729.757327 550.456 
L 738.157327 556.056 
L 729.757327 561.656 
" clip-path="url(#p48e6118b4c)" style="fill: none; stroke: #37474f; stroke-width: 1.8; stroke-linecap: round"/>
   </g>
   <g id="patch_13">
    <path d="M 739.782253 603.18 
Q 539.425214 603.18 340.330118 603.18 
" clip-path="url(#p48e6118b4c)" style="fill: none; stroke: #6b6b6b; stroke-width: 1.4; stroke-linecap: round"/>
    <path d="M 348.730118 608.78 
L 340.330118 603.18 
L 348.730118 597.58 
" clip-path="url(#p48e6118b4c)" style="fill: none; stroke: #6b6b6b; stroke-width: 1.4; stroke-linecap: round"/>
   </g>
   <g id="patch_14">
    <path d="M 339.068834 650.304 
Q 436.860985 650.304 533.030637 650.304 
" clip-path="url(#p48e6118b4c)" style="fill: none; stroke: #37474f; stroke-width: 1.8; stroke-linecap: round"/>
    <path d="M 524.630637 644.704 
L 533.030637 650.304 
L 524.630637 655.904 
" clip-path="url(#p48e6118b4c)" style="fill: none; stroke: #37474f; stroke-width: 1.8; stroke-linecap: round"/>
   </g>
   <g id="patch_15">
    <path d="M 534.651166 697.428 
Q 436.859015 697.428 340.328808 697.428 
" clip-path="url(#p48e6118b4c)" style="fill: none; stroke: #6b6b6b; stroke-width: 1.4; stroke-linecap: round"/>
    <path d="M 348.728808 703.028 
L 340.328808 697.428 
L 348.728808 691.828 
" clip-path="url(#p48e6118b4c)" style="fill: none; stroke: #6b6b6b; stroke-width: 1.4; stroke-linecap: round"/>
   </g>
   <g id="patch_16">
    <path d="M 339.064013 744.552 
Q 641.986629 744.552 943.286747 744.552 
" clip-path="url(#p48e6118b4c)" style="fill: none; stroke: #37474f; stroke-width: 1.8; stroke-linecap: round"/>
    <path d="M 934.886747 738.952 
L 943.286747 744.552 
L 934.886747 750.152 
" clip-path="url(#p48e6118b4c)" style="fill: none; stroke: #37474f; stroke-width: 1.8; stroke-linecap: round"/>
   </g>
   <g id="patch_17">
    <path d="M 944.909005 791.676 
Q 539.42465 791.676 135.202237 791.676 
" clip-path="url(#p48e6118b4c)" style="fill: none; stroke: #6b6b6b; stroke-width: 1.4; stroke-linecap: round"/>
    <path d="M 136.844732 792.770997 
L 135.202237 791.676 
L 143.602237 786.076 
" clip-path="url(#p48e6118b4c)" style="fill: none; stroke: #6b6b6b; stroke-width: 1.4; stroke-linecap: round"/>
   </g>
   <g id="line2d_1">
    <path d="M 129.168 129.168 
L 129.168 755.64 
" clip-path="url(#p48e6118b4c)" style="fill: none; stroke-dasharray: 6,5; stroke-dashoffset: 0; stroke: #78909c"/>
   </g>
   <g id="line2d_2">
    <path d="M 334.296 129.168 
L 334.296 755.64 
" clip-path="url(#p48e6118b4c)" style="fill: none; stroke-dasharray: 6,5; stroke-dashoffset: 0; stroke: #78909c"/>
   </g>
   <g id="line2d_3">
    <path d="M 539.424 129.168 
L 539.424 755.64 
" clip-path="url(#p48e6118b4c)" style="fill: none; stroke-dasharray: 6,5; stroke-dashoffset: 0; stroke: #78909c"/>
   </g>
   <g id="line2d_4">
    <path d="M 744.552 129.168 
L 744.552 755.64 
" clip-path="url(#p48e6118b4c)" style="fill: none; stroke-dasharray: 6,5; stroke-dashoffset: 0; stroke: #78909c"/>
   </g>
   <g id="line2d_5">
    <path d="M 949.68 129.168 
L 949.68 755.64 
" clip-path="url(#p48e6118b4c)" style="fill: none; stroke-dasharray: 6,5; stroke-dashoffset: 0; stroke: #78909c"/>
   </g>
   <g id="text_1">
    <!-- Application -->
    <g transform="translate(87.708156 89.511987) scale(0.13 -0.13)">
     <defs>
      <path id="DejaVuSans-Bold-41" d="M 3419 850 
L 1538 850 
L 1241 0 
L 31 0 
L 1759 4666 
L 3194 4666 
L 4922 0 
L 3713 0 
L 3419 850 
z
M 1838 1716 
L 3116 1716 
L 2478 3572 
L 1838 1716 
z
" transform="scale(0.015625)"/>
      <path id="DejaVuSans-Bold-70" d="M 1656 506 
L 1656 -1331 
L 538 -1331 
L 538 3500 
L 1656 3500 
L 1656 2988 
Q 1888 3294 2169 3439 
Q 2450 3584 2816 3584 
Q 3463 3584 3878 3070 
Q 4294 2556 4294 1747 
Q 4294 938 3878 423 
Q 3463 -91 2816 -91 
Q 2450 -91 2169 54 
Q 1888 200 1656 506 
z
M 2400 2772 
Q 2041 2772 1848 2508 
Q 1656 2244 1656 1747 
Q 1656 1250 1848 986 
Q 2041 722 2400 722 
Q 2759 722 2948 984 
Q 3138 1247 3138 1747 
Q 3138 2247 2948 2509 
Q 2759 2772 2400 2772 
z
" transform="scale(0.015625)"/>
      <path id="DejaVuSans-Bold-6c" d="M 538 4863 
L 1656 4863 
L 1656 0 
L 538 0 
L 538 4863 
z
" transform="scale(0.015625)"/>
      <path id="DejaVuSans-Bold-69" d="M 538 3500 
L 1656 3500 
L 1656 0 
L 538 0 
L 538 3500 
z
M 538 4863 
L 1656 4863 
L 1656 3950 
L 538 3950 
L 538 4863 
z
" transform="scale(0.015625)"/>
      <path id="DejaVuSans-Bold-63" d="M 3366 3391 
L 3366 2478 
Q 3138 2634 2908 2709 
Q 2678 2784 2431 2784 
Q 1963 2784 1702 2511 
Q 1441 2238 1441 1747 
Q 1441 1256 1702 982 
Q 1963 709 2431 709 
Q 2694 709 2930 787 
Q 3166 866 3366 1019 
L 3366 103 
Q 3103 6 2833 -42 
Q 2563 -91 2291 -91 
Q 1344 -91 809 395 
Q 275 881 275 1747 
Q 275 2613 809 3098 
Q 1344 3584 2291 3584 
Q 2566 3584 2833 3536 
Q 3100 3488 3366 3391 
z
" transform="scale(0.015625)"/>
      <path id="DejaVuSans-Bold-61" d="M 2106 1575 
Q 1756 1575 1579 1456 
Q 1403 1338 1403 1106 
Q 1403 894 1545 773 
Q 1688 653 1941 653 
Q 2256 653 2472 879 
Q 2688 1106 2688 1447 
L 2688 1575 
L 2106 1575 
z
M 3816 1997 
L 3816 0 
L 2688 0 
L 2688 519 
Q 2463 200 2181 54 
Q 1900 -91 1497 -91 
Q 953 -91 614 226 
Q 275 544 275 1050 
Q 275 1666 698 1953 
Q 1122 2241 2028 2241 
L 2688 2241 
L 2688 2328 
Q 2688 2594 2478 2717 
Q 2269 2841 1825 2841 
Q 1466 2841 1156 2769 
Q 847 2697 581 2553 
L 581 3406 
Q 941 3494 1303 3539 
Q 1666 3584 2028 3584 
Q 2975 3584 3395 3211 
Q 3816 2838 3816 1997 
z
" transform="scale(0.015625)"/>
      <path id="DejaVuSans-Bold-74" d="M 1759 4494 
L 1759 3500 
L 2913 3500 
L 2913 2700 
L 1759 2700 
L 1759 1216 
Q 1759 972 1856 886 
Q 1953 800 2241 800 
L 2816 800 
L 2816 0 
L 1856 0 
Q 1194 0 917 276 
Q 641 553 641 1216 
L 641 2700 
L 84 2700 
L 84 3500 
L 641 3500 
L 641 4494 
L 1759 4494 
z
" transform="scale(0.015625)"/>
      <path id="DejaVuSans-Bold-6f" d="M 2203 2784 
Q 1831 2784 1636 2517 
Q 1441 2250 1441 1747 
Q 1441 1244 1636 976 
Q 1831 709 2203 709 
Q 2569 709 2762 976 
Q 2956 1244 2956 1747 
Q 2956 2250 2762 2517 
Q 2569 2784 2203 2784 
z
M 2203 3584 
Q 3106 3584 3614 3096 
Q 4122 2609 4122 1747 
Q 4122 884 3614 396 
Q 3106 -91 2203 -91 
Q 1297 -91 786 396 
Q 275 884 275 1747 
Q 275 2609 786 3096 
Q 1297 3584 2203 3584 
z
" transform="scale(0.015625)"/>
      <path id="DejaVuSans-Bold-6e" d="M 4056 2131 
L 4056 0 
L 2931 0 
L 2931 347 
L 2931 1631 
Q 2931 2084 2911 2256 
Q 2891 2428 2841 2509 
Q 2775 2619 2662 2680 
Q 2550 2741 2406 2741 
Q 2056 2741 1856 2470 
Q 1656 2200 1656 1722 
L 1656 0 
L 538 0 
L 538 3500 
L 1656 3500 
L 1656 2988 
Q 1909 3294 2193 3439 
Q 2478 3584 2822 3584 
Q 3428 3584 3742 3212 
Q 4056 2841 4056 2131 
z
" transform="scale(0.015625)"/>
     </defs>
     <use xlink:href="#DejaVuSans-Bold-41"/>
     <use xlink:href="#DejaVuSans-Bold-70" transform="translate(77.392578 0)"/>
     <use xlink:href="#DejaVuSans-Bold-70" transform="translate(148.974609 0)"/>
     <use xlink:href="#DejaVuSans-Bold-6c" transform="translate(220.556641 0)"/>
     <use xlink:href="#DejaVuSans-Bold-69" transform="translate(254.833984 0)"/>
     <use xlink:href="#DejaVuSans-Bold-63" transform="translate(289.111328 0)"/>
     <use xlink:href="#DejaVuSans-Bold-61" transform="translate(348.388672 0)"/>
     <use xlink:href="#DejaVuSans-Bold-74" transform="translate(415.869141 0)"/>
     <use xlink:href="#DejaVuSans-Bold-69" transform="translate(463.671875 0)"/>
     <use xlink:href="#DejaVuSans-Bold-6f" transform="translate(497.949219 0)"/>
     <use xlink:href="#DejaVuSans-Bold-6e" transform="translate(566.650391 0)"/>
    </g>
   </g>
   <g id="text_2">
    <!-- entry point -->
    <g style="fill: #444444" transform="translate(101.607063 114.186575) scale(0.1 -0.1)">
     <defs>
      <path id="DejaVuSans-Oblique-65" d="M 3078 2063 
Q 3088 2113 3092 2166 
Q 3097 2219 3097 2272 
Q 3097 2653 2873 2875 
Q 2650 3097 2266 3097 
Q 1838 3097 1509 2826 
Q 1181 2556 1013 2059 
L 3078 2063 
z
M 3578 1613 
L 903 1613 
Q 884 1494 878 1425 
Q 872 1356 872 1306 
Q 872 872 1139 634 
Q 1406 397 1894 397 
Q 2269 397 2603 481 
Q 2938 566 3225 728 
L 3116 159 
Q 2806 34 2476 -28 
Q 2147 -91 1806 -91 
Q 1078 -91 686 257 
Q 294 606 294 1247 
Q 294 1794 489 2264 
Q 684 2734 1063 3103 
Q 1306 3334 1642 3459 
Q 1978 3584 2356 3584 
Q 2950 3584 3301 3228 
Q 3653 2872 3653 2272 
Q 3653 2128 3634 1964 
Q 3616 1800 3578 1613 
z
" transform="scale(0.015625)"/>
      <path id="DejaVuSans-Oblique-6e" d="M 3566 2113 
L 3156 0 
L 2578 0 
L 2988 2091 
Q 3016 2238 3031 2350 
Q 3047 2463 3047 2528 
Q 3047 2791 2881 2937 
Q 2716 3084 2419 3084 
Q 1956 3084 1622 2776 
Q 1288 2469 1184 1941 
L 800 0 
L 225 0 
L 903 3500 
L 1478 3500 
L 1363 2950 
Q 1603 3253 1940 3418 
Q 2278 3584 2650 3584 
Q 3113 3584 3367 3334 
Q 3622 3084 3622 2631 
Q 3622 2519 3608 2391 
Q 3594 2263 3566 2113 
z
" transform="scale(0.015625)"/>
      <path id="DejaVuSans-Oblique-74" d="M 2706 3500 
L 2619 3053 
L 1472 3053 
L 1100 1153 
Q 1081 1047 1072 975 
Q 1063 903 1063 863 
Q 1063 663 1183 572 
Q 1303 481 1569 481 
L 2150 481 
L 2053 0 
L 1503 0 
Q 991 0 739 200 
Q 488 400 488 806 
Q 488 878 497 964 
Q 506 1050 525 1153 
L 897 3053 
L 409 3053 
L 500 3500 
L 978 3500 
L 1172 4494 
L 1747 4494 
L 1556 3500 
L 2706 3500 
z
" transform="scale(0.015625)"/>
      <path id="DejaVuSans-Oblique-72" d="M 2853 2969 
Q 2766 3016 2653 3041 
Q 2541 3066 2413 3066 
Q 1953 3066 1609 2717 
Q 1266 2369 1153 1784 
L 800 0 
L 225 0 
L 909 3500 
L 1484 3500 
L 1375 2956 
Q 1603 3259 1920 3421 
Q 2238 3584 2597 3584 
Q 2691 3584 2781 3573 
Q 2872 3563 2963 3538 
L 2853 2969 
z
" transform="scale(0.015625)"/>
      <path id="DejaVuSans-Oblique-79" d="M 1588 -325 
Q 1188 -997 936 -1164 
Q 684 -1331 294 -1331 
L -159 -1331 
L -63 -850 
L 269 -850 
Q 509 -850 678 -719 
Q 847 -588 1056 -206 
L 1234 128 
L 459 3500 
L 1069 3500 
L 1650 819 
L 3256 3500 
L 3859 3500 
L 1588 -325 
z
" transform="scale(0.015625)"/>
      <path id="DejaVuSans-Oblique-20" transform="scale(0.015625)"/>
      <path id="DejaVuSans-Oblique-70" d="M 3175 2156 
Q 3175 2616 2975 2859 
Q 2775 3103 2400 3103 
Q 2144 3103 1911 2972 
Q 1678 2841 1497 2591 
Q 1319 2344 1212 1994 
Q 1106 1644 1106 1300 
Q 1106 863 1306 627 
Q 1506 391 1875 391 
Q 2147 391 2380 519 
Q 2613 647 2778 891 
Q 2956 1147 3065 1494 
Q 3175 1841 3175 2156 
z
M 1394 2969 
Q 1625 3272 1939 3428 
Q 2253 3584 2638 3584 
Q 3175 3584 3472 3232 
Q 3769 2881 3769 2247 
Q 3769 1728 3584 1258 
Q 3400 788 3053 416 
Q 2822 169 2531 39 
Q 2241 -91 1919 -91 
Q 1547 -91 1294 64 
Q 1041 219 916 525 
L 556 -1331 
L -19 -1331 
L 922 3500 
L 1497 3500 
L 1394 2969 
z
" transform="scale(0.015625)"/>
      <path id="DejaVuSans-Oblique-6f" d="M 1625 -91 
Q 1009 -91 651 289 
Q 294 669 294 1325 
Q 294 1706 417 2101 
Q 541 2497 738 2766 
Q 1047 3184 1428 3384 
Q 1809 3584 2291 3584 
Q 2888 3584 3255 3212 
Q 3622 2841 3622 2241 
Q 3622 1825 3500 1412 
Q 3378 1000 3181 728 
Q 2875 309 2494 109 
Q 2113 -91 1625 -91 
z
M 891 1344 
Q 891 869 1089 633 
Q 1288 397 1691 397 
Q 2269 397 2648 901 
Q 3028 1406 3028 2181 
Q 3028 2634 2825 2865 
Q 2622 3097 2228 3097 
Q 1903 3097 1650 2945 
Q 1397 2794 1197 2484 
Q 1050 2253 970 1956 
Q 891 1659 891 1344 
z
" transform="scale(0.015625)"/>
      <path id="DejaVuSans-Oblique-69" d="M 1172 4863 
L 1747 4863 
L 1606 4134 
L 1031 4134 
L 1172 4863 
z
M 909 3500 
L 1484 3500 
L 800 0 
L 225 0 
L 909 3500 
z
" transform="scale(0.015625)"/>
     </defs>
     <use xlink:href="#DejaVuSans-Oblique-65"/>
     <use xlink:href="#DejaVuSans-Oblique-6e" transform="translate(61.523438 0)"/>
     <use xlink:href="#DejaVuSans-Oblique-74" transform="translate(124.902344 0)"/>
     <use xlink:href="#DejaVuSans-Oblique-72" transform="translate(164.111328 0)"/>
     <use xlink:href="#DejaVuSans-Oblique-79" transform="translate(205.224609 0)"/>
     <use xlink:href="#DejaVuSans-Oblique-20" transform="translate(264.404297 0)"/>
     <use xlink:href="#DejaVuSans-Oblique-70" transform="translate(296.191406 0)"/>
     <use xlink:href="#DejaVuSans-Oblique-6f" transform="translate(359.667969 0)"/>
     <use xlink:href="#DejaVuSans-Oblique-69" transform="translate(420.849609 0)"/>
     <use xlink:href="#DejaVuSans-Oblique-6e" transform="translate(448.632812 0)"/>
     <use xlink:href="#DejaVuSans-Oblique-74" transform="translate(512.011719 0)"/>
    </g>
   </g>
   <g id="text_3">
    <!-- Use Case -->
    <g transform="translate(301.043422 89.511987) scale(0.13 -0.13)">
     <defs>
      <path id="DejaVuSans-Bold-55" d="M 588 4666 
L 1791 4666 
L 1791 1869 
Q 1791 1291 1980 1042 
Q 2169 794 2597 794 
Q 3028 794 3217 1042 
Q 3406 1291 3406 1869 
L 3406 4666 
L 4609 4666 
L 4609 1869 
Q 4609 878 4112 393 
Q 3616 -91 2597 -91 
Q 1581 -91 1084 393 
Q 588 878 588 1869 
L 588 4666 
z
" transform="scale(0.015625)"/>
      <path id="DejaVuSans-Bold-73" d="M 3272 3391 
L 3272 2541 
Q 2913 2691 2578 2766 
Q 2244 2841 1947 2841 
Q 1628 2841 1473 2761 
Q 1319 2681 1319 2516 
Q 1319 2381 1436 2309 
Q 1553 2238 1856 2203 
L 2053 2175 
Q 2913 2066 3209 1816 
Q 3506 1566 3506 1031 
Q 3506 472 3093 190 
Q 2681 -91 1863 -91 
Q 1516 -91 1145 -36 
Q 775 19 384 128 
L 384 978 
Q 719 816 1070 734 
Q 1422 653 1784 653 
Q 2113 653 2278 743 
Q 2444 834 2444 1013 
Q 2444 1163 2330 1236 
Q 2216 1309 1875 1350 
L 1678 1375 
Q 931 1469 631 1722 
Q 331 1975 331 2491 
Q 331 3047 712 3315 
Q 1094 3584 1881 3584 
Q 2191 3584 2531 3537 
Q 2872 3491 3272 3391 
z
" transform="scale(0.015625)"/>
      <path id="DejaVuSans-Bold-65" d="M 4031 1759 
L 4031 1441 
L 1416 1441 
Q 1456 1047 1700 850 
Q 1944 653 2381 653 
Q 2734 653 3104 758 
Q 3475 863 3866 1075 
L 3866 213 
Q 3469 63 3072 -14 
Q 2675 -91 2278 -91 
Q 1328 -91 801 392 
Q 275 875 275 1747 
Q 275 2603 792 3093 
Q 1309 3584 2216 3584 
Q 3041 3584 3536 3087 
Q 4031 2591 4031 1759 
z
M 2881 2131 
Q 2881 2450 2695 2645 
Q 2509 2841 2209 2841 
Q 1884 2841 1681 2658 
Q 1478 2475 1428 2131 
L 2881 2131 
z
" transform="scale(0.015625)"/>
      <path id="DejaVuSans-Bold-20" transform="scale(0.015625)"/>
      <path id="DejaVuSans-Bold-43" d="M 4288 256 
Q 3956 84 3597 -3 
Q 3238 -91 2847 -91 
Q 1681 -91 1000 561 
Q 319 1213 319 2328 
Q 319 3447 1000 4098 
Q 1681 4750 2847 4750 
Q 3238 4750 3597 4662 
Q 3956 4575 4288 4403 
L 4288 3438 
Q 3953 3666 3628 3772 
Q 3303 3878 2944 3878 
Q 2300 3878 1931 3465 
Q 1563 3053 1563 2328 
Q 1563 1606 1931 1193 
Q 2300 781 2944 781 
Q 3303 781 3628 887 
Q 3953 994 4288 1222 
L 4288 256 
z
" transform="scale(0.015625)"/>
     </defs>
     <use xlink:href="#DejaVuSans-Bold-55"/>
     <use xlink:href="#DejaVuSans-Bold-73" transform="translate(81.201172 0)"/>
     <use xlink:href="#DejaVuSans-Bold-65" transform="translate(140.722656 0)"/>
     <use xlink:href="#DejaVuSans-Bold-20" transform="translate(208.544922 0)"/>
     <use xlink:href="#DejaVuSans-Bold-43" transform="translate(243.359375 0)"/>
     <use xlink:href="#DejaVuSans-Bold-61" transform="translate(316.748047 0)"/>
     <use xlink:href="#DejaVuSans-Bold-73" transform="translate(384.228516 0)"/>
     <use xlink:href="#DejaVuSans-Bold-65" transform="translate(443.75 0)"/>
    </g>
   </g>
   <g id="text_4">
    <!-- fuzz orchestrator -->
    <g style="fill: #444444" transform="translate(291.660844 114.186575) scale(0.1 -0.1)">
     <defs>
      <path id="DejaVuSans-Oblique-66" d="M 3059 4863 
L 2969 4384 
L 2419 4384 
Q 2106 4384 1964 4261 
Q 1822 4138 1753 3809 
L 1691 3500 
L 2638 3500 
L 2553 3053 
L 1606 3053 
L 1013 0 
L 434 0 
L 1031 3053 
L 481 3053 
L 563 3500 
L 1113 3500 
L 1159 3744 
Q 1278 4363 1576 4613 
Q 1875 4863 2516 4863 
L 3059 4863 
z
" transform="scale(0.015625)"/>
      <path id="DejaVuSans-Oblique-75" d="M 428 1388 
L 838 3500 
L 1416 3500 
L 1006 1409 
Q 975 1256 961 1147 
Q 947 1038 947 966 
Q 947 700 1109 554 
Q 1272 409 1569 409 
Q 2031 409 2368 721 
Q 2706 1034 2809 1563 
L 3194 3500 
L 3769 3500 
L 3091 0 
L 2516 0 
L 2631 550 
Q 2388 244 2052 76 
Q 1716 -91 1338 -91 
Q 878 -91 622 161 
Q 366 413 366 863 
Q 366 956 381 1097 
Q 397 1238 428 1388 
z
" transform="scale(0.015625)"/>
      <path id="DejaVuSans-Oblique-7a" d="M 744 3500 
L 3475 3500 
L 3372 2975 
L 738 459 
L 2913 459 
L 2822 0 
L -19 0 
L 84 525 
L 2719 3041 
L 653 3041 
L 744 3500 
z
" transform="scale(0.015625)"/>
      <path id="DejaVuSans-Oblique-63" d="M 3431 3366 
L 3316 2797 
Q 3109 2947 2876 3022 
Q 2644 3097 2394 3097 
Q 2119 3097 1870 3000 
Q 1622 2903 1453 2725 
Q 1184 2453 1037 2087 
Q 891 1722 891 1331 
Q 891 859 1127 628 
Q 1363 397 1844 397 
Q 2081 397 2348 469 
Q 2616 541 2906 684 
L 2797 116 
Q 2547 13 2283 -39 
Q 2019 -91 1741 -91 
Q 1044 -91 669 257 
Q 294 606 294 1253 
Q 294 1797 489 2255 
Q 684 2713 1069 3078 
Q 1331 3328 1684 3456 
Q 2038 3584 2456 3584 
Q 2700 3584 2940 3529 
Q 3181 3475 3431 3366 
z
" transform="scale(0.015625)"/>
      <path id="DejaVuSans-Oblique-68" d="M 3566 2113 
L 3156 0 
L 2578 0 
L 2988 2091 
Q 3016 2238 3031 2350 
Q 3047 2463 3047 2528 
Q 3047 2791 2881 2937 
Q 2716 3084 2419 3084 
Q 1956 3084 1617 2771 
Q 1278 2459 1178 1941 
L 800 0 
L 225 0 
L 1172 4863 
L 1747 4863 
L 1375 2950 
Q 1594 3244 1934 3414 
Q 2275 3584 2650 3584 
Q 3113 3584 3367 3334 
Q 3622 3084 3622 2631 
Q 3622 2519 3608 2391 
Q 3594 2263 3566 2113 
z
" transform="scale(0.015625)"/>
      <path id="DejaVuSans-Oblique-73" d="M 3200 3397 
L 3091 2853 
Q 2863 2978 2609 3040 
Q 2356 3103 2088 3103 
Q 1634 3103 1373 2948 
Q 1113 2794 1113 2528 
Q 1113 2219 1719 2053 
Q 1766 2041 1788 2034 
L 1972 1978 
Q 2547 1819 2739 1644 
Q 2931 1469 2931 1166 
Q 2931 609 2489 259 
Q 2047 -91 1331 -91 
Q 1053 -91 747 -37 
Q 441 16 72 128 
L 184 722 
Q 500 559 806 475 
Q 1113 391 1394 391 
Q 1816 391 2080 572 
Q 2344 753 2344 1031 
Q 2344 1331 1650 1516 
L 1591 1531 
L 1394 1581 
Q 956 1697 753 1886 
Q 550 2075 550 2369 
Q 550 2928 970 3256 
Q 1391 3584 2113 3584 
Q 2397 3584 2667 3537 
Q 2938 3491 3200 3397 
z
" transform="scale(0.015625)"/>
      <path id="DejaVuSans-Oblique-61" d="M 3438 1997 
L 3047 0 
L 2472 0 
L 2578 531 
Q 2325 219 2001 64 
Q 1678 -91 1281 -91 
Q 834 -91 548 182 
Q 263 456 263 884 
Q 263 1497 752 1853 
Q 1241 2209 2100 2209 
L 2900 2209 
L 2931 2363 
Q 2938 2388 2941 2417 
Q 2944 2447 2944 2509 
Q 2944 2788 2717 2942 
Q 2491 3097 2081 3097 
Q 1800 3097 1504 3025 
Q 1209 2953 897 2809 
L 997 3341 
Q 1322 3463 1633 3523 
Q 1944 3584 2234 3584 
Q 2853 3584 3176 3315 
Q 3500 3047 3500 2534 
Q 3500 2431 3484 2292 
Q 3469 2153 3438 1997 
z
M 2816 1759 
L 2241 1759 
Q 1534 1759 1195 1570 
Q 856 1381 856 984 
Q 856 709 1029 553 
Q 1203 397 1509 397 
Q 1978 397 2328 733 
Q 2678 1069 2791 1631 
L 2816 1759 
z
" transform="scale(0.015625)"/>
     </defs>
     <use xlink:href="#DejaVuSans-Oblique-66"/>
     <use xlink:href="#DejaVuSans-Oblique-75" transform="translate(35.205078 0)"/>
     <use xlink:href="#DejaVuSans-Oblique-7a" transform="translate(98.583984 0)"/>
     <use xlink:href="#DejaVuSans-Oblique-7a" transform="translate(151.074219 0)"/>
     <use xlink:href="#DejaVuSans-Oblique-20" transform="translate(203.564453 0)"/>
     <use xlink:href="#DejaVuSans-Oblique-6f" transform="translate(235.351562 0)"/>
     <use xlink:href="#DejaVuSans-Oblique-72" transform="translate(296.533203 0)"/>
     <use xlink:href="#DejaVuSans-Oblique-63" transform="translate(337.646484 0)"/>
     <use xlink:href="#DejaVuSans-Oblique-68" transform="translate(392.626953 0)"/>
     <use xlink:href="#DejaVuSans-Oblique-65" transform="translate(456.005859 0)"/>
     <use xlink:href="#DejaVuSans-Oblique-73" transform="translate(517.529297 0)"/>
     <use xlink:href="#DejaVuSans-Oblique-74" transform="translate(569.628906 0)"/>
     <use xlink:href="#DejaVuSans-Oblique-72" transform="translate(608.837891 0)"/>
     <use xlink:href="#DejaVuSans-Oblique-61" transform="translate(649.951172 0)"/>
     <use xlink:href="#DejaVuSans-Oblique-74" transform="translate(711.230469 0)"/>
     <use xlink:href="#DejaVuSans-Oblique-6f" transform="translate(750.439453 0)"/>
     <use xlink:href="#DejaVuSans-Oblique-72" transform="translate(811.621094 0)"/>
    </g>
   </g>
   <g id="text_5">
    <!-- Coverage Reader -->
    <g transform="translate(476.558844 89.461206) scale(0.13 -0.13)">
     <defs>
      <path id="DejaVuSans-Bold-76" d="M 97 3500 
L 1216 3500 
L 2088 1081 
L 2956 3500 
L 4078 3500 
L 2700 0 
L 1472 0 
L 97 3500 
z
" transform="scale(0.015625)"/>
      <path id="DejaVuSans-Bold-72" d="M 3138 2547 
Q 2991 2616 2845 2648 
Q 2700 2681 2553 2681 
Q 2122 2681 1889 2404 
Q 1656 2128 1656 1613 
L 1656 0 
L 538 0 
L 538 3500 
L 1656 3500 
L 1656 2925 
Q 1872 3269 2151 3426 
Q 2431 3584 2822 3584 
Q 2878 3584 2943 3579 
Q 3009 3575 3134 3559 
L 3138 2547 
z
" transform="scale(0.015625)"/>
      <path id="DejaVuSans-Bold-67" d="M 2919 594 
Q 2688 288 2409 144 
Q 2131 0 1766 0 
Q 1125 0 706 504 
Q 288 1009 288 1791 
Q 288 2575 706 3076 
Q 1125 3578 1766 3578 
Q 2131 3578 2409 3434 
Q 2688 3291 2919 2981 
L 2919 3500 
L 4044 3500 
L 4044 353 
Q 4044 -491 3511 -936 
Q 2978 -1381 1966 -1381 
Q 1638 -1381 1331 -1331 
Q 1025 -1281 716 -1178 
L 716 -306 
Q 1009 -475 1290 -558 
Q 1572 -641 1856 -641 
Q 2406 -641 2662 -400 
Q 2919 -159 2919 353 
L 2919 594 
z
M 2181 2772 
Q 1834 2772 1640 2515 
Q 1447 2259 1447 1791 
Q 1447 1309 1634 1061 
Q 1822 813 2181 813 
Q 2531 813 2725 1069 
Q 2919 1325 2919 1791 
Q 2919 2259 2725 2515 
Q 2531 2772 2181 2772 
z
" transform="scale(0.015625)"/>
      <path id="DejaVuSans-Bold-52" d="M 2297 2597 
Q 2675 2597 2839 2737 
Q 3003 2878 3003 3200 
Q 3003 3519 2839 3656 
Q 2675 3794 2297 3794 
L 1791 3794 
L 1791 2597 
L 2297 2597 
z
M 1791 1766 
L 1791 0 
L 588 0 
L 588 4666 
L 2425 4666 
Q 3347 4666 3776 4356 
Q 4206 4047 4206 3378 
Q 4206 2916 3982 2619 
Q 3759 2322 3309 2181 
Q 3556 2125 3751 1926 
Q 3947 1728 4147 1325 
L 4800 0 
L 3519 0 
L 2950 1159 
Q 2778 1509 2601 1637 
Q 2425 1766 2131 1766 
L 1791 1766 
z
" transform="scale(0.015625)"/>
      <path id="DejaVuSans-Bold-64" d="M 2919 2988 
L 2919 4863 
L 4044 4863 
L 4044 0 
L 2919 0 
L 2919 506 
Q 2688 197 2409 53 
Q 2131 -91 1766 -91 
Q 1119 -91 703 423 
Q 288 938 288 1747 
Q 288 2556 703 3070 
Q 1119 3584 1766 3584 
Q 2128 3584 2408 3439 
Q 2688 3294 2919 2988 
z
M 2181 722 
Q 2541 722 2730 984 
Q 2919 1247 2919 1747 
Q 2919 2247 2730 2509 
Q 2541 2772 2181 2772 
Q 1825 2772 1636 2509 
Q 1447 2247 1447 1747 
Q 1447 1247 1636 984 
Q 1825 722 2181 722 
z
" transform="scale(0.015625)"/>
     </defs>
     <use xlink:href="#DejaVuSans-Bold-43"/>
     <use xlink:href="#DejaVuSans-Bold-6f" transform="translate(73.388672 0)"/>
     <use xlink:href="#DejaVuSans-Bold-76" transform="translate(142.089844 0)"/>
     <use xlink:href="#DejaVuSans-Bold-65" transform="translate(207.275391 0)"/>
     <use xlink:href="#DejaVuSans-Bold-72" transform="translate(275.097656 0)"/>
     <use xlink:href="#DejaVuSans-Bold-61" transform="translate(324.414062 0)"/>
     <use xlink:href="#DejaVuSans-Bold-67" transform="translate(391.894531 0)"/>
     <use xlink:href="#DejaVuSans-Bold-65" transform="translate(463.476562 0)"/>
     <use xlink:href="#DejaVuSans-Bold-20" transform="translate(531.298828 0)"/>
     <use xlink:href="#DejaVuSans-Bold-52" transform="translate(566.113281 0)"/>
     <use xlink:href="#DejaVuSans-Bold-65" transform="translate(643.115234 0)"/>
     <use xlink:href="#DejaVuSans-Bold-61" transform="translate(710.9375 0)"/>
     <use xlink:href="#DejaVuSans-Bold-64" transform="translate(778.417969 0)"/>
     <use xlink:href="#DejaVuSans-Bold-65" transform="translate(850 0)"/>
     <use xlink:href="#DejaVuSans-Bold-72" transform="translate(917.822266 0)"/>
    </g>
   </g>
   <g id="text_6">
    <!-- snapshots scoverage -->
    <g style="fill: #444444" transform="translate(486.606031 114.186575) scale(0.1 -0.1)">
     <defs>
      <path id="DejaVuSans-Oblique-76" d="M 459 3500 
L 1069 3500 
L 1581 525 
L 3256 3500 
L 3866 3500 
L 1875 0 
L 1100 0 
L 459 3500 
z
" transform="scale(0.015625)"/>
      <path id="DejaVuSans-Oblique-67" d="M 3816 3500 
L 3219 434 
Q 3047 -456 2561 -893 
Q 2075 -1331 1253 -1331 
Q 950 -1331 690 -1286 
Q 431 -1241 206 -1147 
L 313 -588 
Q 525 -725 762 -790 
Q 1000 -856 1269 -856 
Q 1816 -856 2167 -557 
Q 2519 -259 2631 300 
L 2681 563 
Q 2441 288 2122 144 
Q 1803 0 1434 0 
Q 903 0 598 351 
Q 294 703 294 1319 
Q 294 1803 478 2267 
Q 663 2731 997 3091 
Q 1219 3328 1514 3456 
Q 1809 3584 2131 3584 
Q 2484 3584 2746 3420 
Q 3009 3256 3138 2956 
L 3238 3500 
L 3816 3500 
z
M 2950 2216 
Q 2950 2641 2750 2872 
Q 2550 3103 2181 3103 
Q 1953 3103 1747 3012 
Q 1541 2922 1394 2759 
Q 1156 2491 1023 2127 
Q 891 1763 891 1375 
Q 891 944 1092 712 
Q 1294 481 1672 481 
Q 2219 481 2584 976 
Q 2950 1472 2950 2216 
z
" transform="scale(0.015625)"/>
     </defs>
     <use xlink:href="#DejaVuSans-Oblique-73"/>
     <use xlink:href="#DejaVuSans-Oblique-6e" transform="translate(52.099609 0)"/>
     <use xlink:href="#DejaVuSans-Oblique-61" transform="translate(115.478516 0)"/>
     <use xlink:href="#DejaVuSans-Oblique-70" transform="translate(176.757812 0)"/>
     <use xlink:href="#DejaVuSans-Oblique-73" transform="translate(240.234375 0)"/>
     <use xlink:href="#DejaVuSans-Oblique-68" transform="translate(292.333984 0)"/>
     <use xlink:href="#DejaVuSans-Oblique-6f" transform="translate(355.712891 0)"/>
     <use xlink:href="#DejaVuSans-Oblique-74" transform="translate(416.894531 0)"/>
     <use xlink:href="#DejaVuSans-Oblique-73" transform="translate(456.103516 0)"/>
     <use xlink:href="#DejaVuSans-Oblique-20" transform="translate(508.203125 0)"/>
     <use xlink:href="#DejaVuSans-Oblique-73" transform="translate(539.990234 0)"/>
     <use xlink:href="#DejaVuSans-Oblique-63" transform="translate(592.089844 0)"/>
     <use xlink:href="#DejaVuSans-Oblique-6f" transform="translate(647.070312 0)"/>
     <use xlink:href="#DejaVuSans-Oblique-76" transform="translate(708.251953 0)"/>
     <use xlink:href="#DejaVuSans-Oblique-65" transform="translate(767.431641 0)"/>
     <use xlink:href="#DejaVuSans-Oblique-72" transform="translate(828.955078 0)"/>
     <use xlink:href="#DejaVuSans-Oblique-61" transform="translate(870.068359 0)"/>
     <use xlink:href="#DejaVuSans-Oblique-67" transform="translate(931.347656 0)"/>
     <use xlink:href="#DejaVuSans-Oblique-65" transform="translate(994.824219 0)"/>
    </g>
   </g>
   <g id="text_7">
    <!-- Tree Builder -->
    <g transform="translate(700.242312 89.511987) scale(0.13 -0.13)">
     <defs>
      <path id="DejaVuSans-Bold-54" d="M 31 4666 
L 4331 4666 
L 4331 3756 
L 2784 3756 
L 2784 0 
L 1581 0 
L 1581 3756 
L 31 3756 
L 31 4666 
z
" transform="scale(0.015625)"/>
      <path id="DejaVuSans-Bold-42" d="M 2456 2859 
Q 2741 2859 2887 2984 
Q 3034 3109 3034 3353 
Q 3034 3594 2887 3720 
Q 2741 3847 2456 3847 
L 1791 3847 
L 1791 2859 
L 2456 2859 
z
M 2497 819 
Q 2859 819 3042 972 
Q 3225 1125 3225 1434 
Q 3225 1738 3044 1889 
Q 2863 2041 2497 2041 
L 1791 2041 
L 1791 819 
L 2497 819 
z
M 3616 2497 
Q 4003 2384 4215 2081 
Q 4428 1778 4428 1338 
Q 4428 663 3972 331 
Q 3516 0 2584 0 
L 588 0 
L 588 4666 
L 2394 4666 
Q 3366 4666 3802 4372 
Q 4238 4078 4238 3431 
Q 4238 3091 4078 2852 
Q 3919 2613 3616 2497 
z
" transform="scale(0.015625)"/>
      <path id="DejaVuSans-Bold-75" d="M 500 1363 
L 500 3500 
L 1625 3500 
L 1625 3150 
Q 1625 2866 1622 2436 
Q 1619 2006 1619 1863 
Q 1619 1441 1641 1255 
Q 1663 1069 1716 984 
Q 1784 875 1895 815 
Q 2006 756 2150 756 
Q 2500 756 2700 1025 
Q 2900 1294 2900 1772 
L 2900 3500 
L 4019 3500 
L 4019 0 
L 2900 0 
L 2900 506 
Q 2647 200 2364 54 
Q 2081 -91 1741 -91 
Q 1134 -91 817 281 
Q 500 653 500 1363 
z
" transform="scale(0.015625)"/>
     </defs>
     <use xlink:href="#DejaVuSans-Bold-54"/>
     <use xlink:href="#DejaVuSans-Bold-72" transform="translate(57.212891 0)"/>
     <use xlink:href="#DejaVuSans-Bold-65" transform="translate(106.529297 0)"/>
     <use xlink:href="#DejaVuSans-Bold-65" transform="translate(174.351562 0)"/>
     <use xlink:href="#DejaVuSans-Bold-20" transform="translate(242.173828 0)"/>
     <use xlink:href="#DejaVuSans-Bold-42" transform="translate(276.988281 0)"/>
     <use xlink:href="#DejaVuSans-Bold-75" transform="translate(353.208984 0)"/>
     <use xlink:href="#DejaVuSans-Bold-69" transform="translate(424.400391 0)"/>
     <use xlink:href="#DejaVuSans-Bold-6c" transform="translate(458.677734 0)"/>
     <use xlink:href="#DejaVuSans-Bold-64" transform="translate(492.955078 0)"/>
     <use xlink:href="#DejaVuSans-Bold-65" transform="translate(564.537109 0)"/>
     <use xlink:href="#DejaVuSans-Bold-72" transform="translate(632.359375 0)"/>
    </g>
   </g>
   <g id="text_8">
    <!-- parses the source -->
    <g style="fill: #444444" transform="translate(699.874656 114.186575) scale(0.1 -0.1)">
     <use xlink:href="#DejaVuSans-Oblique-70"/>
     <use xlink:href="#DejaVuSans-Oblique-61" transform="translate(63.476562 0)"/>
     <use xlink:href="#DejaVuSans-Oblique-72" transform="translate(124.755859 0)"/>
     <use xlink:href="#DejaVuSans-Oblique-73" transform="translate(165.869141 0)"/>
     <use xlink:href="#DejaVuSans-Oblique-65" transform="translate(217.96875 0)"/>
     <use xlink:href="#DejaVuSans-Oblique-73" transform="translate(279.492188 0)"/>
     <use xlink:href="#DejaVuSans-Oblique-20" transform="translate(331.591797 0)"/>
     <use xlink:href="#DejaVuSans-Oblique-74" transform="translate(363.378906 0)"/>
     <use xlink:href="#DejaVuSans-Oblique-68" transform="translate(402.587891 0)"/>
     <use xlink:href="#DejaVuSans-Oblique-65" transform="translate(465.966797 0)"/>
     <use xlink:href="#DejaVuSans-Oblique-20" transform="translate(527.490234 0)"/>
     <use xlink:href="#DejaVuSans-Oblique-73" transform="translate(559.277344 0)"/>
     <use xlink:href="#DejaVuSans-Oblique-6f" transform="translate(611.376953 0)"/>
     <use xlink:href="#DejaVuSans-Oblique-75" transform="translate(672.558594 0)"/>
     <use xlink:href="#DejaVuSans-Oblique-72" transform="translate(735.9375 0)"/>
     <use xlink:href="#DejaVuSans-Oblique-63" transform="translate(777.050781 0)"/>
     <use xlink:href="#DejaVuSans-Oblique-65" transform="translate(832.03125 0)"/>
    </g>
   </g>
   <g id="text_9">
    <!-- Report Writer -->
    <g transform="translate(899.362891 89.511987) scale(0.13 -0.13)">
     <defs>
      <path id="DejaVuSans-Bold-57" d="M 191 4666 
L 1344 4666 
L 2150 1275 
L 2950 4666 
L 4109 4666 
L 4909 1275 
L 5716 4666 
L 6859 4666 
L 5759 0 
L 4372 0 
L 3525 3547 
L 2688 0 
L 1300 0 
L 191 4666 
z
" transform="scale(0.015625)"/>
     </defs>
     <use xlink:href="#DejaVuSans-Bold-52"/>
     <use xlink:href="#DejaVuSans-Bold-65" transform="translate(77.001953 0)"/>
     <use xlink:href="#DejaVuSans-Bold-70" transform="translate(144.824219 0)"/>
     <use xlink:href="#DejaVuSans-Bold-6f" transform="translate(216.40625 0)"/>
     <use xlink:href="#DejaVuSans-Bold-72" transform="translate(285.107422 0)"/>
     <use xlink:href="#DejaVuSans-Bold-74" transform="translate(334.423828 0)"/>
     <use xlink:href="#DejaVuSans-Bold-20" transform="translate(382.226562 0)"/>
     <use xlink:href="#DejaVuSans-Bold-57" transform="translate(417.041016 0)"/>
     <use xlink:href="#DejaVuSans-Bold-72" transform="translate(525.59375 0)"/>
     <use xlink:href="#DejaVuSans-Bold-69" transform="translate(574.910156 0)"/>
     <use xlink:href="#DejaVuSans-Bold-74" transform="translate(609.1875 0)"/>
     <use xlink:href="#DejaVuSans-Bold-65" transform="translate(656.990234 0)"/>
     <use xlink:href="#DejaVuSans-Bold-72" transform="translate(724.8125 0)"/>
    </g>
   </g>
   <g id="text_10">
    <!-- persists output -->
    <g style="fill: #444444" transform="translate(912.13 114.186575) scale(0.1 -0.1)">
     <use xlink:href="#DejaVuSans-Oblique-70"/>
     <use xlink:href="#DejaVuSans-Oblique-65" transform="translate(63.476562 0)"/>
     <use xlink:href="#DejaVuSans-Oblique-72" transform="translate(125 0)"/>
     <use xlink:href="#DejaVuSans-Oblique-73" transform="translate(166.113281 0)"/>
     <use xlink:href="#DejaVuSans-Oblique-69" transform="translate(218.212891 0)"/>
     <use xlink:href="#DejaVuSans-Oblique-73" transform="translate(245.996094 0)"/>
     <use xlink:href="#DejaVuSans-Oblique-74" transform="translate(298.095703 0)"/>
     <use xlink:href="#DejaVuSans-Oblique-73" transform="translate(337.304688 0)"/>
     <use xlink:href="#DejaVuSans-Oblique-20" transform="translate(389.404297 0)"/>
     <use xlink:href="#DejaVuSans-Oblique-6f" transform="translate(421.191406 0)"/>
     <use xlink:href="#DejaVuSans-Oblique-75" transform="translate(482.373047 0)"/>
     <use xlink:href="#DejaVuSans-Oblique-74" transform="translate(545.751953 0)"/>
     <use xlink:href="#DejaVuSans-Oblique-70" transform="translate(584.960938 0)"/>
     <use xlink:href="#DejaVuSans-Oblique-75" transform="translate(648.4375 0)"/>
     <use xlink:href="#DejaVuSans-Oblique-74" transform="translate(711.816406 0)"/>
    </g>
   </g>
   <g id="text_11">
    <g id="patch_18">
     <path d="M 198.330672 157.856997 
L 265.133328 157.856997 
L 265.133328 142.613403 
L 198.330672 142.613403 
z
" style="fill: #ffffff"/>
    </g>
    <!-- start session -->
    <g style="fill: #1a1a1a" transform="translate(200.860672 153.034184) scale(0.11 -0.11)">
     <defs>
      <path id="Helvetica-73" d="M 747 1050 
Q 772 769 888 619 
Q 1100 347 1625 347 
Q 1938 347 2175 483 
Q 2413 619 2413 903 
Q 2413 1119 2222 1231 
Q 2100 1300 1741 1391 
L 1294 1503 
Q 866 1609 663 1741 
Q 300 1969 300 2372 
Q 300 2847 642 3140 
Q 984 3434 1563 3434 
Q 2319 3434 2653 2991 
Q 2863 2709 2856 2384 
L 2325 2384 
Q 2309 2575 2191 2731 
Q 1997 2953 1519 2953 
Q 1200 2953 1036 2831 
Q 872 2709 872 2509 
Q 872 2291 1088 2159 
Q 1213 2081 1456 2022 
L 1828 1931 
Q 2434 1784 2641 1647 
Q 2969 1431 2969 969 
Q 2969 522 2630 197 
Q 2291 -128 1597 -128 
Q 850 -128 539 211 
Q 228 550 206 1050 
L 747 1050 
z
M 1578 3428 
L 1578 3428 
z
" transform="scale(0.015625)"/>
      <path id="Helvetica-74" d="M 525 4281 
L 1094 4281 
L 1094 3347 
L 1628 3347 
L 1628 2888 
L 1094 2888 
L 1094 703 
Q 1094 528 1213 469 
Q 1278 434 1431 434 
Q 1472 434 1519 436 
Q 1566 438 1628 444 
L 1628 0 
Q 1531 -28 1426 -40 
Q 1322 -53 1200 -53 
Q 806 -53 665 148 
Q 525 350 525 672 
L 525 2888 
L 72 2888 
L 72 3347 
L 525 3347 
L 525 4281 
z
" transform="scale(0.015625)"/>
      <path id="Helvetica-61" d="M 844 891 
Q 844 647 1022 506 
Q 1200 366 1444 366 
Q 1741 366 2019 503 
Q 2488 731 2488 1250 
L 2488 1703 
Q 2384 1638 2221 1594 
Q 2059 1550 1903 1531 
L 1563 1488 
Q 1256 1447 1103 1359 
Q 844 1213 844 891 
z
M 2206 2028 
Q 2400 2053 2466 2191 
Q 2503 2266 2503 2406 
Q 2503 2694 2298 2823 
Q 2094 2953 1713 2953 
Q 1272 2953 1088 2716 
Q 984 2584 953 2325 
L 428 2325 
Q 444 2944 830 3186 
Q 1216 3428 1725 3428 
Q 2316 3428 2684 3203 
Q 3050 2978 3050 2503 
L 3050 575 
Q 3050 488 3086 434 
Q 3122 381 3238 381 
Q 3275 381 3322 386 
Q 3369 391 3422 400 
L 3422 -16 
Q 3291 -53 3222 -62 
Q 3153 -72 3034 -72 
Q 2744 -72 2613 134 
Q 2544 244 2516 444 
Q 2344 219 2022 53 
Q 1700 -113 1313 -113 
Q 847 -113 551 170 
Q 256 453 256 878 
Q 256 1344 547 1600 
Q 838 1856 1309 1916 
L 2206 2028 
z
M 1741 3428 
L 1741 3428 
z
" transform="scale(0.015625)"/>
      <path id="Helvetica-72" d="M 428 3347 
L 963 3347 
L 963 2769 
Q 1028 2938 1284 3180 
Q 1541 3422 1875 3422 
Q 1891 3422 1928 3419 
Q 1966 3416 2056 3406 
L 2056 2813 
Q 2006 2822 1964 2825 
Q 1922 2828 1872 2828 
Q 1447 2828 1219 2554 
Q 991 2281 991 1925 
L 991 0 
L 428 0 
L 428 3347 
z
" transform="scale(0.015625)"/>
      <path id="Helvetica-20" transform="scale(0.015625)"/>
      <path id="Helvetica-65" d="M 1806 3422 
Q 2163 3422 2497 3255 
Q 2831 3088 3006 2822 
Q 3175 2569 3231 2231 
Q 3281 2000 3281 1494 
L 828 1494 
Q 844 984 1069 676 
Q 1294 369 1766 369 
Q 2206 369 2469 659 
Q 2619 828 2681 1050 
L 3234 1050 
Q 3213 866 3089 639 
Q 2966 413 2813 269 
Q 2556 19 2178 -69 
Q 1975 -119 1719 -119 
Q 1094 -119 659 336 
Q 225 791 225 1609 
Q 225 2416 662 2919 
Q 1100 3422 1806 3422 
z
M 2703 1941 
Q 2669 2306 2544 2525 
Q 2313 2931 1772 2931 
Q 1384 2931 1121 2651 
Q 859 2372 844 1941 
L 2703 1941 
z
M 1753 3428 
L 1753 3428 
z
" transform="scale(0.015625)"/>
      <path id="Helvetica-69" d="M 413 3331 
L 984 3331 
L 984 0 
L 413 0 
L 413 3331 
z
M 413 4591 
L 984 4591 
L 984 3953 
L 413 3953 
L 413 4591 
z
" transform="scale(0.015625)"/>
      <path id="Helvetica-6f" d="M 1741 363 
Q 2300 363 2508 786 
Q 2716 1209 2716 1728 
Q 2716 2197 2566 2491 
Q 2328 2953 1747 2953 
Q 1231 2953 997 2559 
Q 763 2166 763 1609 
Q 763 1075 997 719 
Q 1231 363 1741 363 
z
M 1763 3444 
Q 2409 3444 2856 3012 
Q 3303 2581 3303 1744 
Q 3303 934 2909 406 
Q 2516 -122 1688 -122 
Q 997 -122 590 345 
Q 184 813 184 1600 
Q 184 2444 612 2944 
Q 1041 3444 1763 3444 
z
M 1744 3428 
L 1744 3428 
z
" transform="scale(0.015625)"/>
      <path id="Helvetica-6e" d="M 413 3347 
L 947 3347 
L 947 2872 
Q 1184 3166 1450 3294 
Q 1716 3422 2041 3422 
Q 2753 3422 3003 2925 
Q 3141 2653 3141 2147 
L 3141 0 
L 2569 0 
L 2569 2109 
Q 2569 2416 2478 2603 
Q 2328 2916 1934 2916 
Q 1734 2916 1606 2875 
Q 1375 2806 1200 2600 
Q 1059 2434 1017 2257 
Q 975 2081 975 1753 
L 975 0 
L 413 0 
L 413 3347 
z
M 1734 3428 
L 1734 3428 
z
" transform="scale(0.015625)"/>
     </defs>
     <use xlink:href="#Helvetica-73"/>
     <use xlink:href="#Helvetica-74" transform="translate(50 0)"/>
     <use xlink:href="#Helvetica-61" transform="translate(77.783203 0)"/>
     <use xlink:href="#Helvetica-72" transform="translate(133.398438 0)"/>
     <use xlink:href="#Helvetica-74" transform="translate(166.699219 0)"/>
     <use xlink:href="#Helvetica-20" transform="translate(194.482422 0)"/>
     <use xlink:href="#Helvetica-73" transform="translate(222.265625 0)"/>
     <use xlink:href="#Helvetica-65" transform="translate(272.265625 0)"/>
     <use xlink:href="#Helvetica-73" transform="translate(327.880859 0)"/>
     <use xlink:href="#Helvetica-73" transform="translate(377.880859 0)"/>
     <use xlink:href="#Helvetica-69" transform="translate(427.880859 0)"/>
     <use xlink:href="#Helvetica-6f" transform="translate(450.097656 0)"/>
     <use xlink:href="#Helvetica-6e" transform="translate(505.712891 0)"/>
    </g>
   </g>
   <g id="text_12">
    <g id="patch_19">
     <path d="M 395.805938 207.752997 
L 477.914062 207.752997 
L 477.914062 192.509403 
L 395.805938 192.509403 
z
" style="fill: #ffffff"/>
    </g>
    <!-- clean stale data -->
    <g style="fill: #1a1a1a" transform="translate(398.335938 202.930184) scale(0.11 -0.11)">
     <defs>
      <path id="Helvetica-63" d="M 1703 3444 
Q 2269 3444 2623 3169 
Q 2978 2894 3050 2222 
L 2503 2222 
Q 2453 2531 2275 2736 
Q 2097 2941 1703 2941 
Q 1166 2941 934 2416 
Q 784 2075 784 1575 
Q 784 1072 996 728 
Q 1209 384 1666 384 
Q 2016 384 2220 598 
Q 2425 813 2503 1184 
L 3050 1184 
Q 2956 519 2581 211 
Q 2206 -97 1622 -97 
Q 966 -97 575 383 
Q 184 863 184 1581 
Q 184 2463 612 2953 
Q 1041 3444 1703 3444 
z
M 1616 3428 
L 1616 3428 
z
" transform="scale(0.015625)"/>
      <path id="Helvetica-6c" d="M 428 4591 
L 991 4591 
L 991 0 
L 428 0 
L 428 4591 
z
" transform="scale(0.015625)"/>
      <path id="Helvetica-64" d="M 769 1634 
Q 769 1097 997 734 
Q 1225 372 1728 372 
Q 2119 372 2370 708 
Q 2622 1044 2622 1672 
Q 2622 2306 2362 2611 
Q 2103 2916 1722 2916 
Q 1297 2916 1033 2591 
Q 769 2266 769 1634 
z
M 1616 3406 
Q 2000 3406 2259 3244 
Q 2409 3150 2600 2916 
L 2600 4606 
L 3141 4606 
L 3141 0 
L 2634 0 
L 2634 466 
Q 2438 156 2169 18 
Q 1900 -119 1553 -119 
Q 994 -119 584 351 
Q 175 822 175 1603 
Q 175 2334 548 2870 
Q 922 3406 1616 3406 
z
" transform="scale(0.015625)"/>
     </defs>
     <use xlink:href="#Helvetica-63"/>
     <use xlink:href="#Helvetica-6c" transform="translate(50 0)"/>
     <use xlink:href="#Helvetica-65" transform="translate(72.216797 0)"/>
     <use xlink:href="#Helvetica-61" transform="translate(127.832031 0)"/>
     <use xlink:href="#Helvetica-6e" transform="translate(183.447266 0)"/>
     <use xlink:href="#Helvetica-20" transform="translate(239.0625 0)"/>
     <use xlink:href="#Helvetica-73" transform="translate(266.845703 0)"/>
     <use xlink:href="#Helvetica-74" transform="translate(316.845703 0)"/>
     <use xlink:href="#Helvetica-61" transform="translate(344.628906 0)"/>
     <use xlink:href="#Helvetica-6c" transform="translate(400.244141 0)"/>
     <use xlink:href="#Helvetica-65" transform="translate(422.460938 0)"/>
     <use xlink:href="#Helvetica-20" transform="translate(478.076172 0)"/>
     <use xlink:href="#Helvetica-64" transform="translate(505.859375 0)"/>
     <use xlink:href="#Helvetica-61" transform="translate(561.474609 0)"/>
     <use xlink:href="#Helvetica-74" transform="translate(617.089844 0)"/>
     <use xlink:href="#Helvetica-61" transform="translate(644.873047 0)"/>
    </g>
   </g>
   <g id="text_13">
    <!-- loop  ×  N inputs -->
    <g style="fill: #555555" transform="translate(237.276 265.277437) scale(0.12 -0.12)">
     <defs>
      <path id="Helvetica-70" d="M 1825 378 
Q 2219 378 2480 708 
Q 2741 1038 2741 1694 
Q 2741 2094 2625 2381 
Q 2406 2934 1825 2934 
Q 1241 2934 1025 2350 
Q 909 2038 909 1556 
Q 909 1169 1025 897 
Q 1244 378 1825 378 
z
M 369 3331 
L 916 3331 
L 916 2888 
Q 1084 3116 1284 3241 
Q 1569 3428 1953 3428 
Q 2522 3428 2919 2992 
Q 3316 2556 3316 1747 
Q 3316 653 2744 184 
Q 2381 -113 1900 -113 
Q 1522 -113 1266 53 
Q 1116 147 931 375 
L 931 -1334 
L 369 -1334 
L 369 3331 
z
" transform="scale(0.015625)"/>
      <path id="Helvetica-d7" d="M 363 2822 
L 731 3191 
L 1916 2006 
L 3103 3191 
L 3481 2822 
L 2294 1634 
L 3481 450 
L 3103 72 
L 1916 1256 
L 731 72 
L 363 450 
L 1547 1634 
L 363 2822 
z
" transform="scale(0.015625)"/>
      <path id="Helvetica-4e" d="M 488 4591 
L 1222 4591 
L 3541 872 
L 3541 4591 
L 4131 4591 
L 4131 0 
L 3434 0 
L 1081 3716 
L 1081 0 
L 488 0 
L 488 4591 
z
M 2269 4591 
L 2269 4591 
z
" transform="scale(0.015625)"/>
      <path id="Helvetica-75" d="M 975 3347 
L 975 1125 
Q 975 869 1056 706 
Q 1206 406 1616 406 
Q 2203 406 2416 931 
Q 2531 1213 2531 1703 
L 2531 3347 
L 3094 3347 
L 3094 0 
L 2563 0 
L 2569 494 
Q 2459 303 2297 172 
Q 1975 -91 1516 -91 
Q 800 -91 541 388 
Q 400 644 400 1072 
L 400 3347 
L 975 3347 
z
M 1747 3428 
L 1747 3428 
z
" transform="scale(0.015625)"/>
     </defs>
     <use xlink:href="#Helvetica-6c"/>
     <use xlink:href="#Helvetica-6f" transform="translate(22.216797 0)"/>
     <use xlink:href="#Helvetica-6f" transform="translate(77.832031 0)"/>
     <use xlink:href="#Helvetica-70" transform="translate(133.447266 0)"/>
     <use xlink:href="#Helvetica-20" transform="translate(189.0625 0)"/>
     <use xlink:href="#Helvetica-20" transform="translate(216.845703 0)"/>
     <use xlink:href="#Helvetica-d7" transform="translate(244.628906 0)"/>
     <use xlink:href="#Helvetica-20" transform="translate(303.027344 0)"/>
     <use xlink:href="#Helvetica-20" transform="translate(330.810547 0)"/>
     <use xlink:href="#Helvetica-4e" transform="translate(358.59375 0)"/>
     <use xlink:href="#Helvetica-20" transform="translate(430.810547 0)"/>
     <use xlink:href="#Helvetica-69" transform="translate(458.59375 0)"/>
     <use xlink:href="#Helvetica-6e" transform="translate(480.810547 0)"/>
     <use xlink:href="#Helvetica-70" transform="translate(536.425781 0)"/>
     <use xlink:href="#Helvetica-75" transform="translate(592.041016 0)"/>
     <use xlink:href="#Helvetica-74" transform="translate(647.65625 0)"/>
     <use xlink:href="#Helvetica-73" transform="translate(675.439453 0)"/>
    </g>
   </g>
   <g id="text_14">
    <!-- (pick next input via the selected strategy) -->
    <g style="fill: #666666" transform="translate(356.472 301.157344) scale(0.105 -0.105)">
     <defs>
      <path id="DejaVuSans-Oblique-28" d="M 2731 4856 
Q 1903 3822 1495 2892 
Q 1088 1963 1088 1100 
Q 1088 606 1206 120 
Q 1325 -366 1563 -844 
L 1063 -844 
Q 775 -306 634 201 
Q 494 709 494 1197 
Q 494 2125 923 3036 
Q 1353 3947 2222 4856 
L 2731 4856 
z
" transform="scale(0.015625)"/>
      <path id="DejaVuSans-Oblique-6b" d="M 1172 4863 
L 1747 4863 
L 1197 2028 
L 3169 3500 
L 3916 3500 
L 1716 1825 
L 3322 0 
L 2625 0 
L 1131 1709 
L 800 0 
L 225 0 
L 1172 4863 
z
" transform="scale(0.015625)"/>
      <path id="DejaVuSans-Oblique-78" d="M 3841 3500 
L 2234 1784 
L 3219 0 
L 2559 0 
L 1819 1388 
L 531 0 
L -166 0 
L 1556 1844 
L 641 3500 
L 1300 3500 
L 1972 2234 
L 3144 3500 
L 3841 3500 
z
" transform="scale(0.015625)"/>
      <path id="DejaVuSans-Oblique-6c" d="M 1172 4863 
L 1747 4863 
L 800 0 
L 225 0 
L 1172 4863 
z
" transform="scale(0.015625)"/>
      <path id="DejaVuSans-Oblique-64" d="M 2675 525 
Q 2444 222 2128 65 
Q 1813 -91 1428 -91 
Q 903 -91 598 267 
Q 294 625 294 1247 
Q 294 1766 478 2236 
Q 663 2706 1013 3078 
Q 1244 3325 1534 3454 
Q 1825 3584 2144 3584 
Q 2481 3584 2739 3421 
Q 2997 3259 3138 2956 
L 3513 4863 
L 4091 4863 
L 3144 0 
L 2566 0 
L 2675 525 
z
M 891 1350 
Q 891 897 1095 644 
Q 1300 391 1663 391 
Q 1931 391 2161 520 
Q 2391 650 2566 903 
Q 2750 1166 2856 1509 
Q 2963 1853 2963 2188 
Q 2963 2622 2758 2865 
Q 2553 3109 2194 3109 
Q 1922 3109 1687 2981 
Q 1453 2853 1288 2613 
Q 1106 2353 998 2009 
Q 891 1666 891 1350 
z
" transform="scale(0.015625)"/>
      <path id="DejaVuSans-Oblique-29" d="M -397 -844 
Q 434 191 840 1120 
Q 1247 2050 1247 2913 
Q 1247 3406 1130 3892 
Q 1013 4378 775 4856 
L 1275 4856 
Q 1563 4316 1703 3812 
Q 1844 3309 1844 2822 
Q 1844 1891 1411 973 
Q 978 56 116 -844 
L -397 -844 
z
" transform="scale(0.015625)"/>
     </defs>
     <use xlink:href="#DejaVuSans-Oblique-28"/>
     <use xlink:href="#DejaVuSans-Oblique-70" transform="translate(39.013672 0)"/>
     <use xlink:href="#DejaVuSans-Oblique-69" transform="translate(102.490234 0)"/>
     <use xlink:href="#DejaVuSans-Oblique-63" transform="translate(130.273438 0)"/>
     <use xlink:href="#DejaVuSans-Oblique-6b" transform="translate(185.253906 0)"/>
     <use xlink:href="#DejaVuSans-Oblique-20" transform="translate(243.164062 0)"/>
     <use xlink:href="#DejaVuSans-Oblique-6e" transform="translate(274.951172 0)"/>
     <use xlink:href="#DejaVuSans-Oblique-65" transform="translate(338.330078 0)"/>
     <use xlink:href="#DejaVuSans-Oblique-78" transform="translate(399.853516 0)"/>
     <use xlink:href="#DejaVuSans-Oblique-74" transform="translate(459.033203 0)"/>
     <use xlink:href="#DejaVuSans-Oblique-20" transform="translate(498.242188 0)"/>
     <use xlink:href="#DejaVuSans-Oblique-69" transform="translate(530.029297 0)"/>
     <use xlink:href="#DejaVuSans-Oblique-6e" transform="translate(557.8125 0)"/>
     <use xlink:href="#DejaVuSans-Oblique-70" transform="translate(621.191406 0)"/>
     <use xlink:href="#DejaVuSans-Oblique-75" transform="translate(684.667969 0)"/>
     <use xlink:href="#DejaVuSans-Oblique-74" transform="translate(748.046875 0)"/>
     <use xlink:href="#DejaVuSans-Oblique-20" transform="translate(787.255859 0)"/>
     <use xlink:href="#DejaVuSans-Oblique-76" transform="translate(819.042969 0)"/>
     <use xlink:href="#DejaVuSans-Oblique-69" transform="translate(878.222656 0)"/>
     <use xlink:href="#DejaVuSans-Oblique-61" transform="translate(906.005859 0)"/>
     <use xlink:href="#DejaVuSans-Oblique-20" transform="translate(967.285156 0)"/>
     <use xlink:href="#DejaVuSans-Oblique-74" transform="translate(999.072266 0)"/>
     <use xlink:href="#DejaVuSans-Oblique-68" transform="translate(1038.28125 0)"/>
     <use xlink:href="#DejaVuSans-Oblique-65" transform="translate(1101.660156 0)"/>
     <use xlink:href="#DejaVuSans-Oblique-20" transform="translate(1163.183594 0)"/>
     <use xlink:href="#DejaVuSans-Oblique-73" transform="translate(1194.970703 0)"/>
     <use xlink:href="#DejaVuSans-Oblique-65" transform="translate(1247.070312 0)"/>
     <use xlink:href="#DejaVuSans-Oblique-6c" transform="translate(1308.59375 0)"/>
     <use xlink:href="#DejaVuSans-Oblique-65" transform="translate(1336.376953 0)"/>
     <use xlink:href="#DejaVuSans-Oblique-63" transform="translate(1397.900391 0)"/>
     <use xlink:href="#DejaVuSans-Oblique-74" transform="translate(1452.880859 0)"/>
     <use xlink:href="#DejaVuSans-Oblique-65" transform="translate(1492.089844 0)"/>
     <use xlink:href="#DejaVuSans-Oblique-64" transform="translate(1553.613281 0)"/>
     <use xlink:href="#DejaVuSans-Oblique-20" transform="translate(1617.089844 0)"/>
     <use xlink:href="#DejaVuSans-Oblique-73" transform="translate(1648.876953 0)"/>
     <use xlink:href="#DejaVuSans-Oblique-74" transform="translate(1700.976562 0)"/>
     <use xlink:href="#DejaVuSans-Oblique-72" transform="translate(1740.185547 0)"/>
     <use xlink:href="#DejaVuSans-Oblique-61" transform="translate(1781.298828 0)"/>
     <use xlink:href="#DejaVuSans-Oblique-74" transform="translate(1842.578125 0)"/>
     <use xlink:href="#DejaVuSans-Oblique-65" transform="translate(1881.787109 0)"/>
     <use xlink:href="#DejaVuSans-Oblique-67" transform="translate(1943.310547 0)"/>
     <use xlink:href="#DejaVuSans-Oblique-79" transform="translate(2006.787109 0)"/>
     <use xlink:href="#DejaVuSans-Oblique-29" transform="translate(2065.966797 0)"/>
    </g>
   </g>
   <g id="text_15">
    <!-- (run the property: side-effect into the SUT) -->
    <g style="fill: #666666" transform="translate(356.472 348.281344) scale(0.105 -0.105)">
     <defs>
      <path id="DejaVuSans-Oblique-3a" d="M 978 3309 
L 1638 3309 
L 1484 2516 
L 825 2516 
L 978 3309 
z
M 488 794 
L 1147 794 
L 991 0 
L 331 0 
L 488 794 
z
" transform="scale(0.015625)"/>
      <path id="DejaVuSans-Oblique-2d" d="M 391 2009 
L 2075 2009 
L 1978 1497 
L 288 1497 
L 391 2009 
z
" transform="scale(0.015625)"/>
      <path id="DejaVuSans-Oblique-53" d="M 3859 4513 
L 3738 3897 
Q 3422 4066 3111 4152 
Q 2800 4238 2509 4238 
Q 1944 4238 1609 3991 
Q 1275 3744 1275 3334 
Q 1275 3109 1398 2989 
Q 1522 2869 2034 2731 
L 2413 2638 
Q 3053 2472 3303 2217 
Q 3553 1963 3553 1503 
Q 3553 797 2998 353 
Q 2444 -91 1538 -91 
Q 1166 -91 791 -17 
Q 416 56 38 206 
L 166 856 
Q 513 641 861 531 
Q 1209 422 1556 422 
Q 2147 422 2503 684 
Q 2859 947 2859 1369 
Q 2859 1650 2717 1795 
Q 2575 1941 2106 2059 
L 1728 2156 
Q 1081 2325 845 2545 
Q 609 2766 609 3163 
Q 609 3859 1145 4304 
Q 1681 4750 2541 4750 
Q 2875 4750 3203 4690 
Q 3531 4631 3859 4513 
z
" transform="scale(0.015625)"/>
      <path id="DejaVuSans-Oblique-55" d="M 991 4666 
L 1625 4666 
L 1075 1831 
Q 1041 1641 1027 1517 
Q 1013 1394 1013 1300 
Q 1013 869 1253 645 
Q 1494 422 1959 422 
Q 2563 422 2898 753 
Q 3234 1084 3378 1831 
L 3928 4666 
L 4563 4666 
L 4000 1753 
Q 3816 809 3300 359 
Q 2784 -91 1888 -91 
Q 1188 -91 780 261 
Q 372 613 372 1216 
Q 372 1325 387 1461 
Q 403 1597 434 1753 
L 991 4666 
z
" transform="scale(0.015625)"/>
      <path id="DejaVuSans-Oblique-54" d="M 378 4666 
L 4325 4666 
L 4225 4134 
L 2559 4134 
L 1759 0 
L 1125 0 
L 1925 4134 
L 275 4134 
L 378 4666 
z
" transform="scale(0.015625)"/>
     </defs>
     <use xlink:href="#DejaVuSans-Oblique-28"/>
     <use xlink:href="#DejaVuSans-Oblique-72" transform="translate(39.013672 0)"/>
     <use xlink:href="#DejaVuSans-Oblique-75" transform="translate(80.126953 0)"/>
     <use xlink:href="#DejaVuSans-Oblique-6e" transform="translate(143.505859 0)"/>
     <use xlink:href="#DejaVuSans-Oblique-20" transform="translate(206.884766 0)"/>
     <use xlink:href="#DejaVuSans-Oblique-74" transform="translate(238.671875 0)"/>
     <use xlink:href="#DejaVuSans-Oblique-68" transform="translate(277.880859 0)"/>
     <use xlink:href="#DejaVuSans-Oblique-65" transform="translate(341.259766 0)"/>
     <use xlink:href="#DejaVuSans-Oblique-20" transform="translate(402.783203 0)"/>
     <use xlink:href="#DejaVuSans-Oblique-70" transform="translate(434.570312 0)"/>
     <use xlink:href="#DejaVuSans-Oblique-72" transform="translate(498.046875 0)"/>
     <use xlink:href="#DejaVuSans-Oblique-6f" transform="translate(539.160156 0)"/>
     <use xlink:href="#DejaVuSans-Oblique-70" transform="translate(600.341797 0)"/>
     <use xlink:href="#DejaVuSans-Oblique-65" transform="translate(663.818359 0)"/>
     <use xlink:href="#DejaVuSans-Oblique-72" transform="translate(725.341797 0)"/>
     <use xlink:href="#DejaVuSans-Oblique-74" transform="translate(766.455078 0)"/>
     <use xlink:href="#DejaVuSans-Oblique-79" transform="translate(805.664062 0)"/>
     <use xlink:href="#DejaVuSans-Oblique-3a" transform="translate(864.84375 0)"/>
     <use xlink:href="#DejaVuSans-Oblique-20" transform="translate(898.535156 0)"/>
     <use xlink:href="#DejaVuSans-Oblique-73" transform="translate(930.322266 0)"/>
     <use xlink:href="#DejaVuSans-Oblique-69" transform="translate(982.421875 0)"/>
     <use xlink:href="#DejaVuSans-Oblique-64" transform="translate(1010.205078 0)"/>
     <use xlink:href="#DejaVuSans-Oblique-65" transform="translate(1073.681641 0)"/>
     <use xlink:href="#DejaVuSans-Oblique-2d" transform="translate(1135.205078 0)"/>
     <use xlink:href="#DejaVuSans-Oblique-65" transform="translate(1171.289062 0)"/>
     <use xlink:href="#DejaVuSans-Oblique-66" transform="translate(1232.8125 0)"/>
     <use xlink:href="#DejaVuSans-Oblique-66" transform="translate(1268.017578 0)"/>
     <use xlink:href="#DejaVuSans-Oblique-65" transform="translate(1303.222656 0)"/>
     <use xlink:href="#DejaVuSans-Oblique-63" transform="translate(1364.746094 0)"/>
     <use xlink:href="#DejaVuSans-Oblique-74" transform="translate(1419.726562 0)"/>
     <use xlink:href="#DejaVuSans-Oblique-20" transform="translate(1458.935547 0)"/>
     <use xlink:href="#DejaVuSans-Oblique-69" transform="translate(1490.722656 0)"/>
     <use xlink:href="#DejaVuSans-Oblique-6e" transform="translate(1518.505859 0)"/>
     <use xlink:href="#DejaVuSans-Oblique-74" transform="translate(1581.884766 0)"/>
     <use xlink:href="#DejaVuSans-Oblique-6f" transform="translate(1621.09375 0)"/>
     <use xlink:href="#DejaVuSans-Oblique-20" transform="translate(1682.275391 0)"/>
     <use xlink:href="#DejaVuSans-Oblique-74" transform="translate(1714.0625 0)"/>
     <use xlink:href="#DejaVuSans-Oblique-68" transform="translate(1753.271484 0)"/>
     <use xlink:href="#DejaVuSans-Oblique-65" transform="translate(1816.650391 0)"/>
     <use xlink:href="#DejaVuSans-Oblique-20" transform="translate(1878.173828 0)"/>
     <use xlink:href="#DejaVuSans-Oblique-53" transform="translate(1909.960938 0)"/>
     <use xlink:href="#DejaVuSans-Oblique-55" transform="translate(1973.4375 0)"/>
     <use xlink:href="#DejaVuSans-Oblique-54" transform="translate(2046.630859 0)"/>
     <use xlink:href="#DejaVuSans-Oblique-29" transform="translate(2107.714844 0)"/>
    </g>
   </g>
   <g id="text_16">
    <g id="patch_20">
     <path d="M 375.322734 388.016356 
L 498.397266 388.016356 
L 498.397266 372.606044 
L 375.322734 372.606044 
z
" style="fill: #ffffff"/>
    </g>
    <!-- read coverage snapshot -->
    <g style="fill: #1a1a1a" transform="translate(377.852734 383.052606) scale(0.11 -0.11)">
     <defs>
      <path id="Helvetica-76" d="M 688 3347 
L 1581 622 
L 2516 3347 
L 3131 3347 
L 1869 0 
L 1269 0 
L 34 3347 
L 688 3347 
z
" transform="scale(0.015625)"/>
      <path id="Helvetica-67" d="M 1594 3406 
Q 1988 3406 2281 3213 
Q 2441 3103 2606 2894 
L 2606 3316 
L 3125 3316 
L 3125 272 
Q 3125 -366 2938 -734 
Q 2588 -1416 1616 -1416 
Q 1075 -1416 706 -1173 
Q 338 -931 294 -416 
L 866 -416 
Q 906 -641 1028 -763 
Q 1219 -950 1628 -950 
Q 2275 -950 2475 -494 
Q 2594 -225 2584 466 
Q 2416 209 2178 84 
Q 1941 -41 1550 -41 
Q 1006 -41 598 345 
Q 191 731 191 1622 
Q 191 2463 602 2934 
Q 1013 3406 1594 3406 
z
M 2606 1688 
Q 2606 2309 2350 2609 
Q 2094 2909 1697 2909 
Q 1103 2909 884 2353 
Q 769 2056 769 1575 
Q 769 1009 998 714 
Q 1228 419 1616 419 
Q 2222 419 2469 966 
Q 2606 1275 2606 1688 
z
M 1659 3428 
L 1659 3428 
z
" transform="scale(0.015625)"/>
      <path id="Helvetica-68" d="M 413 4606 
L 975 4606 
L 975 2894 
Q 1175 3147 1334 3250 
Q 1606 3428 2013 3428 
Q 2741 3428 3000 2919 
Q 3141 2641 3141 2147 
L 3141 0 
L 2563 0 
L 2563 2109 
Q 2563 2478 2469 2650 
Q 2316 2925 1894 2925 
Q 1544 2925 1259 2684 
Q 975 2444 975 1775 
L 975 0 
L 413 0 
L 413 4606 
z
" transform="scale(0.015625)"/>
     </defs>
     <use xlink:href="#Helvetica-72"/>
     <use xlink:href="#Helvetica-65" transform="translate(33.300781 0)"/>
     <use xlink:href="#Helvetica-61" transform="translate(88.916016 0)"/>
     <use xlink:href="#Helvetica-64" transform="translate(144.53125 0)"/>
     <use xlink:href="#Helvetica-20" transform="translate(200.146484 0)"/>
     <use xlink:href="#Helvetica-63" transform="translate(227.929688 0)"/>
     <use xlink:href="#Helvetica-6f" transform="translate(277.929688 0)"/>
     <use xlink:href="#Helvetica-76" transform="translate(333.544922 0)"/>
     <use xlink:href="#Helvetica-65" transform="translate(383.544922 0)"/>
     <use xlink:href="#Helvetica-72" transform="translate(439.160156 0)"/>
     <use xlink:href="#Helvetica-61" transform="translate(472.460938 0)"/>
     <use xlink:href="#Helvetica-67" transform="translate(528.076172 0)"/>
     <use xlink:href="#Helvetica-65" transform="translate(583.691406 0)"/>
     <use xlink:href="#Helvetica-20" transform="translate(639.306641 0)"/>
     <use xlink:href="#Helvetica-73" transform="translate(667.089844 0)"/>
     <use xlink:href="#Helvetica-6e" transform="translate(717.089844 0)"/>
     <use xlink:href="#Helvetica-61" transform="translate(772.705078 0)"/>
     <use xlink:href="#Helvetica-70" transform="translate(828.320312 0)"/>
     <use xlink:href="#Helvetica-73" transform="translate(883.935547 0)"/>
     <use xlink:href="#Helvetica-68" transform="translate(933.935547 0)"/>
     <use xlink:href="#Helvetica-6f" transform="translate(989.550781 0)"/>
     <use xlink:href="#Helvetica-74" transform="translate(1045.166016 0)"/>
    </g>
   </g>
   <g id="text_17">
    <g id="patch_21">
     <path d="M 391.530547 429.525887 
L 482.189453 429.525887 
L 482.189453 414.256512 
L 391.530547 414.256512 
z
" style="fill: #ffffff"/>
    </g>
    <!-- covered positions -->
    <g style="fill: #444444" transform="translate(394.060547 424.703075) scale(0.11 -0.11)">
     <use xlink:href="#Helvetica-63"/>
     <use xlink:href="#Helvetica-6f" transform="translate(50 0)"/>
     <use xlink:href="#Helvetica-76" transform="translate(105.615234 0)"/>
     <use xlink:href="#Helvetica-65" transform="translate(155.615234 0)"/>
     <use xlink:href="#Helvetica-72" transform="translate(211.230469 0)"/>
     <use xlink:href="#Helvetica-65" transform="translate(244.53125 0)"/>
     <use xlink:href="#Helvetica-64" transform="translate(300.146484 0)"/>
     <use xlink:href="#Helvetica-20" transform="translate(355.761719 0)"/>
     <use xlink:href="#Helvetica-70" transform="translate(383.544922 0)"/>
     <use xlink:href="#Helvetica-6f" transform="translate(439.160156 0)"/>
     <use xlink:href="#Helvetica-73" transform="translate(494.775391 0)"/>
     <use xlink:href="#Helvetica-69" transform="translate(544.775391 0)"/>
     <use xlink:href="#Helvetica-74" transform="translate(566.992188 0)"/>
     <use xlink:href="#Helvetica-69" transform="translate(594.775391 0)"/>
     <use xlink:href="#Helvetica-6f" transform="translate(616.992188 0)"/>
     <use xlink:href="#Helvetica-6e" transform="translate(672.607422 0)"/>
     <use xlink:href="#Helvetica-73" transform="translate(728.222656 0)"/>
    </g>
   </g>
   <g id="text_18">
    <!-- (fold delta into Session Feedback) -->
    <g style="fill: #666666" transform="translate(356.472 475.793344) scale(0.105 -0.105)">
     <defs>
      <path id="DejaVuSans-Oblique-46" d="M 1081 4666 
L 3756 4666 
L 3653 4134 
L 1606 4134 
L 1338 2759 
L 3188 2759 
L 3084 2228 
L 1234 2228 
L 800 0 
L 172 0 
L 1081 4666 
z
" transform="scale(0.015625)"/>
      <path id="DejaVuSans-Oblique-62" d="M 3169 2138 
Q 3169 2591 2961 2847 
Q 2753 3103 2388 3103 
Q 2122 3103 1889 2973 
Q 1656 2844 1484 2597 
Q 1303 2338 1198 1995 
Q 1094 1653 1094 1313 
Q 1094 881 1298 636 
Q 1503 391 1863 391 
Q 2134 391 2365 517 
Q 2597 644 2772 891 
Q 2950 1147 3059 1487 
Q 3169 1828 3169 2138 
z
M 1381 2969 
Q 1594 3256 1914 3420 
Q 2234 3584 2584 3584 
Q 3122 3584 3439 3221 
Q 3756 2859 3756 2241 
Q 3756 1734 3570 1259 
Q 3384 784 3041 416 
Q 2816 172 2522 40 
Q 2228 -91 1906 -91 
Q 1566 -91 1316 65 
Q 1066 222 909 531 
L 806 0 
L 231 0 
L 1178 4863 
L 1753 4863 
L 1381 2969 
z
" transform="scale(0.015625)"/>
     </defs>
     <use xlink:href="#DejaVuSans-Oblique-28"/>
     <use xlink:href="#DejaVuSans-Oblique-66" transform="translate(39.013672 0)"/>
     <use xlink:href="#DejaVuSans-Oblique-6f" transform="translate(74.21875 0)"/>
     <use xlink:href="#DejaVuSans-Oblique-6c" transform="translate(135.400391 0)"/>
     <use xlink:href="#DejaVuSans-Oblique-64" transform="translate(163.183594 0)"/>
     <use xlink:href="#DejaVuSans-Oblique-20" transform="translate(226.660156 0)"/>
     <use xlink:href="#DejaVuSans-Oblique-64" transform="translate(258.447266 0)"/>
     <use xlink:href="#DejaVuSans-Oblique-65" transform="translate(321.923828 0)"/>
     <use xlink:href="#DejaVuSans-Oblique-6c" transform="translate(383.447266 0)"/>
     <use xlink:href="#DejaVuSans-Oblique-74" transform="translate(411.230469 0)"/>
     <use xlink:href="#DejaVuSans-Oblique-61" transform="translate(450.439453 0)"/>
     <use xlink:href="#DejaVuSans-Oblique-20" transform="translate(511.71875 0)"/>
     <use xlink:href="#DejaVuSans-Oblique-69" transform="translate(543.505859 0)"/>
     <use xlink:href="#DejaVuSans-Oblique-6e" transform="translate(571.289062 0)"/>
     <use xlink:href="#DejaVuSans-Oblique-74" transform="translate(634.667969 0)"/>
     <use xlink:href="#DejaVuSans-Oblique-6f" transform="translate(673.876953 0)"/>
     <use xlink:href="#DejaVuSans-Oblique-20" transform="translate(735.058594 0)"/>
     <use xlink:href="#DejaVuSans-Oblique-53" transform="translate(766.845703 0)"/>
     <use xlink:href="#DejaVuSans-Oblique-65" transform="translate(830.322266 0)"/>
     <use xlink:href="#DejaVuSans-Oblique-73" transform="translate(891.845703 0)"/>
     <use xlink:href="#DejaVuSans-Oblique-73" transform="translate(943.945312 0)"/>
     <use xlink:href="#DejaVuSans-Oblique-69" transform="translate(996.044922 0)"/>
     <use xlink:href="#DejaVuSans-Oblique-6f" transform="translate(1023.828125 0)"/>
     <use xlink:href="#DejaVuSans-Oblique-6e" transform="translate(1085.009766 0)"/>
     <use xlink:href="#DejaVuSans-Oblique-20" transform="translate(1148.388672 0)"/>
     <use xlink:href="#DejaVuSans-Oblique-46" transform="translate(1180.175781 0)"/>
     <use xlink:href="#DejaVuSans-Oblique-65" transform="translate(1237.695312 0)"/>
     <use xlink:href="#DejaVuSans-Oblique-65" transform="translate(1299.21875 0)"/>
     <use xlink:href="#DejaVuSans-Oblique-64" transform="translate(1360.742188 0)"/>
     <use xlink:href="#DejaVuSans-Oblique-62" transform="translate(1424.21875 0)"/>
     <use xlink:href="#DejaVuSans-Oblique-61" transform="translate(1487.695312 0)"/>
     <use xlink:href="#DejaVuSans-Oblique-63" transform="translate(1548.974609 0)"/>
     <use xlink:href="#DejaVuSans-Oblique-6b" transform="translate(1603.955078 0)"/>
     <use xlink:href="#DejaVuSans-Oblique-29" transform="translate(1661.865234 0)"/>
    </g>
   </g>
   <g id="text_19">
    <g id="patch_22">
     <path d="M 494.398766 551.480997 
L 584.449234 551.480997 
L 584.449234 536.237403 
L 494.398766 536.237403 
z
" style="fill: #ffffff"/>
    </g>
    <!-- build method tree -->
    <g style="fill: #1a1a1a" transform="translate(496.928766 546.658184) scale(0.11 -0.11)">
     <defs>
      <path id="Helvetica-62" d="M 369 4606 
L 916 4606 
L 916 2941 
Q 1100 3181 1356 3307 
Q 1613 3434 1913 3434 
Q 2538 3434 2927 3004 
Q 3316 2575 3316 1738 
Q 3316 944 2931 419 
Q 2547 -106 1866 -106 
Q 1484 -106 1222 78 
Q 1066 188 888 428 
L 888 0 
L 369 0 
L 369 4606 
z
M 1831 391 
Q 2288 391 2514 753 
Q 2741 1116 2741 1709 
Q 2741 2238 2514 2584 
Q 2288 2931 1847 2931 
Q 1463 2931 1173 2647 
Q 884 2363 884 1709 
Q 884 1238 1003 944 
Q 1225 391 1831 391 
z
" transform="scale(0.015625)"/>
      <path id="Helvetica-6d" d="M 413 3347 
L 969 3347 
L 969 2872 
Q 1169 3119 1331 3231 
Q 1609 3422 1963 3422 
Q 2363 3422 2606 3225 
Q 2744 3113 2856 2894 
Q 3044 3163 3297 3292 
Q 3550 3422 3866 3422 
Q 4541 3422 4784 2934 
Q 4916 2672 4916 2228 
L 4916 0 
L 4331 0 
L 4331 2325 
Q 4331 2659 4164 2784 
Q 3997 2909 3756 2909 
Q 3425 2909 3186 2687 
Q 2947 2466 2947 1947 
L 2947 0 
L 2375 0 
L 2375 2184 
Q 2375 2525 2294 2681 
Q 2166 2916 1816 2916 
Q 1497 2916 1236 2669 
Q 975 2422 975 1775 
L 975 0 
L 413 0 
L 413 3347 
z
" transform="scale(0.015625)"/>
     </defs>
     <use xlink:href="#Helvetica-62"/>
     <use xlink:href="#Helvetica-75" transform="translate(55.615234 0)"/>
     <use xlink:href="#Helvetica-69" transform="translate(111.230469 0)"/>
     <use xlink:href="#Helvetica-6c" transform="translate(133.447266 0)"/>
     <use xlink:href="#Helvetica-64" transform="translate(155.664062 0)"/>
     <use xlink:href="#Helvetica-20" transform="translate(211.279297 0)"/>
     <use xlink:href="#Helvetica-6d" transform="translate(239.0625 0)"/>
     <use xlink:href="#Helvetica-65" transform="translate(322.363281 0)"/>
     <use xlink:href="#Helvetica-74" transform="translate(377.978516 0)"/>
     <use xlink:href="#Helvetica-68" transform="translate(405.761719 0)"/>
     <use xlink:href="#Helvetica-6f" transform="translate(461.376953 0)"/>
     <use xlink:href="#Helvetica-64" transform="translate(516.992188 0)"/>
     <use xlink:href="#Helvetica-20" transform="translate(572.607422 0)"/>
     <use xlink:href="#Helvetica-74" transform="translate(600.390625 0)"/>
     <use xlink:href="#Helvetica-72" transform="translate(628.173828 0)"/>
     <use xlink:href="#Helvetica-65" transform="translate(661.474609 0)"/>
     <use xlink:href="#Helvetica-65" transform="translate(717.089844 0)"/>
    </g>
   </g>
   <g id="text_20">
    <g id="patch_23">
     <path d="M 509.074313 598.604997 
L 569.773688 598.604997 
L 569.773688 583.361403 
L 509.074313 583.361403 
z
" style="fill: #ffffff"/>
    </g>
    <!-- branch tree -->
    <g style="fill: #444444" transform="translate(511.604312 593.782184) scale(0.11 -0.11)">
     <use xlink:href="#Helvetica-62"/>
     <use xlink:href="#Helvetica-72" transform="translate(55.615234 0)"/>
     <use xlink:href="#Helvetica-61" transform="translate(88.916016 0)"/>
     <use xlink:href="#Helvetica-6e" transform="translate(144.53125 0)"/>
     <use xlink:href="#Helvetica-63" transform="translate(200.146484 0)"/>
     <use xlink:href="#Helvetica-68" transform="translate(250.146484 0)"/>
     <use xlink:href="#Helvetica-20" transform="translate(305.761719 0)"/>
     <use xlink:href="#Helvetica-74" transform="translate(333.544922 0)"/>
     <use xlink:href="#Helvetica-72" transform="translate(361.328125 0)"/>
     <use xlink:href="#Helvetica-65" transform="translate(394.628906 0)"/>
     <use xlink:href="#Helvetica-65" transform="translate(450.244141 0)"/>
    </g>
   </g>
   <g id="text_21">
    <g id="patch_24">
     <path d="M 376.240547 645.855325 
L 497.479453 645.855325 
L 497.479453 630.359075 
L 376.240547 630.359075 
z
" style="fill: #ffffff"/>
    </g>
    <!-- final coverage snapshot -->
    <g style="fill: #1a1a1a" transform="translate(378.770547 640.891575) scale(0.11 -0.11)">
     <defs>
      <path id="Helvetica-66" d="M 553 3856 
Q 566 4206 675 4369 
Q 872 4656 1434 4656 
Q 1488 4656 1544 4653 
Q 1600 4650 1672 4644 
L 1672 4131 
Q 1584 4138 1545 4139 
Q 1506 4141 1472 4141 
Q 1216 4141 1166 4008 
Q 1116 3875 1116 3331 
L 1672 3331 
L 1672 2888 
L 1109 2888 
L 1109 0 
L 553 0 
L 553 2888 
L 88 2888 
L 88 3331 
L 553 3331 
L 553 3856 
z
" transform="scale(0.015625)"/>
     </defs>
     <use xlink:href="#Helvetica-66"/>
     <use xlink:href="#Helvetica-69" transform="translate(27.783203 0)"/>
     <use xlink:href="#Helvetica-6e" transform="translate(50 0)"/>
     <use xlink:href="#Helvetica-61" transform="translate(105.615234 0)"/>
     <use xlink:href="#Helvetica-6c" transform="translate(161.230469 0)"/>
     <use xlink:href="#Helvetica-20" transform="translate(183.447266 0)"/>
     <use xlink:href="#Helvetica-63" transform="translate(211.230469 0)"/>
     <use xlink:href="#Helvetica-6f" transform="translate(261.230469 0)"/>
     <use xlink:href="#Helvetica-76" transform="translate(316.845703 0)"/>
     <use xlink:href="#Helvetica-65" transform="translate(366.845703 0)"/>
     <use xlink:href="#Helvetica-72" transform="translate(422.460938 0)"/>
     <use xlink:href="#Helvetica-61" transform="translate(455.761719 0)"/>
     <use xlink:href="#Helvetica-67" transform="translate(511.376953 0)"/>
     <use xlink:href="#Helvetica-65" transform="translate(566.992188 0)"/>
     <use xlink:href="#Helvetica-20" transform="translate(622.607422 0)"/>
     <use xlink:href="#Helvetica-73" transform="translate(650.390625 0)"/>
     <use xlink:href="#Helvetica-6e" transform="translate(700.390625 0)"/>
     <use xlink:href="#Helvetica-61" transform="translate(756.005859 0)"/>
     <use xlink:href="#Helvetica-70" transform="translate(811.621094 0)"/>
     <use xlink:href="#Helvetica-73" transform="translate(867.236328 0)"/>
     <use xlink:href="#Helvetica-68" transform="translate(917.236328 0)"/>
     <use xlink:href="#Helvetica-6f" transform="translate(972.851562 0)"/>
     <use xlink:href="#Helvetica-74" transform="translate(1028.466797 0)"/>
    </g>
   </g>
   <g id="text_22">
    <g id="patch_25">
     <path d="M 378.841875 692.852997 
L 494.878125 692.852997 
L 494.878125 677.609403 
L 378.841875 677.609403 
z
" style="fill: #ffffff"/>
    </g>
    <!-- branch lines + covered -->
    <g style="fill: #444444" transform="translate(381.371875 688.030184) scale(0.11 -0.11)">
     <defs>
      <path id="Helvetica-2b" d="M 288 1369 
L 288 1894 
L 1650 1894 
L 1650 3266 
L 2184 3266 
L 2184 1894 
L 3547 1894 
L 3547 1369 
L 2184 1369 
L 2184 0 
L 1650 0 
L 1650 1369 
L 288 1369 
z
" transform="scale(0.015625)"/>
     </defs>
     <use xlink:href="#Helvetica-62"/>
     <use xlink:href="#Helvetica-72" transform="translate(55.615234 0)"/>
     <use xlink:href="#Helvetica-61" transform="translate(88.916016 0)"/>
     <use xlink:href="#Helvetica-6e" transform="translate(144.53125 0)"/>
     <use xlink:href="#Helvetica-63" transform="translate(200.146484 0)"/>
     <use xlink:href="#Helvetica-68" transform="translate(250.146484 0)"/>
     <use xlink:href="#Helvetica-20" transform="translate(305.761719 0)"/>
     <use xlink:href="#Helvetica-6c" transform="translate(333.544922 0)"/>
     <use xlink:href="#Helvetica-69" transform="translate(355.761719 0)"/>
     <use xlink:href="#Helvetica-6e" transform="translate(377.978516 0)"/>
     <use xlink:href="#Helvetica-65" transform="translate(433.59375 0)"/>
     <use xlink:href="#Helvetica-73" transform="translate(489.208984 0)"/>
     <use xlink:href="#Helvetica-20" transform="translate(539.208984 0)"/>
     <use xlink:href="#Helvetica-2b" transform="translate(566.992188 0)"/>
     <use xlink:href="#Helvetica-20" transform="translate(625.390625 0)"/>
     <use xlink:href="#Helvetica-63" transform="translate(653.173828 0)"/>
     <use xlink:href="#Helvetica-6f" transform="translate(703.173828 0)"/>
     <use xlink:href="#Helvetica-76" transform="translate(758.789062 0)"/>
     <use xlink:href="#Helvetica-65" transform="translate(808.789062 0)"/>
     <use xlink:href="#Helvetica-72" transform="translate(864.404297 0)"/>
     <use xlink:href="#Helvetica-65" transform="translate(897.705078 0)"/>
     <use xlink:href="#Helvetica-64" transform="translate(953.320312 0)"/>
    </g>
   </g>
   <g id="text_23">
    <g id="patch_26">
     <path d="M 611.951984 739.976997 
L 672.024016 739.976997 
L 672.024016 724.733403 
L 611.951984 724.733403 
z
" style="fill: #ffffff"/>
    </g>
    <!-- write report -->
    <g style="fill: #1a1a1a" transform="translate(614.481984 735.154184) scale(0.11 -0.11)">
     <defs>
      <path id="Helvetica-77" d="M 672 3347 
L 1316 709 
L 1969 3347 
L 2600 3347 
L 3256 725 
L 3941 3347 
L 4503 3347 
L 3531 0 
L 2947 0 
L 2266 2591 
L 1606 0 
L 1022 0 
L 56 3347 
L 672 3347 
z
" transform="scale(0.015625)"/>
     </defs>
     <use xlink:href="#Helvetica-77"/>
     <use xlink:href="#Helvetica-72" transform="translate(72.216797 0)"/>
     <use xlink:href="#Helvetica-69" transform="translate(105.517578 0)"/>
     <use xlink:href="#Helvetica-74" transform="translate(127.734375 0)"/>
     <use xlink:href="#Helvetica-65" transform="translate(155.517578 0)"/>
     <use xlink:href="#Helvetica-20" transform="translate(211.132812 0)"/>
     <use xlink:href="#Helvetica-72" transform="translate(238.916016 0)"/>
     <use xlink:href="#Helvetica-65" transform="translate(272.216797 0)"/>
     <use xlink:href="#Helvetica-70" transform="translate(327.832031 0)"/>
     <use xlink:href="#Helvetica-6f" transform="translate(383.447266 0)"/>
     <use xlink:href="#Helvetica-72" transform="translate(439.0625 0)"/>
     <use xlink:href="#Helvetica-74" transform="translate(472.363281 0)"/>
    </g>
   </g>
   <g id="text_24">
    <g id="patch_27">
     <path d="M 524.659937 787.100997 
L 554.188062 787.100997 
L 554.188062 771.857403 
L 524.659937 771.857403 
z
" style="fill: #ffffff"/>
    </g>
    <!-- done -->
    <g style="fill: #444444" transform="translate(527.189937 782.278184) scale(0.11 -0.11)">
     <use xlink:href="#Helvetica-64"/>
     <use xlink:href="#Helvetica-6f" transform="translate(55.615234 0)"/>
     <use xlink:href="#Helvetica-6e" transform="translate(111.230469 0)"/>
     <use xlink:href="#Helvetica-65" transform="translate(166.845703 0)"/>
    </g>
   </g>
   <g id="text_25">
    <!-- Session Choreography -->
    <g style="fill: #263238" transform="translate(462.98875 39.028875) scale(0.2 -0.2)">
     <defs>
      <path id="DejaVuSans-Bold-53" d="M 3834 4519 
L 3834 3531 
Q 3450 3703 3084 3790 
Q 2719 3878 2394 3878 
Q 1963 3878 1756 3759 
Q 1550 3641 1550 3391 
Q 1550 3203 1689 3098 
Q 1828 2994 2194 2919 
L 2706 2816 
Q 3484 2659 3812 2340 
Q 4141 2022 4141 1434 
Q 4141 663 3683 286 
Q 3225 -91 2284 -91 
Q 1841 -91 1394 -6 
Q 947 78 500 244 
L 500 1259 
Q 947 1022 1364 901 
Q 1781 781 2169 781 
Q 2563 781 2772 912 
Q 2981 1044 2981 1288 
Q 2981 1506 2839 1625 
Q 2697 1744 2272 1838 
L 1806 1941 
Q 1106 2091 782 2419 
Q 459 2747 459 3303 
Q 459 4000 909 4375 
Q 1359 4750 2203 4750 
Q 2588 4750 2994 4692 
Q 3400 4634 3834 4519 
z
" transform="scale(0.015625)"/>
      <path id="DejaVuSans-Bold-68" d="M 4056 2131 
L 4056 0 
L 2931 0 
L 2931 347 
L 2931 1625 
Q 2931 2084 2911 2256 
Q 2891 2428 2841 2509 
Q 2775 2619 2662 2680 
Q 2550 2741 2406 2741 
Q 2056 2741 1856 2470 
Q 1656 2200 1656 1722 
L 1656 0 
L 538 0 
L 538 4863 
L 1656 4863 
L 1656 2988 
Q 1909 3294 2193 3439 
Q 2478 3584 2822 3584 
Q 3428 3584 3742 3212 
Q 4056 2841 4056 2131 
z
" transform="scale(0.015625)"/>
      <path id="DejaVuSans-Bold-79" d="M 78 3500 
L 1197 3500 
L 2138 1125 
L 2938 3500 
L 4056 3500 
L 2584 -331 
Q 2363 -916 2067 -1148 
Q 1772 -1381 1288 -1381 
L 641 -1381 
L 641 -647 
L 991 -647 
Q 1275 -647 1404 -556 
Q 1534 -466 1606 -231 
L 1638 -134 
L 78 3500 
z
" transform="scale(0.015625)"/>
     </defs>
     <use xlink:href="#DejaVuSans-Bold-53"/>
     <use xlink:href="#DejaVuSans-Bold-65" transform="translate(72.021484 0)"/>
     <use xlink:href="#DejaVuSans-Bold-73" transform="translate(139.84375 0)"/>
     <use xlink:href="#DejaVuSans-Bold-73" transform="translate(199.365234 0)"/>
     <use xlink:href="#DejaVuSans-Bold-69" transform="translate(258.886719 0)"/>
     <use xlink:href="#DejaVuSans-Bold-6f" transform="translate(293.164062 0)"/>
     <use xlink:href="#DejaVuSans-Bold-6e" transform="translate(361.865234 0)"/>
     <use xlink:href="#DejaVuSans-Bold-20" transform="translate(433.056641 0)"/>
     <use xlink:href="#DejaVuSans-Bold-43" transform="translate(467.871094 0)"/>
     <use xlink:href="#DejaVuSans-Bold-68" transform="translate(541.259766 0)"/>
     <use xlink:href="#DejaVuSans-Bold-6f" transform="translate(612.451172 0)"/>
     <use xlink:href="#DejaVuSans-Bold-72" transform="translate(681.152344 0)"/>
     <use xlink:href="#DejaVuSans-Bold-65" transform="translate(730.46875 0)"/>
     <use xlink:href="#DejaVuSans-Bold-6f" transform="translate(798.291016 0)"/>
     <use xlink:href="#DejaVuSans-Bold-67" transform="translate(866.992188 0)"/>
     <use xlink:href="#DejaVuSans-Bold-72" transform="translate(938.574219 0)"/>
     <use xlink:href="#DejaVuSans-Bold-61" transform="translate(987.890625 0)"/>
     <use xlink:href="#DejaVuSans-Bold-70" transform="translate(1055.371094 0)"/>
     <use xlink:href="#DejaVuSans-Bold-68" transform="translate(1126.953125 0)"/>
     <use xlink:href="#DejaVuSans-Bold-79" transform="translate(1198.144531 0)"/>
    </g>
   </g>
  </g>
 </g>
 <defs>
  <clipPath id="p48e6118b4c">
   <rect x="7.2" y="7.2" width="1164.24" height="776.16"/>
  </clipPath>
 </defs>
</svg>
