<?xml version="1.0" encoding="UTF-8" standalone="no"?>
<!DOCTYPE svg PUBLIC "-//W3C//DTD SVG 1.1//EN"
 "http://www.w3.org/Graphics/SVG/1.1/DTD/svg11.dtd">
<!-- Generated by graphviz version 15.0.0 (20260523.1842)
 -->
<!-- Title: sources Pages: 1 -->
<svg width="835pt" height="471pt"
 viewBox="0.00 0.00 835.00 471.00" xmlns="http://www.w3.org/2000/svg" xmlns:xlink="http://www.w3.org/1999/xlink">
<g id="graph0" class="graph" transform="scale(1 1) rotate(0) translate(4 467.21)">
<title>sources</title>
<polygon fill="white" stroke="none" points="-4,4 -4,-467.21 831,-467.21 831,4 -4,4"/>
<text xml:space="preserve" text-anchor="start" x="270.62" y="-443.11" font-family="Helvetica,sans-Serif" font-weight="bold" font-size="18.00">Where the next input comes from</text>
<g id="clust1" class="cluster">
<title>cluster_sc</title>
<path fill="#f6f8fa" stroke="#9aa5b1" d="M20,-85C20,-85 239,-85 239,-85 245,-85 251,-91 251,-97 251,-97 251,-416.46 251,-416.46 251,-422.46 245,-428.46 239,-428.46 239,-428.46 20,-428.46 20,-428.46 14,-428.46 8,-422.46 8,-416.46 8,-416.46 8,-97 8,-97 8,-91 14,-85 20,-85"/>
<text xml:space="preserve" text-anchor="start" x="16" y="-413.11" font-family="Helvetica,sans-Serif" font-weight="bold" font-size="13.00">ScalaCheck — the random baseline</text>
</g>
<g id="clust2" class="cluster">
<title>cluster_cg</title>
<path fill="#f5fbf8" stroke="#7fb8a4" d="M271,-8C271,-8 807,-8 807,-8 813,-8 819,-14 819,-20 819,-20 819,-411.36 819,-411.36 819,-417.36 813,-423.36 807,-423.36 807,-423.36 271,-423.36 271,-423.36 265,-423.36 259,-417.36 259,-411.36 259,-411.36 259,-20 259,-20 259,-14 265,-8 271,-8"/>
<text xml:space="preserve" text-anchor="start" x="267" y="-408.01" font-family="Helvetica,sans-Serif" font-weight="bold" font-size="13.00">This engine — coverage&#45;guided</text>
</g>
<!-- a_rng -->
<g id="node1" class="node">
<title>a_rng</title>
<ellipse fill="#e5e8ec" stroke="black" cx="81" cy="-375.36" rx="23.61" ry="23.61"/>
<text xml:space="preserve" text-anchor="middle" x="81" y="-370.91" font-family="Helvetica,sans-Serif" font-size="11.00">RNG</text>
</g>
<!-- a_gen -->
<g id="node2" class="node">
<title>a_gen</title>
<path fill="#d6e4f0" stroke="black" d="M101.38,-302C101.38,-302 60.62,-302 60.62,-302 54.62,-302 48.62,-296 48.62,-290 48.62,-290 48.62,-278 48.62,-278 48.62,-272 54.62,-266 60.62,-266 60.62,-266 101.38,-266 101.38,-266 107.38,-266 113.38,-272 113.38,-278 113.38,-278 113.38,-290 113.38,-290 113.38,-296 107.38,-302 101.38,-302"/>
<text xml:space="preserve" text-anchor="start" x="56.62" y="-284.55" font-family="Helvetica,sans-Serif" font-size="11.00">Generator</text>
<text xml:space="preserve" text-anchor="start" x="58.5" y="-275.45" font-family="Helvetica,sans-Serif" font-size="9.00">Arbitrary[A]</text>
</g>
<!-- a_rng&#45;&gt;a_gen -->
<g id="edge1" class="edge">
<title>a_rng&#45;&gt;a_gen</title>
<path fill="none" stroke="#34495e" stroke-width="1.5" d="M81,-351.35C81,-339.51 81,-324.99 81,-312.56"/>
<polygon fill="#34495e" stroke="#34495e" stroke-width="1.5" points="83.8,-312.56 81,-304.56 78.2,-312.56 83.8,-312.56"/>
<text xml:space="preserve" text-anchor="middle" x="105" y="-323.2" font-family="Helvetica,sans-Serif" font-size="9.00">random bits</text>
</g>
<!-- a_sut -->
<g id="node3" class="node">
<title>a_sut</title>
<polygon fill="#eceff2" stroke="black" points="126.5,-214.75 35.5,-214.75 35.5,-178.75 126.5,-178.75 126.5,-214.75"/>
<text xml:space="preserve" text-anchor="middle" x="81" y="-192.3" font-family="Helvetica,sans-Serif" font-size="11.00">SUT + property</text>
</g>
<!-- a_gen&#45;&gt;a_sut -->
<g id="edge2" class="edge">
<title>a_gen&#45;&gt;a_sut</title>
<path fill="none" stroke="#34495e" stroke-width="1.5" d="M81,-265.75C81,-254.08 81,-238.42 81,-225.07"/>
<polygon fill="#34495e" stroke="#34495e" stroke-width="1.5" points="83.8,-225.25 81,-217.25 78.2,-225.25 83.8,-225.25"/>
<text xml:space="preserve" text-anchor="middle" x="92.25" y="-236.7" font-family="Helvetica,sans-Serif" font-size="9.00">value</text>
</g>
<!-- a_sut&#45;&gt;a_gen -->
<g id="edge4" class="edge">
<title>a_sut&#45;&gt;a_gen</title>
<path fill="none" stroke="#34495e" stroke-width="1.5" stroke-dasharray="5,2" d="M98.44,-215.11C103.12,-220.88 107.55,-227.65 110,-234.75 112.7,-242.59 110.43,-250.52 106.19,-257.64"/>
<polygon fill="#34495e" stroke="#34495e" stroke-width="1.5" points="104.21,-255.59 101.8,-263.72 108.76,-258.87 104.21,-255.59"/>
<text xml:space="preserve" text-anchor="middle" x="136.3" y="-237.45" font-family="Helvetica,sans-Serif" font-size="9.00">pass → next</text>
</g>
<!-- a_out -->
<g id="node4" class="node">
<title>a_out</title>
<path fill="#fadbd8" stroke="black" d="M115.25,-129C115.25,-129 46.75,-129 46.75,-129 40.75,-129 34.75,-123 34.75,-117 34.75,-117 34.75,-105 34.75,-105 34.75,-99 40.75,-93 46.75,-93 46.75,-93 115.25,-93 115.25,-93 121.25,-93 127.25,-99 127.25,-105 127.25,-105 127.25,-117 127.25,-117 127.25,-123 121.25,-129 115.25,-129"/>
<text xml:space="preserve" text-anchor="middle" x="81" y="-106.55" font-family="Helvetica,sans-Serif" font-size="11.00">counterexample</text>
</g>
<!-- a_sut&#45;&gt;a_out -->
<g id="edge3" class="edge">
<title>a_sut&#45;&gt;a_out</title>
<path fill="none" stroke="#34495e" stroke-width="1.5" d="M81,-178.4C81,-167.17 81,-152.31 81,-139.49"/>
<polygon fill="#34495e" stroke="#34495e" stroke-width="1.5" points="83.8,-139.6 81,-131.6 78.2,-139.6 83.8,-139.6"/>
<text xml:space="preserve" text-anchor="middle" x="87" y="-150.2" font-family="Helvetica,sans-Serif" font-size="9.00">fail</text>
</g>
<!-- s_rand -->
<g id="node5" class="node">
<title>s_rand</title>
<path fill="#2e5c8a" stroke="black" d="M340.5,-393.36C340.5,-393.36 279.5,-393.36 279.5,-393.36 273.5,-393.36 267.5,-387.36 267.5,-381.36 267.5,-381.36 267.5,-369.36 267.5,-369.36 267.5,-363.36 273.5,-357.36 279.5,-357.36 279.5,-357.36 340.5,-357.36 340.5,-357.36 346.5,-357.36 352.5,-363.36 352.5,-369.36 352.5,-369.36 352.5,-381.36 352.5,-381.36 352.5,-387.36 346.5,-393.36 340.5,-393.36"/>
<text xml:space="preserve" text-anchor="start" x="275.5" y="-375.91" font-family="Helvetica,sans-Serif" font-weight="bold" font-size="11.00" fill="white">random draw</text>
<text xml:space="preserve" text-anchor="start" x="287.5" y="-366.81" font-family="Helvetica,sans-Serif" font-size="9.00" fill="white">Arbitrary[A]</text>
</g>
<!-- mix -->
<g id="node9" class="node">
<title>mix</title>
<path fill="#2c3e50" stroke="black" d="M505.62,-302C505.62,-302 388.38,-302 388.38,-302 382.38,-302 376.38,-296 376.38,-290 376.38,-290 376.38,-278 376.38,-278 376.38,-272 382.38,-266 388.38,-266 388.38,-266 505.62,-266 505.62,-266 511.62,-266 517.62,-272 517.62,-278 517.62,-278 517.62,-290 517.62,-290 517.62,-296 511.62,-302 505.62,-302"/>
<text xml:space="preserve" text-anchor="start" x="437.62" y="-284.55" font-family="Helvetica,sans-Serif" font-weight="bold" font-size="11.00" fill="white">mix</text>
<text xml:space="preserve" text-anchor="start" x="384.38" y="-275.45" font-family="Helvetica,sans-Serif" font-size="9.00" fill="white">Gen.frequency (equal weights)</text>
</g>
<!-- s_rand&#45;&gt;mix -->
<g id="edge5" class="edge">
<title>s_rand&#45;&gt;mix</title>
<path fill="none" stroke="#34495e" stroke-width="1.5" d="M336.74,-356.92C358.15,-342.95 388.35,-323.26 411.73,-308"/>
<polygon fill="#34495e" stroke="#34495e" stroke-width="1.5" points="413.25,-310.35 418.43,-303.64 410.2,-305.66 413.25,-310.35"/>
</g>
<!-- s_pool -->
<g id="node6" class="node">
<title>s_pool</title>
<path fill="#1f8a70" stroke="black" d="M504.5,-393.36C504.5,-393.36 389.5,-393.36 389.5,-393.36 383.5,-393.36 377.5,-387.36 377.5,-381.36 377.5,-381.36 377.5,-369.36 377.5,-369.36 377.5,-363.36 383.5,-357.36 389.5,-357.36 389.5,-357.36 504.5,-357.36 504.5,-357.36 510.5,-357.36 516.5,-363.36 516.5,-369.36 516.5,-369.36 516.5,-381.36 516.5,-381.36 516.5,-387.36 510.5,-393.36 504.5,-393.36"/>
<text xml:space="preserve" text-anchor="start" x="435.38" y="-375.91" font-family="Helvetica,sans-Serif" font-weight="bold" font-size="11.00" fill="white">pool</text>
<text xml:space="preserve" text-anchor="start" x="385.5" y="-366.81" font-family="Helvetica,sans-Serif" font-size="9.00" fill="white">literals of uncovered branches</text>
</g>
<!-- s_pool&#45;&gt;mix -->
<g id="edge6" class="edge">
<title>s_pool&#45;&gt;mix</title>
<path fill="none" stroke="#34495e" stroke-width="1.5" d="M447,-357.13C447,-344.48 447,-327.03 447,-312.47"/>
<polygon fill="#34495e" stroke="#34495e" stroke-width="1.5" points="449.8,-312.75 447,-304.75 444.2,-312.75 449.8,-312.75"/>
</g>
<!-- s_mut -->
<g id="node7" class="node">
<title>s_mut</title>
<path fill="#e67e22" stroke="black" d="M634.62,-393.36C634.62,-393.36 553.38,-393.36 553.38,-393.36 547.38,-393.36 541.38,-387.36 541.38,-381.36 541.38,-381.36 541.38,-369.36 541.38,-369.36 541.38,-363.36 547.38,-357.36 553.38,-357.36 553.38,-357.36 634.62,-357.36 634.62,-357.36 640.62,-357.36 646.62,-363.36 646.62,-369.36 646.62,-369.36 646.62,-381.36 646.62,-381.36 646.62,-387.36 640.62,-393.36 634.62,-393.36"/>
<text xml:space="preserve" text-anchor="start" x="570.75" y="-375.91" font-family="Helvetica,sans-Serif" font-weight="bold" font-size="11.00" fill="white">mutation</text>
<text xml:space="preserve" text-anchor="start" x="549.38" y="-366.81" font-family="Helvetica,sans-Serif" font-size="9.00" fill="white">perturb a corpus seed</text>
</g>
<!-- s_mut&#45;&gt;mix -->
<g id="edge7" class="edge">
<title>s_mut&#45;&gt;mix</title>
<path fill="none" stroke="#34495e" stroke-width="1.5" d="M565.31,-356.92C542.14,-342.83 509.36,-322.91 484.18,-307.6"/>
<polygon fill="#34495e" stroke="#34495e" stroke-width="1.5" points="485.85,-305.34 477.56,-303.58 482.94,-310.12 485.85,-305.34"/>
</g>
<!-- s_grad -->
<g id="node8" class="node">
<title>s_grad</title>
<path fill="#c0392b" stroke="black" d="M794.25,-393.86C794.25,-393.86 683.75,-393.86 683.75,-393.86 677.75,-393.86 671.75,-387.86 671.75,-381.86 671.75,-381.86 671.75,-368.86 671.75,-368.86 671.75,-362.86 677.75,-356.86 683.75,-356.86 683.75,-356.86 794.25,-356.86 794.25,-356.86 800.25,-356.86 806.25,-362.86 806.25,-368.86 806.25,-368.86 806.25,-381.86 806.25,-381.86 806.25,-387.86 800.25,-393.86 794.25,-393.86"/>
<text xml:space="preserve" text-anchor="start" x="717.25" y="-380.41" font-family="Helvetica,sans-Serif" font-weight="bold" font-size="11.00" fill="white">gradient</text>
<text xml:space="preserve" text-anchor="start" x="694" y="-371.31" font-family="Helvetica,sans-Serif" font-size="9.00" fill="white">climb branch&#45;distance</text>
<text xml:space="preserve" text-anchor="start" x="679.75" y="-362.31" font-family="Helvetica,sans-Serif" font-size="9.00" fill="white">to the nearest uncovered leaf</text>
</g>
<!-- s_grad&#45;&gt;mix -->
<g id="edge8" class="edge">
<title>s_grad&#45;&gt;mix</title>
<path fill="none" stroke="#34495e" stroke-width="1.5" d="M675.7,-356.38C670.06,-354.8 664.43,-353.24 659,-351.75 625.73,-342.61 617.01,-341.77 584,-331.75 557.89,-323.82 529.28,-314.21 504.99,-305.77"/>
<polygon fill="#34495e" stroke="#34495e" stroke-width="1.5" points="506.18,-303.22 497.7,-303.22 504.33,-308.5 506.18,-303.22"/>
</g>
<!-- sut -->
<g id="node10" class="node">
<title>sut</title>
<polygon fill="#eceff2" stroke="#2c3e50" stroke-width="2" points="382.5,-214.75 267.5,-214.75 267.5,-178.75 382.5,-178.75 382.5,-214.75"/>
<text xml:space="preserve" text-anchor="start" x="287.5" y="-197.3" font-family="Helvetica,sans-Serif" font-size="11.00">SUT + property</text>
<text xml:space="preserve" text-anchor="start" x="275.5" y="-188.2" font-family="Helvetica,sans-Serif" font-size="9.00">scoverage&#45;instrumented</text>
</g>
<!-- mix&#45;&gt;sut -->
<g id="edge9" class="edge">
<title>mix&#45;&gt;sut</title>
<path fill="none" stroke="#34495e" stroke-width="2.2" d="M403.98,-265.68C392.53,-260.18 380.5,-253.53 370.25,-246 361.55,-239.61 353.14,-231.41 345.97,-223.59"/>
<polygon fill="#34495e" stroke="#34495e" stroke-width="2.2" points="348.32,-222.01 340.94,-217.85 344.11,-225.71 348.32,-222.01"/>
<text xml:space="preserve" text-anchor="middle" x="390.12" y="-236.7" font-family="Helvetica,sans-Serif" font-size="9.00">next input</text>
</g>
<!-- cov -->
<g id="node11" class="node">
<title>cov</title>
<polygon fill="#e8f0eb" stroke="black" points="361.25,-129 286.75,-129 286.75,-93 361.25,-93 361.25,-129"/>
<text xml:space="preserve" text-anchor="start" x="301.88" y="-111.55" font-family="Helvetica,sans-Serif" font-size="11.00">coverage</text>
<text xml:space="preserve" text-anchor="start" x="294.75" y="-102.45" font-family="Helvetica,sans-Serif" font-size="9.00">fired branches</text>
</g>
<!-- sut&#45;&gt;cov -->
<g id="edge11" class="edge">
<title>sut&#45;&gt;cov</title>
<path fill="none" stroke="#34495e" stroke-width="1.5" d="M324.79,-177.99C324.65,-166.81 324.48,-152.15 324.33,-139.49"/>
<polygon fill="#34495e" stroke="#34495e" stroke-width="1.5" points="327.13,-139.68 324.24,-131.72 321.53,-139.75 327.13,-139.68"/>
<text xml:space="preserve" text-anchor="middle" x="331.28" y="-150.2" font-family="Helvetica,sans-Serif" font-size="9.00">run</text>
</g>
<!-- out -->
<g id="node13" class="node">
<title>out</title>
<path fill="#fadbd8" stroke="black" d="M467.25,-129C467.25,-129 398.75,-129 398.75,-129 392.75,-129 386.75,-123 386.75,-117 386.75,-117 386.75,-105 386.75,-105 386.75,-99 392.75,-93 398.75,-93 398.75,-93 467.25,-93 467.25,-93 473.25,-93 479.25,-99 479.25,-105 479.25,-105 479.25,-117 479.25,-117 479.25,-123 473.25,-129 467.25,-129"/>
<text xml:space="preserve" text-anchor="middle" x="433" y="-106.55" font-family="Helvetica,sans-Serif" font-size="11.00">counterexample</text>
</g>
<!-- sut&#45;&gt;out -->
<g id="edge10" class="edge">
<title>sut&#45;&gt;out</title>
<path fill="none" stroke="#34495e" stroke-width="1.5" d="M348.17,-177.78C364.04,-165.47 385.26,-149.02 402.5,-135.65"/>
<polygon fill="#34495e" stroke="#34495e" stroke-width="1.5" points="404.21,-137.87 408.81,-130.75 400.78,-133.44 404.21,-137.87"/>
<text xml:space="preserve" text-anchor="middle" x="388.24" y="-150.2" font-family="Helvetica,sans-Serif" font-size="9.00">fail</text>
</g>
<!-- fb -->
<g id="node12" class="node">
<title>fb</title>
<path fill="#fcf3cf" stroke="black" d="M368.38,-52C368.38,-52 279.62,-52 279.62,-52 273.62,-52 267.62,-46 267.62,-40 267.62,-40 267.62,-28 267.62,-28 267.62,-22 273.62,-16 279.62,-16 279.62,-16 368.38,-16 368.38,-16 374.38,-16 380.38,-22 380.38,-28 380.38,-28 380.38,-40 380.38,-40 380.38,-46 374.38,-52 368.38,-52"/>
<text xml:space="preserve" text-anchor="start" x="298.88" y="-34.55" font-family="Helvetica,sans-Serif" font-weight="bold" font-size="11.00">Feedback</text>
<text xml:space="preserve" text-anchor="start" x="275.62" y="-25.45" font-family="Helvetica,sans-Serif" font-size="9.00">covered leaves · corpus</text>
</g>
<!-- cov&#45;&gt;fb -->
<g id="edge12" class="edge">
<title>cov&#45;&gt;fb</title>
<path fill="none" stroke="#34495e" stroke-width="1.5" d="M324,-92.6C324,-83.61 324,-72.43 324,-62.32"/>
<polygon fill="#34495e" stroke="#34495e" stroke-width="1.5" points="326.8,-62.57 324,-54.57 321.2,-62.57 326.8,-62.57"/>
</g>
<!-- fb&#45;&gt;s_pool -->
<g id="edge13" class="edge">
<title>fb&#45;&gt;s_pool</title>
<path fill="none" stroke="#1f8a70" stroke-width="1.5" stroke-dasharray="5,2" d="M380.85,-44.46C424.13,-52.96 478.49,-66.89 492,-85 503.69,-100.68 499.25,-110.84 492,-129 487.45,-140.39 480.8,-139.54 473,-149 462.66,-161.53 456.71,-163.28 451.75,-178.75 446.87,-193.99 444.71,-200.38 451.75,-214.75 461.71,-235.09 472.96,-233.73 492,-246 508.04,-256.34 520.14,-249.66 530,-266 538.27,-279.7 536.62,-287.44 530,-302 520.82,-322.19 502.91,-338.94 486.07,-351.22"/>
<polygon fill="#1f8a70" stroke="#1f8a70" stroke-width="1.5" points="484.77,-348.72 479.8,-355.59 487.97,-353.32 484.77,-348.72"/>
<text xml:space="preserve" text-anchor="middle" x="490.38" y="-193.07" font-family="Helvetica,sans-Serif" font-size="9.00" fill="#16735c">still&#45;needed literals</text>
</g>
<!-- fb&#45;&gt;s_mut -->
<g id="edge14" class="edge">
<title>fb&#45;&gt;s_mut</title>
<path fill="none" stroke="#e67e22" stroke-width="1.5" stroke-dasharray="5,2" d="M380.43,-42.77C427.52,-50.61 489.11,-64.5 503,-85 521.67,-112.55 502.76,-128.21 516,-158.75 520.42,-168.94 525.89,-168.88 531,-178.75 546.51,-208.72 573.5,-301.23 586.54,-347.47"/>
<polygon fill="#e67e22" stroke="#e67e22" stroke-width="1.5" points="583.77,-347.99 588.63,-354.93 589.17,-346.47 583.77,-347.99"/>
<text xml:space="preserve" text-anchor="middle" x="593.99" y="-193.07" font-family="Helvetica,sans-Serif" font-size="9.00" fill="#b35e10">keep coverage&#45;growers</text>
</g>
<!-- fb&#45;&gt;s_grad -->
<g id="edge15" class="edge">
<title>fb&#45;&gt;s_grad</title>
<path fill="none" stroke="#c0392b" stroke-width="1.5" stroke-dasharray="5,2" d="M380.67,-42.08C414.49,-47.57 457.76,-56.88 494,-72 570.86,-104.07 594.48,-114.94 648,-178.75 691.4,-230.49 718.8,-306.38 731.22,-346.74"/>
<polygon fill="#c0392b" stroke="#c0392b" stroke-width="1.5" points="728.49,-347.39 733.47,-354.25 733.86,-345.79 728.49,-347.39"/>
<text xml:space="preserve" text-anchor="middle" x="724.85" y="-193.07" font-family="Helvetica,sans-Serif" font-size="9.00" fill="#922b21">nearest uncovered + best</text>
</g>
</g>
</svg>
