<?xml version="1.0" encoding="UTF-8" standalone="no"?>
<!DOCTYPE svg PUBLIC "-//W3C//DTD SVG 1.1//EN"
 "http://www.w3.org/Graphics/SVG/1.1/DTD/svg11.dtd">
<!-- Generated by graphviz version 15.0.0 (20260523.1842)
 -->
<!-- Title: sources Pages: 1 -->
<svg width="707pt" height="471pt"
 viewBox="0.00 0.00 707.00 471.00" xmlns="http://www.w3.org/2000/svg" xmlns:xlink="http://www.w3.org/1999/xlink">
<g id="graph0" class="graph" transform="scale(1 1) rotate(0) translate(4 467.21)">
<title>sources</title>
<polygon fill="white" stroke="none" points="-4,4 -4,-467.21 703,-467.21 703,4 -4,4"/>
<text xml:space="preserve" text-anchor="start" x="206.62" y="-443.11" font-family="Helvetica,sans-Serif" font-weight="bold" font-size="18.00">Where the next input comes from</text>
<g id="clust1" class="cluster">
<title>cluster_sc</title>
<path fill="#f6f8fa" stroke="#9aa5b1" d="M20,-85C20,-85 239,-85 239,-85 245,-85 251,-91 251,-97 251,-97 251,-416.46 251,-416.46 251,-422.46 245,-428.46 239,-428.46 239,-428.46 20,-428.46 20,-428.46 14,-428.46 8,-422.46 8,-416.46 8,-416.46 8,-97 8,-97 8,-91 14,-85 20,-85"/>
<text xml:space="preserve" text-anchor="start" x="16" y="-413.11" font-family="Helvetica,sans-Serif" font-weight="bold" font-size="13.00">ScalaCheck — the random baseline</text>
</g>
<g id="clust2" class="cluster">
<title>cluster_cg</title>
<path fill="#f5fbf8" stroke="#7fb8a4" d="M271,-8C271,-8 679,-8 679,-8 685,-8 691,-14 691,-20 691,-20 691,-410.86 691,-410.86 691,-416.86 685,-422.86 679,-422.86 679,-422.86 271,-422.86 271,-422.86 265,-422.86 259,-416.86 259,-410.86 259,-410.86 259,-20 259,-20 259,-14 265,-8 271,-8"/>
<text xml:space="preserve" text-anchor="start" x="267" y="-407.51" font-family="Helvetica,sans-Serif" font-weight="bold" font-size="13.00">This engine — coverage&#45;guided</text>
</g>
<!-- a_rng -->
<g id="node1" class="node">
<title>a_rng</title>
<ellipse fill="#e5e8ec" stroke="black" cx="81" cy="-375.36" rx="23.61" ry="23.61"/>
<text xml:space="preserve" text-anchor="middle" x="81" y="-370.91" font-family="Helvetica,sans-Serif" font-size="11.00">RNG</text>
</g>
<!-- a_gen -->
<g id="node2" class="node">
<title>a_gen</title>
<path fill="#d6e4f0" stroke="black" d="M101.38,-302C101.38,-302 60.62,-302 60.62,-302 54.62,-302 48.62,-296 48.62,-290 48.62,-290 48.62,-278 48.62,-278 48.62,-272 54.62,-266 60.62,-266 60.62,-266 101.38,-266 101.38,-266 107.38,-266 113.38,-272 113.38,-278 113.38,-278 113.38,-290 113.38,-290 113.38,-296 107.38,-302 101.38,-302"/>
<text xml:space="preserve" text-anchor="start" x="56.62" y="-284.55" font-family="Helvetica,sans-Serif" font-size="11.00">Generator</text>
<text xml:space="preserve" text-anchor="start" x="58.5" y="-275.45" font-family="Helvetica,sans-Serif" font-size="9.00">Arbitrary[A]</text>
</g>
<!-- a_rng&#45;&gt;a_gen -->
<g id="edge1" class="edge">
<title>a_rng&#45;&gt;a_gen</title>
<path fill="none" stroke="#34495e" stroke-width="1.5" d="M81,-351.35C81,-339.51 81,-324.99 81,-312.56"/>
<polygon fill="#34495e" stroke="#34495e" stroke-width="1.5" points="83.8,-312.56 81,-304.56 78.2,-312.56 83.8,-312.56"/>
<text xml:space="preserve" text-anchor="middle" x="105" y="-323.2" font-family="Helvetica,sans-Serif" font-size="9.00">random bits</text>
</g>
<!-- a_sut -->
<g id="node3" class="node">
<title>a_sut</title>
<polygon fill="#eceff2" stroke="black" points="126.5,-214.75 35.5,-214.75 35.5,-178.75 126.5,-178.75 126.5,-214.75"/>
<text xml:space="preserve" text-anchor="middle" x="81" y="-192.3" font-family="Helvetica,sans-Serif" font-size="11.00">SUT + property</text>
</g>
<!-- a_gen&#45;&gt;a_sut -->
<g id="edge2" class="edge">
<title>a_gen&#45;&gt;a_sut</title>
<path fill="none" stroke="#34495e" stroke-width="1.5" d="M81,-265.75C81,-254.08 81,-238.42 81,-225.07"/>
<polygon fill="#34495e" stroke="#34495e" stroke-width="1.5" points="83.8,-225.25 81,-217.25 78.2,-225.25 83.8,-225.25"/>
<text xml:space="preserve" text-anchor="middle" x="92.25" y="-236.7" font-family="Helvetica,sans-Serif" font-size="9.00">value</text>
</g>
<!-- a_sut&#45;&gt;a_gen -->
<g id="edge4" class="edge">
<title>a_sut&#45;&gt;a_gen</title>
<path fill="none" stroke="#34495e" stroke-width="1.5" stroke-dasharray="5,2" d="M98.44,-215.11C103.12,-220.88 107.55,-227.65 110,-234.75 112.7,-242.59 110.43,-250.52 106.19,-257.64"/>
<polygon fill="#34495e" stroke="#34495e" stroke-width="1.5" points="104.21,-255.59 101.8,-263.72 108.76,-258.87 104.21,-255.59"/>
<text xml:space="preserve" text-anchor="middle" x="136.3" y="-237.45" font-family="Helvetica,sans-Serif" font-size="9.00">pass → next</text>
</g>
<!-- a_out -->
<g id="node4" class="node">
<title>a_out</title>
<path fill="#fadbd8" stroke="black" d="M115.25,-129C115.25,-129 46.75,-129 46.75,-129 40.75,-129 34.75,-123 34.75,-117 34.75,-117 34.75,-105 34.75,-105 34.75,-99 40.75,-93 46.75,-93 46.75,-93 115.25,-93 115.25,-93 121.25,-93 127.25,-99 127.25,-105 127.25,-105 127.25,-117 127.25,-117 127.25,-123 121.25,-129 115.25,-129"/>
<text xml:space="preserve" text-anchor="middle" x="81" y="-106.55" font-family="Helvetica,sans-Serif" font-size="11.00">counterexample</text>
</g>
<!-- a_sut&#45;&gt;a_out -->
<g id="edge3" class="edge">
<title>a_sut&#45;&gt;a_out</title>
<path fill="none" stroke="#34495e" stroke-width="1.5" d="M81,-178.4C81,-167.17 81,-152.31 81,-139.49"/>
<polygon fill="#34495e" stroke="#34495e" stroke-width="1.5" points="83.8,-139.6 81,-131.6 78.2,-139.6 83.8,-139.6"/>
<text xml:space="preserve" text-anchor="middle" x="87" y="-150.2" font-family="Helvetica,sans-Serif" font-size="9.00">fail</text>
</g>
<!-- s_rand -->
<g id="node5" class="node">
<title>s_rand</title>
<path fill="#2e5c8a" stroke="black" d="M340.5,-393.36C340.5,-393.36 279.5,-393.36 279.5,-393.36 273.5,-393.36 267.5,-387.36 267.5,-381.36 267.5,-381.36 267.5,-369.36 267.5,-369.36 267.5,-363.36 273.5,-357.36 279.5,-357.36 279.5,-357.36 340.5,-357.36 340.5,-357.36 346.5,-357.36 352.5,-363.36 352.5,-369.36 352.5,-369.36 352.5,-381.36 352.5,-381.36 352.5,-387.36 346.5,-393.36 340.5,-393.36"/>
<text xml:space="preserve" text-anchor="start" x="275.5" y="-375.91" font-family="Helvetica,sans-Serif" font-weight="bold" font-size="11.00" fill="white">random draw</text>
<text xml:space="preserve" text-anchor="start" x="287.5" y="-366.81" font-family="Helvetica,sans-Serif" font-size="9.00" fill="white">Arbitrary[A]</text>
</g>
<!-- mix -->
<g id="node8" class="node">
<title>mix</title>
<path fill="#2c3e50" stroke="black" d="M422,-302C422,-302 370,-302 370,-302 364,-302 358,-296 358,-290 358,-290 358,-278 358,-278 358,-272 364,-266 370,-266 370,-266 422,-266 422,-266 428,-266 434,-272 434,-278 434,-278 434,-290 434,-290 434,-296 428,-302 422,-302"/>
<text xml:space="preserve" text-anchor="start" x="374.62" y="-284.55" font-family="Helvetica,sans-Serif" font-weight="bold" font-size="11.00" fill="white">strategy</text>
<text xml:space="preserve" text-anchor="start" x="366" y="-275.45" font-family="Helvetica,sans-Serif" font-size="9.00" fill="white">Gen.frequency</text>
</g>
<!-- s_rand&#45;&gt;mix -->
<g id="edge5" class="edge">
<title>s_rand&#45;&gt;mix</title>
<path fill="none" stroke="#34495e" stroke-width="1.5" d="M326.58,-357.13C339.58,-343.62 357.85,-324.64 372.38,-309.54"/>
<polygon fill="#34495e" stroke="#34495e" stroke-width="1.5" points="374.07,-311.82 377.6,-304.12 370.04,-307.94 374.07,-311.82"/>
</g>
<!-- s_pool -->
<g id="node6" class="node">
<title>s_pool</title>
<path fill="#1f8a70" stroke="black" d="M540.5,-393.36C540.5,-393.36 389.5,-393.36 389.5,-393.36 383.5,-393.36 377.5,-387.36 377.5,-381.36 377.5,-381.36 377.5,-369.36 377.5,-369.36 377.5,-363.36 383.5,-357.36 389.5,-357.36 389.5,-357.36 540.5,-357.36 540.5,-357.36 546.5,-357.36 552.5,-363.36 552.5,-369.36 552.5,-369.36 552.5,-381.36 552.5,-381.36 552.5,-387.36 546.5,-393.36 540.5,-393.36"/>
<text xml:space="preserve" text-anchor="start" x="453.38" y="-375.91" font-family="Helvetica,sans-Serif" font-weight="bold" font-size="11.00" fill="white">pool</text>
<text xml:space="preserve" text-anchor="start" x="385.5" y="-366.81" font-family="Helvetica,sans-Serif" font-size="9.00" fill="white">literals while statements are uncovered</text>
</g>
<!-- s_pool&#45;&gt;mix -->
<g id="edge6" class="edge">
<title>s_pool&#45;&gt;mix</title>
<path fill="none" stroke="#34495e" stroke-width="1.5" d="M451.7,-357.13C441.45,-343.86 427.14,-325.33 415.59,-310.37"/>
<polygon fill="#34495e" stroke="#34495e" stroke-width="1.5" points="417.99,-308.9 410.89,-304.28 413.56,-312.32 417.99,-308.9"/>
</g>
<!-- s_mut -->
<g id="node7" class="node">
<title>s_mut</title>
<path fill="#e67e22" stroke="black" d="M670.62,-393.36C670.62,-393.36 589.38,-393.36 589.38,-393.36 583.38,-393.36 577.38,-387.36 577.38,-381.36 577.38,-381.36 577.38,-369.36 577.38,-369.36 577.38,-363.36 583.38,-357.36 589.38,-357.36 589.38,-357.36 670.62,-357.36 670.62,-357.36 676.62,-357.36 682.62,-363.36 682.62,-369.36 682.62,-369.36 682.62,-381.36 682.62,-381.36 682.62,-387.36 676.62,-393.36 670.62,-393.36"/>
<text xml:space="preserve" text-anchor="start" x="606.75" y="-375.91" font-family="Helvetica,sans-Serif" font-weight="bold" font-size="11.00" fill="white">mutation</text>
<text xml:space="preserve" text-anchor="start" x="585.38" y="-366.81" font-family="Helvetica,sans-Serif" font-size="9.00" fill="white">perturb a corpus seed</text>
</g>
<!-- s_mut&#45;&gt;mix -->
<g id="edge7" class="edge">
<title>s_mut&#45;&gt;mix</title>
<path fill="none" stroke="#34495e" stroke-width="1.5" d="M581.17,-356.86C575.74,-355.07 570.26,-353.33 565,-351.75 530.31,-341.35 519.85,-344.63 486,-331.75 468.39,-325.05 449.78,-315.79 434.08,-307.27"/>
<polygon fill="#34495e" stroke="#34495e" stroke-width="1.5" points="435.55,-304.88 427.19,-303.46 432.84,-309.78 435.55,-304.88"/>
</g>
<!-- sut -->
<g id="node9" class="node">
<title>sut</title>
<polygon fill="#eceff2" stroke="#2c3e50" stroke-width="2" points="408.5,-214.75 293.5,-214.75 293.5,-178.75 408.5,-178.75 408.5,-214.75"/>
<text xml:space="preserve" text-anchor="start" x="313.5" y="-197.3" font-family="Helvetica,sans-Serif" font-size="11.00">SUT + property</text>
<text xml:space="preserve" text-anchor="start" x="301.5" y="-188.2" font-family="Helvetica,sans-Serif" font-size="9.00">scoverage&#45;instrumented</text>
</g>
<!-- mix&#45;&gt;sut -->
<g id="edge8" class="edge">
<title>mix&#45;&gt;sut</title>
<path fill="none" stroke="#34495e" stroke-width="2.2" d="M386.89,-265.75C380.75,-254.12 372.52,-238.52 365.49,-225.2"/>
<polygon fill="#34495e" stroke="#34495e" stroke-width="2.2" points="368.17,-224.28 361.96,-218.51 363.22,-226.89 368.17,-224.28"/>
<text xml:space="preserve" text-anchor="middle" x="396.07" y="-236.7" font-family="Helvetica,sans-Serif" font-size="9.00">next input</text>
</g>
<!-- cov -->
<g id="node10" class="node">
<title>cov</title>
<polygon fill="#e8f0eb" stroke="black" points="380.25,-129 299.75,-129 299.75,-93 380.25,-93 380.25,-129"/>
<text xml:space="preserve" text-anchor="start" x="317.88" y="-111.55" font-family="Helvetica,sans-Serif" font-size="11.00">coverage</text>
<text xml:space="preserve" text-anchor="start" x="307.75" y="-102.45" font-family="Helvetica,sans-Serif" font-size="9.00">fired statements</text>
</g>
<!-- sut&#45;&gt;cov -->
<g id="edge10" class="edge">
<title>sut&#45;&gt;cov</title>
<path fill="none" stroke="#34495e" stroke-width="1.5" d="M348.67,-177.99C347.2,-166.81 345.27,-152.15 343.61,-139.49"/>
<polygon fill="#34495e" stroke="#34495e" stroke-width="1.5" points="346.41,-139.27 342.59,-131.7 340.85,-140 346.41,-139.27"/>
<text xml:space="preserve" text-anchor="middle" x="352.58" y="-150.2" font-family="Helvetica,sans-Serif" font-size="9.00">run</text>
</g>
<!-- out -->
<g id="node12" class="node">
<title>out</title>
<path fill="#fadbd8" stroke="black" d="M486.25,-129C486.25,-129 417.75,-129 417.75,-129 411.75,-129 405.75,-123 405.75,-117 405.75,-117 405.75,-105 405.75,-105 405.75,-99 411.75,-93 417.75,-93 417.75,-93 486.25,-93 486.25,-93 492.25,-93 498.25,-99 498.25,-105 498.25,-105 498.25,-117 498.25,-117 498.25,-123 492.25,-129 486.25,-129"/>
<text xml:space="preserve" text-anchor="middle" x="452" y="-106.55" font-family="Helvetica,sans-Serif" font-size="11.00">counterexample</text>
</g>
<!-- sut&#45;&gt;out -->
<g id="edge9" class="edge">
<title>sut&#45;&gt;out</title>
<path fill="none" stroke="#34495e" stroke-width="1.5" d="M372.42,-177.99C387.25,-165.69 407.15,-149.19 423.35,-135.76"/>
<polygon fill="#34495e" stroke="#34495e" stroke-width="1.5" points="424.84,-138.16 429.21,-130.9 421.26,-133.85 424.84,-138.16"/>
<text xml:space="preserve" text-anchor="middle" x="410.53" y="-150.2" font-family="Helvetica,sans-Serif" font-size="9.00">fail</text>
</g>
<!-- fb -->
<g id="node11" class="node">
<title>fb</title>
<path fill="#fcf3cf" stroke="black" d="M393,-52C393,-52 287,-52 287,-52 281,-52 275,-46 275,-40 275,-40 275,-28 275,-28 275,-22 281,-16 287,-16 287,-16 393,-16 393,-16 399,-16 405,-22 405,-28 405,-28 405,-40 405,-40 405,-46 399,-52 393,-52"/>
<text xml:space="preserve" text-anchor="start" x="314.88" y="-34.55" font-family="Helvetica,sans-Serif" font-weight="bold" font-size="11.00">Feedback</text>
<text xml:space="preserve" text-anchor="start" x="283" y="-25.45" font-family="Helvetica,sans-Serif" font-size="9.00">covered statements · corpus</text>
</g>
<!-- cov&#45;&gt;fb -->
<g id="edge11" class="edge">
<title>cov&#45;&gt;fb</title>
<path fill="none" stroke="#34495e" stroke-width="1.5" d="M340,-92.6C340,-83.61 340,-72.43 340,-62.32"/>
<polygon fill="#34495e" stroke="#34495e" stroke-width="1.5" points="342.8,-62.57 340,-54.57 337.2,-62.57 342.8,-62.57"/>
</g>
<!-- fb&#45;&gt;s_pool -->
<g id="edge12" class="edge">
<title>fb&#45;&gt;s_pool</title>
<path fill="none" stroke="#1f8a70" stroke-width="1.5" stroke-dasharray="5,2" d="M405.06,-45.73C447.73,-54.25 497.97,-67.61 511,-85 522.73,-100.65 516.68,-110.29 511,-129 503.28,-154.45 486.3,-153.57 477.75,-178.75 458.26,-236.19 459.73,-308.47 462.42,-347.08"/>
<polygon fill="#1f8a70" stroke="#1f8a70" stroke-width="1.5" points="459.61,-347.01 463.02,-354.77 465.19,-346.58 459.61,-347.01"/>
<text xml:space="preserve" text-anchor="middle" x="516.38" y="-193.07" font-family="Helvetica,sans-Serif" font-size="9.00" fill="#16735c">still&#45;needed literals</text>
</g>
<!-- fb&#45;&gt;s_mut -->
<g id="edge13" class="edge">
<title>fb&#45;&gt;s_mut</title>
<path fill="none" stroke="#e67e22" stroke-width="1.5" stroke-dasharray="5,2" d="M405.26,-44.76C451,-53.06 506.45,-66.58 521,-85 585.9,-167.13 615.17,-292.03 625.44,-346.89"/>
<polygon fill="#e67e22" stroke="#e67e22" stroke-width="1.5" points="622.66,-347.28 626.84,-354.66 628.17,-346.29 622.66,-347.28"/>
<text xml:space="preserve" text-anchor="middle" x="637.47" y="-193.07" font-family="Helvetica,sans-Serif" font-size="9.00" fill="#b35e10">keep coverage&#45;growers</text>
</g>
</g>
</svg>
