<?xml version="1.0" encoding="UTF-8" standalone="no"?>
<!DOCTYPE svg PUBLIC "-//W3C//DTD SVG 1.1//EN"
 "http://www.w3.org/Graphics/SVG/1.1/DTD/svg11.dtd">
<!-- Generated by graphviz version 15.0.0 (20260523.1842)
 -->
<!-- Title: sources Pages: 1 -->
<svg width="681pt" height="471pt"
 viewBox="0.00 0.00 681.00 471.00" xmlns="http://www.w3.org/2000/svg" xmlns:xlink="http://www.w3.org/1999/xlink">
<g id="graph0" class="graph" transform="scale(1 1) rotate(0) translate(4 467.21)">
<title>sources</title>
<polygon fill="white" stroke="none" points="-4,4 -4,-467.21 677,-467.21 677,4 -4,4"/>
<text xml:space="preserve" text-anchor="start" x="193.62" y="-443.11" font-family="Helvetica,sans-Serif" font-weight="bold" font-size="18.00">Where the next input comes from</text>
<g id="clust1" class="cluster">
<title>cluster_sc</title>
<path fill="#f6f8fa" stroke="#9aa5b1" d="M20,-85C20,-85 239,-85 239,-85 245,-85 251,-91 251,-97 251,-97 251,-416.46 251,-416.46 251,-422.46 245,-428.46 239,-428.46 239,-428.46 20,-428.46 20,-428.46 14,-428.46 8,-422.46 8,-416.46 8,-416.46 8,-97 8,-97 8,-91 14,-85 20,-85"/>
<text xml:space="preserve" text-anchor="start" x="16" y="-413.11" font-family="Helvetica,sans-Serif" font-weight="bold" font-size="13.00">ScalaCheck — the random baseline</text>
</g>
<g id="clust2" class="cluster">
<title>cluster_cg</title>
<path fill="#f5fbf8" stroke="#7fb8a4" d="M271,-8C271,-8 653,-8 653,-8 659,-8 665,-14 665,-20 665,-20 665,-410.86 665,-410.86 665,-416.86 659,-422.86 653,-422.86 653,-422.86 271,-422.86 271,-422.86 265,-422.86 259,-416.86 259,-410.86 259,-410.86 259,-20 259,-20 259,-14 265,-8 271,-8"/>
<text xml:space="preserve" text-anchor="start" x="267" y="-407.51" font-family="Helvetica,sans-Serif" font-weight="bold" font-size="13.00">This engine — coverage&#45;guided</text>
</g>
<!-- a_rng -->
<g id="node1" class="node">
<title>a_rng</title>
<ellipse fill="#e5e8ec" stroke="black" cx="81" cy="-375.36" rx="23.61" ry="23.61"/>
<text xml:space="preserve" text-anchor="middle" x="81" y="-370.91" font-family="Helvetica,sans-Serif" font-size="11.00">RNG</text>
</g>
<!-- a_gen -->
<g id="node2" class="node">
<title>a_gen</title>
<path fill="#d6e4f0" stroke="black" d="M101.38,-302C101.38,-302 60.62,-302 60.62,-302 54.62,-302 48.62,-296 48.62,-290 48.62,-290 48.62,-278 48.62,-278 48.62,-272 54.62,-266 60.62,-266 60.62,-266 101.38,-266 101.38,-266 107.38,-266 113.38,-272 113.38,-278 113.38,-278 113.38,-290 113.38,-290 113.38,-296 107.38,-302 101.38,-302"/>
<text xml:space="preserve" text-anchor="start" x="56.62" y="-284.55" font-family="Helvetica,sans-Serif" font-size="11.00">Generator</text>
<text xml:space="preserve" text-anchor="start" x="58.5" y="-275.45" font-family="Helvetica,sans-Serif" font-size="9.00">Arbitrary[A]</text>
</g>
<!-- a_rng&#45;&gt;a_gen -->
<g id="edge1" class="edge">
<title>a_rng&#45;&gt;a_gen</title>
<path fill="none" stroke="#34495e" stroke-width="1.5" d="M81,-351.35C81,-339.51 81,-324.99 81,-312.56"/>
<polygon fill="#34495e" stroke="#34495e" stroke-width="1.5" points="83.8,-312.56 81,-304.56 78.2,-312.56 83.8,-312.56"/>
<text xml:space="preserve" text-anchor="middle" x="105" y="-323.2" font-family="Helvetica,sans-Serif" font-size="9.00">random bits</text>
</g>
<!-- a_sut -->
<g id="node3" class="node">
<title>a_sut</title>
<polygon fill="#eceff2" stroke="black" points="126.5,-214.75 35.5,-214.75 35.5,-178.75 126.5,-178.75 126.5,-214.75"/>
<text xml:space="preserve" text-anchor="middle" x="81" y="-192.3" font-family="Helvetica,sans-Serif" font-size="11.00">SUT + property</text>
</g>
<!-- a_gen&#45;&gt;a_sut -->
<g id="edge2" class="edge">
<title>a_gen&#45;&gt;a_sut</title>
<path fill="none" stroke="#34495e" stroke-width="1.5" d="M81,-265.75C81,-254.08 81,-238.42 81,-225.07"/>
<polygon fill="#34495e" stroke="#34495e" stroke-width="1.5" points="83.8,-225.25 81,-217.25 78.2,-225.25 83.8,-225.25"/>
<text xml:space="preserve" text-anchor="middle" x="92.25" y="-236.7" font-family="Helvetica,sans-Serif" font-size="9.00">value</text>
</g>
<!-- a_sut&#45;&gt;a_gen -->
<g id="edge4" class="edge">
<title>a_sut&#45;&gt;a_gen</title>
<path fill="none" stroke="#34495e" stroke-width="1.5" stroke-dasharray="5,2" d="M98.44,-215.11C103.12,-220.88 107.55,-227.65 110,-234.75 112.7,-242.59 110.43,-250.52 106.19,-257.64"/>
<polygon fill="#34495e" stroke="#34495e" stroke-width="1.5" points="104.21,-255.59 101.8,-263.72 108.76,-258.87 104.21,-255.59"/>
<text xml:space="preserve" text-anchor="middle" x="136.3" y="-237.45" font-family="Helvetica,sans-Serif" font-size="9.00">pass → next</text>
</g>
<!-- a_out -->
<g id="node4" class="node">
<title>a_out</title>
<path fill="#fadbd8" stroke="black" d="M115.25,-129C115.25,-129 46.75,-129 46.75,-129 40.75,-129 34.75,-123 34.75,-117 34.75,-117 34.75,-105 34.75,-105 34.75,-99 40.75,-93 46.75,-93 46.75,-93 115.25,-93 115.25,-93 121.25,-93 127.25,-99 127.25,-105 127.25,-105 127.25,-117 127.25,-117 127.25,-123 121.25,-129 115.25,-129"/>
<text xml:space="preserve" text-anchor="middle" x="81" y="-106.55" font-family="Helvetica,sans-Serif" font-size="11.00">counterexample</text>
</g>
<!-- a_sut&#45;&gt;a_out -->
<g id="edge3" class="edge">
<title>a_sut&#45;&gt;a_out</title>
<path fill="none" stroke="#34495e" stroke-width="1.5" d="M81,-178.4C81,-167.17 81,-152.31 81,-139.49"/>
<polygon fill="#34495e" stroke="#34495e" stroke-width="1.5" points="83.8,-139.6 81,-131.6 78.2,-139.6 83.8,-139.6"/>
<text xml:space="preserve" text-anchor="middle" x="87" y="-150.2" font-family="Helvetica,sans-Serif" font-size="9.00">fail</text>
</g>
<!-- s_rand -->
<g id="node5" class="node">
<title>s_rand</title>
<path fill="#2e5c8a" stroke="black" d="M340.5,-393.36C340.5,-393.36 279.5,-393.36 279.5,-393.36 273.5,-393.36 267.5,-387.36 267.5,-381.36 267.5,-381.36 267.5,-369.36 267.5,-369.36 267.5,-363.36 273.5,-357.36 279.5,-357.36 279.5,-357.36 340.5,-357.36 340.5,-357.36 346.5,-357.36 352.5,-363.36 352.5,-369.36 352.5,-369.36 352.5,-381.36 352.5,-381.36 352.5,-387.36 346.5,-393.36 340.5,-393.36"/>
<text xml:space="preserve" text-anchor="start" x="275.5" y="-375.91" font-family="Helvetica,sans-Serif" font-weight="bold" font-size="11.00" fill="white">random draw</text>
<text xml:space="preserve" text-anchor="start" x="287.5" y="-366.81" font-family="Helvetica,sans-Serif" font-size="9.00" fill="white">Arbitrary[A]</text>
</g>
<!-- mix -->
<g id="node8" class="node">
<title>mix</title>
<path fill="#2c3e50" stroke="black" d="M396,-302C396,-302 344,-302 344,-302 338,-302 332,-296 332,-290 332,-290 332,-278 332,-278 332,-272 338,-266 344,-266 344,-266 396,-266 396,-266 402,-266 408,-272 408,-278 408,-278 408,-290 408,-290 408,-296 402,-302 396,-302"/>
<text xml:space="preserve" text-anchor="start" x="360.62" y="-284.55" font-family="Helvetica,sans-Serif" font-weight="bold" font-size="11.00" fill="white">mix</text>
<text xml:space="preserve" text-anchor="start" x="340" y="-275.45" font-family="Helvetica,sans-Serif" font-size="9.00" fill="white">Gen.frequency</text>
</g>
<!-- s_rand&#45;&gt;mix -->
<g id="edge5" class="edge">
<title>s_rand&#45;&gt;mix</title>
<path fill="none" stroke="#34495e" stroke-width="1.5" d="M321.57,-357.13C330.39,-343.99 342.69,-325.67 352.69,-310.78"/>
<polygon fill="#34495e" stroke="#34495e" stroke-width="1.5" points="354.86,-312.57 357,-304.37 350.21,-309.45 354.86,-312.57"/>
</g>
<!-- s_pool -->
<g id="node6" class="node">
<title>s_pool</title>
<path fill="#1f8a70" stroke="black" d="M504.5,-393.36C504.5,-393.36 389.5,-393.36 389.5,-393.36 383.5,-393.36 377.5,-387.36 377.5,-381.36 377.5,-381.36 377.5,-369.36 377.5,-369.36 377.5,-363.36 383.5,-357.36 389.5,-357.36 389.5,-357.36 504.5,-357.36 504.5,-357.36 510.5,-357.36 516.5,-363.36 516.5,-369.36 516.5,-369.36 516.5,-381.36 516.5,-381.36 516.5,-387.36 510.5,-393.36 504.5,-393.36"/>
<text xml:space="preserve" text-anchor="start" x="435.38" y="-375.91" font-family="Helvetica,sans-Serif" font-weight="bold" font-size="11.00" fill="white">pool</text>
<text xml:space="preserve" text-anchor="start" x="385.5" y="-366.81" font-family="Helvetica,sans-Serif" font-size="9.00" fill="white">literals of uncovered branches</text>
</g>
<!-- s_pool&#45;&gt;mix -->
<g id="edge6" class="edge">
<title>s_pool&#45;&gt;mix</title>
<path fill="none" stroke="#34495e" stroke-width="1.5" d="M432.15,-357.13C420.62,-343.74 404.45,-324.98 391.5,-309.95"/>
<polygon fill="#34495e" stroke="#34495e" stroke-width="1.5" points="393.89,-308.43 386.55,-304.2 389.65,-312.09 393.89,-308.43"/>
</g>
<!-- s_mut -->
<g id="node7" class="node">
<title>s_mut</title>
<path fill="#e67e22" stroke="black" d="M634.62,-393.36C634.62,-393.36 553.38,-393.36 553.38,-393.36 547.38,-393.36 541.38,-387.36 541.38,-381.36 541.38,-381.36 541.38,-369.36 541.38,-369.36 541.38,-363.36 547.38,-357.36 553.38,-357.36 553.38,-357.36 634.62,-357.36 634.62,-357.36 640.62,-357.36 646.62,-363.36 646.62,-369.36 646.62,-369.36 646.62,-381.36 646.62,-381.36 646.62,-387.36 640.62,-393.36 634.62,-393.36"/>
<text xml:space="preserve" text-anchor="start" x="570.75" y="-375.91" font-family="Helvetica,sans-Serif" font-weight="bold" font-size="11.00" fill="white">mutation</text>
<text xml:space="preserve" text-anchor="start" x="549.38" y="-366.81" font-family="Helvetica,sans-Serif" font-size="9.00" fill="white">perturb a corpus seed</text>
</g>
<!-- s_mut&#45;&gt;mix -->
<g id="edge7" class="edge">
<title>s_mut&#45;&gt;mix</title>
<path fill="none" stroke="#34495e" stroke-width="1.5" d="M544.38,-356.89C539.19,-355.13 534,-353.39 529,-351.75 500.28,-342.34 492.07,-342.96 464,-331.75 446.01,-324.56 426.75,-315.28 410.37,-306.89"/>
<polygon fill="#34495e" stroke="#34495e" stroke-width="1.5" points="412.01,-304.58 403.62,-303.38 409.43,-309.55 412.01,-304.58"/>
</g>
<!-- sut -->
<g id="node9" class="node">
<title>sut</title>
<polygon fill="#eceff2" stroke="#2c3e50" stroke-width="2" points="382.5,-214.75 267.5,-214.75 267.5,-178.75 382.5,-178.75 382.5,-214.75"/>
<text xml:space="preserve" text-anchor="start" x="287.5" y="-197.3" font-family="Helvetica,sans-Serif" font-size="11.00">SUT + property</text>
<text xml:space="preserve" text-anchor="start" x="275.5" y="-188.2" font-family="Helvetica,sans-Serif" font-size="9.00">scoverage&#45;instrumented</text>
</g>
<!-- mix&#45;&gt;sut -->
<g id="edge8" class="edge">
<title>mix&#45;&gt;sut</title>
<path fill="none" stroke="#34495e" stroke-width="2.2" d="M360.89,-265.75C354.75,-254.12 346.52,-238.52 339.49,-225.2"/>
<polygon fill="#34495e" stroke="#34495e" stroke-width="2.2" points="342.17,-224.28 335.96,-218.51 337.22,-226.89 342.17,-224.28"/>
<text xml:space="preserve" text-anchor="middle" x="370.07" y="-236.7" font-family="Helvetica,sans-Serif" font-size="9.00">next input</text>
</g>
<!-- cov -->
<g id="node10" class="node">
<title>cov</title>
<polygon fill="#e8f0eb" stroke="black" points="361.25,-129 286.75,-129 286.75,-93 361.25,-93 361.25,-129"/>
<text xml:space="preserve" text-anchor="start" x="301.88" y="-111.55" font-family="Helvetica,sans-Serif" font-size="11.00">coverage</text>
<text xml:space="preserve" text-anchor="start" x="294.75" y="-102.45" font-family="Helvetica,sans-Serif" font-size="9.00">fired branches</text>
</g>
<!-- sut&#45;&gt;cov -->
<g id="edge10" class="edge">
<title>sut&#45;&gt;cov</title>
<path fill="none" stroke="#34495e" stroke-width="1.5" d="M324.79,-177.99C324.65,-166.81 324.48,-152.15 324.33,-139.49"/>
<polygon fill="#34495e" stroke="#34495e" stroke-width="1.5" points="327.13,-139.68 324.24,-131.72 321.53,-139.75 327.13,-139.68"/>
<text xml:space="preserve" text-anchor="middle" x="331.28" y="-150.2" font-family="Helvetica,sans-Serif" font-size="9.00">run</text>
</g>
<!-- out -->
<g id="node12" class="node">
<title>out</title>
<path fill="#fadbd8" stroke="black" d="M467.25,-129C467.25,-129 398.75,-129 398.75,-129 392.75,-129 386.75,-123 386.75,-117 386.75,-117 386.75,-105 386.75,-105 386.75,-99 392.75,-93 398.75,-93 398.75,-93 467.25,-93 467.25,-93 473.25,-93 479.25,-99 479.25,-105 479.25,-105 479.25,-117 479.25,-117 479.25,-123 473.25,-129 467.25,-129"/>
<text xml:space="preserve" text-anchor="middle" x="433" y="-106.55" font-family="Helvetica,sans-Serif" font-size="11.00">counterexample</text>
</g>
<!-- sut&#45;&gt;out -->
<g id="edge9" class="edge">
<title>sut&#45;&gt;out</title>
<path fill="none" stroke="#34495e" stroke-width="1.5" d="M348.17,-177.78C364.04,-165.47 385.26,-149.02 402.5,-135.65"/>
<polygon fill="#34495e" stroke="#34495e" stroke-width="1.5" points="404.21,-137.87 408.81,-130.75 400.78,-133.44 404.21,-137.87"/>
<text xml:space="preserve" text-anchor="middle" x="388.24" y="-150.2" font-family="Helvetica,sans-Serif" font-size="9.00">fail</text>
</g>
<!-- fb -->
<g id="node11" class="node">
<title>fb</title>
<path fill="#fcf3cf" stroke="black" d="M368.38,-52C368.38,-52 279.62,-52 279.62,-52 273.62,-52 267.62,-46 267.62,-40 267.62,-40 267.62,-28 267.62,-28 267.62,-22 273.62,-16 279.62,-16 279.62,-16 368.38,-16 368.38,-16 374.38,-16 380.38,-22 380.38,-28 380.38,-28 380.38,-40 380.38,-40 380.38,-46 374.38,-52 368.38,-52"/>
<text xml:space="preserve" text-anchor="start" x="298.88" y="-34.55" font-family="Helvetica,sans-Serif" font-weight="bold" font-size="11.00">Feedback</text>
<text xml:space="preserve" text-anchor="start" x="275.62" y="-25.45" font-family="Helvetica,sans-Serif" font-size="9.00">covered leaves · corpus</text>
</g>
<!-- cov&#45;&gt;fb -->
<g id="edge11" class="edge">
<title>cov&#45;&gt;fb</title>
<path fill="none" stroke="#34495e" stroke-width="1.5" d="M324,-92.6C324,-83.61 324,-72.43 324,-62.32"/>
<polygon fill="#34495e" stroke="#34495e" stroke-width="1.5" points="326.8,-62.57 324,-54.57 321.2,-62.57 326.8,-62.57"/>
</g>
<!-- fb&#45;&gt;s_pool -->
<g id="edge12" class="edge">
<title>fb&#45;&gt;s_pool</title>
<path fill="none" stroke="#1f8a70" stroke-width="1.5" stroke-dasharray="5,2" d="M380.85,-44.46C424.13,-52.96 478.49,-66.89 492,-85 503.69,-100.68 499.25,-110.84 492,-129 487.45,-140.39 480.8,-139.54 473,-149 462.66,-161.53 456.9,-163.34 451.75,-178.75 432.57,-236.18 437.8,-308.46 442.74,-347.08"/>
<polygon fill="#1f8a70" stroke="#1f8a70" stroke-width="1.5" points="439.94,-347.24 443.8,-354.78 445.48,-346.48 439.94,-347.24"/>
<text xml:space="preserve" text-anchor="middle" x="490.38" y="-193.07" font-family="Helvetica,sans-Serif" font-size="9.00" fill="#16735c">still&#45;needed literals</text>
</g>
<!-- fb&#45;&gt;s_mut -->
<g id="edge13" class="edge">
<title>fb&#45;&gt;s_mut</title>
<path fill="none" stroke="#e67e22" stroke-width="1.5" stroke-dasharray="5,2" d="M380.71,-43.38C427.27,-51.55 487.9,-65.57 503,-85 566.16,-166.28 585.92,-292.14 591.74,-347.11"/>
<polygon fill="#e67e22" stroke="#e67e22" stroke-width="1.5" points="588.93,-347.18 592.5,-354.86 594.5,-346.63 588.93,-347.18"/>
<text xml:space="preserve" text-anchor="middle" x="613.37" y="-193.07" font-family="Helvetica,sans-Serif" font-size="9.00" fill="#b35e10">keep coverage&#45;growers</text>
</g>
</g>
</svg>
