<?xml version="1.0" encoding="UTF-8" standalone="no"?>
<!DOCTYPE svg PUBLIC "-//W3C//DTD SVG 1.1//EN"
 "http://www.w3.org/Graphics/SVG/1.1/DTD/svg11.dtd">
<!-- Generated by graphviz version 15.0.0 (20260523.1842)
 -->
<!-- Title: sources Pages: 1 -->
<svg width="739pt" height="471pt"
 viewBox="0.00 0.00 739.00 471.00" xmlns="http://www.w3.org/2000/svg" xmlns:xlink="http://www.w3.org/1999/xlink">
<g id="graph0" class="graph" transform="scale(1 1) rotate(0) translate(4 467.21)">
<title>sources</title>
<polygon fill="white" stroke="none" points="-4,4 -4,-467.21 735,-467.21 735,4 -4,4"/>
<text xml:space="preserve" text-anchor="start" x="222.62" y="-443.11" font-family="Helvetica,sans-Serif" font-weight="bold" font-size="18.00">Where the next input comes from</text>
<g id="clust1" class="cluster">
<title>cluster_sc</title>
<path fill="#f6f8fa" stroke="#9aa5b1" d="M20,-85C20,-85 239,-85 239,-85 245,-85 251,-91 251,-97 251,-97 251,-416.46 251,-416.46 251,-422.46 245,-428.46 239,-428.46 239,-428.46 20,-428.46 20,-428.46 14,-428.46 8,-422.46 8,-416.46 8,-416.46 8,-97 8,-97 8,-91 14,-85 20,-85"/>
<text xml:space="preserve" text-anchor="start" x="16" y="-413.11" font-family="Helvetica,sans-Serif" font-weight="bold" font-size="13.00">ScalaCheck — the random baseline</text>
</g>
<g id="clust2" class="cluster">
<title>cluster_cg</title>
<path fill="#f5fbf8" stroke="#7fb8a4" d="M271,-8C271,-8 711,-8 711,-8 717,-8 723,-14 723,-20 723,-20 723,-410.86 723,-410.86 723,-416.86 717,-422.86 711,-422.86 711,-422.86 271,-422.86 271,-422.86 265,-422.86 259,-416.86 259,-410.86 259,-410.86 259,-20 259,-20 259,-14 265,-8 271,-8"/>
<text xml:space="preserve" text-anchor="start" x="267" y="-407.51" font-family="Helvetica,sans-Serif" font-weight="bold" font-size="13.00">This engine — coverage&#45;guided</text>
</g>
<!-- a_rng -->
<g id="node1" class="node">
<title>a_rng</title>
<ellipse fill="#e5e8ec" stroke="black" cx="81" cy="-375.36" rx="23.61" ry="23.61"/>
<text xml:space="preserve" text-anchor="middle" x="81" y="-370.91" font-family="Helvetica,sans-Serif" font-size="11.00">RNG</text>
</g>
<!-- a_gen -->
<g id="node2" class="node">
<title>a_gen</title>
<path fill="#d6e4f0" stroke="black" d="M101.38,-302C101.38,-302 60.62,-302 60.62,-302 54.62,-302 48.62,-296 48.62,-290 48.62,-290 48.62,-278 48.62,-278 48.62,-272 54.62,-266 60.62,-266 60.62,-266 101.38,-266 101.38,-266 107.38,-266 113.38,-272 113.38,-278 113.38,-278 113.38,-290 113.38,-290 113.38,-296 107.38,-302 101.38,-302"/>
<text xml:space="preserve" text-anchor="start" x="56.62" y="-284.55" font-family="Helvetica,sans-Serif" font-size="11.00">Generator</text>
<text xml:space="preserve" text-anchor="start" x="58.5" y="-275.45" font-family="Helvetica,sans-Serif" font-size="9.00">Arbitrary[A]</text>
</g>
<!-- a_rng&#45;&gt;a_gen -->
<g id="edge1" class="edge">
<title>a_rng&#45;&gt;a_gen</title>
<path fill="none" stroke="#34495e" stroke-width="1.5" d="M81,-351.35C81,-339.51 81,-324.99 81,-312.56"/>
<polygon fill="#34495e" stroke="#34495e" stroke-width="1.5" points="83.8,-312.56 81,-304.56 78.2,-312.56 83.8,-312.56"/>
<text xml:space="preserve" text-anchor="middle" x="105" y="-323.2" font-family="Helvetica,sans-Serif" font-size="9.00">random bits</text>
</g>
<!-- a_sut -->
<g id="node3" class="node">
<title>a_sut</title>
<polygon fill="#eceff2" stroke="black" points="126.5,-214.75 35.5,-214.75 35.5,-178.75 126.5,-178.75 126.5,-214.75"/>
<text xml:space="preserve" text-anchor="middle" x="81" y="-192.3" font-family="Helvetica,sans-Serif" font-size="11.00">SUT + property</text>
</g>
<!-- a_gen&#45;&gt;a_sut -->
<g id="edge2" class="edge">
<title>a_gen&#45;&gt;a_sut</title>
<path fill="none" stroke="#34495e" stroke-width="1.5" d="M81,-265.75C81,-254.08 81,-238.42 81,-225.07"/>
<polygon fill="#34495e" stroke="#34495e" stroke-width="1.5" points="83.8,-225.25 81,-217.25 78.2,-225.25 83.8,-225.25"/>
<text xml:space="preserve" text-anchor="middle" x="92.25" y="-236.7" font-family="Helvetica,sans-Serif" font-size="9.00">value</text>
</g>
<!-- a_sut&#45;&gt;a_gen -->
<g id="edge4" class="edge">
<title>a_sut&#45;&gt;a_gen</title>
<path fill="none" stroke="#34495e" stroke-width="1.5" stroke-dasharray="5,2" d="M98.44,-215.11C103.12,-220.88 107.55,-227.65 110,-234.75 112.7,-242.59 110.43,-250.52 106.19,-257.64"/>
<polygon fill="#34495e" stroke="#34495e" stroke-width="1.5" points="104.21,-255.59 101.8,-263.72 108.76,-258.87 104.21,-255.59"/>
<text xml:space="preserve" text-anchor="middle" x="136.3" y="-237.45" font-family="Helvetica,sans-Serif" font-size="9.00">pass → next</text>
</g>
<!-- a_out -->
<g id="node4" class="node">
<title>a_out</title>
<path fill="#fadbd8" stroke="black" d="M115.25,-129C115.25,-129 46.75,-129 46.75,-129 40.75,-129 34.75,-123 34.75,-117 34.75,-117 34.75,-105 34.75,-105 34.75,-99 40.75,-93 46.75,-93 46.75,-93 115.25,-93 115.25,-93 121.25,-93 127.25,-99 127.25,-105 127.25,-105 127.25,-117 127.25,-117 127.25,-123 121.25,-129 115.25,-129"/>
<text xml:space="preserve" text-anchor="middle" x="81" y="-106.55" font-family="Helvetica,sans-Serif" font-size="11.00">counterexample</text>
</g>
<!-- a_sut&#45;&gt;a_out -->
<g id="edge3" class="edge">
<title>a_sut&#45;&gt;a_out</title>
<path fill="none" stroke="#34495e" stroke-width="1.5" d="M81,-178.4C81,-167.17 81,-152.31 81,-139.49"/>
<polygon fill="#34495e" stroke="#34495e" stroke-width="1.5" points="83.8,-139.6 81,-131.6 78.2,-139.6 83.8,-139.6"/>
<text xml:space="preserve" text-anchor="middle" x="87" y="-150.2" font-family="Helvetica,sans-Serif" font-size="9.00">fail</text>
</g>
<!-- s_rand -->
<g id="node5" class="node">
<title>s_rand</title>
<path fill="#2e5c8a" stroke="black" d="M340.5,-393.36C340.5,-393.36 279.5,-393.36 279.5,-393.36 273.5,-393.36 267.5,-387.36 267.5,-381.36 267.5,-381.36 267.5,-369.36 267.5,-369.36 267.5,-363.36 273.5,-357.36 279.5,-357.36 279.5,-357.36 340.5,-357.36 340.5,-357.36 346.5,-357.36 352.5,-363.36 352.5,-369.36 352.5,-369.36 352.5,-381.36 352.5,-381.36 352.5,-387.36 346.5,-393.36 340.5,-393.36"/>
<text xml:space="preserve" text-anchor="start" x="275.5" y="-375.91" font-family="Helvetica,sans-Serif" font-weight="bold" font-size="11.00" fill="white">random draw</text>
<text xml:space="preserve" text-anchor="start" x="287.5" y="-366.81" font-family="Helvetica,sans-Serif" font-size="9.00" fill="white">Arbitrary[A]</text>
</g>
<!-- mix -->
<g id="node8" class="node">
<title>mix</title>
<path fill="#2c3e50" stroke="black" d="M461,-302C461,-302 409,-302 409,-302 403,-302 397,-296 397,-290 397,-290 397,-278 397,-278 397,-272 403,-266 409,-266 409,-266 461,-266 461,-266 467,-266 473,-272 473,-278 473,-278 473,-290 473,-290 473,-296 467,-302 461,-302"/>
<text xml:space="preserve" text-anchor="start" x="413.62" y="-284.55" font-family="Helvetica,sans-Serif" font-weight="bold" font-size="11.00" fill="white">strategy</text>
<text xml:space="preserve" text-anchor="start" x="405" y="-275.45" font-family="Helvetica,sans-Serif" font-size="9.00" fill="white">Gen.frequency</text>
</g>
<!-- s_rand&#45;&gt;mix -->
<g id="edge5" class="edge">
<title>s_rand&#45;&gt;mix</title>
<path fill="none" stroke="#34495e" stroke-width="1.5" d="M334.4,-356.92C353.84,-343.02 381.24,-323.43 402.54,-308.21"/>
<polygon fill="#34495e" stroke="#34495e" stroke-width="1.5" points="403.94,-310.65 408.82,-303.72 400.68,-306.09 403.94,-310.65"/>
</g>
<!-- s_pool -->
<g id="node6" class="node">
<title>s_pool</title>
<path fill="#1f8a70" stroke="black" d="M572.62,-393.36C572.62,-393.36 389.38,-393.36 389.38,-393.36 383.38,-393.36 377.38,-387.36 377.38,-381.36 377.38,-381.36 377.38,-369.36 377.38,-369.36 377.38,-363.36 383.38,-357.36 389.38,-357.36 389.38,-357.36 572.62,-357.36 572.62,-357.36 578.62,-357.36 584.62,-363.36 584.62,-369.36 584.62,-369.36 584.62,-381.36 584.62,-381.36 584.62,-387.36 578.62,-393.36 572.62,-393.36"/>
<text xml:space="preserve" text-anchor="start" x="469.38" y="-375.91" font-family="Helvetica,sans-Serif" font-weight="bold" font-size="11.00" fill="white">pool</text>
<text xml:space="preserve" text-anchor="start" x="385.38" y="-366.81" font-family="Helvetica,sans-Serif" font-size="9.00" fill="white">reusable literals while branches are uncovered</text>
</g>
<!-- s_pool&#45;&gt;mix -->
<g id="edge6" class="edge">
<title>s_pool&#45;&gt;mix</title>
<path fill="none" stroke="#34495e" stroke-width="1.5" d="M472.13,-357.13C465.43,-344.11 456.11,-326.01 448.49,-311.2"/>
<polygon fill="#34495e" stroke="#34495e" stroke-width="1.5" points="451.19,-310.33 445.04,-304.5 446.21,-312.89 451.19,-310.33"/>
</g>
<!-- s_mut -->
<g id="node7" class="node">
<title>s_mut</title>
<path fill="#e67e22" stroke="black" d="M702.62,-393.36C702.62,-393.36 621.38,-393.36 621.38,-393.36 615.38,-393.36 609.38,-387.36 609.38,-381.36 609.38,-381.36 609.38,-369.36 609.38,-369.36 609.38,-363.36 615.38,-357.36 621.38,-357.36 621.38,-357.36 702.62,-357.36 702.62,-357.36 708.62,-357.36 714.62,-363.36 714.62,-369.36 714.62,-369.36 714.62,-381.36 714.62,-381.36 714.62,-387.36 708.62,-393.36 702.62,-393.36"/>
<text xml:space="preserve" text-anchor="start" x="638.75" y="-375.91" font-family="Helvetica,sans-Serif" font-weight="bold" font-size="11.00" fill="white">mutation</text>
<text xml:space="preserve" text-anchor="start" x="617.38" y="-366.81" font-family="Helvetica,sans-Serif" font-size="9.00" fill="white">perturb a corpus seed</text>
</g>
<!-- s_mut&#45;&gt;mix -->
<g id="edge7" class="edge">
<title>s_mut&#45;&gt;mix</title>
<path fill="none" stroke="#34495e" stroke-width="1.5" d="M613.55,-356.9C607.99,-355.08 602.39,-353.32 597,-351.75 560.16,-340.99 548.54,-346.23 513,-331.75 497.53,-325.45 481.52,-316.37 468.06,-307.88"/>
<polygon fill="#34495e" stroke="#34495e" stroke-width="1.5" points="469.76,-305.65 461.52,-303.66 466.73,-310.35 469.76,-305.65"/>
</g>
<!-- sut -->
<g id="node9" class="node">
<title>sut</title>
<polygon fill="#eceff2" stroke="#2c3e50" stroke-width="2" points="459.5,-214.75 344.5,-214.75 344.5,-178.75 459.5,-178.75 459.5,-214.75"/>
<text xml:space="preserve" text-anchor="start" x="364.5" y="-197.3" font-family="Helvetica,sans-Serif" font-size="11.00">SUT + property</text>
<text xml:space="preserve" text-anchor="start" x="352.5" y="-188.2" font-family="Helvetica,sans-Serif" font-size="9.00">scoverage&#45;instrumented</text>
</g>
<!-- mix&#45;&gt;sut -->
<g id="edge8" class="edge">
<title>mix&#45;&gt;sut</title>
<path fill="none" stroke="#34495e" stroke-width="2.2" d="M428.32,-265.75C423.91,-254.35 418.02,-239.13 412.93,-225.99"/>
<polygon fill="#34495e" stroke="#34495e" stroke-width="2.2" points="415.6,-225.12 410.1,-218.67 410.37,-227.14 415.6,-225.12"/>
<text xml:space="preserve" text-anchor="middle" x="440.35" y="-236.7" font-family="Helvetica,sans-Serif" font-size="9.00">next input</text>
</g>
<!-- cov -->
<g id="node10" class="node">
<title>cov</title>
<polygon fill="#e8f0eb" stroke="black" points="393.25,-129 312.75,-129 312.75,-93 393.25,-93 393.25,-129"/>
<text xml:space="preserve" text-anchor="start" x="330.88" y="-111.55" font-family="Helvetica,sans-Serif" font-size="11.00">coverage</text>
<text xml:space="preserve" text-anchor="start" x="320.75" y="-102.45" font-family="Helvetica,sans-Serif" font-size="9.00">fired statements</text>
</g>
<!-- sut&#45;&gt;cov -->
<g id="edge10" class="edge">
<title>sut&#45;&gt;cov</title>
<path fill="none" stroke="#34495e" stroke-width="1.5" d="M390.28,-177.83C386.44,-171.82 382.21,-165.04 378.5,-158.75 374.63,-152.18 370.6,-144.99 366.93,-138.26"/>
<polygon fill="#34495e" stroke="#34495e" stroke-width="1.5" points="369.52,-137.17 363.25,-131.47 364.6,-139.84 369.52,-137.17"/>
<text xml:space="preserve" text-anchor="middle" x="385.25" y="-150.2" font-family="Helvetica,sans-Serif" font-size="9.00">run</text>
</g>
<!-- out -->
<g id="node12" class="node">
<title>out</title>
<path fill="#fadbd8" stroke="black" d="M499.25,-129C499.25,-129 430.75,-129 430.75,-129 424.75,-129 418.75,-123 418.75,-117 418.75,-117 418.75,-105 418.75,-105 418.75,-99 424.75,-93 430.75,-93 430.75,-93 499.25,-93 499.25,-93 505.25,-93 511.25,-99 511.25,-105 511.25,-105 511.25,-117 511.25,-117 511.25,-123 505.25,-129 499.25,-129"/>
<text xml:space="preserve" text-anchor="middle" x="465" y="-106.55" font-family="Helvetica,sans-Serif" font-size="11.00">counterexample</text>
</g>
<!-- sut&#45;&gt;out -->
<g id="edge9" class="edge">
<title>sut&#45;&gt;out</title>
<path fill="none" stroke="#34495e" stroke-width="1.5" d="M415.36,-177.99C424.19,-166.25 435.9,-150.68 445.74,-137.61"/>
<polygon fill="#34495e" stroke="#34495e" stroke-width="1.5" points="447.94,-139.34 450.51,-131.26 443.46,-135.97 447.94,-139.34"/>
<text xml:space="preserve" text-anchor="middle" x="441.39" y="-150.2" font-family="Helvetica,sans-Serif" font-size="9.00">fail</text>
</g>
<!-- fb -->
<g id="node11" class="node">
<title>fb</title>
<path fill="#fcf3cf" stroke="black" d="M406,-52C406,-52 300,-52 300,-52 294,-52 288,-46 288,-40 288,-40 288,-28 288,-28 288,-22 294,-16 300,-16 300,-16 406,-16 406,-16 412,-16 418,-22 418,-28 418,-28 418,-40 418,-40 418,-46 412,-52 406,-52"/>
<text xml:space="preserve" text-anchor="start" x="327.88" y="-34.55" font-family="Helvetica,sans-Serif" font-weight="bold" font-size="11.00">Feedback</text>
<text xml:space="preserve" text-anchor="start" x="296" y="-25.45" font-family="Helvetica,sans-Serif" font-size="9.00">covered statements · corpus</text>
</g>
<!-- cov&#45;&gt;fb -->
<g id="edge11" class="edge">
<title>cov&#45;&gt;fb</title>
<path fill="none" stroke="#34495e" stroke-width="1.5" d="M353,-92.6C353,-83.61 353,-72.43 353,-62.32"/>
<polygon fill="#34495e" stroke="#34495e" stroke-width="1.5" points="355.8,-62.57 353,-54.57 350.2,-62.57 355.8,-62.57"/>
</g>
<!-- fb&#45;&gt;s_pool -->
<g id="edge12" class="edge">
<title>fb&#45;&gt;s_pool</title>
<path fill="none" stroke="#1f8a70" stroke-width="1.5" stroke-dasharray="5,2" d="M418.06,-45.73C460.73,-54.25 510.97,-67.61 524,-85 535.73,-100.65 531.25,-110.84 524,-129 519.45,-140.39 510.14,-137.87 505,-149 496.86,-166.62 487.01,-290.92 482.92,-347.01"/>
<polygon fill="#1f8a70" stroke="#1f8a70" stroke-width="1.5" points="480.15,-346.51 482.37,-354.7 485.74,-346.92 480.15,-346.51"/>
<text xml:space="preserve" text-anchor="middle" x="527.52" y="-193.07" font-family="Helvetica,sans-Serif" font-size="9.00" fill="#16735c">unseen inputs</text>
</g>
<!-- fb&#45;&gt;s_mut -->
<g id="edge13" class="edge">
<title>fb&#45;&gt;s_mut</title>
<path fill="none" stroke="#e67e22" stroke-width="1.5" stroke-dasharray="5,2" d="M418.26,-45.01C464.05,-53.44 519.73,-67.02 535,-85 604.56,-166.91 642.02,-292.88 655.78,-347.53"/>
<polygon fill="#e67e22" stroke="#e67e22" stroke-width="1.5" points="652.99,-347.87 657.61,-354.97 658.42,-346.53 652.99,-347.87"/>
<text xml:space="preserve" text-anchor="middle" x="659" y="-193.07" font-family="Helvetica,sans-Serif" font-size="9.00" fill="#b35e10">keep coverage&#45;growers</text>
</g>
</g>
</svg>
